999
DXF file: collector_2by3aluminum_draw_1.dxf
999
Pro/ENGINEER 2022073 by Parametric Technology Corporation
  0
SECTION
  2
HEADER
  9
$ACADVER
  1
AC1032
  9
$DWGCODEPAGE
  3
ANSI_1252
  9
$EXTMAX
 10
22.0
 20
17.0
 30
0.0
  9
$EXTMIN
 10
0.0
 20
0.0
 30
0.0
  9
$LIMMIN
 10
0.0
 20
0.0
  9
$LIMMAX
 10
22.0
 20
17.0
  9
$VIEWCTR
 10
11.0
 20
8.5
  9
$VIEWSIZE
 40
17.0
  9
$CLAYER
  8
0
  9
$LTSCALE
 40
1.21
  9
$CELTYPE
  6
BYLAYER
  9
$DIMSCALE
 40
1.0
  9
$DIMASZ
 40
0.1875
  9
$DIMEXO
 40
0.0625
  9
$DIMDLI
 40
0.836
  9
$DIMEXE
 40
0.125
  9
$DIMCEN
 40
0.198
  9
$DIMLFAC
 40
1.0
  9
$DIMBLK
  1
_FILLED
  9
$DIMALT
 70
0
  9
$DIMALTF
 40
25.4
  9
$DIMTXT
 40
0.15625
  9
$DIMTOL
 70
0
  9
$DIMLIM
 70
0
  9
$DIMTFAC
 40
1.0
  9
$DIMGAP
 40
0.09
  9
$DIMDSEP
 70
46
  9
$AUNITS
 70
0
  9
$PDMODE
 70
3
  9
$PDSIZE
 40
0.3125
  9
$HANDSEED
  5
49E
  9
$TILEMODE
 70
1
  9
$MEASUREMENT
 70
0
  9
$INSUNITS
 70
1
  0
ENDSEC
  0
SECTION
  2
CLASSES
  0
CLASS
  1
ACDBDICTIONARYWDFLT
  2
AcDbDictionaryWithDefault
  3
AutoCAD 2000
 90
0
 91
1
280
0
281
0
  0
CLASS
  1
ACDBPLACEHOLDER
  2
AcDbPlaceHolder
  3
AutoCAD 2000
 90
0
 91
1
280
0
281
0
  0
CLASS
  1
LAYOUT
  2
AcDbLayout
  3
AutoCAD 2000
 90
0
 91
0
280
0
281
0
  0
CLASS
  1
TABLESTYLE
  2
AcDbTableStyle
  3
ObjectDBX Classes
 90
2047
 91
1
280
0
281
0
  0
CLASS
  1
ACAD_TABLE
  2
AcDbTable
  3
ObjectDBX Classes
 90
1025
 91
9
280
0
281
1
  0
ENDSEC
  0
SECTION
  2
TABLES
  0
TABLE
  2
VPORT
  5
8
100
AcDbSymbolTable
 70
2
  0
VPORT
  5
1F4
100
AcDbSymbolTableRecord
100
AcDbViewportTableRecord
  2
*ACTIVE
 70
0
 10
0.0
 20
0.0
 11
1.0
 21
1.0
 12
11.0
 22
8.5
 13
0.0
 23
0.0
 14
1.0
 24
1.0
 15
0.0
 25
0.0
 16
0.0
 26
0.0
 36
1.0
 17
0.0
 27
0.0
 37
0.0
 40
17.0
 41
1.2941176471
 42
50.0
 43
0.0
 44
0.0
 50
0.0
 51
0.0
 71
0
 72
100
 73
1
 74
1
 75
0
 76
0
 77
0
 78
0
  0
ENDTAB
  0
TABLE
  2
LTYPE
  5
5
100
AcDbSymbolTable
 70
6
  0
LTYPE
  5
14
100
AcDbSymbolTableRecord
100
AcDbLinetypeTableRecord
  2
BYBLOCK
 70
0
  3

 72
65
 73
0
 40
0.0
  0
LTYPE
  5
15
100
AcDbSymbolTableRecord
100
AcDbLinetypeTableRecord
  2
BYLAYER
 70
0
  3

 72
65
 73
0
 40
0.0
  0
LTYPE
  5
16
100
AcDbSymbolTableRecord
100
AcDbLinetypeTableRecord
  2
CONTINUOUS
 70
64
  3
Solid line
 72
65
 73
0
 40
0.0
  0
LTYPE
  5
1F5
100
AcDbSymbolTableRecord
100
AcDbLinetypeTableRecord
  2
CENTER
 70
64
  3
____ _ ____ _ ____ _ ____ _ ____ _ ____ _ ____
 72
65
 73
4
 40
0.6
 49
0.375
 74
0
 49
-0.075
 74
0
 49
0.075
 74
0
 49
-0.075
 74
0
  0
LTYPE
  5
1F6
100
AcDbSymbolTableRecord
100
AcDbLinetypeTableRecord
  2
HIDDEN
 70
64
  3
- - - - - - - - - - - - - - - - - - - -
 72
65
 73
2
 40
0.2
 49
0.1
 74
0
 49
-0.1
 74
0
  0
LTYPE
  5
1F7
100
AcDbSymbolTableRecord
100
AcDbLinetypeTableRecord
  2
PHANTOM
 70
64
  3
_____ _ _ _____ _ _ _____ _ _ _____
 72
65
 73
6
 40
0.8
 49
0.45
 74
0
 49
-0.05
 74
0
 49
0.1
 74
0
 49
-0.05
 74
0
 49
0.1
 74
0
 49
-0.05
 74
0
  0
LTYPE
  5
1F8
100
AcDbSymbolTableRecord
100
AcDbLinetypeTableRecord
  2
DOT
 70
64
  3
. . . . . . . . . . . . . . . . . . . .
 72
65
 73
2
 40
0.2
 49
0.1
 74
0
 49
-0.1
 74
0
  0
LTYPE
  5
1F9
100
AcDbSymbolTableRecord
100
AcDbLinetypeTableRecord
  2
DASHED
 70
64
  3
- - - - - - - - - - - - - - - - - - - -
 72
65
 73
2
 40
0.2
 49
0.1
 74
0
 49
-0.1
 74
0
  0
ENDTAB
  0
TABLE
  2
LAYER
  5
2
100
AcDbSymbolTable
 70
36
  0
LAYER
  5
10
100
AcDbSymbolTableRecord
100
AcDbLayerTableRecord
  2
0
 70
0
 62
7
  6
CONTINUOUS
370
-3
390
F
  0
LAYER
  5
1FA
100
AcDbSymbolTableRecord
100
AcDbLayerTableRecord
  2
DEFAULT_1
 70
0
 62
7
  6
CENTER
370
-3
390
F
  0
LAYER
  5
1FB
100
AcDbSymbolTableRecord
100
AcDbLayerTableRecord
  2
DEFAULT_2
 70
0
 62
8
  6
HIDDEN
370
-3
390
F
  0
LAYER
  5
1FC
100
AcDbSymbolTableRecord
100
AcDbLayerTableRecord
  2
DEFAULT_3
 70
0
 62
7
  6
PHANTOM
370
-3
390
F
  0
LAYER
  5
1FD
100
AcDbSymbolTableRecord
100
AcDbLayerTableRecord
  2
01___PRT_ALL_DTM_PLN
 70
0
 62
7
  6
CONTINUOUS
370
-3
390
F
  0
LAYER
  5
1FE
100
AcDbSymbolTableRecord
100
AcDbLayerTableRecord
  2
01___PRT_DEF_DTM_PLN
 70
0
 62
7
  6
CONTINUOUS
370
-3
390
F
  0
LAYER
  5
1FF
100
AcDbSymbolTableRecord
100
AcDbLayerTableRecord
  2
02___PRT_ALL_AXES
 70
0
 62
7
  6
CONTINUOUS
370
-3
390
F
  0
LAYER
  5
200
100
AcDbSymbolTableRecord
100
AcDbLayerTableRecord
  2
03___PRT_ALL_CURVES
 70
0
 62
7
  6
CONTINUOUS
370
-3
390
F
  0
LAYER
  5
201
100
AcDbSymbolTableRecord
100
AcDbLayerTableRecord
  2
04___PRT_ALL_DTM_PNT
 70
0
 62
7
  6
CONTINUOUS
370
-3
390
F
  0
LAYER
  5
202
100
AcDbSymbolTableRecord
100
AcDbLayerTableRecord
  2
05___PRT_ALL_DTM_CSYS
 70
0
 62
7
  6
CONTINUOUS
370
-3
390
F
  0
LAYER
  5
203
100
AcDbSymbolTableRecord
100
AcDbLayerTableRecord
  2
05___PRT_DEF_DTM_CSYS
 70
0
 62
7
  6
CONTINUOUS
370
-3
390
F
  0
LAYER
  5
204
100
AcDbSymbolTableRecord
100
AcDbLayerTableRecord
  2
06___PRT_ALL_SURFS
 70
0
 62
7
  6
CONTINUOUS
370
-3
390
F
  0
ENDTAB
  0
TABLE
  2
STYLE
  5
3
100
AcDbSymbolTable
 70
1
  0
STYLE
  5
11
100
AcDbSymbolTableRecord
100
AcDbTextStyleTableRecord
  2
STANDARD
 70
0
 40
0.0
 41
0.8
 50
0.0
 71
0
 42
0.2
  3
txt
  4

  0
STYLE
  5
205
100
AcDbSymbolTableRecord
100
AcDbTextStyleTableRecord
  2
TEXTSTYLE_1
 70
0
 40
0.0
 41
0.8
 50
0.0
 71
0
 42
0.2
  3
gdt
  4

  0
STYLE
  5
206
100
AcDbSymbolTableRecord
100
AcDbTextStyleTableRecord
  2
TEXTSTYLE_2
 70
0
 40
0.0
 41
1.0
 50
0.0
 71
0
 42
0.2
  3
bluprntb.ttf
  4

1001
ACAD
1000
Blueprint MT
1071
33554466
  0
STYLE
  5
207
100
AcDbSymbolTableRecord
100
AcDbTextStyleTableRecord
  2
TEXTSTYLE_3
 70
0
 40
0.0
 41
1.0
 50
0.0
 71
0
 42
0.2
  3
bluprnt.ttf
  4

1001
ACAD
1000
Blueprint MT
1071
34
  0
STYLE
  5
208
100
AcDbSymbolTableRecord
100
AcDbTextStyleTableRecord
  2
TEXTSTYLE_4
 70
0
 40
0.0
 41
1.0
 50
0.0
 71
0
 42
0.2
  3
gdt
  4

  0
ENDTAB
  0
TABLE
  2
VIEW
  5
6
100
AcDbSymbolTable
 70
0
  0
ENDTAB
  0
TABLE
  2
UCS
  5
7
100
AcDbSymbolTable
 70
0
  0
ENDTAB
  0
TABLE
  2
APPID
  5
9
100
AcDbSymbolTable
 70
1
  0
APPID
  5
209
100
AcDbSymbolTableRecord
100
AcDbRegAppTableRecord
  2
ACAD
 70
0
  0
ENDTAB
  0
TABLE
  2
BLOCK_RECORD
  5
1
100
AcDbSymbolTable
 70
0
  0
BLOCK_RECORD
  5
20A
100
AcDbSymbolTableRecord
100
AcDbBlockTableRecord
  2
*Model_Space
  0
BLOCK_RECORD
  5
20B
100
AcDbSymbolTableRecord
100
AcDbBlockTableRecord
  2
*Paper_Space
  0
BLOCK_RECORD
  5
20C
100
AcDbSymbolTableRecord
100
AcDbBlockTableRecord
  2
_FILLED
  0
BLOCK_RECORD
  5
20D
100
AcDbSymbolTableRecord
100
AcDbBlockTableRecord
  2
*D0
  0
BLOCK_RECORD
  5
20E
100
AcDbSymbolTableRecord
100
AcDbBlockTableRecord
  2
*D1
  0
BLOCK_RECORD
  5
20F
100
AcDbSymbolTableRecord
100
AcDbBlockTableRecord
  2
*D2
  0
BLOCK_RECORD
  5
210
100
AcDbSymbolTableRecord
100
AcDbBlockTableRecord
  2
*D3
  0
BLOCK_RECORD
  5
211
100
AcDbSymbolTableRecord
100
AcDbBlockTableRecord
  2
*D4
  0
BLOCK_RECORD
  5
212
100
AcDbSymbolTableRecord
100
AcDbBlockTableRecord
  2
*D5
  0
BLOCK_RECORD
  5
213
100
AcDbSymbolTableRecord
100
AcDbBlockTableRecord
  2
*D6
  0
BLOCK_RECORD
  5
214
100
AcDbSymbolTableRecord
100
AcDbBlockTableRecord
  2
*D7
  0
BLOCK_RECORD
  5
215
100
AcDbSymbolTableRecord
100
AcDbBlockTableRecord
  2
*D8
  0
BLOCK_RECORD
  5
216
100
AcDbSymbolTableRecord
100
AcDbBlockTableRecord
  2
*D9
  0
BLOCK_RECORD
  5
217
100
AcDbSymbolTableRecord
100
AcDbBlockTableRecord
  2
*D10
  0
BLOCK_RECORD
  5
218
100
AcDbSymbolTableRecord
100
AcDbBlockTableRecord
  2
*D11
  0
BLOCK_RECORD
  5
219
100
AcDbSymbolTableRecord
100
AcDbBlockTableRecord
  2
*D12
  0
BLOCK_RECORD
  5
21A
100
AcDbSymbolTableRecord
100
AcDbBlockTableRecord
  2
*D13
  0
BLOCK_RECORD
  5
21B
100
AcDbSymbolTableRecord
100
AcDbBlockTableRecord
  2
*D14
  0
BLOCK_RECORD
  5
21C
100
AcDbSymbolTableRecord
100
AcDbBlockTableRecord
  2
*D15
  0
BLOCK_RECORD
  5
21D
100
AcDbSymbolTableRecord
100
AcDbBlockTableRecord
  2
*D16
  0
BLOCK_RECORD
  5
21E
100
AcDbSymbolTableRecord
100
AcDbBlockTableRecord
  2
*T1
  0
BLOCK_RECORD
  5
21F
100
AcDbSymbolTableRecord
100
AcDbBlockTableRecord
  2
*T2
  0
BLOCK_RECORD
  5
220
100
AcDbSymbolTableRecord
100
AcDbBlockTableRecord
  2
*T3
  0
BLOCK_RECORD
  5
221
100
AcDbSymbolTableRecord
100
AcDbBlockTableRecord
  2
*T4
  0
BLOCK_RECORD
  5
222
100
AcDbSymbolTableRecord
100
AcDbBlockTableRecord
  2
*T5
  0
BLOCK_RECORD
  5
223
100
AcDbSymbolTableRecord
100
AcDbBlockTableRecord
  2
*T6
  0
BLOCK_RECORD
  5
224
100
AcDbSymbolTableRecord
100
AcDbBlockTableRecord
  2
*T7
  0
BLOCK_RECORD
  5
225
100
AcDbSymbolTableRecord
100
AcDbBlockTableRecord
  2
*T8
  0
BLOCK_RECORD
  5
226
100
AcDbSymbolTableRecord
100
AcDbBlockTableRecord
  2
*T9
  0
ENDTAB
  0
TABLE
  2
DIMSTYLE
  5
A
100
AcDbSymbolTable
 70
1
100
AcDbDimStyleTable
 71
0
  0
DIMSTYLE
105
227
100
AcDbSymbolTableRecord
100
AcDbDimStyleTableRecord
  2
STANDARD
 70
0
  3

  4

 40
1.0
 41
0.1875
 42
0.0625
 43
0.38
 44
0.125
 45
0.0
 46
0.0
 47
0.01
 48
0.01
140
0.15625
141
0.09
142
0.0
143
25.4
144
1.0
145
0.0
146
1.0
147
0.09
 71
0
 72
0
 73
1
 74
1
 75
0
 76
0
 77
0
 78
4
 79
1
170
0
171
1
172
0
173
0
174
0
175
0
176
0
177
0
178
0
270
2
179
2
271
2
272
2
273
2
274
2
275
0
280
0
281
0
282
0
283
1
284
4
285
0
286
0
287
3
288
0
340
11
278
46
341
20C
342
20C
343
20C
344
20C
  0
DIMSTYLE
105
228
100
AcDbSymbolTableRecord
100
AcDbDimStyleTableRecord
  2
DIMSTYLE_1
 70
0
  3

  4

 40
1.0
 41
0.1875
 42
0.0625
 43
0.38
 44
0.125
 45
0.0
 46
0.0
 47
0.0
 48
0.0
140
0.15625
141
0.09
142
0.0
143
25.4
144
0.8
145
0.0
146
1.0
147
0.078125
 71
0
 72
0
 73
1
 74
1
 75
0
 76
0
 77
0
 78
4
 79
1
170
0
171
1
172
0
173
0
174
0
175
0
176
0
177
0
178
0
270
2
179
2
271
2
272
2
273
2
274
2
275
0
280
0
281
0
282
0
283
1
284
4
285
0
286
0
287
3
288
0
340
11
278
46
341
20C
342
20C
343
20C
344
20C
  0
DIMSTYLE
105
229
100
AcDbSymbolTableRecord
100
AcDbDimStyleTableRecord
  2
DIMSTYLE_2
 70
0
  3
<>
  4

 40
1.0
 41
0.1875
 42
0.0625
 43
0.38
 44
0.125
 45
0.0
 46
0.0
 47
0.0
 48
0.0
140
0.15625
141
0.09
142
0.0
143
25.4
144
0.8
145
0.0
146
1.0
147
0.09
 71
0
 72
0
 73
1
 74
1
 75
0
 76
0
 77
0
 78
4
 79
1
170
0
171
1
172
0
173
0
174
0
175
0
176
0
177
0
178
0
270
2
179
2
271
2
272
2
273
2
274
2
275
0
280
0
281
0
282
0
283
1
284
4
285
0
286
0
287
3
288
0
340
11
278
46
341
20C
342
20C
343
20C
344
20C
  0
DIMSTYLE
105
22A
100
AcDbSymbolTableRecord
100
AcDbDimStyleTableRecord
  2
DIMSTYLE_3
 70
0
  3

  4

 40
1.0
 41
0.1875
 42
0.0625
 43
0.38
 44
0.125
 45
0.0
 46
0.0
 47
0.0
 48
0.0
140
0.15625
141
0.09
142
0.0
143
25.4
144
0.8
145
0.0
146
1.0
147
0.078125
 71
0
 72
0
 73
1
 74
1
 75
0
 76
0
 77
0
 78
4
 79
1
170
0
171
1
172
0
173
0
174
0
175
0
176
0
177
0
178
0
270
2
179
2
271
3
272
2
273
2
274
2
275
0
280
0
281
0
282
0
283
1
284
4
285
0
286
0
287
3
288
0
340
11
278
46
341
20C
342
20C
343
20C
344
20C
  0
ENDTAB
  0
ENDSEC
  0
SECTION
  2
BLOCKS
  0
BLOCK
  5
20
100
AcDbEntity
  8
0
100
AcDbBlockBegin
  2
*Model_Space
 70
0
 10
0.0
 20
0.0
 30
0.0
  3
*Model_Space
  1

  0
ENDBLK
  5
21
100
AcDbEntity
  8
0
100
AcDbBlockEnd
  0
BLOCK
  5
1C
100
AcDbEntity
  8
0
100
AcDbBlockBegin
  2
*Paper_Space
 70
0
 10
0.0
 20
0.0
 30
0.0
  3
*Paper_Space
  1

  0
ENDBLK
  5
1D
100
AcDbEntity
  8
0
100
AcDbBlockEnd
  0
BLOCK
  5
22B
100
AcDbEntity
  8
0
100
AcDbBlockBegin
  2
_FILLED
 70
64
 10
0.0
 20
0.0
  3
_FILLED
  1

  0
SOLID
  5
22C
100
AcDbEntity
  8
0
  6
BYBLOCK
 62
0
100
AcDbTrace
 10
0.0
 20
0.0
 11
-1.0
 21
0.1666666667
 12
-1.0
 22
-0.1666666667
 13
-1.0
 23
-0.1666666667
  0
ENDBLK
  5
22D
100
AcDbEntity
  8
0
  6
BYBLOCK
 62
0
100
AcDbBlockEnd
  0
BLOCK
  5
22E
100
AcDbEntity
  8
0
100
AcDbBlockBegin
 62
7
  6
CONTINUOUS
  2
*D0
 70
65
 10
0.0
 20
0.0
  3
*D0
  1

  0
MTEXT
  5
22F
100
AcDbEntity
  8
0
100
AcDbMText
 62
7
  6
CONTINUOUS
  7
STANDARD
 71
2
 72
1
 10
13.7185799143
 20
9.7304719549
 30
0.0
 11
1.0
 21
0.0
 31
0.0
 73
2
 44
0.9
  1
3.13
 40
0.15625
 41
0.5
  0
LINE
  5
230
100
AcDbEntity
  8
0
100
AcDbLine
 62
7
  6
CONTINUOUS
 10
15.7594974368
 20
9.2194667849
 11
15.7594974368
 21
9.7773469549
  0
LINE
  5
231
100
AcDbEntity
  8
0
100
AcDbLine
 62
7
  6
CONTINUOUS
 10
11.8532474368
 20
9.2194667849
 11
11.8532474368
 21
9.7773469549
  0
LINE
  5
232
100
AcDbEntity
  8
0
100
AcDbLine
 62
7
  6
CONTINUOUS
 10
15.7594974368
 20
9.6523469549
 11
14.0467049143
 21
9.6523469549
  0
LINE
  5
233
100
AcDbEntity
  8
0
100
AcDbLine
 62
7
  6
CONTINUOUS
 10
11.8532474368
 20
9.6523469549
 11
13.3904549143
 21
9.6523469549
  0
INSERT
  5
234
100
AcDbEntity
  8
0
100
AcDbBlockReference
 62
7
  6
CONTINUOUS
  2
_FILLED
 10
15.7594974368
 20
9.6523469549
 41
0.1875
 42
0.1875
 43
0.1875
  0
INSERT
  5
235
100
AcDbEntity
  8
0
100
AcDbBlockReference
 62
7
  6
CONTINUOUS
  2
_FILLED
 10
11.8532474368
 20
9.6523469549
 41
0.1875
 42
0.1875
 43
0.1875
 50
180.0
  0
ENDBLK
  5
236
100
AcDbEntity
  8
0
  6
BYBLOCK
 62
0
100
AcDbBlockEnd
  0
BLOCK
  5
237
100
AcDbEntity
  8
0
100
AcDbBlockBegin
 62
7
  6
CONTINUOUS
  2
*D1
 70
65
 10
0.0
 20
0.0
  3
*D1
  1

  0
MTEXT
  5
238
100
AcDbEntity
  8
0
100
AcDbMText
 62
7
  6
CONTINUOUS
  7
STANDARD
 71
2
 72
1
 10
8.2160399311
 20
7.9850917849
 30
0.0
 11
1.0
 21
0.0
 31
0.0
 73
2
 44
0.9
  1
2.00
 40
0.15625
 41
0.5
  0
LINE
  5
239
100
AcDbEntity
  8
0
100
AcDbLine
 62
7
  6
CONTINUOUS
 10
6.9030579468
 20
6.6569667849
 11
8.3410399311
 21
6.6569667849
  0
LINE
  5
23A
100
AcDbEntity
  8
0
100
AcDbLine
 62
7
  6
CONTINUOUS
 10
6.9030579468
 20
9.1569667849
 11
8.3410399311
 21
9.1569667849
  0
LINE
  5
23B
100
AcDbEntity
  8
0
100
AcDbLine
 62
7
  6
CONTINUOUS
 10
8.2160399311
 20
6.6569667849
 11
8.2160399311
 21
7.7507167849
  0
LINE
  5
23C
100
AcDbEntity
  8
0
100
AcDbLine
 62
7
  6
CONTINUOUS
 10
8.2160399311
 20
9.1569667849
 11
8.2160399311
 21
8.0632167849
  0
INSERT
  5
23D
100
AcDbEntity
  8
0
100
AcDbBlockReference
 62
7
  6
CONTINUOUS
  2
_FILLED
 10
8.2160399311
 20
6.6569667849
 41
0.1875
 42
0.1875
 43
0.1875
 50
270.0
  0
INSERT
  5
23E
100
AcDbEntity
  8
0
100
AcDbBlockReference
 62
7
  6
CONTINUOUS
  2
_FILLED
 10
8.2160399311
 20
9.1569667849
 41
0.1875
 42
0.1875
 43
0.1875
 50
90.0
  0
ENDBLK
  5
23F
100
AcDbEntity
  8
0
  6
BYBLOCK
 62
0
100
AcDbBlockEnd
  0
BLOCK
  5
240
100
AcDbEntity
  8
0
100
AcDbBlockBegin
 62
7
  6
CONTINUOUS
  2
*D2
 70
65
 10
0.0
 20
0.0
  3
*D2
  1

  0
MTEXT
  5
241
100
AcDbEntity
  8
0
100
AcDbMText
 62
7
  6
CONTINUOUS
  7
STANDARD
 71
2
 72
1
 10
7.3078278472
 20
7.9998793224
 30
0.0
 11
1.0
 21
0.0
 31
0.0
 73
2
 44
0.9
  1
1.50
 40
0.15625
 41
0.5
  0
LINE
  5
242
100
AcDbEntity
  8
0
100
AcDbLine
 62
7
  6
CONTINUOUS
 10
6.5905579468
 20
8.8444667849
 11
7.4328278472
 21
8.8444667849
  0
LINE
  5
243
100
AcDbEntity
  8
0
100
AcDbLine
 62
7
  6
CONTINUOUS
 10
6.5905579468
 20
6.9694667849
 11
7.4328278472
 21
6.9694667849
  0
LINE
  5
244
100
AcDbEntity
  8
0
100
AcDbLine
 62
7
  6
CONTINUOUS
 10
7.3078278472
 20
8.8444667849
 11
7.3078278472
 21
8.0780043224
  0
LINE
  5
245
100
AcDbEntity
  8
0
100
AcDbLine
 62
7
  6
CONTINUOUS
 10
7.3078278472
 20
6.9694667849
 11
7.3078278472
 21
7.7655043224
  0
INSERT
  5
246
100
AcDbEntity
  8
0
100
AcDbBlockReference
 62
7
  6
CONTINUOUS
  2
_FILLED
 10
7.3078278472
 20
8.8444667849
 41
0.1875
 42
0.1875
 43
0.1875
 50
90.0
  0
INSERT
  5
247
100
AcDbEntity
  8
0
100
AcDbBlockReference
 62
7
  6
CONTINUOUS
  2
_FILLED
 10
7.3078278472
 20
6.9694667849
 41
0.1875
 42
0.1875
 43
0.1875
 50
270.0
  0
ENDBLK
  5
248
100
AcDbEntity
  8
0
  6
BYBLOCK
 62
0
100
AcDbBlockEnd
  0
BLOCK
  5
249
100
AcDbEntity
  8
0
100
AcDbBlockBegin
 62
7
  6
CONTINUOUS
  2
*D3
 70
65
 10
0.0
 20
0.0
  3
*D3
  1

  0
MTEXT
  5
24A
100
AcDbEntity
  8
0
100
AcDbMText
 62
7
  6
CONTINUOUS
  7
STANDARD
 71
2
 72
1
 10
4.9655579468
 20
9.5337177974
 30
0.0
 11
1.0
 21
0.0
 31
0.0
 73
2
 44
0.9
  1
3.00
 40
0.15625
 41
0.5
  0
LINE
  5
24B
100
AcDbEntity
  8
0
100
AcDbLine
 62
7
  6
CONTINUOUS
 10
3.0905579468
 20
9.2001585742
 11
3.0905579468
 21
9.5805927974
  0
LINE
  5
24C
100
AcDbEntity
  8
0
100
AcDbLine
 62
7
  6
CONTINUOUS
 10
6.8405579468
 20
9.2474098464
 11
6.8405579468
 21
9.5805927974
  0
LINE
  5
24D
100
AcDbEntity
  8
0
100
AcDbLine
 62
7
  6
CONTINUOUS
 10
3.0905579468
 20
9.4555927974
 11
4.6374329468
 21
9.4555927974
  0
LINE
  5
24E
100
AcDbEntity
  8
0
100
AcDbLine
 62
7
  6
CONTINUOUS
 10
6.8405579468
 20
9.4555927974
 11
5.2936829468
 21
9.4555927974
  0
INSERT
  5
24F
100
AcDbEntity
  8
0
100
AcDbBlockReference
 62
7
  6
CONTINUOUS
  2
_FILLED
 10
3.0905579468
 20
9.4555927974
 41
0.1875
 42
0.1875
 43
0.1875
 50
180.0
  0
INSERT
  5
250
100
AcDbEntity
  8
0
100
AcDbBlockReference
 62
7
  6
CONTINUOUS
  2
_FILLED
 10
6.8405579468
 20
9.4555927974
 41
0.1875
 42
0.1875
 43
0.1875
  0
ENDBLK
  5
251
100
AcDbEntity
  8
0
  6
BYBLOCK
 62
0
100
AcDbBlockEnd
  0
BLOCK
  5
252
100
AcDbEntity
  8
0
100
AcDbBlockBegin
 62
7
  6
CONTINUOUS
  2
*D4
 70
65
 10
0.0
 20
0.0
  3
*D4
  1

  0
MTEXT
  5
253
100
AcDbEntity
  8
0
100
AcDbMText
 62
7
  6
CONTINUOUS
  7
STANDARD
 71
2
 72
1
 10
13.8258288848
 20
6.472077887
 30
0.0
 11
1.0
 21
0.0
 31
0.0
 73
2
 44
0.9
  1
2.00
 40
0.15625
 41
0.5
  0
LINE
  5
254
100
AcDbEntity
  8
0
100
AcDbLine
 62
7
  6
CONTINUOUS
 10
12.5563724368
 20
6.5944667849
 11
12.5563724368
 21
6.268952887
  0
LINE
  5
255
100
AcDbEntity
  8
0
100
AcDbLine
 62
7
  6
CONTINUOUS
 10
15.0563724368
 20
6.5944667849
 11
15.0563724368
 21
6.268952887
  0
LINE
  5
256
100
AcDbEntity
  8
0
100
AcDbLine
 62
7
  6
CONTINUOUS
 10
12.5563724368
 20
6.393952887
 11
13.4977038848
 21
6.393952887
  0
LINE
  5
257
100
AcDbEntity
  8
0
100
AcDbLine
 62
7
  6
CONTINUOUS
 10
15.0563724368
 20
6.393952887
 11
14.1539538848
 21
6.393952887
  0
INSERT
  5
258
100
AcDbEntity
  8
0
100
AcDbBlockReference
 62
7
  6
CONTINUOUS
  2
_FILLED
 10
12.5563724368
 20
6.393952887
 41
0.1875
 42
0.1875
 43
0.1875
 50
180.0
  0
INSERT
  5
259
100
AcDbEntity
  8
0
100
AcDbBlockReference
 62
7
  6
CONTINUOUS
  2
_FILLED
 10
15.0563724368
 20
6.393952887
 41
0.1875
 42
0.1875
 43
0.1875
  0
ENDBLK
  5
25A
100
AcDbEntity
  8
0
  6
BYBLOCK
 62
0
100
AcDbBlockEnd
  0
BLOCK
  5
25B
100
AcDbEntity
  8
0
100
AcDbBlockBegin
 62
7
  6
CONTINUOUS
  2
*D5
 70
65
 10
0.0
 20
0.0
  3
*D5
  1

  0
MTEXT
  5
25C
100
AcDbEntity
  8
0
100
AcDbMText
 62
7
  6
CONTINUOUS
  7
STANDARD
 71
1
 72
1
 10
13.2022202673
 20
7.2928859837
 30
0.0
 11
1.0
 21
0.0
 31
0.0
 73
2
 44
0.9
  1
R.08
 40
0.15625
 41
0.5
  0
LINE
  5
25D
100
AcDbEntity
  8
0
100
AcDbLine
 62
7
  6
CONTINUOUS
 10
12.5973576082
 20
7.7001962715
 11
12.9522202673
 21
7.2147609837
  0
LINE
  5
25E
100
AcDbEntity
  8
0
100
AcDbLine
 62
7
  6
CONTINUOUS
 10
12.9522202673
 20
7.2147609837
 11
13.1240952673
 21
7.2147609837
  0
INSERT
  5
25F
100
AcDbEntity
  8
0
100
AcDbBlockReference
 62
7
  6
CONTINUOUS
  2
_FILLED
 10
12.5973576082
 20
7.7001962715
 41
0.1875
 42
0.1875
 43
0.1875
 50
126.167531704
  0
ENDBLK
  5
260
100
AcDbEntity
  8
0
  6
BYBLOCK
 62
0
100
AcDbBlockEnd
  0
BLOCK
  5
261
100
AcDbEntity
  8
0
100
AcDbBlockBegin
 62
7
  6
CONTINUOUS
  2
*D6
 70
65
 10
0.0
 20
0.0
  3
*D6
  1

  0
MTEXT
  5
262
100
AcDbEntity
  8
0
100
AcDbMText
 62
7
  6
CONTINUOUS
  7
STANDARD
 71
2
 72
1
 10
16.3332536187
 20
7.3064423674
 30
0.0
 11
1.0
 21
0.0
 31
0.0
 73
2
 44
0.9
  1
.85
 40
0.15625
 41
0.375
  0
LINE
  5
263
100
AcDbEntity
  8
0
100
AcDbLine
 62
7
  6
CONTINUOUS
 10
15.8219974368
 20
6.6569667849
 11
16.4582536187
 21
6.6569667849
  0
LINE
  5
264
100
AcDbEntity
  8
0
100
AcDbLine
 62
7
  6
CONTINUOUS
 10
15.1913741384
 20
7.7194667849
 11
16.4582536187
 21
7.7194667849
  0
LINE
  5
265
100
AcDbEntity
  8
0
100
AcDbLine
 62
7
  6
CONTINUOUS
 10
16.3332536187
 20
6.6569667849
 11
16.3332536187
 21
7.0720673674
  0
LINE
  5
266
100
AcDbEntity
  8
0
100
AcDbLine
 62
7
  6
CONTINUOUS
 10
16.3332536187
 20
7.7194667849
 11
16.3332536187
 21
7.3845673674
  0
INSERT
  5
267
100
AcDbEntity
  8
0
100
AcDbBlockReference
 62
7
  6
CONTINUOUS
  2
_FILLED
 10
16.3332536187
 20
6.6569667849
 41
0.1875
 42
0.1875
 43
0.1875
 50
270.0
  0
INSERT
  5
268
100
AcDbEntity
  8
0
100
AcDbBlockReference
 62
7
  6
CONTINUOUS
  2
_FILLED
 10
16.3332536187
 20
7.7194667849
 41
0.1875
 42
0.1875
 43
0.1875
 50
90.0
  0
ENDBLK
  5
269
100
AcDbEntity
  8
0
  6
BYBLOCK
 62
0
100
AcDbBlockEnd
  0
BLOCK
  5
26A
100
AcDbEntity
  8
0
100
AcDbBlockBegin
 62
7
  6
CONTINUOUS
  2
*D7
 70
65
 10
0.0
 20
0.0
  3
*D7
  1

  0
MTEXT
  5
26B
100
AcDbEntity
  8
0
100
AcDbMText
 62
7
  6
CONTINUOUS
  7
STANDARD
 71
2
 72
1
 10
7.4262095203
 20
13.3597299508
 30
0.0
 11
1.0
 21
0.0
 31
0.0
 73
2
 44
0.9
  1
2.25
 40
0.15625
 41
0.5
  0
LINE
  5
26C
100
AcDbEntity
  8
0
100
AcDbLine
 62
7
  6
CONTINUOUS
 10
6.3933704468
 20
11.8224409155
 11
7.5512095203
 21
11.8224409155
  0
LINE
  5
26D
100
AcDbEntity
  8
0
100
AcDbLine
 62
7
  6
CONTINUOUS
 10
6.3933704468
 20
14.6349409155
 11
7.5512095203
 21
14.6349409155
  0
LINE
  5
26E
100
AcDbEntity
  8
0
100
AcDbLine
 62
7
  6
CONTINUOUS
 10
7.4262095203
 20
11.8224409155
 11
7.4262095203
 21
13.1253549508
  0
LINE
  5
26F
100
AcDbEntity
  8
0
100
AcDbLine
 62
7
  6
CONTINUOUS
 10
7.4262095203
 20
14.6349409155
 11
7.4262095203
 21
13.4378549508
  0
INSERT
  5
270
100
AcDbEntity
  8
0
100
AcDbBlockReference
 62
7
  6
CONTINUOUS
  2
_FILLED
 10
7.4262095203
 20
11.8224409155
 41
0.1875
 42
0.1875
 43
0.1875
 50
270.0
  0
INSERT
  5
271
100
AcDbEntity
  8
0
100
AcDbBlockReference
 62
7
  6
CONTINUOUS
  2
_FILLED
 10
7.4262095203
 20
14.6349409155
 41
0.1875
 42
0.1875
 43
0.1875
 50
90.0
  0
ENDBLK
  5
272
100
AcDbEntity
  8
0
  6
BYBLOCK
 62
0
100
AcDbBlockEnd
  0
BLOCK
  5
273
100
AcDbEntity
  8
0
100
AcDbBlockBegin
 62
7
  6
CONTINUOUS
  2
*D8
 70
65
 10
0.0
 20
0.0
  3
*D8
  1

  0
MTEXT
  5
274
100
AcDbEntity
  8
0
100
AcDbMText
 62
7
  6
CONTINUOUS
  7
STANDARD
 71
2
 72
1
 10
4.8986845881
 20
10.9822064983
 30
0.0
 11
1.0
 21
0.0
 31
0.0
 73
2
 44
0.9
  1
1.88
 40
0.15625
 41
0.5
  0
LINE
  5
275
100
AcDbEntity
  8
0
100
AcDbLine
 62
7
  6
CONTINUOUS
 10
3.7936829468
 20
11.5665034155
 11
3.7936829468
 21
10.7790814983
  0
LINE
  5
276
100
AcDbEntity
  8
0
100
AcDbLine
 62
7
  6
CONTINUOUS
 10
6.1374329468
 20
11.5665034155
 11
6.1374329468
 21
10.7790814983
  0
LINE
  5
277
100
AcDbEntity
  8
0
100
AcDbLine
 62
7
  6
CONTINUOUS
 10
3.7936829468
 20
10.9040814983
 11
4.5705595881
 21
10.9040814983
  0
LINE
  5
278
100
AcDbEntity
  8
0
100
AcDbLine
 62
7
  6
CONTINUOUS
 10
6.1374329468
 20
10.9040814983
 11
5.2268095881
 21
10.9040814983
  0
INSERT
  5
279
100
AcDbEntity
  8
0
100
AcDbBlockReference
 62
7
  6
CONTINUOUS
  2
_FILLED
 10
3.7936829468
 20
10.9040814983
 41
0.1875
 42
0.1875
 43
0.1875
 50
180.0
  0
INSERT
  5
27A
100
AcDbEntity
  8
0
100
AcDbBlockReference
 62
7
  6
CONTINUOUS
  2
_FILLED
 10
6.1374329468
 20
10.9040814983
 41
0.1875
 42
0.1875
 43
0.1875
  0
ENDBLK
  5
27B
100
AcDbEntity
  8
0
  6
BYBLOCK
 62
0
100
AcDbBlockEnd
  0
BLOCK
  5
27C
100
AcDbEntity
  8
0
100
AcDbBlockBegin
 62
7
  6
CONTINUOUS
  2
*D9
 70
65
 10
0.0
 20
0.0
  3
*D9
  1

  0
MTEXT
  5
27D
100
AcDbEntity
  8
0
100
AcDbMText
 62
7
  6
CONTINUOUS
  7
STANDARD
 71
2
 72
1
 10
6.4340689836
 20
10.7131012187
 30
0.0
 11
1.0
 21
0.0
 31
0.0
 73
2
 44
0.9
  1
.56
 40
0.15625
 41
0.375
  0
LINE
  5
27E
100
AcDbEntity
  8
0
100
AcDbLine
 62
7
  6
CONTINUOUS
 10
6.1374329468
 20
11.5665034155
 11
6.1374329468
 21
10.5099762187
  0
LINE
  5
27F
100
AcDbEntity
  8
0
100
AcDbLine
 62
7
  6
CONTINUOUS
 10
6.8405579468
 20
11.2130659155
 11
6.8405579468
 21
10.5099762187
  0
LINE
  5
280
100
AcDbEntity
  8
0
100
AcDbLine
 62
7
  6
CONTINUOUS
 10
6.1374329468
 20
10.6349762187
 11
5.6374329468
 21
10.6349762187
  0
LINE
  5
281
100
AcDbEntity
  8
0
100
AcDbLine
 62
7
  6
CONTINUOUS
 10
6.8405579468
 20
10.6349762187
 11
7.3405579468
 21
10.6349762187
  0
INSERT
  5
282
100
AcDbEntity
  8
0
100
AcDbBlockReference
 62
7
  6
CONTINUOUS
  2
_FILLED
 10
6.1374329468
 20
10.6349762187
 41
0.1875
 42
0.1875
 43
0.1875
  0
INSERT
  5
283
100
AcDbEntity
  8
0
100
AcDbBlockReference
 62
7
  6
CONTINUOUS
  2
_FILLED
 10
6.8405579468
 20
10.6349762187
 41
0.1875
 42
0.1875
 43
0.1875
 50
180.0
  0
ENDBLK
  5
284
100
AcDbEntity
  8
0
  6
BYBLOCK
 62
0
100
AcDbBlockEnd
  0
BLOCK
  5
285
100
AcDbEntity
  8
0
100
AcDbBlockBegin
 62
7
  6
CONTINUOUS
  2
*D10
 70
65
 10
0.0
 20
0.0
  3
*D10
  1

  0
MTEXT
  5
286
100
AcDbEntity
  8
0
100
AcDbMText
 62
7
  6
CONTINUOUS
  7
STANDARD
 71
1
 72
1
 10
8.0787707413
 20
10.9312153703
 30
0.0
 11
1.0
 21
0.0
 31
0.0
 73
2
 44
0.9
  1
.44
 40
0.15625
 41
0.375
  0
LINE
  5
287
100
AcDbEntity
  8
0
100
AcDbLine
 62
7
  6
CONTINUOUS
 10
6.3933704468
 20
11.8224409155
 11
7.9537707413
 21
11.8224409155
  0
LINE
  5
288
100
AcDbEntity
  8
0
100
AcDbLine
 62
7
  6
CONTINUOUS
 10
6.9030579468
 20
11.2755659155
 11
7.9537707413
 21
11.2755659155
  0
LINE
  5
289
100
AcDbEntity
  8
0
100
AcDbLine
 62
7
  6
CONTINUOUS
 10
7.8287707413
 20
11.8224409155
 11
7.8287707413
 21
12.3224409155
  0
LINE
  5
28A
100
AcDbEntity
  8
0
100
AcDbLine
 62
7
  6
CONTINUOUS
 10
7.8287707413
 20
11.2755659155
 11
7.8287707413
 21
10.8530903703
  0
LINE
  5
28B
100
AcDbEntity
  8
0
100
AcDbLine
 62
7
  6
CONTINUOUS
 10
7.8287707413
 20
10.8530903703
 11
8.0006457413
 21
10.8530903703
  0
INSERT
  5
28C
100
AcDbEntity
  8
0
100
AcDbBlockReference
 62
7
  6
CONTINUOUS
  2
_FILLED
 10
7.8287707413
 20
11.8224409155
 41
0.1875
 42
0.1875
 43
0.1875
 50
270.0
  0
INSERT
  5
28D
100
AcDbEntity
  8
0
100
AcDbBlockReference
 62
7
  6
CONTINUOUS
  2
_FILLED
 10
7.8287707413
 20
11.2755659155
 41
0.1875
 42
0.1875
 43
0.1875
 50
90.0
  0
ENDBLK
  5
28E
100
AcDbEntity
  8
0
  6
BYBLOCK
 62
0
100
AcDbBlockEnd
  0
BLOCK
  5
28F
100
AcDbEntity
  8
0
100
AcDbBlockBegin
 62
7
  6
CONTINUOUS
  2
*D11
 70
65
 10
0.0
 20
0.0
  3
*D11
  1

  0
MTEXT
  5
290
100
AcDbEntity
  8
0
100
AcDbMText
 62
7
  6
CONTINUOUS
  7
STANDARD
 71
2
 72
1
 10
7.4582305199
 20
3.1140513154
 30
0.0
 11
1.0
 21
0.0
 31
0.0
 73
2
 44
0.9
  1
2.40
 40
0.15625
 41
0.5
  0
LINE
  5
291
100
AcDbEntity
  8
0
100
AcDbLine
 62
7
  6
CONTINUOUS
 10
6.6233453516
 20
4.6828630371
 11
7.5832305199
 21
4.6828630371
  0
LINE
  5
292
100
AcDbEntity
  8
0
100
AcDbLine
 62
7
  6
CONTINUOUS
 10
6.6233453516
 20
1.6828630371
 11
7.5832305199
 21
1.6828630371
  0
LINE
  5
293
100
AcDbEntity
  8
0
100
AcDbLine
 62
7
  6
CONTINUOUS
 10
7.4582305199
 20
4.6828630371
 11
7.4582305199
 21
3.1921763154
  0
LINE
  5
294
100
AcDbEntity
  8
0
100
AcDbLine
 62
7
  6
CONTINUOUS
 10
7.4582305199
 20
1.6828630371
 11
7.4582305199
 21
2.8796763154
  0
INSERT
  5
295
100
AcDbEntity
  8
0
100
AcDbBlockReference
 62
7
  6
CONTINUOUS
  2
_FILLED
 10
7.4582305199
 20
4.6828630371
 41
0.1875
 42
0.1875
 43
0.1875
 50
90.0
  0
INSERT
  5
296
100
AcDbEntity
  8
0
100
AcDbBlockReference
 62
7
  6
CONTINUOUS
  2
_FILLED
 10
7.4582305199
 20
1.6828630371
 41
0.1875
 42
0.1875
 43
0.1875
 50
270.0
  0
ENDBLK
  5
297
100
AcDbEntity
  8
0
  6
BYBLOCK
 62
0
100
AcDbBlockEnd
  0
BLOCK
  5
298
100
AcDbEntity
  8
0
100
AcDbBlockBegin
 62
7
  6
CONTINUOUS
  2
*D12
 70
65
 10
0.0
 20
0.0
  3
*D12
  1

  0
MTEXT
  5
299
100
AcDbEntity
  8
0
100
AcDbMText
 62
7
  6
CONTINUOUS
  7
STANDARD
 71
2
 72
1
 10
5.0207064755
 20
5.5234500824
 30
0.0
 11
1.0
 21
0.0
 31
0.0
 73
2
 44
0.9
  1
2.13
 40
0.15625
 41
0.5
  0
LINE
  5
29A
100
AcDbEntity
  8
0
100
AcDbLine
 62
7
  6
CONTINUOUS
 10
3.7111578516
 20
4.9388005371
 11
3.7111578516
 21
5.5703250824
  0
LINE
  5
29B
100
AcDbEntity
  8
0
100
AcDbLine
 62
7
  6
CONTINUOUS
 10
6.3674078516
 20
4.9388005371
 11
6.3674078516
 21
5.5703250824
  0
LINE
  5
29C
100
AcDbEntity
  8
0
100
AcDbLine
 62
7
  6
CONTINUOUS
 10
3.7111578516
 20
5.4453250824
 11
4.6925814755
 21
5.4453250824
  0
LINE
  5
29D
100
AcDbEntity
  8
0
100
AcDbLine
 62
7
  6
CONTINUOUS
 10
6.3674078516
 20
5.4453250824
 11
5.3488314755
 21
5.4453250824
  0
INSERT
  5
29E
100
AcDbEntity
  8
0
100
AcDbBlockReference
 62
7
  6
CONTINUOUS
  2
_FILLED
 10
3.7111578516
 20
5.4453250824
 41
0.1875
 42
0.1875
 43
0.1875
 50
180.0
  0
INSERT
  5
29F
100
AcDbEntity
  8
0
100
AcDbBlockReference
 62
7
  6
CONTINUOUS
  2
_FILLED
 10
6.3674078516
 20
5.4453250824
 41
0.1875
 42
0.1875
 43
0.1875
  0
ENDBLK
  5
2A0
100
AcDbEntity
  8
0
  6
BYBLOCK
 62
0
100
AcDbBlockEnd
  0
BLOCK
  5
2A1
100
AcDbEntity
  8
0
100
AcDbBlockBegin
 62
7
  6
CONTINUOUS
  2
*D13
 70
65
 10
0.0
 20
0.0
  3
*D13
  1

  0
MTEXT
  5
2A2
100
AcDbEntity
  8
0
100
AcDbMText
 62
7
  6
CONTINUOUS
  7
STANDARD
 71
1
 72
1
 10
7.2667911315
 20
5.4125802387
 30
0.0
 11
1.0
 21
0.0
 31
0.0
 73
2
 44
0.9
  1
.44
 40
0.15625
 41
0.375
  0
LINE
  5
2A3
100
AcDbEntity
  8
0
100
AcDbLine
 62
7
  6
CONTINUOUS
 10
6.9142828516
 20
5.1984880371
 11
6.9142828516
 21
5.4594552387
  0
LINE
  5
2A4
100
AcDbEntity
  8
0
100
AcDbLine
 62
7
  6
CONTINUOUS
 10
6.3674078516
 20
4.9388005371
 11
6.3674078516
 21
5.4594552387
  0
LINE
  5
2A5
100
AcDbEntity
  8
0
100
AcDbLine
 62
7
  6
CONTINUOUS
 10
6.9142828516
 20
5.3344552387
 11
7.1886661315
 21
5.3344552387
  0
LINE
  5
2A6
100
AcDbEntity
  8
0
100
AcDbLine
 62
7
  6
CONTINUOUS
 10
6.3674078516
 20
5.3344552387
 11
5.8674078516
 21
5.3344552387
  0
INSERT
  5
2A7
100
AcDbEntity
  8
0
100
AcDbBlockReference
 62
7
  6
CONTINUOUS
  2
_FILLED
 10
6.9142828516
 20
5.3344552387
 41
0.1875
 42
0.1875
 43
0.1875
 50
180.0
  0
INSERT
  5
2A8
100
AcDbEntity
  8
0
100
AcDbBlockReference
 62
7
  6
CONTINUOUS
  2
_FILLED
 10
6.3674078516
 20
5.3344552387
 41
0.1875
 42
0.1875
 43
0.1875
  0
ENDBLK
  5
2A9
100
AcDbEntity
  8
0
  6
BYBLOCK
 62
0
100
AcDbBlockEnd
  0
BLOCK
  5
2AA
100
AcDbEntity
  8
0
100
AcDbBlockBegin
 62
7
  6
CONTINUOUS
  2
*D14
 70
65
 10
0.0
 20
0.0
  3
*D14
  1

  0
MTEXT
  5
2AB
100
AcDbEntity
  8
0
100
AcDbMText
 62
7
  6
CONTINUOUS
  7
STANDARD
 71
1
 72
1
 10
8.3998123419
 20
4.354038547
 30
0.0
 11
1.0
 21
0.0
 31
0.0
 73
2
 44
0.9
  1
.36
 40
0.15625
 41
0.375
  0
LINE
  5
2AC
100
AcDbEntity
  8
0
100
AcDbLine
 62
7
  6
CONTINUOUS
 10
6.6233453516
 20
4.6828630371
 11
8.2748123419
 21
4.6828630371
  0
LINE
  5
2AD
100
AcDbEntity
  8
0
100
AcDbLine
 62
7
  6
CONTINUOUS
 10
6.9767828516
 20
5.1359880371
 11
8.2748123419
 21
5.1359880371
  0
LINE
  5
2AE
100
AcDbEntity
  8
0
100
AcDbLine
 62
7
  6
CONTINUOUS
 10
8.1498123419
 20
4.6828630371
 11
8.1498123419
 21
4.275913547
  0
LINE
  5
2AF
100
AcDbEntity
  8
0
100
AcDbLine
 62
7
  6
CONTINUOUS
 10
8.1498123419
 20
4.275913547
 11
8.3216873419
 21
4.275913547
  0
LINE
  5
2B0
100
AcDbEntity
  8
0
100
AcDbLine
 62
7
  6
CONTINUOUS
 10
8.1498123419
 20
5.1359880371
 11
8.1498123419
 21
5.6359880371
  0
INSERT
  5
2B1
100
AcDbEntity
  8
0
100
AcDbBlockReference
 62
7
  6
CONTINUOUS
  2
_FILLED
 10
8.1498123419
 20
4.6828630371
 41
0.1875
 42
0.1875
 43
0.1875
 50
90.0
  0
INSERT
  5
2B2
100
AcDbEntity
  8
0
100
AcDbBlockReference
 62
7
  6
CONTINUOUS
  2
_FILLED
 10
8.1498123419
 20
5.1359880371
 41
0.1875
 42
0.1875
 43
0.1875
 50
270.0
  0
ENDBLK
  5
2B3
100
AcDbEntity
  8
0
  6
BYBLOCK
 62
0
100
AcDbBlockEnd
  0
BLOCK
  5
2B4
100
AcDbEntity
  8
0
100
AcDbBlockBegin
 62
7
  6
CONTINUOUS
  2
*D15
 70
65
 10
0.0
 20
0.0
  3
*D15
  1

  0
MTEXT
  5
2B5
100
AcDbEntity
  8
0
100
AcDbMText
 62
7
  6
CONTINUOUS
  7
STANDARD
 71
2
 72
1
 10
12.1460998246
 20
6.251999567
 30
0.0
 11
1.0
 21
0.0
 31
0.0
 73
2
 44
0.9
  1
.56
 40
0.15625
 41
0.375
  0
LINE
  5
2B6
100
AcDbEntity
  8
0
100
AcDbLine
 62
7
  6
CONTINUOUS
 10
11.8532474368
 20
6.5944667849
 11
11.8532474368
 21
6.048874567
  0
LINE
  5
2B7
100
AcDbEntity
  8
0
100
AcDbLine
 62
7
  6
CONTINUOUS
 10
12.5563724368
 20
6.5944667849
 11
12.5563724368
 21
6.048874567
  0
LINE
  5
2B8
100
AcDbEntity
  8
0
100
AcDbLine
 62
7
  6
CONTINUOUS
 10
11.8532474368
 20
6.173874567
 11
11.3532474368
 21
6.173874567
  0
LINE
  5
2B9
100
AcDbEntity
  8
0
100
AcDbLine
 62
7
  6
CONTINUOUS
 10
12.5563724368
 20
6.173874567
 11
13.0563724368
 21
6.173874567
  0
INSERT
  5
2BA
100
AcDbEntity
  8
0
100
AcDbBlockReference
 62
7
  6
CONTINUOUS
  2
_FILLED
 10
11.8532474368
 20
6.173874567
 41
0.1875
 42
0.1875
 43
0.1875
  0
INSERT
  5
2BB
100
AcDbEntity
  8
0
100
AcDbBlockReference
 62
7
  6
CONTINUOUS
  2
_FILLED
 10
12.5563724368
 20
6.173874567
 41
0.1875
 42
0.1875
 43
0.1875
 50
180.0
  0
ENDBLK
  5
2BC
100
AcDbEntity
  8
0
  6
BYBLOCK
 62
0
100
AcDbBlockEnd
  0
BLOCK
  5
2BD
100
AcDbEntity
  8
0
100
AcDbBlockBegin
 62
7
  6
CONTINUOUS
  2
*D16
 70
65
 10
0.0
 20
0.0
  3
*D16
  1

  0
MTEXT
  5
2BE
100
AcDbEntity
  8
0
100
AcDbMText
 62
7
  6
CONTINUOUS
  7
STANDARD
 71
2
 72
1
 10
2.2155882985
 20
3.3389739219
 30
0.0
 11
1.0
 21
0.0
 31
0.0
 73
2
 44
0.9
  1
3.125
 40
0.15625
 41
0.625
  0
LINE
  5
2BF
100
AcDbEntity
  8
0
100
AcDbLine
 62
7
  6
CONTINUOUS
 10
3.1017828516
 20
5.1359880371
 11
2.0905882985
 21
5.1359880371
  0
LINE
  5
2C0
100
AcDbEntity
  8
0
100
AcDbLine
 62
7
  6
CONTINUOUS
 10
3.1017828516
 20
1.2297380371
 11
2.0905882985
 21
1.2297380371
  0
LINE
  5
2C1
100
AcDbEntity
  8
0
100
AcDbLine
 62
7
  6
CONTINUOUS
 10
2.2155882985
 20
5.1359880371
 11
2.2155882985
 21
3.4170989219
  0
LINE
  5
2C2
100
AcDbEntity
  8
0
100
AcDbLine
 62
7
  6
CONTINUOUS
 10
2.2155882985
 20
1.2297380371
 11
2.2155882985
 21
3.1045989219
  0
INSERT
  5
2C3
100
AcDbEntity
  8
0
100
AcDbBlockReference
 62
7
  6
CONTINUOUS
  2
_FILLED
 10
2.2155882985
 20
5.1359880371
 41
0.1875
 42
0.1875
 43
0.1875
 50
90.0
  0
INSERT
  5
2C4
100
AcDbEntity
  8
0
100
AcDbBlockReference
 62
7
  6
CONTINUOUS
  2
_FILLED
 10
2.2155882985
 20
1.2297380371
 41
0.1875
 42
0.1875
 43
0.1875
 50
270.0
  0
ENDBLK
  5
2C5
100
AcDbEntity
  8
0
  6
BYBLOCK
 62
0
100
AcDbBlockEnd
  0
BLOCK
  5
2C6
100
AcDbEntity
  8
0
100
AcDbBlockBegin
  2
*T1
 70
1
 10
0.0
 20
0.0
  3
*T1
  1

  0
LINE
  5
2C7
100
AcDbEntity
  8
0
100
AcDbLine
 62
7
  6
CONTINUOUS
 10
0.0
 20
0.0
 11
2.016
 21
0.0
  0
LINE
  5
2C8
100
AcDbEntity
  8
0
100
AcDbLine
 62
7
  6
CONTINUOUS
 10
0.0
 20
0.0
 11
0.0
 21
-0.303367
  0
LINE
  5
2C9
100
AcDbEntity
  8
0
100
AcDbLine
 62
7
  6
CONTINUOUS
 10
0.0
 20
-0.303367
 11
2.016
 21
-0.303367
  0
LINE
  5
2CA
100
AcDbEntity
  8
0
100
AcDbLine
 62
7
  6
CONTINUOUS
 10
2.016
 20
0.0
 11
2.016
 21
-0.303367
  0
MTEXT
  5
2CB
100
AcDbEntity
  8
0
100
AcDbMText
 62
7
  6
CONTINUOUS
  7
TEXTSTYLE_3
 71
3
 72
1
 10
1.9535
 20
-0.0916835
 30
0.0
 11
1.0
 21
0.0
 31
0.0
 73
2
 44
0.9
  1
Nov-27-22
 40
0.12
 41
1.4946718147
  0
ENDBLK
  5
2CC
100
AcDbEntity
  8
0
  6
BYBLOCK
 62
0
100
AcDbBlockEnd
  0
BLOCK
  5
2CD
100
AcDbEntity
  8
0
100
AcDbBlockBegin
  2
*T2
 70
1
 10
0.0
 20
0.0
  3
*T2
  1

  0
LINE
  5
2CE
100
AcDbEntity
  8
0
100
AcDbLine
 62
7
  6
CONTINUOUS
 10
0.0
 20
-0.0
 11
0.0
 21
2.3046
  0
LINE
  5
2CF
100
AcDbEntity
  8
0
100
AcDbLine
 62
7
  6
CONTINUOUS
 10
0.0
 20
-0.0
 11
0.367159
 21
-0.0
  0
LINE
  5
2D0
100
AcDbEntity
  8
0
100
AcDbLine
 62
7
  6
CONTINUOUS
 10
0.367159
 20
-0.0
 11
0.367159
 21
2.3046
  0
LINE
  5
2D1
100
AcDbEntity
  8
0
100
AcDbLine
 62
7
  6
CONTINUOUS
 10
0.0
 20
2.3046
 11
0.367159
 21
2.3046
  0
MTEXT
  5
2D2
100
AcDbEntity
  8
0
100
AcDbMText
 62
7
  6
CONTINUOUS
  7
STANDARD
 71
3
 72
1
 10
0.1385795
 20
2.2421
 30
0.0
 11
0.0
 21
1.0
 31
0.0
 73
2
 44
0.9
  1
COLLECTOR_2BY3ALUMINUM_DRAW
 40
0.09
 41
3.888
  0
ENDBLK
  5
2D3
100
AcDbEntity
  8
0
  6
BYBLOCK
 62
0
100
AcDbBlockEnd
  0
BLOCK
  5
2D4
100
AcDbEntity
  8
0
100
AcDbBlockBegin
  2
*T3
 70
1
 10
0.0
 20
0.0
  3
*T3
  1

  0
LINE
  5
2D5
100
AcDbEntity
  8
0
100
AcDbLine
 62
7
  6
CONTINUOUS
 10
0.0
 20
0.0
 11
4.272
 21
0.0
  0
LINE
  5
2D6
100
AcDbEntity
  8
0
100
AcDbLine
 62
7
  6
CONTINUOUS
 10
0.0
 20
0.0
 11
0.0
 21
-0.672
  0
LINE
  5
2D7
100
AcDbEntity
  8
0
100
AcDbLine
 62
7
  6
CONTINUOUS
 10
0.0
 20
-0.672
 11
4.272
 21
-0.672
  0
LINE
  5
2D8
100
AcDbEntity
  8
0
100
AcDbLine
 62
7
  6
CONTINUOUS
 10
4.272
 20
0.0
 11
4.272
 21
-0.672
  0
MTEXT
  5
2D9
100
AcDbEntity
  8
0
100
AcDbMText
 62
7
  6
CONTINUOUS
  7
TEXTSTYLE_3
 71
2
 72
1
 10
2.136
 20
-0.256
 30
0.0
 11
1.0
 21
0.0
 31
0.0
 73
2
 44
0.9
  1
COLLECTOR_2BY3ALUMINUM_GJS
 40
0.16
 41
7.4538996139
  0
ENDBLK
  5
2DA
100
AcDbEntity
  8
0
  6
BYBLOCK
 62
0
100
AcDbBlockEnd
  0
BLOCK
  5
2DB
100
AcDbEntity
  8
0
100
AcDbBlockBegin
  2
*T4
 70
1
 10
0.0
 20
0.0
  3
*T4
  1

  0
LINE
  5
2DC
100
AcDbEntity
  8
0
100
AcDbLine
 62
7
  6
CONTINUOUS
 10
0.0
 20
0.0
 11
2.304
 21
0.0
  0
LINE
  5
2DD
100
AcDbEntity
  8
0
100
AcDbLine
 62
7
  6
CONTINUOUS
 10
0.0
 20
0.0
 11
0.0
 21
-0.384
  0
LINE
  5
2DE
100
AcDbEntity
  8
0
100
AcDbLine
 62
7
  6
CONTINUOUS
 10
0.0
 20
-0.384
 11
2.304
 21
-0.384
  0
LINE
  5
2DF
100
AcDbEntity
  8
0
100
AcDbLine
 62
7
  6
CONTINUOUS
 10
2.304
 20
0.0
 11
2.304
 21
-0.384
  0
MTEXT
  5
2E0
100
AcDbEntity
  8
0
100
AcDbMText
 62
7
  6
CONTINUOUS
  7
TEXTSTYLE_3
 71
3
 72
1
 10
2.2415
 20
-0.152
 30
0.0
 11
1.0
 21
0.0
 31
0.0
 73
2
 44
0.9
  1
COLLECTOR_2BY3ALUMINUM_DRAW
 40
0.08
 41
4.0871042471
  0
ENDBLK
  5
2E1
100
AcDbEntity
  8
0
  6
BYBLOCK
 62
0
100
AcDbBlockEnd
  0
BLOCK
  5
2E2
100
AcDbEntity
  8
0
100
AcDbBlockBegin
  2
*T5
 70
1
 10
0.0
 20
0.0
  3
*T5
  1

  0
LINE
  5
2E3
100
AcDbEntity
  8
0
100
AcDbLine
 62
7
  6
CONTINUOUS
 10
0.0
 20
0.0
 11
0.96
 21
0.0
  0
LINE
  5
2E4
100
AcDbEntity
  8
0
100
AcDbLine
 62
7
  6
CONTINUOUS
 10
0.0
 20
0.0
 11
0.0
 21
-0.222733
  0
LINE
  5
2E5
100
AcDbEntity
  8
0
100
AcDbLine
 62
7
  6
CONTINUOUS
 10
0.0
 20
-0.222733
 11
0.96
 21
-0.222733
  0
LINE
  5
2E6
100
AcDbEntity
  8
0
100
AcDbLine
 62
7
  6
CONTINUOUS
 10
0.96
 20
0.0
 11
0.96
 21
-0.222733
  0
MTEXT
  5
2E7
100
AcDbEntity
  8
0
100
AcDbMText
 62
7
  6
CONTINUOUS
  7
TEXTSTYLE_3
 71
3
 72
1
 10
0.8975
 20
-0.0513665
 30
0.0
 11
1.0
 21
0.0
 31
0.0
 73
2
 44
0.9
  1
1.250
 40
0.12
 41
0.7820849421
  0
ENDBLK
  5
2E8
100
AcDbEntity
  8
0
  6
BYBLOCK
 62
0
100
AcDbBlockEnd
  0
BLOCK
  5
2E9
100
AcDbEntity
  8
0
100
AcDbBlockBegin
  2
*T6
 70
1
 10
0.0
 20
0.0
  3
*T6
  1

  0
LINE
  5
2EA
100
AcDbEntity
  8
0
100
AcDbLine
 62
7
  6
CONTINUOUS
 10
0.0
 20
0.0
 11
2.016
 21
0.0
  0
LINE
  5
2EB
100
AcDbEntity
  8
0
100
AcDbLine
 62
7
  6
CONTINUOUS
 10
0.0
 20
0.0
 11
0.0
 21
-0.303367
  0
LINE
  5
2EC
100
AcDbEntity
  8
0
100
AcDbLine
 62
7
  6
CONTINUOUS
 10
0.0
 20
-0.303367
 11
2.016
 21
-0.303367
  0
LINE
  5
2ED
100
AcDbEntity
  8
0
100
AcDbLine
 62
7
  6
CONTINUOUS
 10
2.016
 20
0.0
 11
2.016
 21
-0.303367
  0
MTEXT
  5
2EE
100
AcDbEntity
  8
0
100
AcDbMText
 62
7
  6
CONTINUOUS
  7
TEXTSTYLE_3
 71
3
 72
1
 10
1.9535
 20
-0.0916835
 30
0.0
 11
1.0
 21
0.0
 31
0.0
 73
2
 44
0.9
  1
Gabriel Schettler
 40
0.12
 41
2.1785328185
  0
ENDBLK
  5
2EF
100
AcDbEntity
  8
0
  6
BYBLOCK
 62
0
100
AcDbBlockEnd
  0
BLOCK
  5
2F0
100
AcDbEntity
  8
0
100
AcDbBlockBegin
  2
*T7
 70
1
 10
0.0
 20
0.0
  3
*T7
  1

  0
LINE
  5
2F1
100
AcDbEntity
  8
0
100
AcDbLine
 62
7
  6
CONTINUOUS
 10
0.0
 20
0.0
 11
2.016
 21
0.0
  0
LINE
  5
2F2
100
AcDbEntity
  8
0
100
AcDbLine
 62
7
  6
CONTINUOUS
 10
0.0
 20
0.0
 11
0.0
 21
-0.303367
  0
LINE
  5
2F3
100
AcDbEntity
  8
0
100
AcDbLine
 62
7
  6
CONTINUOUS
 10
0.0
 20
-0.303367
 11
2.016
 21
-0.303367
  0
LINE
  5
2F4
100
AcDbEntity
  8
0
100
AcDbLine
 62
7
  6
CONTINUOUS
 10
2.016
 20
0.0
 11
2.016
 21
-0.303367
  0
ENDBLK
  5
2F5
100
AcDbEntity
  8
0
  6
BYBLOCK
 62
0
100
AcDbBlockEnd
  0
BLOCK
  5
2F6
100
AcDbEntity
  8
0
100
AcDbBlockBegin
  2
*T8
 70
1
 10
0.0
 20
0.0
  3
*T8
  1

  0
LINE
  5
2F7
100
AcDbEntity
  8
0
100
AcDbLine
 62
7
  6
CONTINUOUS
 10
0.0
 20
0.0
 11
1.152
 21
0.0
  0
LINE
  5
2F8
100
AcDbEntity
  8
0
100
AcDbLine
 62
7
  6
CONTINUOUS
 10
0.0
 20
0.0
 11
0.0
 21
-0.384
  0
LINE
  5
2F9
100
AcDbEntity
  8
0
100
AcDbLine
 62
7
  6
CONTINUOUS
 10
0.0
 20
-0.384
 11
1.152
 21
-0.384
  0
LINE
  5
2FA
100
AcDbEntity
  8
0
100
AcDbLine
 62
7
  6
CONTINUOUS
 10
1.152
 20
0.0
 11
1.152
 21
-0.384
  0
MTEXT
  5
2FB
100
AcDbEntity
  8
0
100
AcDbMText
 62
7
  6
CONTINUOUS
  7
TEXTSTYLE_2
 71
1
 72
1
 10
0.0625
 20
-0.0795
 30
0.0
 11
1.0
 21
0.0
 31
0.0
 73
2
 44
0.9
  1
COURSE : \PSECTION : 
 40
0.09
 41
1.342007722
  0
ENDBLK
  5
2FC
100
AcDbEntity
  8
0
  6
BYBLOCK
 62
0
100
AcDbBlockEnd
  0
BLOCK
  5
2FD
100
AcDbEntity
  8
0
100
AcDbBlockBegin
  2
*T9
 70
1
 10
0.0
 20
0.0
  3
*T9
  1

  0
LINE
  5
2FE
100
AcDbEntity
  8
0
100
AcDbLine
 62
7
  6
CONTINUOUS
 10
0.0
 20
0.0
 11
1.536
 21
0.0
  0
LINE
  5
2FF
100
AcDbEntity
  8
0
100
AcDbLine
 62
7
  6
CONTINUOUS
 10
0.0
 20
0.0
 11
0.0
 21
-0.222733
  0
LINE
  5
300
100
AcDbEntity
  8
0
100
AcDbLine
 62
7
  6
CONTINUOUS
 10
0.0
 20
-0.222733
 11
1.536
 21
-0.222733
  0
LINE
  5
301
100
AcDbEntity
  8
0
100
AcDbLine
 62
7
  6
CONTINUOUS
 10
1.536
 20
0.0
 11
1.536
 21
-0.222733
  0
MTEXT
  5
302
100
AcDbEntity
  8
0
100
AcDbMText
 62
7
  6
CONTINUOUS
  7
TEXTSTYLE_3
 71
3
 72
1
 10
1.4735
 20
-0.0613665
 30
0.0
 11
1.0
 21
0.0
 31
0.0
 73
2
 44
0.9
  1
AL6061 
 40
0.1
 41
1.0555984556
  0
ENDBLK
  5
303
100
AcDbEntity
  8
0
  6
BYBLOCK
 62
0
100
AcDbBlockEnd
  0
ENDSEC
  0
SECTION
  2
ENTITIES
  0
MTEXT
  5
304
100
AcDbEntity
  8
0
100
AcDbMText
 62
7
  6
CONTINUOUS
  7
STANDARD
 71
1
 72
1
 10
21.7454340672
 20
14.8488558227
 30
0.0
 11
1.0
 21
0.0
 31
0.0
 73
2
 44
0.9
  1
D
 40
0.125
 41
0.1
  0
MTEXT
  5
305
100
AcDbEntity
  8
0
100
AcDbMText
 62
7
  6
CONTINUOUS
  7
STANDARD
 71
1
 72
1
 10
21.7253898609
 20
10.7972994083
 30
0.0
 11
1.0
 21
0.0
 31
0.0
 73
2
 44
0.9
  1
C
 40
0.125
 41
0.1
  0
MTEXT
  5
306
100
AcDbEntity
  8
0
100
AcDbMText
 62
7
  6
CONTINUOUS
  7
STANDARD
 71
1
 72
1
 10
21.7397441483
 20
2.2493675261
 30
0.0
 11
1.0
 21
0.0
 31
0.0
 73
2
 44
0.9
  1
A
 40
0.125
 41
0.1
  0
MTEXT
  5
307
100
AcDbEntity
  8
0
100
AcDbMText
 62
7
  6
CONTINUOUS
  7
STANDARD
 71
1
 72
1
 10
0.1555040556
 20
2.3641893105
 30
0.0
 11
1.0
 21
0.0
 31
0.0
 73
2
 44
0.9
  1
A
 40
0.125
 41
0.1
  0
MTEXT
  5
308
100
AcDbEntity
  8
0
100
AcDbMText
 62
7
  6
CONTINUOUS
  7
STANDARD
 71
1
 72
1
 10
0.2
 20
6.4509026362
 30
0.0
 11
1.0
 21
0.0
 31
0.0
 73
2
 44
0.9
  1
B
 40
0.125
 41
0.1
  0
MTEXT
  5
309
100
AcDbEntity
  8
0
100
AcDbMText
 62
7
  6
CONTINUOUS
  7
STANDARD
 71
1
 72
1
 10
0.2005117034
 20
10.7091116744
 30
0.0
 11
1.0
 21
0.0
 31
0.0
 73
2
 44
0.9
  1
C
 40
0.125
 41
0.1
  0
MTEXT
  5
30A
100
AcDbEntity
  8
0
100
AcDbMText
 62
7
  6
CONTINUOUS
  7
STANDARD
 71
1
 72
1
 10
0.1555040556
 20
14.856592555
 30
0.0
 11
1.0
 21
0.0
 31
0.0
 73
2
 44
0.9
  1
D
 40
0.125
 41
0.1
  0
MTEXT
  5
30B
100
AcDbEntity
  8
0
100
AcDbMText
 62
7
  6
CONTINUOUS
  7
STANDARD
 71
1
 72
1
 10
2.5712
 20
0.4197381965
 30
0.0
 11
1.0
 21
0.0
 31
0.0
 73
2
 44
0.9
  1
4
 40
0.125
 41
0.1
  0
MTEXT
  5
30C
100
AcDbEntity
  8
0
100
AcDbMText
 62
7
  6
CONTINUOUS
  7
STANDARD
 71
1
 72
1
 10
13.6304
 20
0.439369868
 30
0.0
 11
1.0
 21
0.0
 31
0.0
 73
2
 44
0.9
  1
2
 40
0.125
 41
0.1
  0
MTEXT
  5
30D
100
AcDbEntity
  8
0
100
AcDbMText
 62
7
  6
CONTINUOUS
  7
STANDARD
 71
1
 72
1
 10
19.1504
 20
0.439369868
 30
0.0
 11
1.0
 21
0.0
 31
0.0
 73
2
 44
0.9
  1
1
 40
0.125
 41
0.1
  0
MTEXT
  5
30E
100
AcDbEntity
  8
0
100
AcDbMText
 62
7
  6
CONTINUOUS
  7
STANDARD
 71
1
 72
1
 10
8.24
 20
0.448969868
 30
0.0
 11
1.0
 21
0.0
 31
0.0
 73
2
 44
0.9
  1
3
 40
0.125
 41
0.1
  0
MTEXT
  5
30F
100
AcDbEntity
  8
0
100
AcDbMText
 62
7
  6
CONTINUOUS
  7
STANDARD
 71
1
 72
1
 10
8.2352
 20
16.6446015396
 30
0.0
 11
1.0
 21
0.0
 31
0.0
 73
2
 44
0.9
  1
3
 40
0.125
 41
0.1
  0
MTEXT
  5
310
100
AcDbEntity
  8
0
100
AcDbMText
 62
7
  6
CONTINUOUS
  7
STANDARD
 71
1
 72
1
 10
13.8248
 20
16.639369868
 30
0.0
 11
1.0
 21
0.0
 31
0.0
 73
2
 44
0.9
  1
2
 40
0.125
 41
0.1
  0
MTEXT
  5
311
100
AcDbEntity
  8
0
100
AcDbMText
 62
7
  6
CONTINUOUS
  7
STANDARD
 71
1
 72
1
 10
19.2224
 20
16.6429780792
 30
0.0
 11
1.0
 21
0.0
 31
0.0
 73
2
 44
0.9
  1
1
 40
0.125
 41
0.1
  0
MTEXT
  5
312
100
AcDbEntity
  8
0
100
AcDbMText
 62
7
  6
CONTINUOUS
  7
STANDARD
 71
1
 72
1
 10
2.6624
 20
16.6446015396
 30
0.0
 11
1.0
 21
0.0
 31
0.0
 73
2
 44
0.9
  1
4
 40
0.125
 41
0.1
  0
MTEXT
  5
313
100
AcDbEntity
  8
0
100
AcDbMText
 62
7
  6
CONTINUOUS
  7
TEXTSTYLE_2
 71
1
 72
1
 10
15.7577397885
 20
2.3878602452
 30
0.0
 11
1.0
 21
0.0
 31
0.0
 73
2
 44
0.9
  1
TOLERANCES
 40
0.12
 41
1.1013127413
  0
MTEXT
  5
314
100
AcDbEntity
  8
0
100
AcDbMText
 62
7
  6
CONTINUOUS
  7
TEXTSTYLE_3
 71
1
 72
1
 10
20.0849742115
 20
0.8527170222
 30
0.0
 11
1.0
 21
0.0
 31
0.0
 73
2
 44
0.9
  1
SHEET 1 OF 2
 40
0.12
 41
1.0267181467
  0
MTEXT
  5
315
100
AcDbEntity
  8
0
100
AcDbMText
 62
7
  6
CONTINUOUS
  7
STANDARD
 71
1
 72
1
 10
21.7112397501
 20
4.7885693564
 30
0.0
 11
0.0
 21
1.0
 31
0.0
 73
2
 44
0.9
  1
SHEET 1 OF 2
 40
0.09
 41
0.864
  0
MTEXT
  5
316
100
AcDbEntity
  8
0
100
AcDbMText
 62
7
  6
CONTINUOUS
  7
TEXTSTYLE_3
 71
2
 72
1
 10
17.402046144
 20
1.2615615221
 30
0.0
 11
1.0
 21
0.0
 31
0.0
 73
2
 44
0.9
  1
SIZE
 40
0.06
 41
0.1626254826
  0
MTEXT
  5
317
100
AcDbEntity
  8
0
100
AcDbMText
 62
7
  6
CONTINUOUS
  7
TEXTSTYLE_3
 71
2
 72
1
 10
19.0746294427
 20
1.2521501883
 30
0.0
 11
1.0
 21
0.0
 31
0.0
 73
2
 44
0.9
  1
DWG NO.
 40
0.06
 41
0.407953668
  0
MTEXT
  5
318
100
AcDbEntity
  8
0
100
AcDbMText
 62
7
  6
CONTINUOUS
  7
TEXTSTYLE_3
 71
2
 72
1
 10
17.4228567191
 20
0.8817685259
 30
0.0
 11
1.0
 21
0.0
 31
0.0
 73
2
 44
0.9
  1
SCALE
 40
0.06
 41
0.2483397683
  0
MTEXT
  5
319
100
AcDbEntity
  8
0
100
AcDbMText
 62
7
  6
CONTINUOUS
  7
TEXTSTYLE_2
 71
2
 72
1
 10
15.5511012407
 20
1.2587693548
 30
0.0
 11
1.0
 21
0.0
 31
0.0
 73
2
 44
0.9
  1
DRAWN BY:
 40
0.06
 41
0.4950579151
  0
MTEXT
  5
31A
100
AcDbEntity
  8
0
100
AcDbMText
 62
7
  6
CONTINUOUS
  7
TEXTSTYLE_3
 71
2
 72
1
 10
15.5549415736
 20
0.9622271717
 30
0.0
 11
1.0
 21
0.0
 31
0.0
 73
2
 44
0.9
  1
CHECKED BY:
 40
0.06
 41
0.5335135135
  0
MTEXT
  5
31B
100
AcDbEntity
  8
0
100
AcDbMText
 62
7
  6
CONTINUOUS
  7
TEXTSTYLE_3
 71
2
 72
1
 10
18.4724669174
 20
0.873400838
 30
0.0
 11
1.0
 21
0.0
 31
0.0
 73
2
 44
0.9
  1
MATERIAL
 40
0.06
 41
0.4014671815
  0
MTEXT
  5
31C
100
AcDbEntity
  8
0
100
AcDbMText
 62
7
  6
CONTINUOUS
  7
TEXTSTYLE_2
 71
1
 72
1
 10
15.2862945287
 20
1.5763156372
 30
0.0
 11
1.0
 21
0.0
 31
0.0
 73
2
 44
0.9
  1
DATE ISSUED:
 40
0.075
 41
0.7129343629
  0
MTEXT
  5
31D
100
AcDbEntity
  8
0
100
AcDbMText
 62
7
  6
CONTINUOUS
  7
TEXTSTYLE_3
 71
1
 72
1
 10
15.4559693613
 20
2.1983183074
 30
0.0
 11
1.0
 21
0.0
 31
0.0
 73
2
 44
0.9
  3
DECIMALS              ANGLES\PX.X    = \fgdt;{\W1.0;{\fgdt;`}}\fBlueprint MT;{\ftxt;\W0.0001;\H0.0001;\~}{\ftxt;\W0.1666666667;\H0.075; }0.1             X  = \fgdt;{\W1.0;{\fgdt;`}}\fBlueprint MT;5 \PX.XX   = \fgdt;{\W1.0;{\fgdt;`}}\fBlueprint MT;{\f
  3
txt;\W0.0001;\H0.0001;\~}{\ftxt;\W0.1666666667;\H0.075; }0.01          X.X  = \fgdt;{\W1.0;{\fgdt;`}}\fBlueprint MT;0.5\PX.XXX  = \fgdt;{\W1.0;{\fgdt;`}}\fBlueprint MT;{\ftxt;\W0.0001;\H0.0001;\~}{\ftxt;\W0.1666666667;\H0.075; }0.001       X.XX = \fg
  1
dt;{\W1.0;{\fgdt;`}}\fBlueprint MT;0.50\PX.XXXX = \fgdt;{\W1.0;{\fgdt;`}}\fBlueprint MT;{\ftxt;\W0.0001;\H0.0001;\~}{\ftxt;\W0.1666666667;\H0.075; }0.0001
 40
0.075
 41
1.7045849421
  0
MTEXT
  5
31E
100
AcDbEntity
  8
0
100
AcDbMText
 62
7
  6
CONTINUOUS
  7
TEXTSTYLE_2
 71
2
 72
1
 10
19.4565655449
 20
2.366664856
 30
0.0
 11
1.0
 21
0.0
 31
0.0
 73
2
 44
0.9
  1
 COLLEGE OF ENGINEERING\P  UNIVERSITY OF NORTH DAKOTA
 40
0.14
 41
3.3275675676
  0
MTEXT
  5
31F
100
AcDbEntity
  8
0
100
AcDbMText
 62
7
  6
CONTINUOUS
  7
TEXTSTYLE_3
 71
1
 72
1
 10
14.5909257467
 20
0.9243268266
 30
0.0
 11
1.0
 21
0.0
 31
0.0
 73
2
 44
0.9
  1
THIRD ANGLE\PPROJECTION
 40
0.06
 41
0.5578378378
  0
MTEXT
  5
320
100
AcDbEntity
  8
0
100
AcDbMText
 62
7
  6
CONTINUOUS
  7
TEXTSTYLE_3
 71
1
 72
1
 10
17.3639800184
 20
1.167605762
 30
0.0
 11
1.0
 21
0.0
 31
0.0
 73
2
 44
0.9
  1
C
 40
0.24
 41
0.2344401544
  0
DIMENSION
  5
321
100
AcDbEntity
  8
0
100
AcDbDimension
 62
7
  6
CONTINUOUS
  2
*D0
 10
11.8532474368
 20
9.6523469549
 11
13.7224865723
 21
9.6523470154
 70
160
 71
2
 72
2
 41
0.9
 42
3.125
  3
DIMSTYLE_1
100
AcDbAlignedDimension
 13
15.7594974368
 23
9.1569667849
 14
11.8532474368
 24
9.1569667849
 50
180.0
100
AcDbRotatedDimension
  0
DIMENSION
  5
322
100
AcDbEntity
  8
0
100
AcDbDimension
 62
7
  6
CONTINUOUS
  2
*D1
 10
8.2160399311
 20
9.1569667849
 11
8.216039917
 21
7.9069667969
 70
160
 71
2
 72
2
 41
0.9
 42
2.0
  3
DIMSTYLE_1
100
AcDbAlignedDimension
 13
6.8405579468
 23
6.6569667849
 14
6.8405579468
 24
9.1569667849
 50
90.0
100
AcDbRotatedDimension
  0
DIMENSION
  5
323
100
AcDbEntity
  8
0
100
AcDbDimension
 62
7
  6
CONTINUOUS
  2
*D2
 10
7.3078278472
 20
6.9694667849
 11
7.3234530945
 21
7.921754425
 70
160
 71
2
 72
2
 41
0.9
 42
1.5
  3
DIMSTYLE_1
100
AcDbAlignedDimension
 13
6.5280579468
 23
8.8444667849
 14
6.5280579468
 24
6.9694667849
 50
270.0
100
AcDbRotatedDimension
  0
DIMENSION
  5
324
100
AcDbEntity
  8
0
100
AcDbDimension
 62
7
  6
CONTINUOUS
  2
*D3
 10
6.8405579468
 20
9.4555927974
 11
4.9655578766
 21
9.4555927734
 70
160
 71
2
 72
2
 41
0.9
 42
3.0
  3
DIMSTYLE_1
100
AcDbAlignedDimension
 13
3.0905579468
 23
9.1376585742
 14
6.8405579468
 24
9.1849098464
100
AcDbRotatedDimension
  0
DIMENSION
  5
325
100
AcDbEntity
  8
0
100
AcDbDimension
 62
7
  6
CONTINUOUS
  2
*D4
 10
15.0563724368
 20
6.393952887
 11
13.8258291016
 21
6.3939528503
 70
160
 71
2
 72
2
 41
0.9
 42
2.0
  3
DIMSTYLE_1
100
AcDbAlignedDimension
 13
12.5563724368
 23
6.6569667849
 14
15.0563724368
 24
6.6569667849
100
AcDbRotatedDimension
  0
DIMENSION
  5
326
100
AcDbEntity
  8
0
100
AcDbDimension
 62
7
  6
CONTINUOUS
  2
*D5
 10
12.6563724368
 20
7.6194667849
 11
13.4522202673
 21
7.2147609837
 70
164
 71
1
 72
2
 41
0.9
 42
0.08
  1
R<>
  3
DIMSTYLE_2
100
AcDbRadialDimension
 15
12.5973576082
 25
7.7001962715
  0
DIMENSION
  5
327
100
AcDbEntity
  8
0
100
AcDbDimension
 62
7
  6
CONTINUOUS
  2
*D6
 10
16.3332536187
 20
7.7194667849
 11
16.3488782349
 21
7.2283173523
 70
160
 71
2
 72
2
 41
0.9
 42
0.85
  3
DIMSTYLE_1
100
AcDbAlignedDimension
 13
15.7594974368
 23
6.6569667849
 14
15.1288741384
 24
7.7194667849
 50
90.0
100
AcDbRotatedDimension
  0
DIMENSION
  5
328
100
AcDbEntity
  8
0
100
AcDbDimension
 62
7
  6
CONTINUOUS
  2
*D7
 10
7.4262095203
 20
14.6349409155
 11
7.4301156311
 21
13.2816047974
 70
160
 71
2
 72
2
 41
0.9
 42
2.25
  3
DIMSTYLE_1
100
AcDbAlignedDimension
 13
6.3308704468
 23
11.8224409155
 14
6.3308704468
 24
14.6349409155
 50
90.0
100
AcDbRotatedDimension
  0
DIMENSION
  5
329
100
AcDbEntity
  8
0
100
AcDbDimension
 62
7
  6
CONTINUOUS
  2
*D8
 10
6.1374329468
 20
10.9040814983
 11
4.9182158813
 21
10.9040814209
 70
160
 71
2
 72
2
 41
0.9
 42
1.875
  3
DIMSTYLE_1
100
AcDbAlignedDimension
 13
3.7936829468
 23
11.6290034155
 14
6.1374329468
 24
11.6290034155
100
AcDbRotatedDimension
  0
DIMENSION
  5
32A
100
AcDbEntity
  8
0
100
AcDbDimension
 62
7
  6
CONTINUOUS
  2
*D9
 10
6.8405579468
 20
10.6349762187
 11
6.4457878418
 21
10.6349761963
 70
160
 71
2
 72
2
 41
0.9
 42
0.5625
  3
DIMSTYLE_1
100
AcDbAlignedDimension
 13
6.1374329468
 23
11.6290034155
 14
6.8405579468
 24
11.2755659155
100
AcDbRotatedDimension
  0
DIMENSION
  5
32B
100
AcDbEntity
  8
0
100
AcDbDimension
 62
7
  6
CONTINUOUS
  2
*D10
 10
7.8287707413
 20
11.2755659155
 11
8.2818955688
 21
10.853090271
 70
160
 71
1
 72
2
 41
0.9
 42
0.4375
  3
DIMSTYLE_1
100
AcDbAlignedDimension
 13
6.3308704468
 23
11.8224409155
 14
6.8405579468
 24
11.2755659155
 50
270.0
100
AcDbRotatedDimension
  0
DIMENSION
  5
32C
100
AcDbEntity
  8
0
100
AcDbDimension
 62
7
  6
CONTINUOUS
  2
*D11
 10
7.4582305199
 20
1.6828630371
 11
7.4582306213
 21
3.0359264069
 70
160
 71
2
 72
2
 41
0.9
 42
2.4
  3
DIMSTYLE_1
100
AcDbAlignedDimension
 13
6.5608453516
 23
4.6828630371
 14
6.5608453516
 24
1.6828630371
 50
270.0
100
AcDbRotatedDimension
  0
DIMENSION
  5
32D
100
AcDbEntity
  8
0
100
AcDbDimension
 62
7
  6
CONTINUOUS
  2
*D12
 10
6.3674078516
 20
5.4453250824
 11
5.0246127167
 21
5.4453250427
 70
160
 71
2
 72
2
 41
0.9
 42
2.125
  3
DIMSTYLE_1
100
AcDbAlignedDimension
 13
3.7111578516
 23
4.8763005371
 14
6.3674078516
 24
4.8763005371
100
AcDbRotatedDimension
  0
DIMENSION
  5
32E
100
AcDbEntity
  8
0
100
AcDbDimension
 62
7
  6
CONTINUOUS
  2
*D13
 10
6.3674078516
 20
5.3344552387
 11
7.4699161072
 21
5.3344552612
 70
160
 71
1
 72
2
 41
0.9
 42
0.4375
  3
DIMSTYLE_1
100
AcDbAlignedDimension
 13
6.9142828516
 23
5.1359880371
 14
6.3674078516
 24
4.8763005371
 50
180.0
100
AcDbRotatedDimension
  0
DIMENSION
  5
32F
100
AcDbEntity
  8
0
100
AcDbDimension
 62
7
  6
CONTINUOUS
  2
*D14
 10
8.1498123419
 20
5.1359880371
 11
8.5990311279
 21
4.275913559
 70
160
 71
1
 72
2
 41
0.9
 42
0.3625
  3
DIMSTYLE_1
100
AcDbAlignedDimension
 13
6.5608453516
 23
4.6828630371
 14
6.9142828516
 24
5.1359880371
 50
90.0
100
AcDbRotatedDimension
  0
DIMENSION
  5
330
100
AcDbEntity
  8
0
100
AcDbDimension
 62
7
  6
CONTINUOUS
  2
*D15
 10
12.5563724368
 20
6.173874567
 11
12.1578184814
 21
6.1738746338
 70
160
 71
2
 72
2
 41
0.9
 42
0.5625
  3
DIMSTYLE_1
100
AcDbAlignedDimension
 13
11.8532474368
 23
6.6569667849
 14
12.5563724368
 24
6.6569667849
100
AcDbRotatedDimension
  0
DIMENSION
  5
331
100
AcDbEntity
  8
0
100
AcDbDimension
 62
7
  6
CONTINUOUS
  2
*D16
 10
2.2155882985
 20
1.2297380371
 11
2.2194945526
 21
3.2608488464
 70
160
 71
2
 72
2
 41
0.9
 42
3.125
  3
DIMSTYLE_3
100
AcDbAlignedDimension
 13
3.1642828516
 23
5.1359880371
 14
3.1642828516
 24
1.2297380371
 50
270.0
100
AcDbRotatedDimension
  0
ACAD_TABLE
  5
332
100
AcDbEntity
  8
0
 62
7
  6
CONTINUOUS
100
AcDbBlockReference
  2
*T1
 10
15.272
 20
1.5901001378
 30
0.0
100
AcDbTable
342
       49C
343
21E
 11
1.0
 21
0.0
 31
0.0
 90
22
 91
1
 92
1
 93
0
 94
0
 95
0
 96
0
141
0.303367
142
2.016
171
1
172
0
173
0
174
0
175
1
176
1
 91
49
178
0
145
0.0
  7
TEXTSTYLE_3
301
CELL_VALUE
 90
4
  1
Nov-27-22
304
ACVALUE_END
170
6
140
0.12
  0
ACAD_TABLE
  5
333
100
AcDbEntity
  8
0
 62
7
  6
CONTINUOUS
100
AcDbBlockReference
  2
*T2
 10
21.56
 20
5.6861809824
 30
0.0
100
AcDbTable
342
       49C
343
21F
 11
0.0
 21
1.0
 31
0.0
 90
22
 91
1
 92
1
 93
0
 94
0
 95
0
 96
0
141
0.367159
142
2.3046
171
1
172
0
173
0
174
0
175
1
176
1
 91
33
178
0
145
0.0
301
CELL_VALUE
 90
4
  1
COLLECTOR_2BY3ALUMINUM_DRAW
304
ACVALUE_END
170
6
140
0.09
  0
ACAD_TABLE
  5
334
100
AcDbEntity
  8
0
 62
7
  6
CONTINUOUS
100
AcDbBlockReference
  2
*T3
 10
17.288
 20
1.9587331378
 30
0.0
100
AcDbTable
342
       49C
343
220
 11
1.0
 21
0.0
 31
0.0
 90
22
 91
1
 92
1
 93
0
 94
0
 95
0
 96
0
141
0.672
142
4.272
171
1
172
0
173
0
174
0
175
1
176
1
 91
49
178
0
145
0.0
  7
TEXTSTYLE_3
301
CELL_VALUE
 90
4
  1
COLLECTOR_2BY3ALUMINUM_GJS
304
ACVALUE_END
170
5
140
0.16
  0
ACAD_TABLE
  5
335
100
AcDbEntity
  8
0
 62
7
  6
CONTINUOUS
100
AcDbBlockReference
  2
*T4
 10
18.824
 20
1.2867331378
 30
0.0
100
AcDbTable
342
       49C
343
221
 11
1.0
 21
0.0
 31
0.0
 90
22
 91
1
 92
1
 93
0
 94
0
 95
0
 96
0
141
0.384
142
2.304
171
1
172
0
173
0
174
0
175
1
176
1
 91
49
178
0
145
0.0
  7
TEXTSTYLE_3
301
CELL_VALUE
 90
4
  1
COLLECTOR_2BY3ALUMINUM_DRAW
304
ACVALUE_END
170
6
140
0.08
  0
ACAD_TABLE
  5
336
100
AcDbEntity
  8
0
 62
7
  6
CONTINUOUS
100
AcDbBlockReference
  2
*T5
 10
17.288
 20
0.9027331378
 30
0.0
100
AcDbTable
342
       49C
343
222
 11
1.0
 21
0.0
 31
0.0
 90
22
 91
1
 92
1
 93
16
 94
0
 95
0
 96
0
 41
0.0410932
141
0.222733
142
0.96
171
1
172
0
173
0
174
0
175
1
176
1
 91
49
178
0
145
0.0
  7
TEXTSTYLE_3
301
CELL_VALUE
 90
4
  1
1.250
304
ACVALUE_END
170
6
140
0.12
  0
ACAD_TABLE
  5
337
100
AcDbEntity
  8
0
 62
7
  6
CONTINUOUS
100
AcDbBlockReference
  2
*T6
 10
15.272
 20
1.2867331378
 30
0.0
100
AcDbTable
342
       49C
343
223
 11
1.0
 21
0.0
 31
0.0
 90
22
 91
1
 92
1
 93
0
 94
0
 95
0
 96
0
141
0.303367
142
2.016
171
1
172
0
173
0
174
0
175
1
176
1
 91
49
178
0
145
0.0
  7
TEXTSTYLE_3
301
CELL_VALUE
 90
4
  1
Gabriel Schettler
304
ACVALUE_END
170
6
140
0.12
  0
ACAD_TABLE
  5
338
100
AcDbEntity
  8
0
 62
7
  6
CONTINUOUS
100
AcDbBlockReference
  2
*T7
 10
15.272
 20
0.9833666378
 30
0.0
100
AcDbTable
342
       49C
343
224
 11
1.0
 21
0.0
 31
0.0
 90
22
 91
1
 92
1
 93
0
 94
0
 95
0
 96
0
141
0.303367
142
2.016
171
1
172
0
173
0
174
0
175
1
176
1
 91
33
178
0
145
0.0
301
CELL_VALUE
 90
4
  1
 
304
ACVALUE_END
170
6
140
0.15625
  0
ACAD_TABLE
  5
339
100
AcDbEntity
  8
0
 62
7
  6
CONTINUOUS
100
AcDbBlockReference
  2
*T8
 10
17.6716559315
 20
1.2864637075
 30
0.0
100
AcDbTable
342
       49C
343
225
 11
1.0
 21
0.0
 31
0.0
 90
22
 91
1
 92
1
 93
0
 94
0
 95
0
 96
0
141
0.384
142
1.152
171
1
172
0
173
0
174
0
175
1
176
1
 91
49
178
0
145
0.0
  7
TEXTSTYLE_2
301
CELL_VALUE
 90
4
  1
COURSE : \PSECTION : 
304
ACVALUE_END
170
4
140
0.09
  0
ACAD_TABLE
  5
33A
100
AcDbEntity
  8
0
 62
7
  6
CONTINUOUS
100
AcDbBlockReference
  2
*T9
 10
18.247911093
 20
0.9025778906
 30
0.0
100
AcDbTable
342
       49C
343
226
 11
1.0
 21
0.0
 31
0.0
 90
22
 91
1
 92
1
 93
16
 94
0
 95
0
 96
0
 41
0.0490932
141
0.222733
142
1.536
171
1
172
0
173
0
174
0
175
1
176
1
 91
49
178
0
145
0.0
  7
TEXTSTYLE_3
301
CELL_VALUE
 90
4
  1
AL6061 
304
ACVALUE_END
170
6
140
0.1
  0
LEADER
  5
33B
100
AcDbEntity
  8
0
100
AcDbLeader
 62
7
  6
CONTINUOUS
  3
STANDARD
 71
1
 72
0
 73
0
 75
0
 40
0.15625
 41
0.625
 76
3
 10
3.8988308498
 20
14.6901267922
 30
0.0
 10
4.8483662385
 20
15.9147813145
 30
0.0
 10
5.0983662385
 20
15.9147813145
 30
0.0
340
33C
1001
ACAD
1000
DSTYLE
1002
{
1070
77
1070
0
1002
}
  0
MTEXT
  5
33C
102
{ACAD_REACTORS
330
33B
102
}
100
AcDbEntity
  8
0
100
AcDbMText
 62
7
  6
CONTINUOUS
  7
STANDARD
 71
1
 72
1
 10
5.0983662385
 20
15.9929063145
 30
0.0
 11
1.0
 21
0.0
 31
0.0
 73
2
 44
0.9
  1
10-24 UNC - 2B TAP  THRU \P#25 DRILL ( 0.150 )  THRU 
 40
0.15625
 41
3.25
  0
LEADER
  5
33D
100
AcDbEntity
  8
0
100
AcDbLeader
 62
7
  6
CONTINUOUS
  3
STANDARD
 71
1
 72
0
 73
0
 75
0
 40
0.15625
 41
0.625
 76
3
 10
6.4348655403
 20
1.585133703
 30
0.0
 10
7.5105737494
 20
1.3089294959
 30
0.0
 10
7.7605737494
 20
1.3089294959
 30
0.0
340
33E
1001
ACAD
1000
DSTYLE
1002
{
1070
77
1070
0
1002
}
  0
MTEXT
  5
33E
102
{ACAD_REACTORS
330
33D
102
}
100
AcDbEntity
  8
0
100
AcDbMText
 62
7
  6
CONTINUOUS
  7
STANDARD
 71
1
 72
1
 10
7.7605737494
 20
1.3870544959
 30
0.0
 11
1.0
 21
0.0
 31
0.0
 73
2
 44
0.9
  1
10-24 UNC - 2B TAP  THRU \P#25 DRILL ( 0.150 )  THRU 
 40
0.15625
 41
3.25
  0
LINE
  5
33F
100
AcDbEntity
  8
0
100
AcDbLine
 62
7
  6
CONTINUOUS
 10
-0.0
 20
0.0
 11
-0.0
 21
17.0
  0
LINE
  5
340
100
AcDbEntity
  8
0
100
AcDbLine
 62
7
  6
CONTINUOUS
 10
0.44
 20
0.68
 11
0.44
 21
16.28
  0
LINE
  5
341
100
AcDbEntity
  8
0
100
AcDbLine
 62
7
  6
CONTINUOUS
 10
-0.0
 20
0.0
 11
22.0
 21
0.0
  0
LINE
  5
342
100
AcDbEntity
  8
0
100
AcDbLine
 62
7
  6
CONTINUOUS
 10
14.8657630005
 20
1.1805738422
 11
15.1470130005
 21
1.2430738422
  0
LINE
  5
343
100
AcDbEntity
  8
0
100
AcDbLine
 62
7
  6
CONTINUOUS
 10
0.44
 20
0.68
 11
21.56
 21
0.68
  0
LINE
  5
344
100
AcDbEntity
  8
0
100
AcDbLine
 62
7
  6
CONTINUOUS
 10
21.56
 20
0.9027331378
 11
17.288
 21
0.9027331378
  0
LINE
  5
345
100
AcDbEntity
  8
0
100
AcDbLine
 62
7
  6
CONTINUOUS
 10
17.288
 20
0.9833666378
 11
15.272
 21
0.9833666378
  0
LINE
  5
346
100
AcDbEntity
  8
0
100
AcDbLine
 62
7
  6
CONTINUOUS
 10
21.56
 20
1.2867331378
 11
15.272
 21
1.2867331378
  0
LINE
  5
347
100
AcDbEntity
  8
0
100
AcDbLine
 62
7
  6
CONTINUOUS
 10
17.288
 20
1.5901001378
 11
15.272
 21
1.5901001378
  0
LINE
  5
348
100
AcDbEntity
  8
0
100
AcDbLine
 62
7
  6
CONTINUOUS
 10
21.56
 20
1.9587331378
 11
17.288
 21
1.9587331378
  0
LINE
  5
349
100
AcDbEntity
  8
0
100
AcDbLine
 62
7
  6
CONTINUOUS
 10
21.56
 20
2.4387331378
 11
15.272
 21
2.4387331378
  0
LINE
  5
34A
100
AcDbEntity
  8
0
100
AcDbLine
 62
7
  6
CONTINUOUS
 10
14.8657630005
 20
1.0555738422
 11
15.1470130005
 21
0.9930738422
  0
LINE
  5
34B
100
AcDbEntity
  8
0
100
AcDbLine
 62
7
  6
CONTINUOUS
 10
5.48
 20
0.68
 11
5.48
 21
0.2
  0
LINE
  5
34C
100
AcDbEntity
  8
0
100
AcDbLine
 62
7
  6
CONTINUOUS
 10
5.48
 20
16.28
 11
5.48
 21
16.76
  0
LINE
  5
34D
100
AcDbEntity
  8
0
100
AcDbLine
 62
7
  6
CONTINUOUS
 10
0.44
 20
4.28
 11
0.2
 21
4.28
  0
LINE
  5
34E
100
AcDbEntity
  8
0
100
AcDbLine
 62
7
  6
CONTINUOUS
 10
21.56
 20
4.28
 11
21.8
 21
4.28
  0
LINE
  5
34F
100
AcDbEntity
  8
0
100
AcDbLine
 62
7
  6
CONTINUOUS
 10
21.9271588092
 20
4.751705129
 11
21.56
 21
4.751705129
  0
LINE
  5
350
100
AcDbEntity
  8
0
100
AcDbLine
 62
7
  6
CONTINUOUS
 10
21.56
 20
5.6861809824
 11
21.9271588092
 21
5.6861809824
  0
LINE
  5
351
100
AcDbEntity
  8
0
100
AcDbLine
 62
7
  6
CONTINUOUS
 10
11.0
 20
0.68
 11
11.0
 21
0.2
  0
LINE
  5
352
100
AcDbEntity
  8
0
100
AcDbLine
 62
7
  6
CONTINUOUS
 10
11.0
 20
16.28
 11
11.0
 21
16.76
  0
LINE
  5
353
100
AcDbEntity
  8
0
100
AcDbLine
 62
7
  6
CONTINUOUS
 10
21.56
 20
7.9907768322
 11
21.9271588092
 21
7.9907768322
  0
LINE
  5
354
100
AcDbEntity
  8
0
100
AcDbLine
 62
7
  6
CONTINUOUS
 10
0.44
 20
8.36
 11
0.2
 21
8.36
  0
LINE
  5
355
100
AcDbEntity
  8
0
100
AcDbLine
 62
7
  6
CONTINUOUS
 10
21.56
 20
8.36
 11
21.8
 21
8.36
  0
LINE
  5
356
100
AcDbEntity
  8
0
100
AcDbLine
 62
7
  6
CONTINUOUS
 10
14.8657630005
 20
1.1805738422
 11
14.8657630005
 21
1.0555738422
  0
LINE
  5
357
100
AcDbEntity
  8
0
100
AcDbLine
 62
7
  6
CONTINUOUS
 10
15.1470130005
 20
1.2430738422
 11
15.1470130005
 21
0.9930738422
  0
LINE
  5
358
100
AcDbEntity
  8
0
100
AcDbLine
 62
7
  6
CONTINUOUS
 10
15.272
 20
2.4387331378
 11
15.272
 21
0.68
  0
LINE
  5
359
100
AcDbEntity
  8
0
100
AcDbLine
 62
7
  6
CONTINUOUS
 10
0.44
 20
12.68
 11
0.2
 21
12.68
  0
LINE
  5
35A
100
AcDbEntity
  8
0
100
AcDbLine
 62
7
  6
CONTINUOUS
 10
21.56
 20
12.68
 11
21.8
 21
12.68
  0
LINE
  5
35B
100
AcDbEntity
  8
0
100
AcDbLine
 62
7
  6
CONTINUOUS
 10
16.52
 20
0.68
 11
16.52
 21
0.2
  0
LINE
  5
35C
100
AcDbEntity
  8
0
100
AcDbLine
 62
7
  6
CONTINUOUS
 10
16.52
 20
16.28
 11
16.52
 21
16.76
  0
LINE
  5
35D
100
AcDbEntity
  8
0
100
AcDbLine
 62
7
  6
CONTINUOUS
 10
17.288
 20
0.68
 11
17.288
 21
2.4387331378
  0
LINE
  5
35E
100
AcDbEntity
  8
0
100
AcDbLine
 62
7
  6
CONTINUOUS
 10
17.672
 20
1.2867331378
 11
17.672
 21
0.9027331378
  0
LINE
  5
35F
100
AcDbEntity
  8
0
100
AcDbLine
 62
7
  6
CONTINUOUS
 10
18.248
 20
0.68
 11
18.248
 21
0.9027331378
  0
LINE
  5
360
100
AcDbEntity
  8
0
100
AcDbLine
 62
7
  6
CONTINUOUS
 10
18.824
 20
1.2867331378
 11
18.824
 21
0.9027331378
  0
LINE
  5
361
100
AcDbEntity
  8
0
100
AcDbLine
 62
7
  6
CONTINUOUS
 10
0.44
 20
16.28
 11
21.56
 21
16.28
  0
LINE
  5
362
100
AcDbEntity
  8
0
100
AcDbLine
 62
7
  6
CONTINUOUS
 10
-0.0
 20
17.0
 11
22.0
 21
17.0
  0
LINE
  5
363
100
AcDbEntity
  8
0
100
AcDbLine
 62
7
  6
CONTINUOUS
 10
19.784
 20
0.68
 11
19.784
 21
0.9027331378
  0
LINE
  5
364
100
AcDbEntity
  8
0
100
AcDbLine
 62
7
  6
CONTINUOUS
 10
21.128
 20
1.2867331378
 11
21.128
 21
0.9027331378
  0
LINE
  5
365
100
AcDbEntity
  8
0
100
AcDbLine
 62
7
  6
CONTINUOUS
 10
21.56
 20
16.28
 11
21.56
 21
0.68
  0
LINE
  5
366
100
AcDbEntity
  8
0
100
AcDbLine
 62
7
  6
CONTINUOUS
 10
21.9271588092
 20
7.9907768322
 11
21.9271588092
 21
4.751705129
  0
LINE
  5
367
100
AcDbEntity
  8
0
100
AcDbLine
 62
7
  6
CONTINUOUS
 10
22.0
 20
0.0
 11
22.0
 21
17.0
  0
LINE
  5
368
100
AcDbEntity
  8
0
100
AcDbLine
 62
7
  6
CONTINUOUS
 10
15.1739211343
 20
13.7351573654
 11
15.1686574925
 21
11.7901804267
  0
LINE
  5
369
100
AcDbEntity
  8
0
100
AcDbLine
 62
7
  6
CONTINUOUS
 10
15.3890316893
 20
11.8933289897
 11
15.3929794207
 21
13.3520616938
  0
LINE
  5
36A
100
AcDbEntity
  8
0
100
AcDbLine
 62
7
  6
CONTINUOUS
 10
15.1686574925
 20
11.7901804267
 11
17.805252391
 21
10.1104977754
  0
LINE
  5
36B
100
AcDbEntity
  8
0
100
AcDbLine
 62
7
  6
CONTINUOUS
 10
17.9516391248
 20
15.4561350201
 11
15.1739211343
 21
13.7351573654
  0
LINE
  5
36C
100
AcDbEntity
  8
0
100
AcDbLine
 62
7
  6
CONTINUOUS
 10
17.5861941047
 20
10.493593447
 11
15.3890316893
 21
11.8933289897
  0
LINE
  5
36D
100
AcDbEntity
  8
0
100
AcDbLine
 62
7
  6
CONTINUOUS
 10
15.8890209276
 20
12.2031049676
 11
15.8903894744
 21
12.7087989716
  0
LINE
  5
36E
100
AcDbEntity
  8
0
100
AcDbLine
 62
7
  6
CONTINUOUS
 10
17.5878915351
 20
11.1208137563
 11
15.8890209276
 21
12.2031049676
  0
LINE
  5
36F
100
AcDbEntity
  8
0
100
AcDbLine
 62
7
  6
CONTINUOUS
 10
16.0883088404
 20
12.909091572
 11
15.9617096007
 21
12.8306550771
  0
LINE
  5
370
100
AcDbEntity
  8
0
100
AcDbLine
 62
7
  6
CONTINUOUS
 10
15.3929794207
 20
13.3520616938
 11
17.590141836
 21
11.952326151
  0
LINE
  5
371
100
AcDbEntity
  8
0
100
AcDbLine
 62
7
  6
CONTINUOUS
 10
15.8890209276
 20
12.2031049676
 11
15.3890316893
 21
11.8933289897
  0
LINE
  5
372
100
AcDbEntity
  8
0
100
AcDbLine
 62
7
  6
CONTINUOUS
 10
17.8105160328
 20
12.0554747141
 11
15.1739211343
 21
13.7351573654
  0
LINE
  5
373
100
AcDbEntity
  8
0
100
AcDbLine
 62
7
  6
CONTINUOUS
 10
17.590141836
 20
11.952326151
 11
17.5861941047
 21
10.493593447
  0
LINE
  5
374
100
AcDbEntity
  8
0
100
AcDbLine
 62
7
  6
CONTINUOUS
 10
17.805252391
 20
10.1104977754
 11
17.8105160328
 21
12.0554747141
  0
LINE
  5
375
100
AcDbEntity
  8
0
100
AcDbLine
 62
7
  6
CONTINUOUS
 10
19.4262811356
 20
11.9400601228
 11
20.0829811431
 21
11.5216994522
  0
LINE
  5
376
100
AcDbEntity
  8
0
100
AcDbLine
 62
7
  6
CONTINUOUS
 10
18.3052416293
 20
10.4202737532
 11
18.3072681313
 21
11.1690898746
  0
LINE
  5
377
100
AcDbEntity
  8
0
100
AcDbLine
 62
7
  6
CONTINUOUS
 10
19.8639228568
 20
11.9047951238
 11
19.6200861518
 21
12.0601349841
  0
LINE
  5
378
100
AcDbEntity
  8
0
100
AcDbLine
 62
7
  6
CONTINUOUS
 10
20.5882340232
 20
13.7764523688
 11
17.8105160328
 21
12.0554747141
  0
LINE
  5
379
100
AcDbEntity
  8
0
100
AcDbLine
 62
7
  6
CONTINUOUS
 10
20.0850076452
 20
12.2705155736
 11
20.0243759311
 21
12.309141924
  0
LINE
  5
37A
100
AcDbEntity
  8
0
100
AcDbLine
 62
7
  6
CONTINUOUS
 10
20.0141086103
 20
12.3042576232
 11
18.3785882576
 21
11.2909459801
  0
LINE
  5
37B
100
AcDbEntity
  8
0
100
AcDbLine
 62
7
  6
CONTINUOUS
 10
19.8639228568
 20
11.9047951238
 11
19.8647534863
 21
12.2117223723
  0
LINE
  5
37C
100
AcDbEntity
  8
0
100
AcDbLine
 62
7
  6
CONTINUOUS
 10
20.0829811431
 20
11.5216994522
 11
20.0850076452
 21
12.2705155736
  0
LINE
  5
37D
100
AcDbEntity
  8
0
100
AcDbLine
 62
7
  6
CONTINUOUS
 10
20.5829703814
 20
11.83147543
 11
20.0829811431
 21
11.5216994522
  0
LINE
  5
37E
100
AcDbEntity
  8
0
100
AcDbLine
 62
7
  6
CONTINUOUS
 10
18.3052416293
 20
10.4202737532
 11
17.805252391
 21
10.1104977754
  0
LINE
  5
37F
100
AcDbEntity
  8
0
100
AcDbLine
 62
7
  6
CONTINUOUS
 10
20.5882340232
 20
13.7764523688
 11
17.9516391248
 21
15.4561350201
  0
LINE
  5
380
100
AcDbEntity
  8
0
100
AcDbLine
 62
7
  6
CONTINUOUS
 10
20.5829703814
 20
11.83147543
 11
20.5882340232
 21
13.7764523688
  0
LINE
  5
381
100
AcDbEntity
  8
0
100
AcDbLine
 62
7
  6
CONTINUOUS
 10
3.0905579468
 20
9.1569667849
 11
3.0905579468
 21
6.6569667849
  0
LINE
  5
382
100
AcDbEntity
  8
0
100
AcDbLine
 62
7
  6
CONTINUOUS
 10
3.4030579468
 20
6.9694667849
 11
3.4030579468
 21
8.8444667849
  0
LINE
  5
383
100
AcDbEntity
  8
0
100
AcDbLine
 62
7
  6
CONTINUOUS
 10
3.0905579468
 20
6.6569667849
 11
6.8405579468
 21
6.6569667849
  0
LINE
  5
384
100
AcDbEntity
  8
0
100
AcDbLine
 62
7
  6
CONTINUOUS
 10
6.5280579468
 20
6.9694667849
 11
3.4030579468
 21
6.9694667849
  0
LINE
  5
385
100
AcDbEntity
  8
0
100
AcDbLine
 62
7
  6
CONTINUOUS
 10
3.4030579468
 20
8.8444667849
 11
6.5280579468
 21
8.8444667849
  0
LINE
  5
386
100
AcDbEntity
  8
0
100
AcDbLine
 62
7
  6
CONTINUOUS
 10
6.8405579468
 20
9.1569667849
 11
3.0905579468
 21
9.1569667849
  0
LINE
  5
387
100
AcDbEntity
  8
0
100
AcDbLine
 62
7
  6
CONTINUOUS
 10
6.5280579468
 20
8.8444667849
 11
6.5280579468
 21
6.9694667849
  0
LINE
  5
388
100
AcDbEntity
  8
0
100
AcDbLine
 62
7
  6
CONTINUOUS
 10
6.8405579468
 20
6.6569667849
 11
6.8405579468
 21
9.1569667849
  0
LINE
  5
389
100
AcDbEntity
  8
0
100
AcDbLine
 62
7
  6
CONTINUOUS
 10
11.8532474368
 20
6.6569667849
 11
11.8532474368
 21
9.1569667849
  0
LINE
  5
38A
100
AcDbEntity
  8
0
100
AcDbLine
 62
7
  6
CONTINUOUS
 10
12.5563724368
 20
6.6569667849
 11
12.5563724368
 21
7.6194667849
  0
LINE
  5
38B
100
AcDbEntity
  8
0
100
AcDbLine
 62
7
  6
CONTINUOUS
 10
15.7594974368
 20
6.6569667849
 11
15.0563724368
 21
6.6569667849
  0
LINE
  5
38C
100
AcDbEntity
  8
0
100
AcDbLine
 62
7
  6
CONTINUOUS
 10
12.5563724368
 20
6.6569667849
 11
11.8532474368
 21
6.6569667849
  0
LINE
  5
38D
100
AcDbEntity
  8
0
100
AcDbLine
 62
7
  6
CONTINUOUS
 10
14.9563724368
 20
7.7194667849
 11
12.6563724368
 21
7.7194667849
  0
LINE
  5
38E
100
AcDbEntity
  8
0
100
AcDbLine
 62
7
  6
CONTINUOUS
 10
15.0563724368
 20
6.6569667849
 11
15.0563724368
 21
7.6194667849
  0
LINE
  5
38F
100
AcDbEntity
  8
0
100
AcDbLine
 62
7
  6
CONTINUOUS
 10
15.7594974368
 20
9.1569667849
 11
11.8532474368
 21
9.1569667849
  0
LINE
  5
390
100
AcDbEntity
  8
0
100
AcDbLine
 62
7
  6
CONTINUOUS
 10
15.7594974368
 20
6.6569667849
 11
15.7594974368
 21
9.1569667849
  0
LINE
  5
391
100
AcDbEntity
  8
0
100
AcDbLine
 62
7
  6
CONTINUOUS
 10
3.0905579468
 20
15.1818159155
 11
3.0905579468
 21
11.2755659155
  0
LINE
  5
392
100
AcDbEntity
  8
0
100
AcDbLine
 62
7
  6
CONTINUOUS
 10
6.8405579468
 20
11.2755659155
 11
3.0905579468
 21
11.2755659155
  0
LINE
  5
393
100
AcDbEntity
  8
02___PRT_ALL_AXES
100
AcDbLine
 62
7
  6
CENTER
 10
6.1374329468
 20
11.8224409155
 11
5.9439954468
 21
11.8224409155
  0
LINE
  5
394
100
AcDbEntity
  8
02___PRT_ALL_AXES
100
AcDbLine
 62
7
  6
CENTER
 10
3.7936829468
 20
11.8224409155
 11
3.6002454468
 21
11.8224409155
  0
LINE
  5
395
100
AcDbEntity
  8
02___PRT_ALL_AXES
100
AcDbLine
 62
7
  6
CENTER
 10
3.7936829468
 20
11.8224409155
 11
3.9871204468
 21
11.8224409155
  0
LINE
  5
396
100
AcDbEntity
  8
02___PRT_ALL_AXES
100
AcDbLine
 62
7
  6
CENTER
 10
6.1374329468
 20
11.8224409155
 11
6.3308704468
 21
11.8224409155
  0
LINE
  5
397
100
AcDbEntity
  8
02___PRT_ALL_AXES
100
AcDbLine
 62
7
  6
CENTER
 10
3.7936829468
 20
14.6349409155
 11
3.7936829468
 21
14.4415034155
  0
LINE
  5
398
100
AcDbEntity
  8
02___PRT_ALL_AXES
100
AcDbLine
 62
7
  6
CENTER
 10
3.7936829468
 20
11.8224409155
 11
3.7936829468
 21
11.6290034155
  0
LINE
  5
399
100
AcDbEntity
  8
02___PRT_ALL_AXES
100
AcDbLine
 62
7
  6
CENTER
 10
3.7936829468
 20
11.8224409155
 11
3.7936829468
 21
12.0158784155
  0
LINE
  5
39A
100
AcDbEntity
  8
02___PRT_ALL_AXES
100
AcDbLine
 62
7
  6
CENTER
 10
3.7936829468
 20
14.6349409155
 11
3.7936829468
 21
14.8283784155
  0
LINE
  5
39B
100
AcDbEntity
  8
02___PRT_ALL_AXES
100
AcDbLine
 62
7
  6
CENTER
 10
6.1374329468
 20
14.6349409155
 11
6.1374329468
 21
14.4415034155
  0
LINE
  5
39C
100
AcDbEntity
  8
02___PRT_ALL_AXES
100
AcDbLine
 62
7
  6
CENTER
 10
6.1374329468
 20
11.8224409155
 11
6.1374329468
 21
11.6290034155
  0
LINE
  5
39D
100
AcDbEntity
  8
02___PRT_ALL_AXES
100
AcDbLine
 62
7
  6
CENTER
 10
6.1374329468
 20
11.8224409155
 11
6.1374329468
 21
12.0158784155
  0
LINE
  5
39E
100
AcDbEntity
  8
02___PRT_ALL_AXES
100
AcDbLine
 62
7
  6
CENTER
 10
6.1374329468
 20
14.6349409155
 11
6.1374329468
 21
14.8283784155
  0
LINE
  5
39F
100
AcDbEntity
  8
02___PRT_ALL_AXES
100
AcDbLine
 62
7
  6
CENTER
 10
6.1374329468
 20
14.6349409155
 11
5.9439954468
 21
14.6349409155
  0
LINE
  5
3A0
100
AcDbEntity
  8
02___PRT_ALL_AXES
100
AcDbLine
 62
7
  6
CENTER
 10
3.7936829468
 20
14.6349409155
 11
3.6002454468
 21
14.6349409155
  0
LINE
  5
3A1
100
AcDbEntity
  8
02___PRT_ALL_AXES
100
AcDbLine
 62
7
  6
CENTER
 10
3.7936829468
 20
14.6349409155
 11
3.9871204468
 21
14.6349409155
  0
LINE
  5
3A2
100
AcDbEntity
  8
02___PRT_ALL_AXES
100
AcDbLine
 62
7
  6
CENTER
 10
6.1374329468
 20
14.6349409155
 11
6.3308704468
 21
14.6349409155
  0
LINE
  5
3A3
100
AcDbEntity
  8
0
100
AcDbLine
 62
7
  6
CONTINUOUS
 10
6.8405579468
 20
15.1818159155
 11
6.8405579468
 21
11.2755659155
  0
LINE
  5
3A4
100
AcDbEntity
  8
0
100
AcDbLine
 62
7
  6
CONTINUOUS
 10
6.8405579468
 20
15.1818159155
 11
3.0905579468
 21
15.1818159155
  0
LINE
  5
3A5
100
AcDbEntity
  8
0
100
AcDbLine
 62
7
  6
CONTINUOUS
 10
3.1642828516
 20
1.2297380371
 11
3.1642828516
 21
5.1359880371
  0
LINE
  5
3A6
100
AcDbEntity
  8
0
100
AcDbLine
 62
7
  6
CONTINUOUS
 10
6.9142828516
 20
1.2297380371
 11
3.1642828516
 21
1.2297380371
  0
LINE
  5
3A7
100
AcDbEntity
  8
0
100
AcDbLine
 62
7
  6
CONTINUOUS
 10
3.4767828516
 20
4.4328630371
 11
3.4767828516
 21
1.9328630371
  0
LINE
  5
3A8
100
AcDbEntity
  8
02___PRT_ALL_AXES
100
AcDbLine
 62
7
  6
CENTER
 10
6.3674078516
 20
1.6828630371
 11
6.1739703516
 21
1.6828630371
  0
LINE
  5
3A9
100
AcDbEntity
  8
02___PRT_ALL_AXES
100
AcDbLine
 62
7
  6
CENTER
 10
3.7111578516
 20
1.6828630371
 11
3.5177203516
 21
1.6828630371
  0
LINE
  5
3AA
100
AcDbEntity
  8
02___PRT_ALL_AXES
100
AcDbLine
 62
7
  6
CENTER
 10
3.7111578516
 20
1.6828630371
 11
3.9045953516
 21
1.6828630371
  0
LINE
  5
3AB
100
AcDbEntity
  8
02___PRT_ALL_AXES
100
AcDbLine
 62
7
  6
CENTER
 10
6.3674078516
 20
1.6828630371
 11
6.5608453516
 21
1.6828630371
  0
LINE
  5
3AC
100
AcDbEntity
  8
02___PRT_ALL_AXES
100
AcDbLine
 62
7
  6
CENTER
 10
3.7111578516
 20
4.6828630371
 11
3.7111578516
 21
4.4894255371
  0
LINE
  5
3AD
100
AcDbEntity
  8
02___PRT_ALL_AXES
100
AcDbLine
 62
7
  6
CENTER
 10
3.7111578516
 20
1.6828630371
 11
3.7111578516
 21
1.4894255371
  0
LINE
  5
3AE
100
AcDbEntity
  8
02___PRT_ALL_AXES
100
AcDbLine
 62
7
  6
CENTER
 10
3.7111578516
 20
1.6828630371
 11
3.7111578516
 21
1.8763005371
  0
LINE
  5
3AF
100
AcDbEntity
  8
02___PRT_ALL_AXES
100
AcDbLine
 62
7
  6
CENTER
 10
3.7111578516
 20
4.6828630371
 11
3.7111578516
 21
4.8763005371
  0
LINE
  5
3B0
100
AcDbEntity
  8
0
100
AcDbLine
 62
7
  6
CONTINUOUS
 10
6.9142828516
 20
1.9328630371
 11
3.1642828516
 21
1.9328630371
  0
LINE
  5
3B1
100
AcDbEntity
  8
0
100
AcDbLine
 62
7
  6
CONTINUOUS
 10
3.1642828516
 20
2.0328630371
 11
3.4767828516
 21
2.0328630371
  0
LINE
  5
3B2
100
AcDbEntity
  8
0
100
AcDbLine
 62
7
  6
CONTINUOUS
 10
6.6017828516
 20
2.0328630371
 11
6.9142828516
 21
2.0328630371
  0
LINE
  5
3B3
100
AcDbEntity
  8
0
100
AcDbLine
 62
7
  6
CONTINUOUS
 10
3.1642828516
 20
4.3328630371
 11
3.4767828516
 21
4.3328630371
  0
LINE
  5
3B4
100
AcDbEntity
  8
0
100
AcDbLine
 62
7
  6
CONTINUOUS
 10
6.6017828516
 20
4.3328630371
 11
6.9142828516
 21
4.3328630371
  0
LINE
  5
3B5
100
AcDbEntity
  8
0
100
AcDbLine
 62
7
  6
CONTINUOUS
 10
6.9142828516
 20
4.4328630371
 11
3.1642828516
 21
4.4328630371
  0
LINE
  5
3B6
100
AcDbEntity
  8
02___PRT_ALL_AXES
100
AcDbLine
 62
7
  6
CENTER
 10
6.3674078516
 20
4.6828630371
 11
6.3674078516
 21
4.4894255371
  0
LINE
  5
3B7
100
AcDbEntity
  8
02___PRT_ALL_AXES
100
AcDbLine
 62
7
  6
CENTER
 10
6.3674078516
 20
1.6828630371
 11
6.3674078516
 21
1.4894255371
  0
LINE
  5
3B8
100
AcDbEntity
  8
02___PRT_ALL_AXES
100
AcDbLine
 62
7
  6
CENTER
 10
6.3674078516
 20
1.6828630371
 11
6.3674078516
 21
1.8763005371
  0
LINE
  5
3B9
100
AcDbEntity
  8
02___PRT_ALL_AXES
100
AcDbLine
 62
7
  6
CENTER
 10
6.3674078516
 20
4.6828630371
 11
6.3674078516
 21
4.8763005371
  0
LINE
  5
3BA
100
AcDbEntity
  8
0
100
AcDbLine
 62
7
  6
CONTINUOUS
 10
6.6017828516
 20
1.9328630371
 11
6.6017828516
 21
4.4328630371
  0
LINE
  5
3BB
100
AcDbEntity
  8
02___PRT_ALL_AXES
100
AcDbLine
 62
7
  6
CENTER
 10
6.3674078516
 20
4.6828630371
 11
6.1739703516
 21
4.6828630371
  0
LINE
  5
3BC
100
AcDbEntity
  8
02___PRT_ALL_AXES
100
AcDbLine
 62
7
  6
CENTER
 10
3.7111578516
 20
4.6828630371
 11
3.5177203516
 21
4.6828630371
  0
LINE
  5
3BD
100
AcDbEntity
  8
02___PRT_ALL_AXES
100
AcDbLine
 62
7
  6
CENTER
 10
3.7111578516
 20
4.6828630371
 11
3.9045953516
 21
4.6828630371
  0
LINE
  5
3BE
100
AcDbEntity
  8
02___PRT_ALL_AXES
100
AcDbLine
 62
7
  6
CENTER
 10
6.3674078516
 20
4.6828630371
 11
6.5608453516
 21
4.6828630371
  0
LINE
  5
3BF
100
AcDbEntity
  8
0
100
AcDbLine
 62
7
  6
CONTINUOUS
 10
6.9142828516
 20
5.1359880371
 11
6.9142828516
 21
1.2297380371
  0
LINE
  5
3C0
100
AcDbEntity
  8
0
100
AcDbLine
 62
7
  6
CONTINUOUS
 10
6.9142828516
 20
5.1359880371
 11
3.1642828516
 21
5.1359880371
  0
CIRCLE
  5
3C1
100
AcDbEntity
  8
0
100
AcDbCircle
 62
7
  6
CONTINUOUS
 10
14.6470130005
 20
1.1180738422
 40
0.125
  0
CIRCLE
  5
3C2
100
AcDbEntity
  8
0
100
AcDbCircle
 62
7
  6
CONTINUOUS
 10
14.6470130005
 20
1.1180738422
 40
0.0625
  0
ARC
  5
3C3
100
AcDbEntity
  8
0
100
AcDbCircle
 62
7
  6
CONTINUOUS
 10
12.6563724368
 20
7.6194667849
 40
0.1
100
AcDbArc
 50
90.0
 51
180.0
  0
ARC
  5
3C4
100
AcDbEntity
  8
0
100
AcDbCircle
 62
7
  6
CONTINUOUS
 10
14.9563724368
 20
7.6194667849
 40
0.1
100
AcDbArc
 50
0.0
 51
90.0
  0
CIRCLE
  5
3C5
100
AcDbEntity
  8
02___PRT_ALL_AXES
100
AcDbCircle
 62
8
  6
HIDDEN
 10
6.1374329468
 20
11.8224409155
 40
0.11875
  0
CIRCLE
  5
3C6
100
AcDbEntity
  8
02___PRT_ALL_AXES
100
AcDbCircle
 62
8
  6
HIDDEN
 10
6.1374329468
 20
14.6349409155
 40
0.11875
  0
CIRCLE
  5
3C7
100
AcDbEntity
  8
02___PRT_ALL_AXES
100
AcDbCircle
 62
8
  6
HIDDEN
 10
3.7936829468
 20
11.8224409155
 40
0.11875
  0
CIRCLE
  5
3C8
100
AcDbEntity
  8
02___PRT_ALL_AXES
100
AcDbCircle
 62
8
  6
HIDDEN
 10
3.7936829468
 20
14.6349409155
 40
0.11875
  0
ARC
  5
3C9
100
AcDbEntity
  8
02___PRT_ALL_AXES
100
AcDbCircle
 62
8
  6
HIDDEN
 10
6.2936829468
 20
14.7286909155
 40
0.11875
100
AcDbArc
 50
184.4266871035
 51
237.578347713
  0
ARC
  5
3CA
100
AcDbEntity
  8
02___PRT_ALL_AXES
100
AcDbCircle
 62
8
  6
HIDDEN
 10
6.2936829468
 20
11.7286909155
 40
0.11875
100
AcDbArc
 50
122.421652287
 51
175.5733128965
  0
ARC
  5
3CB
100
AcDbEntity
  8
02___PRT_ALL_AXES
100
AcDbCircle
 62
8
  6
HIDDEN
 10
3.6374329468
 20
14.7286909155
 40
0.11875
100
AcDbArc
 50
302.421652287
 51
355.5733128965
  0
ARC
  5
3CC
100
AcDbEntity
  8
02___PRT_ALL_AXES
100
AcDbCircle
 62
8
  6
HIDDEN
 10
3.6374329468
 20
11.7286909155
 40
0.11875
100
AcDbArc
 50
4.4266871035
 51
57.578347713
  0
CIRCLE
  5
3CD
100
AcDbEntity
  8
02___PRT_ALL_AXES
100
AcDbCircle
 62
7
  6
CONTINUOUS
 10
3.7936829468
 20
14.6349409155
 40
0.0934375
  0
CIRCLE
  5
3CE
100
AcDbEntity
  8
02___PRT_ALL_AXES
100
AcDbCircle
 62
7
  6
CONTINUOUS
 10
3.7936829468
 20
11.8224409155
 40
0.0934375
  0
CIRCLE
  5
3CF
100
AcDbEntity
  8
02___PRT_ALL_AXES
100
AcDbCircle
 62
7
  6
CONTINUOUS
 10
6.1374329468
 20
14.6349409155
 40
0.0934375
  0
CIRCLE
  5
3D0
100
AcDbEntity
  8
02___PRT_ALL_AXES
100
AcDbCircle
 62
7
  6
CONTINUOUS
 10
6.1374329468
 20
11.8224409155
 40
0.0934375
  0
ARC
  5
3D1
100
AcDbEntity
  8
02___PRT_ALL_AXES
100
AcDbCircle
 62
7
  6
CONTINUOUS
 10
6.2936829468
 20
14.7286909155
 40
0.0934375
100
AcDbArc
 50
199.904577951
 51
221.9998802846
  0
ARC
  5
3D2
100
AcDbEntity
  8
02___PRT_ALL_AXES
100
AcDbCircle
 62
7
  6
CONTINUOUS
 10
6.2936829468
 20
11.7286909155
 40
0.0934375
100
AcDbArc
 50
138.0001197154
 51
160.095422049
  0
ARC
  5
3D3
100
AcDbEntity
  8
02___PRT_ALL_AXES
100
AcDbCircle
 62
7
  6
CONTINUOUS
 10
3.6374329468
 20
14.7286909155
 40
0.0934375
100
AcDbArc
 50
318.0001197154
 51
340.095422049
  0
ARC
  5
3D4
100
AcDbEntity
  8
02___PRT_ALL_AXES
100
AcDbCircle
 62
7
  6
CONTINUOUS
 10
3.6374329468
 20
11.7286909155
 40
0.0934375
100
AcDbArc
 50
19.904577951
 51
41.9998802846
  0
ARC
  5
3D5
100
AcDbEntity
  8
02___PRT_ALL_AXES
100
AcDbCircle
 62
8
  6
HIDDEN
 10
3.8674078516
 20
1.7766130371
 40
0.11875
100
AcDbArc
 50
184.4266871035
 51
237.578347713
  0
ARC
  5
3D6
100
AcDbEntity
  8
02___PRT_ALL_AXES
100
AcDbCircle
 62
8
  6
HIDDEN
 10
3.8674078516
 20
4.5891130371
 40
0.11875
100
AcDbArc
 50
122.421652287
 51
175.5733128965
  0
ARC
  5
3D7
100
AcDbEntity
  8
02___PRT_ALL_AXES
100
AcDbCircle
 62
8
  6
HIDDEN
 10
6.2111578516
 20
1.7766130371
 40
0.11875
100
AcDbArc
 50
302.421652287
 51
355.5733128965
  0
ARC
  5
3D8
100
AcDbEntity
  8
02___PRT_ALL_AXES
100
AcDbCircle
 62
8
  6
HIDDEN
 10
6.2111578516
 20
4.5891130371
 40
0.11875
100
AcDbArc
 50
4.4266871035
 51
57.578347713
  0
CIRCLE
  5
3D9
100
AcDbEntity
  8
02___PRT_ALL_AXES
100
AcDbCircle
 62
8
  6
HIDDEN
 10
3.7111578516
 20
4.6828630371
 40
0.11875
  0
CIRCLE
  5
3DA
100
AcDbEntity
  8
02___PRT_ALL_AXES
100
AcDbCircle
 62
8
  6
HIDDEN
 10
3.7111578516
 20
1.6828630371
 40
0.11875
  0
CIRCLE
  5
3DB
100
AcDbEntity
  8
02___PRT_ALL_AXES
100
AcDbCircle
 62
8
  6
HIDDEN
 10
6.3674078516
 20
4.6828630371
 40
0.11875
  0
CIRCLE
  5
3DC
100
AcDbEntity
  8
02___PRT_ALL_AXES
100
AcDbCircle
 62
8
  6
HIDDEN
 10
6.3674078516
 20
1.6828630371
 40
0.11875
  0
CIRCLE
  5
3DD
100
AcDbEntity
  8
02___PRT_ALL_AXES
100
AcDbCircle
 62
7
  6
CONTINUOUS
 10
6.3674078516
 20
1.6828630371
 40
0.0934375
  0
CIRCLE
  5
3DE
100
AcDbEntity
  8
02___PRT_ALL_AXES
100
AcDbCircle
 62
7
  6
CONTINUOUS
 10
6.3674078516
 20
4.6828630371
 40
0.0934375
  0
CIRCLE
  5
3DF
100
AcDbEntity
  8
02___PRT_ALL_AXES
100
AcDbCircle
 62
7
  6
CONTINUOUS
 10
3.7111578516
 20
1.6828630371
 40
0.0934375
  0
CIRCLE
  5
3E0
100
AcDbEntity
  8
02___PRT_ALL_AXES
100
AcDbCircle
 62
7
  6
CONTINUOUS
 10
3.7111578516
 20
4.6828630371
 40
0.0934375
  0
ARC
  5
3E1
100
AcDbEntity
  8
02___PRT_ALL_AXES
100
AcDbCircle
 62
7
  6
CONTINUOUS
 10
3.8674078516
 20
1.7766130371
 40
0.0934375
100
AcDbArc
 50
199.904577951
 51
221.9998802846
  0
ARC
  5
3E2
100
AcDbEntity
  8
02___PRT_ALL_AXES
100
AcDbCircle
 62
7
  6
CONTINUOUS
 10
3.8674078516
 20
4.5891130371
 40
0.0934375
100
AcDbArc
 50
138.0001197154
 51
160.095422049
  0
ARC
  5
3E3
100
AcDbEntity
  8
02___PRT_ALL_AXES
100
AcDbCircle
 62
7
  6
CONTINUOUS
 10
6.2111578516
 20
1.7766130371
 40
0.0934375
100
AcDbArc
 50
318.0001197154
 51
340.095422049
  0
ARC
  5
3E4
100
AcDbEntity
  8
02___PRT_ALL_AXES
100
AcDbCircle
 62
7
  6
CONTINUOUS
 10
6.2111578516
 20
4.5891130371
 40
0.0934375
100
AcDbArc
 50
19.904577951
 51
41.9998802846
  0
SPLINE
  5
3E5
100
AcDbEntity
  8
02___PRT_ALL_AXES
100
AcDbSpline
 62
8
  6
HIDDEN
 70
0
 71
3
 72
99
 73
95
 74
0
 42
0.0000001
 43
0.0000001
 44
0.0000000001
 40
0.0
 40
0.0
 40
0.0
 40
0.0
 40
0.03125
 40
0.046875
 40
0.0546875
 40
0.0625
 40
0.0703125
 40
0.078125
 40
0.09375
 40
0.109375
 40
0.1171875
 40
0.125
 40
0.1328125
 40
0.140625
 40
0.15625
 40
0.171875
 40
0.1796875
 40
0.1875
 40
0.1953125
 40
0.203125
 40
0.21875
 40
0.234375
 40
0.2421875
 40
0.25
 40
0.2578125
 40
0.265625
 40
0.28125
 40
0.296875
 40
0.3046875
 40
0.3125
 40
0.3203125
 40
0.328125
 40
0.34375
 40
0.359375
 40
0.3671875
 40
0.375
 40
0.3828125
 40
0.390625
 40
0.40625
 40
0.421875
 40
0.4296875
 40
0.4375
 40
0.4453125
 40
0.453125
 40
0.46875
 40
0.484375
 40
0.4921875
 40
0.5
 40
0.5078125
 40
0.515625
 40
0.53125
 40
0.546875
 40
0.5546875
 40
0.5625
 40
0.5703125
 40
0.578125
 40
0.59375
 40
0.609375
 40
0.6171875
 40
0.625
 40
0.6328125
 40
0.640625
 40
0.65625
 40
0.671875
 40
0.6796875
 40
0.6875
 40
0.6953125
 40
0.703125
 40
0.71875
 40
0.734375
 40
0.7421875
 40
0.75
 40
0.7578125
 40
0.765625
 40
0.78125
 40
0.796875
 40
0.8046875
 40
0.8125
 40
0.8203125
 40
0.828125
 40
0.84375
 40
0.859375
 40
0.8671875
 40
0.875
 40
0.8828125
 40
0.890625
 40
0.90625
 40
0.921875
 40
0.9296875
 40
0.9375
 40
0.9453125
 40
0.953125
 40
0.96875
 40
1.0
 40
1.0
 40
1.0
 40
1.0
 10
17.7885271798
 20
12.5581621322
 30
0.0
 10
17.7909957737
 20
12.5600246144
 30
0.0
 10
17.7946835593
 20
12.5628247927
 30
0.0
 10
17.7990388441
 20
12.5660690746
 30
0.0
 10
17.8014520523
 20
12.5679552254
 30
0.0
 10
17.8034734312
 20
12.5692794673
 30
0.0
 10
17.8046866821
 20
12.5709490561
 30
0.0
 10
17.8065880431
 20
12.5730541601
 30
0.0
 10
17.8088573668
 20
12.5757297807
 30
0.0
 10
17.8112015841
 20
12.578379707
 30
0.0
 10
17.8129831153
 20
12.5805259217
 30
0.0
 10
17.8145558554
 20
12.5820721783
 30
0.0
 10
17.8152291503
 20
12.583858916
 30
0.0
 10
17.8164425571
 20
12.5861569422
 30
0.0
 10
17.8178403258
 20
12.5890604527
 30
0.0
 10
17.8193194537
 20
12.5919454153
 30
0.0
 10
17.8204026858
 20
12.5942731182
 30
0.0
 10
17.8214665048
 20
12.5959708255
 30
0.0
 10
17.8215747796
 20
12.5978509459
 30
0.0
 10
17.8220544842
 20
12.6002941229
 30
0.0
 10
17.8225279388
 20
12.6033694377
 30
0.0
 10
17.8230869252
 20
12.6064389413
 30
0.0
 10
17.823429779
 20
12.6088914161
 30
0.0
 10
17.8239486063
 20
12.610743643
 30
0.0
 10
17.8234728535
 20
12.6125459511
 30
0.0
 10
17.8231874377
 20
12.614966642
 30
0.0
 10
17.8227002087
 20
12.6179852018
 30
0.0
 10
17.8222986649
 20
12.6210109603
 30
0.0
 10
17.8218761529
 20
12.6234201332
 30
0.0
 10
17.8218116886
 20
12.6252569954
 30
0.0
 10
17.820788184
 20
12.6269796447
 30
0.0
 10
17.8197599341
 20
12.6293167603
 30
0.0
 10
17.8183490506
 20
12.6322218124
 30
0.0
 10
17.8170199232
 20
12.635141922
 30
0.0
 10
17.8158608634
 20
12.6374549456
 30
0.0
 10
17.8152297885
 20
12.6392498711
 30
0.0
 10
17.8136937127
 20
12.6408156977
 30
0.0
 10
17.8119631166
 20
12.6429839528
 30
0.0
 10
17.8096810874
 20
12.6456633711
 30
0.0
 10
17.8074773131
 20
12.6483657843
 30
0.0
 10
17.805621509
 20
12.6504972474
 30
0.0
 10
17.8044610569
 20
12.6521734503
 30
0.0
 10
17.8024213935
 20
12.6535544645
 30
0.0
 10
17.8000099807
 20
12.6554996695
 30
0.0
 10
17.7968827057
 20
12.6578902522
 30
0.0
 10
17.7938222935
 20
12.6603147134
 30
0.0
 10
17.7913039003
 20
12.6622057127
 30
0.0
 10
17.789585178
 20
12.663749344
 30
0.0
 10
17.7872211971
 20
12.6648157328
 30
0.0
 10
17.7842954804
 20
12.6664050835
 30
0.0
 10
17.7805545469
 20
12.6683286359
 30
0.0
 10
17.7768659419
 20
12.6702953584
 30
0.0
 10
17.7738564996
 20
12.671815637
 30
0.0
 10
17.7717436957
 20
12.6730892421
 30
0.0
 10
17.7690830596
 20
12.6738558122
 30
0.0
 10
17.7657275111
 20
12.6750559003
 30
0.0
 10
17.7614629078
 20
12.6764886382
 30
0.0
 10
17.7572390174
 20
12.6779683721
 30
0.0
 10
17.7538183285
 20
12.6790932665
 30
0.0
 10
17.7513531136
 20
12.6800854178
 30
0.0
 10
17.7485074796
 20
12.6805130934
 30
0.0
 10
17.7448466402
 20
12.6812814431
 30
0.0
 10
17.7402215949
 20
12.6821672021
 30
0.0
 10
17.7356258595
 20
12.6831040291
 30
0.0
 10
17.7319181241
 20
12.6837906701
 30
0.0
 10
17.729213178
 20
12.6844634717
 30
0.0
 10
17.7262203836
 20
12.6845364004
 30
0.0
 10
17.7223304263
 20
12.6848441586
 30
0.0
 10
17.717434337
 20
12.6851496383
 30
0.0
 10
17.7125472741
 20
12.6855088406
 30
0.0
 10
17.7086428745
 20
12.6857306426
 30
0.0
 10
17.7056934068
 20
12.6860614401
 30
0.0
 10
17.7028259858
 20
12.6857672334
 30
0.0
 10
17.6989738134
 20
12.6855942238
 30
0.0
 10
17.6941705634
 20
12.685295978
 30
0.0
 10
17.6893556321
 20
12.6850515851
 30
0.0
 10
17.6855221499
 20
12.6847924107
 30
0.0
 10
17.6825986583
 20
12.6847566982
 30
0.0
 10
17.6798594551
 20
12.6841181428
 30
0.0
 10
17.6761422429
 20
12.6834782081
 30
0.0
 10
17.6715220667
 20
12.6825993532
 30
0.0
 10
17.6668777109
 20
12.6817719034
 30
0.0
 10
17.663199186
 20
12.6810497207
 30
0.0
 10
17.6603439207
 20
12.6806579092
 30
0.0
 10
17.6578556622
 20
12.6796969071
 30
0.0
 10
17.6544090499
 20
12.6786152623
 30
0.0
 10
17.6501502744
 20
12.6771884984
 30
0.0
 10
17.6458547075
 20
12.6758109522
 30
0.0
 10
17.6424669614
 20
12.674650559
 30
0.0
 10
17.6398021045
 20
12.6739258021
 30
0.0
 10
17.6376090828
 20
12.6726480712
 30
0.0
 10
17.6345204261
 20
12.6711373679
 30
0.0
 10
17.629192446
 20
12.6684031975
 30
0.0
 10
17.624599148
 20
12.6660906307
 30
0.0
 10
17.6215428288
 20
12.6645420289
 30
0.0
  0
SPLINE
  5
3E6
100
AcDbEntity
  8
02___PRT_ALL_AXES
100
AcDbSpline
 62
8
  6
HIDDEN
 70
0
 71
3
 72
99
 73
95
 74
0
 42
0.0000001
 43
0.0000001
 44
0.0000000001
 40
0.0
 40
0.0
 40
0.0
 40
0.0
 40
0.03125
 40
0.046875
 40
0.0546875
 40
0.0625
 40
0.0703125
 40
0.078125
 40
0.09375
 40
0.109375
 40
0.1171875
 40
0.125
 40
0.1328125
 40
0.140625
 40
0.15625
 40
0.171875
 40
0.1796875
 40
0.1875
 40
0.1953125
 40
0.203125
 40
0.21875
 40
0.234375
 40
0.2421875
 40
0.25
 40
0.2578125
 40
0.265625
 40
0.28125
 40
0.296875
 40
0.3046875
 40
0.3125
 40
0.3203125
 40
0.328125
 40
0.34375
 40
0.359375
 40
0.3671875
 40
0.375
 40
0.3828125
 40
0.390625
 40
0.40625
 40
0.421875
 40
0.4296875
 40
0.4375
 40
0.4453125
 40
0.453125
 40
0.46875
 40
0.484375
 40
0.4921875
 40
0.5
 40
0.5078125
 40
0.515625
 40
0.53125
 40
0.546875
 40
0.5546875
 40
0.5625
 40
0.5703125
 40
0.578125
 40
0.59375
 40
0.609375
 40
0.6171875
 40
0.625
 40
0.6328125
 40
0.640625
 40
0.65625
 40
0.671875
 40
0.6796875
 40
0.6875
 40
0.6953125
 40
0.703125
 40
0.71875
 40
0.734375
 40
0.7421875
 40
0.75
 40
0.7578125
 40
0.765625
 40
0.78125
 40
0.796875
 40
0.8046875
 40
0.8125
 40
0.8203125
 40
0.828125
 40
0.84375
 40
0.859375
 40
0.8671875
 40
0.875
 40
0.8828125
 40
0.890625
 40
0.90625
 40
0.921875
 40
0.9296875
 40
0.9375
 40
0.9453125
 40
0.953125
 40
0.96875
 40
1.0
 40
1.0
 40
1.0
 40
1.0
 10
17.6215428362
 20
12.6645420335
 30
0.0
 10
17.6190742423
 20
12.6626795513
 30
0.0
 10
17.6153864566
 20
12.659879373
 30
0.0
 10
17.6110311719
 20
12.6566350911
 30
0.0
 10
17.6086179637
 20
12.6547489404
 30
0.0
 10
17.6065965848
 20
12.6534246984
 30
0.0
 10
17.6053833338
 20
12.6517551096
 30
0.0
 10
17.6034819729
 20
12.6496500056
 30
0.0
 10
17.6012126492
 20
12.6469743851
 30
0.0
 10
17.5988684319
 20
12.6443244587
 30
0.0
 10
17.5970869006
 20
12.642178244
 30
0.0
 10
17.5955141606
 20
12.6406319874
 30
0.0
 10
17.5948408657
 20
12.6388452497
 30
0.0
 10
17.5936274588
 20
12.6365472236
 30
0.0
 10
17.5922296902
 20
12.633643713
 30
0.0
 10
17.5907505623
 20
12.6307587505
 30
0.0
 10
17.5896673301
 20
12.6284310475
 30
0.0
 10
17.5886035112
 20
12.6267333402
 30
0.0
 10
17.5884952364
 20
12.6248532198
 30
0.0
 10
17.5880155318
 20
12.6224100428
 30
0.0
 10
17.5875420771
 20
12.6193347281
 30
0.0
 10
17.5869830907
 20
12.6162652245
 30
0.0
 10
17.586640237
 20
12.6138127496
 30
0.0
 10
17.5861214097
 20
12.6119605228
 30
0.0
 10
17.5865971625
 20
12.6101582146
 30
0.0
 10
17.5868825783
 20
12.6077375237
 30
0.0
 10
17.5873698072
 20
12.6047189639
 30
0.0
 10
17.5877713511
 20
12.6016932054
 30
0.0
 10
17.588193863
 20
12.5992840325
 30
0.0
 10
17.5882583273
 20
12.5974471703
 30
0.0
 10
17.5892818319
 20
12.5957245211
 30
0.0
 10
17.5903100818
 20
12.5933874054
 30
0.0
 10
17.5917209654
 20
12.5904823533
 30
0.0
 10
17.5930500928
 20
12.5875622437
 30
0.0
 10
17.5942091526
 20
12.5852492201
 30
0.0
 10
17.5948402275
 20
12.5834542947
 30
0.0
 10
17.5963763032
 20
12.5818884681
 30
0.0
 10
17.5981068994
 20
12.5797202129
 30
0.0
 10
17.6003889286
 20
12.5770407947
 30
0.0
 10
17.6025927029
 20
12.5743383814
 30
0.0
 10
17.6044485069
 20
12.5722069183
 30
0.0
 10
17.6056089591
 20
12.5705307154
 30
0.0
 10
17.6076486224
 20
12.5691497012
 30
0.0
 10
17.6100600353
 20
12.5672044962
 30
0.0
 10
17.6131873102
 20
12.5648139136
 30
0.0
 10
17.6162477225
 20
12.5623894524
 30
0.0
 10
17.6187661157
 20
12.5604984531
 30
0.0
 10
17.620484838
 20
12.5589548217
 30
0.0
 10
17.6228488189
 20
12.5578884329
 30
0.0
 10
17.6257745355
 20
12.5562990823
 30
0.0
 10
17.629515469
 20
12.5543755298
 30
0.0
 10
17.633204074
 20
12.5524088073
 30
0.0
 10
17.6362135163
 20
12.5508885288
 30
0.0
 10
17.6383263202
 20
12.5496149236
 30
0.0
 10
17.6409869564
 20
12.5488483535
 30
0.0
 10
17.6443425048
 20
12.5476482654
 30
0.0
 10
17.6486071081
 20
12.5462155276
 30
0.0
 10
17.6528309986
 20
12.5447357936
 30
0.0
 10
17.6562516875
 20
12.5436108992
 30
0.0
 10
17.6587169023
 20
12.5426187479
 30
0.0
 10
17.6615625363
 20
12.5421910724
 30
0.0
 10
17.6652233758
 20
12.5414227226
 30
0.0
 10
17.6698484211
 20
12.5405369636
 30
0.0
 10
17.6744441565
 20
12.5396001367
 30
0.0
 10
17.6781518919
 20
12.5389134956
 30
0.0
 10
17.680856838
 20
12.538240694
 30
0.0
 10
17.6838496323
 20
12.5381677654
 30
0.0
 10
17.6877395897
 20
12.5378600071
 30
0.0
 10
17.692635679
 20
12.5375545275
 30
0.0
 10
17.6975227419
 20
12.5371953251
 30
0.0
 10
17.7014271415
 20
12.5369735232
 30
0.0
 10
17.7043766092
 20
12.5366427256
 30
0.0
 10
17.7072440302
 20
12.5369369323
 30
0.0
 10
17.7110962026
 20
12.5371099419
 30
0.0
 10
17.7158994526
 20
12.5374081878
 30
0.0
 10
17.7207143839
 20
12.5376525807
 30
0.0
 10
17.7245478661
 20
12.537911755
 30
0.0
 10
17.7274713577
 20
12.5379474675
 30
0.0
 10
17.7302105608
 20
12.5385860229
 30
0.0
 10
17.7339277731
 20
12.5392259577
 30
0.0
 10
17.7385479493
 20
12.5401048125
 30
0.0
 10
17.7431923051
 20
12.5409322623
 30
0.0
 10
17.74687083
 20
12.541654445
 30
0.0
 10
17.7497260953
 20
12.5420462566
 30
0.0
 10
17.7522143538
 20
12.5430072586
 30
0.0
 10
17.755660966
 20
12.5440889034
 30
0.0
 10
17.7599197416
 20
12.5455156674
 30
0.0
 10
17.7642153085
 20
12.5468932136
 30
0.0
 10
17.7676030546
 20
12.5480536068
 30
0.0
 10
17.7702679114
 20
12.5487783636
 30
0.0
 10
17.7724609331
 20
12.5500560946
 30
0.0
 10
17.7755495899
 20
12.5515667978
 30
0.0
 10
17.7808775699
 20
12.5543009683
 30
0.0
 10
17.785470868
 20
12.556613535
 30
0.0
 10
17.7885271871
 20
12.5581621368
 30
0.0
  0
LINE
  5
3E7
100
AcDbEntity
  8
02___PRT_ALL_AXES
100
AcDbLine
 62
8
  6
HIDDEN
 10
19.7884841329
 20
13.7972660436
 11
19.7866973887
 21
13.7961820494
  0
SPLINE
  5
3E8
100
AcDbEntity
  8
02___PRT_ALL_AXES
100
AcDbSpline
 62
8
  6
HIDDEN
 70
0
 71
3
 72
9
 73
5
 74
0
 42
0.0000001
 43
0.0000001
 44
0.0000000001
 40
0.0
 40
0.0
 40
0.0
 40
0.0
 40
0.5
 40
1.0
 40
1.0
 40
1.0
 40
1.0
 10
19.7866973887
 20
13.7961820494
 30
0.0
 10
19.7811253372
 20
13.7930747542
 30
0.0
 10
19.7696085541
 20
13.7870548805
 30
0.0
 10
19.7560696317
 20
13.7830191084
 30
0.0
 10
19.7492374831
 20
13.7811482064
 30
0.0
  0
LINE
  5
3E9
100
AcDbEntity
  8
02___PRT_ALL_AXES
100
AcDbLine
 62
8
  6
HIDDEN
 10
19.7492374836
 20
13.7811482065
 11
19.744584015
 21
13.7800524859
  0
SPLINE
  5
3EA
100
AcDbEntity
  8
02___PRT_ALL_AXES
100
AcDbSpline
 62
8
  6
HIDDEN
 70
0
 71
3
 72
9
 73
5
 74
0
 42
0.0000001
 43
0.0000001
 44
0.0000000001
 40
0.0
 40
0.0
 40
0.0
 40
0.0
 40
0.5
 40
1.0
 40
1.0
 40
1.0
 40
1.0
 10
19.7445840149
 20
13.7800524859
 30
0.0
 10
19.7374761632
 20
13.778641031
 30
0.0
 10
19.7230456613
 20
13.7760910333
 30
0.0
 10
19.7080501791
 20
13.7758682446
 30
0.0
 10
19.7005902593
 20
13.7759069904
 30
0.0
  0
LINE
  5
3EB
100
AcDbEntity
  8
02___PRT_ALL_AXES
100
AcDbLine
 62
8
  6
HIDDEN
 10
19.7005902598
 20
13.7759069904
 11
19.6956248154
 21
13.7760963287
  0
SPLINE
  5
3EC
100
AcDbEntity
  8
02___PRT_ALL_AXES
100
AcDbSpline
 62
8
  6
HIDDEN
 70
0
 71
3
 72
11
 73
7
 74
0
 42
0.0000001
 43
0.0000001
 44
0.0000000001
 40
0.0
 40
0.0
 40
0.0
 40
0.0
 40
0.25
 40
0.5
 40
0.75
 40
1.0
 40
1.0
 40
1.0
 40
1.0
 10
19.6956248154
 20
13.7760963287
 30
0.0
 10
19.6925334763
 20
13.7763063589
 30
0.0
 10
19.6862522002
 20
13.7767589528
 30
0.0
 10
19.6763275104
 20
13.7779966788
 30
0.0
 10
19.6669344498
 20
13.7797804447
 30
0.0
 10
19.6604804891
 20
13.7813963365
 30
0.0
 10
19.6572147109
 20
13.7822316809
 30
0.0
  0
LINE
  5
3ED
100
AcDbEntity
  8
02___PRT_ALL_AXES
100
AcDbLine
 62
8
  6
HIDDEN
 10
19.6572147106
 20
13.782231681
 11
19.6527041302
 21
13.7835559743
  0
LINE
  5
3EE
100
AcDbEntity
  8
02___PRT_ALL_AXES
100
AcDbLine
 62
8
  6
HIDDEN
 10
19.6527041302
 20
13.7835559744
 11
19.6439659134
 21
13.7865541281
  0
LINE
  5
3EF
100
AcDbEntity
  8
02___PRT_ALL_AXES
100
AcDbLine
 62
8
  6
HIDDEN
 10
19.6439659134
 20
13.7865541281
 11
19.6397536068
 21
13.7882227287
  0
SPLINE
  5
3F0
100
AcDbEntity
  8
02___PRT_ALL_AXES
100
AcDbSpline
 62
8
  6
HIDDEN
 70
0
 71
3
 72
8
 73
4
 74
0
 42
0.0000001
 43
0.0000001
 44
0.0000000001
 40
0.0
 40
0.0
 40
0.0
 40
0.0
 40
1.0
 40
1.0
 40
1.0
 40
1.0
 10
19.6397536068
 20
13.7882227287
 30
0.0
 10
19.6356262296
 20
13.789973594
 30
0.0
 10
19.6316465256
 20
13.7918590843
 30
0.0
 10
19.6278319306
 20
13.7938709391
 30
0.0
  0
LINE
  5
3F1
100
AcDbEntity
  8
02___PRT_ALL_AXES
100
AcDbLine
 62
8
  6
HIDDEN
 10
19.6278319312
 20
13.7938709388
 11
19.624119694
 21
13.7959568011
  0
SPLINE
  5
3F2
100
AcDbEntity
  8
02___PRT_ALL_AXES
100
AcDbSpline
 62
8
  6
HIDDEN
 70
0
 71
3
 72
9
 73
5
 74
0
 42
0.0000001
 43
0.0000001
 44
0.0000000001
 40
0.0
 40
0.0
 40
0.0
 40
0.0
 40
0.5
 40
1.0
 40
1.0
 40
1.0
 40
1.0
 10
19.624119694
 20
13.7959568011
 30
0.0
 10
19.6188193257
 20
13.799263674
 30
0.0
 10
19.6085035297
 20
13.8061228244
 30
0.0
 10
19.601207284
 20
13.8143693561
 30
0.0
 10
19.5977885488
 20
13.8185407761
 30
0.0
  0
LINE
  5
3F3
100
AcDbEntity
  8
02___PRT_ALL_AXES
100
AcDbLine
 62
8
  6
HIDDEN
 10
19.597788549
 20
13.8185407758
 11
19.5957436738
 21
13.8213927345
  0
SPLINE
  5
3F4
100
AcDbEntity
  8
02___PRT_ALL_AXES
100
AcDbSpline
 62
8
  6
HIDDEN
 70
0
 71
3
 72
21
 73
17
 74
0
 42
0.0000001
 43
0.0000001
 44
0.0000000001
 40
0.0
 40
0.0
 40
0.0
 40
0.0
 40
0.125
 40
0.1875
 40
0.25
 40
0.3125
 40
0.375
 40
0.4375
 40
0.5
 40
0.5625
 40
0.625
 40
0.6875
 40
0.75
 40
0.8125
 40
0.875
 40
1.0
 40
1.0
 40
1.0
 40
1.0
 10
19.5957436738
 20
13.8213927345
 30
0.0
 10
19.5948014865
 20
13.8229795741
 30
0.0
 10
19.5933564238
 20
13.8253533014
 30
0.0
 10
19.5915568009
 20
13.8285443993
 30
0.0
 10
19.5905869646
 20
13.8310126368
 30
0.0
 10
19.5894294406
 20
13.8334486228
 30
0.0
 10
19.5886427864
 20
13.8359387006
 30
0.0
 10
19.5879907862
 20
13.8384444533
 30
0.0
 10
19.5871445228
 20
13.84093331
 30
0.0
 10
19.5869406581
 20
13.8434740758
 30
0.0
 10
19.586542038
 20
13.8460003029
 30
0.0
 10
19.5862800406
 20
13.8485327757
 30
0.0
 10
19.5863988194
 20
13.8510718936
 30
0.0
 10
19.5863228944
 20
13.8536123638
 30
0.0
 10
19.5867523794
 20
13.8569835853
 30
0.0
 10
19.5871747222
 20
13.8595082087
 30
0.0
 10
19.5874340109
 20
13.8611921339
 30
0.0
  0
SPLINE
  5
3F5
100
AcDbEntity
  8
02___PRT_ALL_AXES
100
AcDbSpline
 62
8
  6
HIDDEN
 70
0
 71
3
 72
9
 73
5
 74
0
 42
0.0000001
 43
0.0000001
 44
0.0000000001
 40
0.0
 40
0.0
 40
0.0
 40
0.0
 40
0.5
 40
1.0
 40
1.0
 40
1.0
 40
1.0
 10
19.5874340109
 20
13.8611921336
 30
0.0
 10
19.5876161919
 20
13.8619646896
 30
0.0
 10
19.5881193278
 20
13.864023727
 30
0.0
 10
19.5888046601
 20
13.8660616133
 30
0.0
 10
19.5892505667
 20
13.8673325183
 30
0.0
  0
LINE
  5
3F6
100
AcDbEntity
  8
02___PRT_ALL_AXES
100
AcDbLine
 62
8
  6
HIDDEN
 10
19.5892505668
 20
13.8673325183
 11
19.5918789654
 21
13.8733545262
  0
LINE
  5
3F7
100
AcDbEntity
  8
02___PRT_ALL_AXES
100
AcDbLine
 62
8
  6
HIDDEN
 10
19.5918789654
 20
13.8733545263
 11
19.5934920635
 21
13.8763078984
  0
LINE
  5
3F8
100
AcDbEntity
  8
02___PRT_ALL_AXES
100
AcDbLine
 62
8
  6
HIDDEN
 10
19.5934920635
 20
13.8763078984
 11
19.5973019128
 21
13.8820734819
  0
LINE
  5
3F9
100
AcDbEntity
  8
02___PRT_ALL_AXES
100
AcDbLine
 62
8
  6
HIDDEN
 10
19.5973019129
 20
13.882073482
 11
19.5994919803
 21
13.8848755786
  0
SPLINE
  5
3FA
100
AcDbEntity
  8
02___PRT_ALL_AXES
100
AcDbSpline
 62
8
  6
HIDDEN
 70
0
 71
3
 72
9
 73
5
 74
0
 42
0.0000001
 43
0.0000001
 44
0.0000000001
 40
0.0
 40
0.0
 40
0.0
 40
0.0
 40
0.5
 40
1.0
 40
1.0
 40
1.0
 40
1.0
 10
19.5994919803
 20
13.8848755786
 30
0.0
 10
19.6008552519
 20
13.8864825604
 30
0.0
 10
19.6040462355
 20
13.8901351459
 30
0.0
 10
19.6078658317
 20
13.89354064
 30
0.0
 10
19.6100598308
 20
13.8954326096
 30
0.0
  0
LINE
  5
3FB
100
AcDbEntity
  8
02___PRT_ALL_AXES
100
AcDbLine
 62
8
  6
HIDDEN
 10
19.6100598309
 20
13.8954326097
 11
19.6131305101
 21
13.8978858738
  0
SPLINE
  5
3FC
100
AcDbEntity
  8
02___PRT_ALL_AXES
100
AcDbSpline
 62
8
  6
HIDDEN
 70
0
 71
3
 72
8
 73
4
 74
0
 42
0.0000001
 43
0.0000001
 44
0.0000000001
 40
0.0
 40
0.0
 40
0.0
 40
0.0
 40
1.0
 40
1.0
 40
1.0
 40
1.0
 10
19.6131305101
 20
13.8978858738
 30
0.0
 10
19.6157851746
 20
13.8998816287
 30
0.0
 10
19.6185777675
 20
13.9018036023
 30
0.0
 10
19.6214997896
 20
13.903645945
 30
0.0
  0
SPLINE
  5
3FD
100
AcDbEntity
  8
02___PRT_ALL_AXES
100
AcDbSpline
 62
8
  6
HIDDEN
 70
0
 71
3
 72
21
 73
17
 74
0
 42
0.0000001
 43
0.0000001
 44
0.0000000001
 40
0.0
 40
0.0
 40
0.0
 40
0.0
 40
0.125
 40
0.1875
 40
0.25
 40
0.3125
 40
0.375
 40
0.4375
 40
0.5
 40
0.5625
 40
0.625
 40
0.6875
 40
0.75
 40
0.8125
 40
0.875
 40
1.0
 40
1.0
 40
1.0
 40
1.0
 10
19.6214997893
 20
13.9036459449
 30
0.0
 10
19.6239830542
 20
13.905021024
 30
0.0
 10
19.627663394
 20
13.9071033784
 30
0.0
 10
19.6327487436
 20
13.9098009079
 30
0.0
 10
19.6370691099
 20
13.9115751917
 30
0.0
 10
19.6411788019
 20
13.9134919582
 30
0.0
 10
19.6456248369
 20
13.9150876571
 30
0.0
 10
19.6501759337
 20
13.9165607547
 30
0.0
 10
19.6545903205
 20
13.9182131304
 30
0.0
 10
19.6594464855
 20
13.9192709947
 30
0.0
 10
19.6641731573
 20
13.9205098907
 30
0.0
 10
19.6689760238
 20
13.9216191714
 30
0.0
 10
19.6739777003
 20
13.922361834
 30
0.0
 10
19.678856133
 20
13.923292488
 30
0.0
 10
19.6857529299
 20
13.9240195629
 30
0.0
 10
19.691003042
 20
13.9244677516
 30
0.0
 10
19.6944858913
 20
13.9247881257
 30
0.0
  0
LINE
  5
3FE
100
AcDbEntity
  8
02___PRT_ALL_AXES
100
AcDbLine
 62
8
  6
HIDDEN
 10
19.6944858932
 20
13.9247881258
 11
19.6994483318
 21
13.924991219
  0
SPLINE
  5
3FF
100
AcDbEntity
  8
02___PRT_ALL_AXES
100
AcDbSpline
 62
8
  6
HIDDEN
 70
0
 71
3
 72
31
 73
27
 74
0
 42
0.0000001
 43
0.0000001
 44
0.0000000001
 40
0.0
 40
0.0
 40
0.0
 40
0.0
 40
0.0625
 40
0.125
 40
0.15625
 40
0.1875
 40
0.25
 40
0.3125
 40
0.34375
 40
0.375
 40
0.4375
 40
0.46875
 40
0.5
 40
0.53125
 40
0.5625
 40
0.625
 40
0.65625
 40
0.671875
 40
0.6875
 40
0.75
 40
0.8125
 40
0.828125
 40
0.84375
 40
0.875
 40
0.9375
 40
1.0
 40
1.0
 40
1.0
 40
1.0
 10
19.6994483318
 20
13.924991219
 30
0.0
 10
19.7020336335
 20
13.9249210571
 30
0.0
 10
19.7072072318
 20
13.9247954593
 30
0.0
 10
19.7136592553
 20
13.9245648329
 30
0.0
 10
19.7188523203
 20
13.9245349527
 30
0.0
 10
19.7239315798
 20
13.9239454922
 30
0.0
 10
19.7302324176
 20
13.9229978789
 30
0.0
 10
19.7365809684
 20
13.9221881042
 30
0.0
 10
19.741583887
 20
13.921378102
 30
0.0
 10
19.7463151069
 20
13.9200254029
 30
0.0
 10
19.7511407925
 20
13.9188475997
 30
0.0
 10
19.7558868551
 20
13.9175521314
 30
0.0
 10
19.7595908054
 20
13.9167586295
 30
0.0
 10
19.7627569536
 20
13.9153115632
 30
0.0
 10
19.7671698725
 20
13.913613459
 30
0.0
 10
19.7715100674
 20
13.9118345779
 30
0.0
 10
19.7753730402
 20
13.9103382943
 30
0.0
 10
19.7775048685
 20
13.9094203995
 30
0.0
 10
19.7802984115
 20
13.9077117263
 30
0.0
 10
19.7846822174
 20
13.9053019912
 30
0.0
 10
19.7888983567
 20
13.9027769039
 30
0.0
 10
19.7918595663
 20
13.901183583
 30
0.0
 10
19.7935070244
 20
13.8999324483
 30
0.0
 10
19.7962332272
 20
13.8976524657
 30
0.0
 10
19.8002103547
 20
13.8944429777
 30
0.0
 10
19.803366898
 20
13.8918608715
 30
0.0
 10
19.8049483145
 20
13.8905716328
 30
0.0
  0
LINE
  5
400
100
AcDbEntity
  8
02___PRT_ALL_AXES
100
AcDbLine
 62
8
  6
HIDDEN
 10
19.8049483126
 20
13.8905716347
 11
19.8075453264
 21
13.8879022547
  0
SPLINE
  5
401
100
AcDbEntity
  8
02___PRT_ALL_AXES
100
AcDbSpline
 62
8
  6
HIDDEN
 70
0
 71
3
 72
9
 73
5
 74
0
 42
0.0000001
 43
0.0000001
 44
0.0000000001
 40
0.0
 40
0.0
 40
0.0
 40
0.0
 40
0.5
 40
1.0
 40
1.0
 40
1.0
 40
1.0
 10
19.8075453264
 20
13.8879022547
 30
0.0
 10
19.8101555954
 20
13.8849364428
 30
0.0
 10
19.8155611039
 20
13.878448562
 30
0.0
 10
19.8188658293
 20
13.8714288302
 30
0.0
 10
19.820472366
 20
13.8676528724
 30
0.0
  0
SPLINE
  5
402
100
AcDbEntity
  8
02___PRT_ALL_AXES
100
AcDbSpline
 62
8
  6
HIDDEN
 70
0
 71
3
 72
9
 73
5
 74
0
 42
0.0000001
 43
0.0000001
 44
0.0000000001
 40
0.0
 40
0.0
 40
0.0
 40
0.0
 40
0.5
 40
1.0
 40
1.0
 40
1.0
 40
1.0
 10
19.8204723662
 20
13.8676528716
 30
0.0
 10
19.8207558165
 20
13.86689169
 30
0.0
 10
19.8214949453
 20
13.8648589015
 30
0.0
 10
19.8220524539
 20
13.8628036598
 30
0.0
 10
19.8223829486
 20
13.8615176509
 30
0.0
  0
SPLINE
  5
403
100
AcDbEntity
  8
02___PRT_ALL_AXES
100
AcDbSpline
 62
8
  6
HIDDEN
 70
0
 71
3
 72
22
 73
18
 74
0
 42
0.0000001
 43
0.0000001
 44
0.0000000001
 40
0.0
 40
0.0
 40
0.0
 40
0.0
 40
0.125
 40
0.1875
 40
0.25
 40
0.3125
 40
0.375
 40
0.4375
 40
0.5
 40
0.5625
 40
0.625
 40
0.6875
 40
0.75
 40
0.8125
 40
0.84375
 40
0.875
 40
1.0
 40
1.0
 40
1.0
 40
1.0
 10
19.8223829486
 20
13.8615176508
 30
0.0
 10
19.8226949259
 20
13.8595093424
 30
0.0
 10
19.8232111821
 20
13.8565078973
 30
0.0
 10
19.8237063633
 20
13.8524619006
 30
0.0
 10
19.8234990302
 20
13.8493161547
 30
0.0
 10
19.8235799136
 20
13.846194591
 30
0.0
 10
19.8230866501
 20
13.843087547
 30
0.0
 10
19.8223867892
 20
13.839997333
 30
0.0
 10
19.8219799807
 20
13.8368748248
 30
0.0
 10
19.8206075597
 20
13.8338646634
 30
0.0
 10
19.8195281954
 20
13.8308177588
 30
0.0
 10
19.8182422168
 20
13.8278054803
 30
0.0
 10
19.8164265074
 20
13.824893882
 30
0.0
 10
19.8150794793
 20
13.822440496
 30
0.0
 10
19.8138681708
 20
13.8204923769
 30
0.0
 10
19.8114794775
 20
13.8176211619
 30
0.0
 10
19.8096377879
 20
13.815215211
 30
0.0
 10
19.808116792
 20
13.8132946973
 30
0.0
  0
SPLINE
  5
404
100
AcDbEntity
  8
02___PRT_ALL_AXES
100
AcDbSpline
 62
8
  6
HIDDEN
 70
0
 71
3
 72
8
 73
4
 74
0
 42
0.0000001
 43
0.0000001
 44
0.0000000001
 40
0.0
 40
0.0
 40
0.0
 40
0.0
 40
1.0
 40
1.0
 40
1.0
 40
1.0
 10
19.8081167917
 20
13.8132946969
 30
0.0
 10
19.8056054086
 20
13.8106012866
 30
0.0
 10
19.8028705144
 20
13.8079923705
 30
0.0
 10
19.7999240909
 20
13.8054793784
 30
0.0
  0
SPLINE
  5
405
100
AcDbEntity
  8
02___PRT_ALL_AXES
100
AcDbSpline
 62
8
  6
HIDDEN
 70
0
 71
3
 72
8
 73
4
 74
0
 42
0.0000001
 43
0.0000001
 44
0.0000000001
 40
0.0
 40
0.0
 40
0.0
 40
0.0
 40
1.0
 40
1.0
 40
1.0
 40
1.0
 10
19.7999240913
 20
13.8054793788
 30
0.0
 10
19.796894388
 20
13.803005844
 30
0.0
 10
19.7936597184
 20
13.8006337096
 30
0.0
 10
19.7902342541
 20
13.7983733684
 30
0.0
  0
LINE
  5
406
100
AcDbEntity
  8
02___PRT_ALL_AXES
100
AcDbLine
 62
8
  6
HIDDEN
 10
19.7902342546
 20
13.7983733687
 11
19.7884841329
 21
13.7972660436
  0
LINE
  5
407
100
AcDbEntity
  8
02___PRT_ALL_AXES
100
AcDbLine
 62
8
  6
HIDDEN
 10
15.9736710247
 20
13.7143436906
 11
15.9754577688
 21
13.7154276848
  0
LINE
  5
408
100
AcDbEntity
  8
02___PRT_ALL_AXES
100
AcDbLine
 62
8
  6
HIDDEN
 10
15.9754577688
 20
13.7154276848
 11
15.9791379738
 21
13.7175237892
  0
LINE
  5
409
100
AcDbEntity
  8
02___PRT_ALL_AXES
100
AcDbLine
 62
8
  6
HIDDEN
 10
15.9791379738
 20
13.7175237892
 11
15.9829550615
 21
13.7195210014
  0
LINE
  5
40A
100
AcDbEntity
  8
02___PRT_ALL_AXES
100
AcDbLine
 62
8
  6
HIDDEN
 10
15.9829550616
 20
13.7195210014
 11
15.9869023355
 21
13.7214158175
  0
LINE
  5
40B
100
AcDbEntity
  8
02___PRT_ALL_AXES
100
AcDbLine
 62
8
  6
HIDDEN
 10
15.9869023356
 20
13.7214158176
 11
15.9951595267
 21
13.7248851507
  0
LINE
  5
40C
100
AcDbEntity
  8
02___PRT_ALL_AXES
100
AcDbLine
 62
8
  6
HIDDEN
 10
15.9951595268
 20
13.7248851507
 11
15.999454958
 21
13.7264535814
  0
LINE
  5
40D
100
AcDbEntity
  8
02___PRT_ALL_AXES
100
AcDbLine
 62
8
  6
HIDDEN
 10
15.9994549581
 20
13.7264535814
 11
16.0083418269
 21
13.7292442177
  0
LINE
  5
40E
100
AcDbEntity
  8
02___PRT_ALL_AXES
100
AcDbLine
 62
8
  6
HIDDEN
 10
16.0083418269
 20
13.7292442177
 11
16.0175711426
 21
13.7315572482
  0
LINE
  5
40F
100
AcDbEntity
  8
02___PRT_ALL_AXES
100
AcDbLine
 62
8
  6
HIDDEN
 10
16.0175711426
 20
13.7315572482
 11
16.0270781681
 21
13.7333764487
  0
SPLINE
  5
410
100
AcDbEntity
  8
02___PRT_ALL_AXES
100
AcDbSpline
 62
8
  6
HIDDEN
 70
0
 71
3
 72
11
 73
7
 74
0
 42
0.0000001
 43
0.0000001
 44
0.0000000001
 40
0.0
 40
0.0
 40
0.0
 40
0.0
 40
0.25
 40
0.5
 40
0.75
 40
1.0
 40
1.0
 40
1.0
 40
1.0
 10
16.0270781681
 20
13.7333764487
 30
0.0
 10
16.0284859884
 20
13.7335942749
 30
0.0
 10
16.0314043631
 20
13.7340400682
 30
0.0
 10
16.036431733
 20
13.7346752291
 30
0.0
 10
16.0411965301
 20
13.7351266944
 30
0.0
 10
16.0448020243
 20
13.7353669088
 30
0.0
 10
16.0466571284
 20
13.7354858715
 30
0.0
  0
LINE
  5
411
100
AcDbEntity
  8
02___PRT_ALL_AXES
100
AcDbLine
 62
8
  6
HIDDEN
 10
16.0466571286
 20
13.7354858715
 11
16.0565917311
 21
13.7357612977
  0
LINE
  5
412
100
AcDbEntity
  8
02___PRT_ALL_AXES
100
AcDbLine
 62
8
  6
HIDDEN
 10
16.0565917312
 20
13.7357612977
 11
16.0665303421
 21
13.7355134055
  0
LINE
  5
413
100
AcDbEntity
  8
02___PRT_ALL_AXES
100
AcDbLine
 62
8
  6
HIDDEN
 10
16.0665303422
 20
13.7355134055
 11
16.0764032493
 21
13.7347439336
  0
LINE
  5
414
100
AcDbEntity
  8
02___PRT_ALL_AXES
100
AcDbLine
 62
8
  6
HIDDEN
 10
16.0764032494
 20
13.7347439336
 11
16.0812933917
 21
13.73416515
  0
LINE
  5
415
100
AcDbEntity
  8
02___PRT_ALL_AXES
100
AcDbLine
 62
8
  6
HIDDEN
 10
16.0812933917
 20
13.7341651499
 11
16.0861412015
 21
13.7334582794
  0
LINE
  5
416
100
AcDbEntity
  8
02___PRT_ALL_AXES
100
AcDbLine
 62
8
  6
HIDDEN
 10
16.0861412015
 20
13.7334582794
 11
16.0909381739
 21
13.7326245622
  0
SPLINE
  5
417
100
AcDbEntity
  8
02___PRT_ALL_AXES
100
AcDbSpline
 62
8
  6
HIDDEN
 70
0
 71
3
 72
11
 73
7
 74
0
 42
0.0000001
 43
0.0000001
 44
0.0000000001
 40
0.0
 40
0.0
 40
0.0
 40
0.0
 40
0.25
 40
0.5
 40
0.75
 40
1.0
 40
1.0
 40
1.0
 40
1.0
 10
16.090938174
 20
13.7326245622
 30
0.0
 10
16.0923238771
 20
13.7323523917
 30
0.0
 10
16.0951916588
 20
13.7317832746
 30
0.0
 10
16.100022386
 20
13.7306894747
 30
0.0
 10
16.1044767018
 20
13.7295242546
 30
0.0
 10
16.1077636445
 20
13.7285559367
 30
0.0
 10
16.1094510273
 20
13.7280537599
 30
0.0
  0
LINE
  5
418
100
AcDbEntity
  8
02___PRT_ALL_AXES
100
AcDbLine
 62
8
  6
HIDDEN
 10
16.1094510274
 20
13.7280537598
 11
16.1181892441
 21
13.7250556061
  0
LINE
  5
419
100
AcDbEntity
  8
02___PRT_ALL_AXES
100
AcDbLine
 62
8
  6
HIDDEN
 10
16.1181892442
 20
13.7250556061
 11
16.1224015507
 21
13.7233870055
  0
LINE
  5
41A
100
AcDbEntity
  8
02___PRT_ALL_AXES
100
AcDbLine
 62
8
  6
HIDDEN
 10
16.1224015508
 20
13.7233870055
 11
16.1304756241
 21
13.7197253883
  0
LINE
  5
41B
100
AcDbEntity
  8
02___PRT_ALL_AXES
100
AcDbLine
 62
8
  6
HIDDEN
 10
16.1304756242
 20
13.7197253883
 11
16.1380354635
 21
13.7156529331
  0
LINE
  5
41C
100
AcDbEntity
  8
02___PRT_ALL_AXES
100
AcDbLine
 62
8
  6
HIDDEN
 10
16.1380354636
 20
13.7156529331
 11
16.1416058233
 21
13.7134714606
  0
LINE
  5
41D
100
AcDbEntity
  8
02___PRT_ALL_AXES
100
AcDbLine
 62
8
  6
HIDDEN
 10
16.1416058234
 20
13.7134714606
 11
16.1450280421
 21
13.7111982052
  0
LINE
  5
41E
100
AcDbEntity
  8
02___PRT_ALL_AXES
100
AcDbLine
 62
8
  6
HIDDEN
 10
16.1450280421
 20
13.7111982051
 11
16.1514043119
 21
13.7063924513
  0
LINE
  5
41F
100
AcDbEntity
  8
02___PRT_ALL_AXES
100
AcDbLine
 62
8
  6
HIDDEN
 10
16.1514043119
 20
13.7063924513
 11
16.1543471768
 21
13.7038683838
  0
LINE
  5
420
100
AcDbEntity
  8
02___PRT_ALL_AXES
100
AcDbLine
 62
8
  6
HIDDEN
 10
16.1543471768
 20
13.7038683838
 11
16.157119548
 21
13.7012693804
  0
SPLINE
  5
421
100
AcDbEntity
  8
02___PRT_ALL_AXES
100
AcDbSpline
 62
8
  6
HIDDEN
 70
0
 71
3
 72
9
 73
5
 74
0
 42
0.0000001
 43
0.0000001
 44
0.0000000001
 40
0.0
 40
0.0
 40
0.0
 40
0.0
 40
0.5
 40
1.0
 40
1.0
 40
1.0
 40
1.0
 10
16.157119548
 20
13.7012693803
 30
0.0
 10
16.1586560828
 20
13.6997204971
 30
0.0
 10
16.1621025848
 20
13.6961497246
 30
0.0
 10
16.1648956048
 20
13.692361024
 30
0.0
 10
16.1664114837
 20
13.6902169997
 30
0.0
  0
SPLINE
  5
422
100
AcDbEntity
  8
02___PRT_ALL_AXES
100
AcDbSpline
 62
8
  6
HIDDEN
 70
0
 71
3
 72
8
 73
4
 74
0
 42
0.0000001
 43
0.0000001
 44
0.0000000001
 40
0.0
 40
0.0
 40
0.0
 40
0.0
 40
1.0
 40
1.0
 40
1.0
 40
1.0
 10
16.1664114838
 20
13.6902169997
 30
0.0
 10
16.1683130373
 20
13.6873261682
 30
0.0
 10
16.1699727984
 20
13.6843747426
 30
0.0
 10
16.1713834952
 20
13.6813756535
 30
0.0
  0
SPLINE
  5
423
100
AcDbEntity
  8
02___PRT_ALL_AXES
100
AcDbSpline
 62
8
  6
HIDDEN
 70
0
 71
3
 72
9
 73
5
 74
0
 42
0.0000001
 43
0.0000001
 44
0.0000000001
 40
0.0
 40
0.0
 40
0.0
 40
0.0
 40
0.5
 40
1.0
 40
1.0
 40
1.0
 40
1.0
 10
16.171383495
 20
13.6813756539
 30
0.0
 10
16.1721430589
 20
13.6796150215
 30
0.0
 10
16.1738023604
 20
13.6755734827
 30
0.0
 10
16.1747353227
 20
13.6714421487
 30
0.0
 10
16.1752013078
 20
13.6691159757
 30
0.0
  0
SPLINE
  5
424
100
AcDbEntity
  8
02___PRT_ALL_AXES
100
AcDbSpline
 62
8
  6
HIDDEN
 70
0
 71
3
 72
9
 73
5
 74
0
 42
0.0000001
 43
0.0000001
 44
0.0000000001
 40
0.0
 40
0.0
 40
0.0
 40
0.0
 40
0.5
 40
1.0
 40
1.0
 40
1.0
 40
1.0
 10
16.1752013079
 20
13.6691159756
 30
0.0
 10
16.1756413528
 20
13.6660025862
 30
0.0
 10
16.1763139004
 20
13.6597508617
 30
0.0
 10
16.1753207766
 20
13.6535187489
 30
0.0
 10
16.1747211465
 20
13.6504175996
 30
0.0
  0
SPLINE
  5
425
100
AcDbEntity
  8
02___PRT_ALL_AXES
100
AcDbSpline
 62
8
  6
HIDDEN
 70
0
 71
3
 72
9
 73
5
 74
0
 42
0.0000001
 43
0.0000001
 44
0.0000000001
 40
0.0
 40
0.0
 40
0.0
 40
0.0
 40
0.5
 40
1.0
 40
1.0
 40
1.0
 40
1.0
 10
16.1747211467
 20
13.6504176005
 30
0.0
 10
16.1745389657
 20
13.6496450445
 30
0.0
 10
16.1740358298
 20
13.6475860071
 30
0.0
 10
16.1733504974
 20
13.6455481209
 30
0.0
 10
16.1729045908
 20
13.6442772159
 30
0.0
  0
LINE
  5
426
100
AcDbEntity
  8
02___PRT_ALL_AXES
100
AcDbLine
 62
8
  6
HIDDEN
 10
16.1729045908
 20
13.6442772159
 11
16.1702761922
 21
13.6382552079
  0
LINE
  5
427
100
AcDbEntity
  8
02___PRT_ALL_AXES
100
AcDbLine
 62
8
  6
HIDDEN
 10
16.1702761922
 20
13.6382552079
 11
16.168663094
 21
13.6353018358
  0
SPLINE
  5
428
100
AcDbEntity
  8
02___PRT_ALL_AXES
100
AcDbSpline
 62
8
  6
HIDDEN
 70
0
 71
3
 72
8
 73
4
 74
0
 42
0.0000001
 43
0.0000001
 44
0.0000000001
 40
0.0
 40
0.0
 40
0.0
 40
0.0
 40
1.0
 40
1.0
 40
1.0
 40
1.0
 10
16.168663094
 20
13.6353018357
 30
0.0
 10
16.1669029087
 20
13.6323818367
 30
0.0
 10
16.1649000114
 20
13.6295217664
 30
0.0
 10
16.1626631769
 20
13.6267341552
 30
0.0
  0
LINE
  5
429
100
AcDbEntity
  8
02___PRT_ALL_AXES
100
AcDbLine
 62
8
  6
HIDDEN
 10
16.1626631773
 20
13.6267341556
 11
16.160288027
 21
13.6239924426
  0
SPLINE
  5
42A
100
AcDbEntity
  8
02___PRT_ALL_AXES
100
AcDbSpline
 62
8
  6
HIDDEN
 70
0
 71
3
 72
9
 73
5
 74
0
 42
0.0000001
 43
0.0000001
 44
0.0000000001
 40
0.0
 40
0.0
 40
0.0
 40
0.0
 40
0.5
 40
1.0
 40
1.0
 40
1.0
 40
1.0
 10
16.160288027
 20
13.6239924426
 30
0.0
 10
16.1588186942
 20
13.6224229129
 30
0.0
 10
16.1553867099
 20
13.6188578837
 30
0.0
 10
16.1513430648
 20
13.6155562406
 30
0.0
 10
16.1490246475
 20
13.6137238604
 30
0.0
  0
LINE
  5
42B
100
AcDbEntity
  8
02___PRT_ALL_AXES
100
AcDbLine
 62
8
  6
HIDDEN
 10
16.1490246474
 20
13.6137238604
 11
16.145792812
 21
13.6113538044
  0
LINE
  5
42C
100
AcDbEntity
  8
02___PRT_ALL_AXES
100
AcDbLine
 62
8
  6
HIDDEN
 10
16.1457928119
 20
13.6113538044
 11
16.140655368
 21
13.6079637891
  0
LINE
  5
42D
100
AcDbEntity
  8
02___PRT_ALL_AXES
100
AcDbLine
 62
8
  6
HIDDEN
 10
16.1406553682
 20
13.6079637893
 11
16.1388686241
 21
13.6068797951
  0
LINE
  5
42E
100
AcDbEntity
  8
02___PRT_ALL_AXES
100
AcDbLine
 62
8
  6
HIDDEN
 10
16.1388686241
 20
13.6068797951
 11
16.1351884191
 21
13.6047836907
  0
SPLINE
  5
42F
100
AcDbEntity
  8
02___PRT_ALL_AXES
100
AcDbSpline
 62
8
  6
HIDDEN
 70
0
 71
3
 72
8
 73
4
 74
0
 42
0.0000001
 43
0.0000001
 44
0.0000000001
 40
0.0
 40
0.0
 40
0.0
 40
0.0
 40
1.0
 40
1.0
 40
1.0
 40
1.0
 10
16.1351884191
 20
13.6047836907
 30
0.0
 10
16.131404726
 20
13.6027613092
 30
0.0
 10
16.1274539905
 20
13.6008648314
 30
0.0
 10
16.1233535213
 20
13.599102566
 30
0.0
  0
LINE
  5
430
100
AcDbEntity
  8
02___PRT_ALL_AXES
100
AcDbLine
 62
8
  6
HIDDEN
 10
16.1233535219
 20
13.5991025663
 11
16.1191668662
 21
13.5974223291
  0
LINE
  5
431
100
AcDbEntity
  8
02___PRT_ALL_AXES
100
AcDbLine
 62
8
  6
HIDDEN
 10
16.1191668661
 20
13.5974223291
 11
16.1148714349
 21
13.5958538985
  0
LINE
  5
432
100
AcDbEntity
  8
02___PRT_ALL_AXES
100
AcDbLine
 62
8
  6
HIDDEN
 10
16.1148714349
 20
13.5958538985
 11
16.1104747638
 21
13.594400026
  0
LINE
  5
433
100
AcDbEntity
  8
02___PRT_ALL_AXES
100
AcDbLine
 62
8
  6
HIDDEN
 10
16.1104747637
 20
13.594400026
 11
16.1014087191
 21
13.5918459522
  0
LINE
  5
434
100
AcDbEntity
  8
02___PRT_ALL_AXES
100
AcDbLine
 62
8
  6
HIDDEN
 10
16.101408719
 20
13.5918459522
 11
16.0967552503
 21
13.5907502316
  0
LINE
  5
435
100
AcDbEntity
  8
02___PRT_ALL_AXES
100
AcDbLine
 62
8
  6
HIDDEN
 10
16.0967552503
 20
13.5907502316
 11
16.0872482249
 21
13.5889310311
  0
LINE
  5
436
100
AcDbEntity
  8
02___PRT_ALL_AXES
100
AcDbLine
 62
8
  6
HIDDEN
 10
16.0872482248
 20
13.5889310311
 11
16.0775301745
 21
13.587618421
  0
SPLINE
  5
437
100
AcDbEntity
  8
02___PRT_ALL_AXES
100
AcDbSpline
 62
8
  6
HIDDEN
 70
0
 71
3
 72
9
 73
5
 74
0
 42
0.0000001
 43
0.0000001
 44
0.0000000001
 40
0.0
 40
0.0
 40
0.0
 40
0.0
 40
0.5
 40
1.0
 40
1.0
 40
1.0
 40
1.0
 10
16.0775301744
 20
13.587618421
 30
0.0
 10
16.0726132717
 20
13.5871551053
 30
0.0
 10
16.062726268
 20
13.5863571097
 30
0.0
 10
16.0527614952
 20
13.5866047361
 30
0.0
 10
16.0477960492
 20
13.5867940745
 30
0.0
  0
LINE
  5
438
100
AcDbEntity
  8
02___PRT_ALL_AXES
100
AcDbLine
 62
8
  6
HIDDEN
 10
16.0477960507
 20
13.5867940744
 11
16.0379231436
 21
13.5875635462
  0
LINE
  5
439
100
AcDbEntity
  8
02___PRT_ALL_AXES
100
AcDbLine
 62
8
  6
HIDDEN
 10
16.0379231435
 20
13.5875635462
 11
16.0281851915
 21
13.5888492004
  0
LINE
  5
43A
100
AcDbEntity
  8
02___PRT_ALL_AXES
100
AcDbLine
 62
8
  6
HIDDEN
 10
16.0281851914
 20
13.5888492004
 11
16.023388219
 21
13.5896829176
  0
SPLINE
  5
43B
100
AcDbEntity
  8
02___PRT_ALL_AXES
100
AcDbSpline
 62
8
  6
HIDDEN
 70
0
 71
3
 72
8
 73
4
 74
0
 42
0.0000001
 43
0.0000001
 44
0.0000000001
 40
0.0
 40
0.0
 40
0.0
 40
0.0
 40
1.0
 40
1.0
 40
1.0
 40
1.0
 10
16.0233882189
 20
13.5896829177
 30
0.0
 10
16.0186346419
 20
13.5906108731
 30
0.0
 10
16.0139603912
 20
13.5916946254
 30
0.0
 10
16.0093859452
 20
13.5929294268
 30
0.0
  0
LINE
  5
43C
100
AcDbEntity
  8
02___PRT_ALL_AXES
100
AcDbLine
 62
8
  6
HIDDEN
 10
16.0093859459
 20
13.5929294266
 11
16.0048753656
 21
13.59425372
  0
LINE
  5
43D
100
AcDbEntity
  8
02___PRT_ALL_AXES
100
AcDbLine
 62
8
  6
HIDDEN
 10
16.0048753655
 20
13.5942537201
 11
15.9961371488
 21
13.5972518738
  0
LINE
  5
43E
100
AcDbEntity
  8
02___PRT_ALL_AXES
100
AcDbLine
 62
8
  6
HIDDEN
 10
15.9961371487
 20
13.5972518738
 11
15.9919248422
 21
13.5989204744
  0
SPLINE
  5
43F
100
AcDbEntity
  8
02___PRT_ALL_AXES
100
AcDbSpline
 62
8
  6
HIDDEN
 70
0
 71
3
 72
8
 73
4
 74
0
 42
0.0000001
 43
0.0000001
 44
0.0000000001
 40
0.0
 40
0.0
 40
0.0
 40
0.0
 40
1.0
 40
1.0
 40
1.0
 40
1.0
 10
15.9919248422
 20
13.5989204744
 30
0.0
 10
15.9877974649
 20
13.6006713397
 30
0.0
 10
15.983817761
 20
13.60255683
 30
0.0
 10
15.980003166
 20
13.6045686848
 30
0.0
  0
SPLINE
  5
440
100
AcDbEntity
  8
02___PRT_ALL_AXES
100
AcDbSpline
 62
8
  6
HIDDEN
 70
0
 71
3
 72
8
 73
4
 74
0
 42
0.0000001
 43
0.0000001
 44
0.0000000001
 40
0.0
 40
0.0
 40
0.0
 40
0.0
 40
1.0
 40
1.0
 40
1.0
 40
1.0
 10
15.9800031666
 20
13.6045686845
 30
0.0
 10
15.9762562627
 20
13.6066301788
 30
0.0
 10
15.9726827719
 20
13.6088135642
 30
0.0
 10
15.9692983503
 20
13.6111092751
 30
0.0
  0
LINE
  5
441
100
AcDbEntity
  8
02___PRT_ALL_AXES
100
AcDbLine
 62
8
  6
HIDDEN
 10
15.9692983508
 20
13.6111092747
 11
15.9660302769
 21
13.6134703252
  0
LINE
  5
442
100
AcDbEntity
  8
02___PRT_ALL_AXES
100
AcDbLine
 62
8
  6
HIDDEN
 10
15.9660302769
 20
13.6134703252
 11
15.962922081
 21
13.6159150286
  0
LINE
  5
443
100
AcDbEntity
  8
02___PRT_ALL_AXES
100
AcDbLine
 62
8
  6
HIDDEN
 10
15.962922081
 20
13.6159150286
 11
15.9599792161
 21
13.618439096
  0
SPLINE
  5
444
100
AcDbEntity
  8
02___PRT_ALL_AXES
100
AcDbSpline
 62
8
  6
HIDDEN
 70
0
 71
3
 72
9
 73
5
 74
0
 42
0.0000001
 43
0.0000001
 44
0.0000000001
 40
0.0
 40
0.0
 40
0.0
 40
0.0
 40
0.5
 40
1.0
 40
1.0
 40
1.0
 40
1.0
 10
15.9599792161
 20
13.6184390961
 30
0.0
 10
15.9576568568
 20
13.6205999203
 30
0.0
 10
15.9531257051
 20
13.6249791965
 30
0.0
 10
15.9496058104
 20
13.6297100937
 30
0.0
 10
15.9479149089
 20
13.6320904806
 30
0.0
  0
LINE
  5
445
100
AcDbEntity
  8
02___PRT_ALL_AXES
100
AcDbLine
 62
8
  6
HIDDEN
 10
15.9479149092
 20
13.6320904802
 11
15.9460616926
 21
13.6349934258
  0
LINE
  5
446
100
AcDbEntity
  8
02___PRT_ALL_AXES
100
AcDbLine
 62
8
  6
HIDDEN
 10
15.9460616925
 20
13.6349934258
 11
15.9444033857
 21
13.6379422654
  0
LINE
  5
447
100
AcDbEntity
  8
02___PRT_ALL_AXES
100
AcDbLine
 62
8
  6
HIDDEN
 10
15.9444033857
 20
13.6379422655
 11
15.9416827913
 21
13.6439568625
  0
SPLINE
  5
448
100
AcDbEntity
  8
02___PRT_ALL_AXES
100
AcDbSpline
 62
8
  6
HIDDEN
 70
0
 71
3
 72
9
 73
5
 74
0
 42
0.0000001
 43
0.0000001
 44
0.0000000001
 40
0.0
 40
0.0
 40
0.0
 40
0.0
 40
0.5
 40
1.0
 40
1.0
 40
1.0
 40
1.0
 10
15.9416827913
 20
13.6439568625
 30
0.0
 10
15.9413993411
 20
13.6447180441
 30
0.0
 10
15.9406602122
 20
13.6467508327
 30
0.0
 10
15.9401027036
 20
13.6488060744
 30
0.0
 10
15.939772209
 20
13.6500920833
 30
0.0
  0
LINE
  5
449
100
AcDbEntity
  8
02___PRT_ALL_AXES
100
AcDbLine
 62
8
  6
HIDDEN
 10
15.939772209
 20
13.6500920833
 11
15.9391250851
 21
13.6531915043
  0
SPLINE
  5
44A
100
AcDbEntity
  8
02___PRT_ALL_AXES
100
AcDbSpline
 62
8
  6
HIDDEN
 70
0
 71
3
 72
9
 73
5
 74
0
 42
0.0000001
 43
0.0000001
 44
0.0000000001
 40
0.0
 40
0.0
 40
0.0
 40
0.0
 40
0.5
 40
1.0
 40
1.0
 40
1.0
 40
1.0
 10
15.9391250851
 20
13.6531915043
 30
0.0
 10
15.9387439632
 20
13.655785257
 30
0.0
 10
15.9381255697
 20
13.6609888156
 30
0.0
 10
15.9386642364
 20
13.6661939773
 30
0.0
 10
15.9390056164
 20
13.6687887314
 30
0.0
  0
LINE
  5
44B
100
AcDbEntity
  8
02___PRT_ALL_AXES
100
AcDbLine
 62
8
  6
HIDDEN
 10
15.9390056163
 20
13.668788731
 11
15.9396052462
 21
13.6718898793
  0
SPLINE
  5
44C
100
AcDbEntity
  8
02___PRT_ALL_AXES
100
AcDbSpline
 62
8
  6
HIDDEN
 70
0
 71
3
 72
9
 73
5
 74
0
 42
0.0000001
 43
0.0000001
 44
0.0000000001
 40
0.0
 40
0.0
 40
0.0
 40
0.0
 40
0.5
 40
1.0
 40
1.0
 40
1.0
 40
1.0
 10
15.9396052462
 20
13.6718898793
 30
0.0
 10
15.9397874272
 20
13.6726624353
 30
0.0
 10
15.9402905631
 20
13.6747214727
 30
0.0
 10
15.9409758955
 20
13.6767593589
 30
0.0
 10
15.9414218021
 20
13.6780302639
 30
0.0
  0
LINE
  5
44D
100
AcDbEntity
  8
02___PRT_ALL_AXES
100
AcDbLine
 62
8
  6
HIDDEN
 10
15.9414218021
 20
13.678030264
 11
15.9440502007
 21
13.6840522719
  0
SPLINE
  5
44E
100
AcDbEntity
  8
02___PRT_ALL_AXES
100
AcDbSpline
 62
8
  6
HIDDEN
 70
0
 71
3
 72
9
 73
5
 74
0
 42
0.0000001
 43
0.0000001
 44
0.0000000001
 40
0.0
 40
0.0
 40
0.0
 40
0.0
 40
0.5
 40
1.0
 40
1.0
 40
1.0
 40
1.0
 10
15.9440502007
 20
13.684052272
 30
0.0
 10
15.9458065948
 20
13.6872497822
 30
0.0
 10
15.9498532148
 20
13.6941022966
 30
0.0
 10
15.9559386946
 20
13.7003287975
 30
0.0
 10
15.9593269295
 20
13.7035981864
 30
0.0
  0
LINE
  5
44F
100
AcDbEntity
  8
02___PRT_ALL_AXES
100
AcDbLine
 62
8
  6
HIDDEN
 10
15.9593269301
 20
13.703598187
 11
15.9622310662
 21
13.7061303554
  0
LINE
  5
450
100
AcDbEntity
  8
02___PRT_ALL_AXES
100
AcDbLine
 62
8
  6
HIDDEN
 10
15.9622310662
 20
13.7061303554
 11
15.9653017455
 21
13.7085836195
  0
LINE
  5
451
100
AcDbEntity
  8
02___PRT_ALL_AXES
100
AcDbLine
 62
8
  6
HIDDEN
 10
15.9653017455
 20
13.7085836195
 11
15.9719209029
 21
13.7132363654
  0
LINE
  5
452
100
AcDbEntity
  8
02___PRT_ALL_AXES
100
AcDbLine
 62
8
  6
HIDDEN
 10
15.9719209029
 20
13.7132363654
 11
15.9736710247
 21
13.7143436905
  0
SPLINE
  5
453
100
AcDbEntity
  8
02___PRT_ALL_AXES
100
AcDbSpline
 62
8
  6
HIDDEN
 70
0
 71
3
 72
99
 73
95
 74
0
 42
0.0000001
 43
0.0000001
 44
0.0000000001
 40
0.0
 40
0.0
 40
0.0
 40
0.0
 40
0.03125
 40
0.046875
 40
0.0546875
 40
0.0625
 40
0.0703125
 40
0.078125
 40
0.09375
 40
0.109375
 40
0.1171875
 40
0.125
 40
0.1328125
 40
0.140625
 40
0.15625
 40
0.171875
 40
0.1796875
 40
0.1875
 40
0.1953125
 40
0.203125
 40
0.21875
 40
0.234375
 40
0.2421875
 40
0.25
 40
0.2578125
 40
0.265625
 40
0.28125
 40
0.296875
 40
0.3046875
 40
0.3125
 40
0.3203125
 40
0.328125
 40
0.34375
 40
0.359375
 40
0.3671875
 40
0.375
 40
0.3828125
 40
0.390625
 40
0.40625
 40
0.421875
 40
0.4296875
 40
0.4375
 40
0.4453125
 40
0.453125
 40
0.46875
 40
0.484375
 40
0.4921875
 40
0.5
 40
0.5078125
 40
0.515625
 40
0.53125
 40
0.546875
 40
0.5546875
 40
0.5625
 40
0.5703125
 40
0.578125
 40
0.59375
 40
0.609375
 40
0.6171875
 40
0.625
 40
0.6328125
 40
0.640625
 40
0.65625
 40
0.671875
 40
0.6796875
 40
0.6875
 40
0.6953125
 40
0.703125
 40
0.71875
 40
0.734375
 40
0.7421875
 40
0.75
 40
0.7578125
 40
0.765625
 40
0.78125
 40
0.796875
 40
0.8046875
 40
0.8125
 40
0.8203125
 40
0.828125
 40
0.84375
 40
0.859375
 40
0.8671875
 40
0.875
 40
0.8828125
 40
0.890625
 40
0.90625
 40
0.921875
 40
0.9296875
 40
0.9375
 40
0.9453125
 40
0.953125
 40
0.96875
 40
1.0
 40
1.0
 40
1.0
 40
1.0
 10
17.9736279778
 20
14.9534476019
 30
0.0
 10
17.9711593839
 20
14.9515851198
 30
0.0
 10
17.9674715982
 20
14.9487849415
 30
0.0
 10
17.9631163134
 20
14.9455406596
 30
0.0
 10
17.9607031053
 20
14.9436545088
 30
0.0
 10
17.9586817264
 20
14.9423302668
 30
0.0
 10
17.9574684754
 20
14.9406606781
 30
0.0
 10
17.9555671145
 20
14.9385555741
 30
0.0
 10
17.9532977907
 20
14.9358799535
 30
0.0
 10
17.9509535735
 20
14.9332300272
 30
0.0
 10
17.9491720422
 20
14.9310838124
 30
0.0
 10
17.9475993022
 20
14.9295375558
 30
0.0
 10
17.9469260073
 20
14.9277508182
 30
0.0
 10
17.9457126004
 20
14.925452792
 30
0.0
 10
17.9443148317
 20
14.9225492815
 30
0.0
 10
17.9428357039
 20
14.9196643189
 30
0.0
 10
17.9417524717
 20
14.917336616
 30
0.0
 10
17.9406886528
 20
14.9156389086
 30
0.0
 10
17.940580378
 20
14.9137587883
 30
0.0
 10
17.9401006734
 20
14.9113156112
 30
0.0
 10
17.9396272187
 20
14.9082402965
 30
0.0
 10
17.9390682323
 20
14.9051707929
 30
0.0
 10
17.9387253785
 20
14.902718318
 30
0.0
 10
17.9382065513
 20
14.9008660912
 30
0.0
 10
17.9386823041
 20
14.8990637831
 30
0.0
 10
17.9389677199
 20
14.8966430922
 30
0.0
 10
17.9394549488
 20
14.8936245324
 30
0.0
 10
17.9398564926
 20
14.8905987738
 30
0.0
 10
17.9402790046
 20
14.8881896009
 30
0.0
 10
17.9403434689
 20
14.8863527388
 30
0.0
 10
17.9413669735
 20
14.8846300895
 30
0.0
 10
17.9423952234
 20
14.8822929738
 30
0.0
 10
17.943806107
 20
14.8793879218
 30
0.0
 10
17.9451352344
 20
14.8764678121
 30
0.0
 10
17.9462942942
 20
14.8741547885
 30
0.0
 10
17.9469253691
 20
14.8723598631
 30
0.0
 10
17.9484614448
 20
14.8707940365
 30
0.0
 10
17.950192041
 20
14.8686257813
 30
0.0
 10
17.9524740702
 20
14.8659463631
 30
0.0
 10
17.9546778445
 20
14.8632439498
 30
0.0
 10
17.9565336485
 20
14.8611124868
 30
0.0
 10
17.9576941007
 20
14.8594362838
 30
0.0
 10
17.959733764
 20
14.8580552696
 30
0.0
 10
17.9621451769
 20
14.8561100646
 30
0.0
 10
17.9652724518
 20
14.853719482
 30
0.0
 10
17.9683328641
 20
14.8512950208
 30
0.0
 10
17.9708512572
 20
14.8494040215
 30
0.0
 10
17.9725699796
 20
14.8478603902
 30
0.0
 10
17.9749339605
 20
14.8467940014
 30
0.0
 10
17.9778596771
 20
14.8452046507
 30
0.0
 10
17.9816006106
 20
14.8432810983
 30
0.0
 10
17.9852892156
 20
14.8413143758
 30
0.0
 10
17.9882986579
 20
14.8397940972
 30
0.0
 10
17.9904114618
 20
14.8385204921
 30
0.0
 10
17.993072098
 20
14.837753922
 30
0.0
 10
17.9964276464
 20
14.8365538338
 30
0.0
 10
18.0006922497
 20
14.835121096
 30
0.0
 10
18.0049161402
 20
14.8336413621
 30
0.0
 10
18.0083368291
 20
14.8325164677
 30
0.0
 10
18.0108020439
 20
14.8315243163
 30
0.0
 10
18.0136476779
 20
14.8310966408
 30
0.0
 10
18.0173085174
 20
14.8303282911
 30
0.0
 10
18.0219335627
 20
14.829442532
 30
0.0
 10
18.026529298
 20
14.8285057051
 30
0.0
 10
18.0302370335
 20
14.827819064
 30
0.0
 10
18.0329419796
 20
14.8271462625
 30
0.0
 10
18.0359347739
 20
14.8270733338
 30
0.0
 10
18.0398247313
 20
14.8267655755
 30
0.0
 10
18.0447208206
 20
14.8264600959
 30
0.0
 10
18.0496078835
 20
14.8261008936
 30
0.0
 10
18.0535122831
 20
14.8258790916
 30
0.0
 10
18.0564617507
 20
14.8255482941
 30
0.0
 10
18.0593291718
 20
14.8258425007
 30
0.0
 10
18.0631813441
 20
14.8260155103
 30
0.0
 10
18.0679845941
 20
14.8263137562
 30
0.0
 10
18.0727995255
 20
14.8265581491
 30
0.0
 10
18.0766330077
 20
14.8268173234
 30
0.0
 10
18.0795564993
 20
14.826853036
 30
0.0
 10
18.0822957024
 20
14.8274915914
 30
0.0
 10
18.0860129146
 20
14.8281315261
 30
0.0
 10
18.0906330909
 20
14.8290103809
 30
0.0
 10
18.0952774467
 20
14.8298378308
 30
0.0
 10
18.0989559715
 20
14.8305600135
 30
0.0
 10
18.1018112369
 20
14.830951825
 30
0.0
 10
18.1042994954
 20
14.831912827
 30
0.0
 10
18.1077461076
 20
14.8329944718
 30
0.0
 10
18.1120048832
 20
14.8344212358
 30
0.0
 10
18.11630045
 20
14.835798782
 30
0.0
 10
18.1196881962
 20
14.8369591752
 30
0.0
 10
18.122353053
 20
14.837683932
 30
0.0
 10
18.1245460747
 20
14.838961663
 30
0.0
 10
18.1276347315
 20
14.8404723663
 30
0.0
 10
18.1329627115
 20
14.8432065367
 30
0.0
 10
18.1375560096
 20
14.8455191034
 30
0.0
 10
18.1406123287
 20
14.8470677053
 30
0.0
  0
SPLINE
  5
454
100
AcDbEntity
  8
02___PRT_ALL_AXES
100
AcDbSpline
 62
8
  6
HIDDEN
 70
0
 71
3
 72
99
 73
95
 74
0
 42
0.0000001
 43
0.0000001
 44
0.0000000001
 40
0.0
 40
0.0
 40
0.0
 40
0.0
 40
0.03125
 40
0.046875
 40
0.0546875
 40
0.0625
 40
0.0703125
 40
0.078125
 40
0.09375
 40
0.109375
 40
0.1171875
 40
0.125
 40
0.1328125
 40
0.140625
 40
0.15625
 40
0.171875
 40
0.1796875
 40
0.1875
 40
0.1953125
 40
0.203125
 40
0.21875
 40
0.234375
 40
0.2421875
 40
0.25
 40
0.2578125
 40
0.265625
 40
0.28125
 40
0.296875
 40
0.3046875
 40
0.3125
 40
0.3203125
 40
0.328125
 40
0.34375
 40
0.359375
 40
0.3671875
 40
0.375
 40
0.3828125
 40
0.390625
 40
0.40625
 40
0.421875
 40
0.4296875
 40
0.4375
 40
0.4453125
 40
0.453125
 40
0.46875
 40
0.484375
 40
0.4921875
 40
0.5
 40
0.5078125
 40
0.515625
 40
0.53125
 40
0.546875
 40
0.5546875
 40
0.5625
 40
0.5703125
 40
0.578125
 40
0.59375
 40
0.609375
 40
0.6171875
 40
0.625
 40
0.6328125
 40
0.640625
 40
0.65625
 40
0.671875
 40
0.6796875
 40
0.6875
 40
0.6953125
 40
0.703125
 40
0.71875
 40
0.734375
 40
0.7421875
 40
0.75
 40
0.7578125
 40
0.765625
 40
0.78125
 40
0.796875
 40
0.8046875
 40
0.8125
 40
0.8203125
 40
0.828125
 40
0.84375
 40
0.859375
 40
0.8671875
 40
0.875
 40
0.8828125
 40
0.890625
 40
0.90625
 40
0.921875
 40
0.9296875
 40
0.9375
 40
0.9453125
 40
0.953125
 40
0.96875
 40
1.0
 40
1.0
 40
1.0
 40
1.0
 10
18.1406123214
 20
14.8470677007
 30
0.0
 10
18.1430809153
 20
14.8489301828
 30
0.0
 10
18.1467687009
 20
14.8517303611
 30
0.0
 10
18.1511239857
 20
14.854974643
 30
0.0
 10
18.1535371939
 20
14.8568607938
 30
0.0
 10
18.1555585727
 20
14.8581850358
 30
0.0
 10
18.1567718237
 20
14.8598546245
 30
0.0
 10
18.1586731847
 20
14.8619597285
 30
0.0
 10
18.1609425084
 20
14.8646353491
 30
0.0
 10
18.1632867257
 20
14.8672852754
 30
0.0
 10
18.1650682569
 20
14.8694314902
 30
0.0
 10
18.166640997
 20
14.8709777468
 30
0.0
 10
18.1673142918
 20
14.8727644844
 30
0.0
 10
18.1685276987
 20
14.8750625106
 30
0.0
 10
18.1699254674
 20
14.8779660211
 30
0.0
 10
18.1714045952
 20
14.8808509837
 30
0.0
 10
18.1724878274
 20
14.8831786866
 30
0.0
 10
18.1735516464
 20
14.884876394
 30
0.0
 10
18.1736599212
 20
14.8867565143
 30
0.0
 10
18.1741396258
 20
14.8891996914
 30
0.0
 10
18.1746130804
 20
14.8922750061
 30
0.0
 10
18.1751720668
 20
14.8953445097
 30
0.0
 10
18.1755149206
 20
14.8977969846
 30
0.0
 10
18.1760337479
 20
14.8996492114
 30
0.0
 10
18.1755579951
 20
14.9014515195
 30
0.0
 10
18.1752725793
 20
14.9038722105
 30
0.0
 10
18.1747853503
 20
14.9068907702
 30
0.0
 10
18.1743838065
 20
14.9099165288
 30
0.0
 10
18.1739612945
 20
14.9123257017
 30
0.0
 10
18.1738968302
 20
14.9141625638
 30
0.0
 10
18.1728733256
 20
14.9158852131
 30
0.0
 10
18.1718450757
 20
14.9182223288
 30
0.0
 10
18.1704341921
 20
14.9211273808
 30
0.0
 10
18.1691050648
 20
14.9240474905
 30
0.0
 10
18.167946005
 20
14.9263605141
 30
0.0
 10
18.1673149301
 20
14.9281554395
 30
0.0
 10
18.1657788543
 20
14.9297212661
 30
0.0
 10
18.1640482581
 20
14.9318895213
 30
0.0
 10
18.1617662289
 20
14.9345689395
 30
0.0
 10
18.1595624546
 20
14.9372713528
 30
0.0
 10
18.1577066506
 20
14.9394028158
 30
0.0
 10
18.1565461984
 20
14.9410790188
 30
0.0
 10
18.1545065351
 20
14.942460033
 30
0.0
 10
18.1520951223
 20
14.944405238
 30
0.0
 10
18.1489678473
 20
14.9467958206
 30
0.0
 10
18.1459074351
 20
14.9492202818
 30
0.0
 10
18.1433890419
 20
14.9511112811
 30
0.0
 10
18.1416703196
 20
14.9526549124
 30
0.0
 10
18.1393063387
 20
14.9537213012
 30
0.0
 10
18.136380622
 20
14.9553106519
 30
0.0
 10
18.1326396885
 20
14.9572342043
 30
0.0
 10
18.1289510835
 20
14.9592009268
 30
0.0
 10
18.1259416412
 20
14.9607212054
 30
0.0
 10
18.1238288373
 20
14.9619948105
 30
0.0
 10
18.1211682011
 20
14.9627613806
 30
0.0
 10
18.1178126527
 20
14.9639614688
 30
0.0
 10
18.1135480494
 20
14.9653942066
 30
0.0
 10
18.1093241589
 20
14.9668739405
 30
0.0
 10
18.10590347
 20
14.9679988349
 30
0.0
 10
18.1034382552
 20
14.9689909863
 30
0.0
 10
18.1005926212
 20
14.9694186618
 30
0.0
 10
18.0969317818
 20
14.9701870115
 30
0.0
 10
18.0923067364
 20
14.9710727706
 30
0.0
 10
18.0877110011
 20
14.9720095975
 30
0.0
 10
18.0840032657
 20
14.9726962386
 30
0.0
 10
18.0812983196
 20
14.9733690401
 30
0.0
 10
18.0783055252
 20
14.9734419688
 30
0.0
 10
18.0744155678
 20
14.9737497271
 30
0.0
 10
18.0695194786
 20
14.9740552067
 30
0.0
 10
18.0646324157
 20
14.974414409
 30
0.0
 10
18.0607280161
 20
14.974636211
 30
0.0
 10
18.0577785484
 20
14.9749670085
 30
0.0
 10
18.0549111273
 20
14.9746728019
 30
0.0
 10
18.051058955
 20
14.9744997923
 30
0.0
 10
18.046255705
 20
14.9742015464
 30
0.0
 10
18.0414407736
 20
14.9739571535
 30
0.0
 10
18.0376072915
 20
14.9736979792
 30
0.0
 10
18.0346837999
 20
14.9736622666
 30
0.0
 10
18.0319445967
 20
14.9730237112
 30
0.0
 10
18.0282273845
 20
14.9723837765
 30
0.0
 10
18.0236072083
 20
14.9715049217
 30
0.0
 10
18.0189628524
 20
14.9706774718
 30
0.0
 10
18.0152843276
 20
14.9699552892
 30
0.0
 10
18.0124290623
 20
14.9695634776
 30
0.0
 10
18.0099408038
 20
14.9686024756
 30
0.0
 10
18.0064941915
 20
14.9675208308
 30
0.0
 10
18.002235416
 20
14.9660940668
 30
0.0
 10
17.9979398491
 20
14.9647165206
 30
0.0
 10
17.9945521029
 20
14.9635561274
 30
0.0
 10
17.9918872461
 20
14.9628313706
 30
0.0
 10
17.9896942244
 20
14.9615536396
 30
0.0
 10
17.9866055677
 20
14.9600429363
 30
0.0
 10
17.9812775876
 20
14.9573087659
 30
0.0
 10
17.9766842896
 20
14.9549961992
 30
0.0
 10
17.9736279704
 20
14.9534475974
 30
0.0
  0
SPLINE
  5
455
100
AcDbEntity
  8
02___PRT_ALL_AXES
100
AcDbSpline
 62
8
  6
HIDDEN
 70
0
 71
3
 72
12
 73
8
 74
0
 42
0.0000001
 43
0.0000001
 44
0.0000000001
 40
0.0
 40
0.0
 40
0.0
 40
0.0
 40
0.25
 40
0.5
 40
0.625
 40
0.75
 40
1.0
 40
1.0
 40
1.0
 40
1.0
 10
19.8249962536
 20
12.1871034301
 30
0.0
 10
19.8280176288
 20
12.1879565018
 30
0.0
 10
19.8341036112
 20
12.1896463325
 30
0.0
 10
19.8428298535
 20
12.1915180006
 30
0.0
 10
19.849077859
 20
12.1924864478
 30
0.0
 10
19.855900625
 20
12.1934127569
 30
0.0
 10
19.8611881802
 20
12.1938607674
 30
0.0
 10
19.8647046234
 20
12.1941502305
 30
0.0
  0
SPLINE
  5
456
100
AcDbEntity
  8
02___PRT_ALL_AXES
100
AcDbSpline
 62
8
  6
HIDDEN
 70
0
 71
3
 72
13
 73
9
 74
0
 42
0.0000001
 43
0.0000001
 44
0.0000000001
 40
0.0
 40
0.0
 40
0.0
 40
0.0
 40
0.25
 40
0.375
 40
0.5
 40
0.625
 40
0.75
 40
1.0
 40
1.0
 40
1.0
 40
1.0
 10
19.8643027773
 20
12.045752652
 30
0.0
 10
19.8626567602
 20
12.0458803878
 30
0.0
 10
19.8601153079
 20
12.0460806356
 30
0.0
 10
19.8564215747
 20
12.0464642732
 30
0.0
 10
19.8535508404
 20
12.0467961079
 30
0.0
 10
19.8512924002
 20
12.0471109616
 30
0.0
 10
19.8477106004
 20
12.0476401962
 30
0.0
 10
19.8449611214
 20
12.0481234509
 30
0.0
 10
19.8431346502
 20
12.048447037
 30
0.0
  0
LINE
  5
457
100
AcDbEntity
  8
02___PRT_ALL_AXES
100
AcDbLine
 62
8
  6
HIDDEN
 10
19.8431346495
 20
12.0484470371
 11
19.8383969299
 21
12.0494061385
  0
LINE
  5
458
100
AcDbEntity
  8
02___PRT_ALL_AXES
100
AcDbLine
 62
8
  6
HIDDEN
 10
19.8383969298
 20
12.0494061385
 11
19.8291323766
 21
12.0516935461
  0
LINE
  5
459
100
AcDbEntity
  8
02___PRT_ALL_AXES
100
AcDbLine
 62
8
  6
HIDDEN
 10
19.8291323765
 20
12.0516935461
 11
19.8246217962
 21
12.0530178395
  0
SPLINE
  5
45A
100
AcDbEntity
  8
02___PRT_ALL_AXES
100
AcDbSpline
 62
8
  6
HIDDEN
 70
0
 71
3
 72
8
 73
4
 74
0
 42
0.0000001
 43
0.0000001
 44
0.0000000001
 40
0.0
 40
0.0
 40
0.0
 40
0.0
 40
1.0
 40
1.0
 40
1.0
 40
1.0
 10
19.8246217961
 20
12.0530178395
 30
0.0
 10
19.8201790368
 20
12.0544304636
 30
0.0
 10
19.815855882
 20
12.0559883234
 30
0.0
 10
19.8116712721
 20
12.0576845941
 30
0.0
  0
LINE
  5
45B
100
AcDbEntity
  8
02___PRT_ALL_AXES
100
AcDbLine
 62
8
  6
HIDDEN
 10
19.8116712727
 20
12.0576845939
 11
19.8075734164
 21
12.0594623727
  0
SPLINE
  5
45C
100
AcDbEntity
  8
02___PRT_ALL_AXES
100
AcDbSpline
 62
8
  6
HIDDEN
 70
0
 71
3
 72
9
 73
5
 74
0
 42
0.0000001
 43
0.0000001
 44
0.0000000001
 40
0.0
 40
0.0
 40
0.0
 40
0.0
 40
0.5
 40
1.0
 40
1.0
 40
1.0
 40
1.0
 10
19.8075734164
 20
12.0594623727
 30
0.0
 10
19.8026229735
 20
12.0618333592
 30
0.0
 10
19.7922345229
 20
12.0670875865
 30
0.0
 10
19.7839438074
 20
12.0736506273
 30
0.0
 10
19.7797256469
 20
12.0772032154
 30
0.0
  0
LINE
  5
45D
100
AcDbEntity
  8
02___PRT_ALL_AXES
100
AcDbLine
 62
8
  6
HIDDEN
 10
19.7797256467
 20
12.0772032155
 11
19.7743562618
 21
12.0824715989
  0
SPLINE
  5
45E
100
AcDbEntity
  8
02___PRT_ALL_AXES
100
AcDbSpline
 62
8
  6
HIDDEN
 70
0
 71
3
 72
9
 73
5
 74
0
 42
0.0000001
 43
0.0000001
 44
0.0000000001
 40
0.0
 40
0.0
 40
0.0
 40
0.0
 40
0.5
 40
1.0
 40
1.0
 40
1.0
 40
1.0
 10
19.7743562618
 20
12.0824715989
 30
0.0
 10
19.7729241429
 20
12.0840593801
 30
0.0
 10
19.7697182861
 20
12.0877173066
 30
0.0
 10
19.7671799348
 20
12.0915757536
 30
0.0
 10
19.7658081232
 20
12.0937575452
 30
0.0
  0
LINE
  5
45F
100
AcDbEntity
  8
02___PRT_ALL_AXES
100
AcDbLine
 62
8
  6
HIDDEN
 10
19.7658081231
 20
12.0937575453
 11
19.7626893285
 21
12.0996959454
  0
LINE
  5
460
100
AcDbEntity
  8
02___PRT_ALL_AXES
100
AcDbLine
 62
8
  6
HIDDEN
 10
19.7626893285
 20
12.0996959454
 11
19.7614292219
 21
12.102720982
  0
SPLINE
  5
461
100
AcDbEntity
  8
02___PRT_ALL_AXES
100
AcDbSpline
 62
8
  6
HIDDEN
 70
0
 71
3
 72
9
 73
5
 74
0
 42
0.0000001
 43
0.0000001
 44
0.0000000001
 40
0.0
 40
0.0
 40
0.0
 40
0.0
 40
0.5
 40
1.0
 40
1.0
 40
1.0
 40
1.0
 10
19.7614292219
 20
12.102720982
 30
0.0
 10
19.7611457717
 20
12.1034821636
 30
0.0
 10
19.7604066428
 20
12.1055149522
 30
0.0
 10
19.7598491342
 20
12.1075701939
 30
0.0
 10
19.7595186396
 20
12.1088562028
 30
0.0
  0
SPLINE
  5
462
100
AcDbEntity
  8
02___PRT_ALL_AXES
100
AcDbSpline
 62
8
  6
HIDDEN
 70
0
 71
3
 72
8
 73
4
 74
0
 42
0.0000001
 43
0.0000001
 44
0.0000000001
 40
0.0
 40
0.0
 40
0.0
 40
0.0
 40
1.0
 40
1.0
 40
1.0
 40
1.0
 10
19.7595186396
 20
12.1088562028
 30
0.0
 10
19.7588198708
 20
12.1119514506
 30
0.0
 10
19.7583794399
 20
12.1150675702
 30
0.0
 10
19.7581992766
 20
12.1181909096
 30
0.0
  0
LINE
  5
463
100
AcDbEntity
  8
02___PRT_ALL_AXES
100
AcDbLine
 62
8
  6
HIDDEN
 10
19.7581992767
 20
12.1181909091
 11
19.7581753409
 21
12.1213158347
  0
SPLINE
  5
464
100
AcDbEntity
  8
02___PRT_ALL_AXES
100
AcDbSpline
 62
8
  6
HIDDEN
 70
0
 71
3
 72
9
 73
5
 74
0
 42
0.0000001
 43
0.0000001
 44
0.0000000001
 40
0.0
 40
0.0
 40
0.0
 40
0.0
 40
0.5
 40
1.0
 40
1.0
 40
1.0
 40
1.0
 10
19.7581753409
 20
12.1213158347
 30
0.0
 10
19.7582019103
 20
12.1220968971
 30
0.0
 10
19.7582901614
 20
12.1241799902
 30
0.0
 10
19.7585633322
 20
12.126256439
 30
0.0
 10
19.7587520469
 20
12.1275528504
 30
0.0
  0
SPLINE
  5
465
100
AcDbEntity
  8
02___PRT_ALL_AXES
100
AcDbSpline
 62
8
  6
HIDDEN
 70
0
 71
3
 72
9
 73
5
 74
0
 42
0.0000001
 43
0.0000001
 44
0.0000000001
 40
0.0
 40
0.0
 40
0.0
 40
0.0
 40
0.5
 40
1.0
 40
1.0
 40
1.0
 40
1.0
 10
19.7587520469
 20
12.1275528505
 30
0.0
 10
19.758882556
 20
12.1283296063
 30
0.0
 10
19.759247957
 20
12.1304002997
 30
0.0
 10
19.7597967846
 20
12.1324546516
 30
0.0
 10
19.7601575433
 20
12.1337363122
 30
0.0
  0
SPLINE
  5
466
100
AcDbEntity
  8
02___PRT_ALL_AXES
100
AcDbSpline
 62
8
  6
HIDDEN
 70
0
 71
3
 72
9
 73
5
 74
0
 42
0.0000001
 43
0.0000001
 44
0.0000000001
 40
0.0
 40
0.0
 40
0.0
 40
0.0
 40
0.5
 40
1.0
 40
1.0
 40
1.0
 40
1.0
 10
19.7601575434
 20
12.1337363123
 30
0.0
 10
19.7607223261
 20
12.1355234784
 30
0.0
 10
19.7620943758
 20
12.1396023814
 30
0.0
 10
19.7641814069
 20
12.1435587043
 30
0.0
 10
19.7654097294
 20
12.1457697635
 30
0.0
  0
LINE
  5
467
100
AcDbEntity
  8
02___PRT_ALL_AXES
100
AcDbLine
 62
8
  6
HIDDEN
 10
19.7654097295
 20
12.1457697636
 11
19.7672184363
 21
12.1486777827
  0
LINE
  5
468
100
AcDbEntity
  8
02___PRT_ALL_AXES
100
AcDbLine
 62
8
  6
HIDDEN
 10
19.7672184364
 20
12.1486777827
 11
19.7692195788
 21
12.1515353471
  0
SPLINE
  5
469
100
AcDbEntity
  8
02___PRT_ALL_AXES
100
AcDbSpline
 62
8
  6
HIDDEN
 70
0
 71
3
 72
9
 73
5
 74
0
 42
0.0000001
 43
0.0000001
 44
0.0000000001
 40
0.0
 40
0.0
 40
0.0
 40
0.0
 40
0.5
 40
1.0
 40
1.0
 40
1.0
 40
1.0
 10
15.9595263291
 20
11.9347922813
 30
0.0
 10
15.9568327238
 20
11.933175188
 30
0.0
 10
15.9513573752
 20
11.9299905999
 30
0.0
 10
15.9452886648
 20
11.9272628432
 30
0.0
 10
15.9422244826
 20
11.9259310582
 30
0.0
  0
LINE
  5
46A
100
AcDbEntity
  8
02___PRT_ALL_AXES
100
AcDbLine
 62
8
  6
HIDDEN
 10
15.9422244828
 20
11.9259310583
 11
15.938037827
 21
11.9242508212
  0
SPLINE
  5
46B
100
AcDbEntity
  8
02___PRT_ALL_AXES
100
AcDbSpline
 62
8
  6
HIDDEN
 70
0
 71
3
 72
11
 73
7
 74
0
 42
0.0000001
 43
0.0000001
 44
0.0000000001
 40
0.0
 40
0.0
 40
0.0
 40
0.0
 40
0.25
 40
0.5
 40
0.75
 40
1.0
 40
1.0
 40
1.0
 40
1.0
 10
15.938037827
 20
11.9242508211
 30
0.0
 10
15.9367913629
 20
11.9237864779
 30
0.0
 10
15.934204828
 20
11.9228294199
 30
0.0
 10
15.9296880168
 20
11.9213079558
 30
0.0
 10
15.9253378664
 20
11.9200101669
 30
0.0
 10
15.9219994818
 20
11.9191252926
 30
0.0
 10
15.92027968
 20
11.9186744443
 30
0.0
  0
LINE
  5
46C
100
AcDbEntity
  8
02___PRT_ALL_AXES
100
AcDbLine
 62
8
  6
HIDDEN
 10
15.9202796799
 20
11.9186744442
 11
15.9109032846
 21
11.9166065148
  0
LINE
  5
46D
100
AcDbEntity
  8
02___PRT_ALL_AXES
100
AcDbLine
 62
8
  6
HIDDEN
 10
15.9109032846
 20
11.9166065148
 11
15.9061191857
 21
11.9157595232
  0
LINE
  5
46E
100
AcDbEntity
  8
02___PRT_ALL_AXES
100
AcDbLine
 62
8
  6
HIDDEN
 10
15.9061191857
 20
11.9157595231
 11
15.8964011354
 21
11.914446913
  0
SPLINE
  5
46F
100
AcDbEntity
  8
02___PRT_ALL_AXES
100
AcDbSpline
 62
8
  6
HIDDEN
 70
0
 71
3
 72
9
 73
5
 74
0
 42
0.0000001
 43
0.0000001
 44
0.0000000001
 40
0.0
 40
0.0
 40
0.0
 40
0.0
 40
0.5
 40
1.0
 40
1.0
 40
1.0
 40
1.0
 10
15.8964011353
 20
11.914446913
 30
0.0
 10
15.8923058323
 20
11.9140518206
 30
0.0
 10
15.8840803187
 20
11.9133508692
 30
0.0
 10
15.8757765955
 20
11.9133753437
 30
0.0
 10
15.8716324554
 20
11.9134332282
 30
0.0
  0
LINE
  5
470
100
AcDbEntity
  8
02___PRT_ALL_AXES
100
AcDbLine
 62
8
  6
HIDDEN
 10
15.8716324561
 20
11.9134332281
 11
15.8666670116
 21
11.9136225664
  0
SPLINE
  5
471
100
AcDbEntity
  8
02___PRT_ALL_AXES
100
AcDbSpline
 62
8
  6
HIDDEN
 70
0
 71
3
 72
11
 73
7
 74
0
 42
0.0000001
 43
0.0000001
 44
0.0000000001
 40
0.0
 40
0.0
 40
0.0
 40
0.0
 40
0.25
 40
0.5
 40
0.75
 40
1.0
 40
1.0
 40
1.0
 40
1.0
 10
15.8666670116
 20
11.9136225664
 30
0.0
 10
15.8652222726
 20
11.9137079272
 30
0.0
 10
15.8622303785
 20
11.9138903077
 30
0.0
 10
15.8571458674
 20
11.9143297768
 30
0.0
 10
15.8524057036
 20
11.9148883136
 30
0.0
 10
15.8488719299
 20
11.9154066342
 30
0.0
 10
15.8470561525
 20
11.9156776924
 30
0.0
  0
LINE
  5
472
100
AcDbEntity
  8
02___PRT_ALL_AXES
100
AcDbLine
 62
8
  6
HIDDEN
 10
15.8470561523
 20
11.9156776924
 11
15.8422591799
 21
11.9165114097
  0
SPLINE
  5
473
100
AcDbEntity
  8
02___PRT_ALL_AXES
100
AcDbSpline
 62
8
  6
HIDDEN
 70
0
 71
3
 72
11
 73
7
 74
0
 42
0.0000001
 43
0.0000001
 44
0.0000000001
 40
0.0
 40
0.0
 40
0.0
 40
0.0
 40
0.25
 40
0.5
 40
0.75
 40
1.0
 40
1.0
 40
1.0
 40
1.0
 10
15.8422591798
 20
11.9165114097
 30
0.0
 10
15.8408734767
 20
11.9167835802
 30
0.0
 10
15.838005695
 20
11.9173526973
 30
0.0
 10
15.8331749678
 20
11.9184464972
 30
0.0
 10
15.828720652
 20
11.9196117173
 30
0.0
 10
15.8254337093
 20
11.9205800352
 30
0.0
 10
15.8237463265
 20
11.921082212
 30
0.0
  0
SPLINE
  5
474
100
AcDbEntity
  8
02___PRT_ALL_AXES
100
AcDbSpline
 62
8
  6
HIDDEN
 70
0
 71
3
 72
47
 73
43
 74
0
 42
0.0000001
 43
0.0000001
 44
0.0000000001
 40
0.0
 40
0.0
 40
0.0
 40
0.0
 40
0.0625
 40
0.09375
 40
0.125
 40
0.140625
 40
0.15625
 40
0.1875
 40
0.21875
 40
0.25
 40
0.265625
 40
0.28125
 40
0.3125
 40
0.34375
 40
0.375
 40
0.40625
 40
0.421875
 40
0.4296875
 40
0.4375
 40
0.453125
 40
0.46875
 40
0.5
 40
0.53125
 40
0.546875
 40
0.5625
 40
0.5703125
 40
0.578125
 40
0.59375
 40
0.625
 40
0.65625
 40
0.6875
 40
0.71875
 40
0.734375
 40
0.75
 40
0.78125
 40
0.8125
 40
0.84375
 40
0.859375
 40
0.875
 40
0.90625
 40
0.9375
 40
1.0
 40
1.0
 40
1.0
 40
1.0
 10
15.8237463264
 20
11.9210822121
 30
0.0
 10
15.8206327501
 20
11.9223203434
 30
0.0
 10
15.8159712277
 20
11.9241857371
 30
0.0
 10
15.8097204966
 20
11.9266401416
 30
0.0
 10
15.8058874725
 20
11.9282424509
 30
0.0
 10
15.8026530565
 20
11.9293685597
 30
0.0
 10
15.8000316813
 20
11.9310629776
 30
0.0
 10
15.7966746787
 20
11.9331071291
 30
0.0
 10
15.7926864128
 20
11.9355947311
 30
0.0
 10
15.7893361121
 20
11.9376508265
 30
0.0
 10
15.7866999927
 20
11.9393189678
 30
0.0
 10
15.7839087853
 20
11.940907574
 30
0.0
 10
15.7815277851
 20
11.9434607644
 30
0.0
 10
15.7784096843
 20
11.94639132
 30
0.0
 10
15.7753665227
 20
11.9493589248
 30
0.0
 10
15.7727981749
 20
11.951819492
 30
0.0
 10
15.771035543
 20
11.9535517975
 30
0.0
 10
15.769977676
 20
11.9545284314
 30
0.0
 10
15.7694243793
 20
11.955636387
 30
0.0
 10
15.7685599171
 20
11.9569763504
 30
0.0
 10
15.7672738218
 20
11.9591455271
 30
0.0
 10
15.7656297364
 20
11.9618476585
 30
0.0
 10
15.7640102108
 20
11.9645556037
 30
0.0
 10
15.7626848199
 20
11.9667154784
 30
0.0
 10
15.7619185966
 20
11.9680786967
 30
0.0
 10
15.7611639102
 20
11.96913898
 30
0.0
 10
15.7609263379
 20
11.9703097914
 30
0.0
 10
15.7604196127
 20
11.972339391
 30
0.0
 10
15.7597483949
 20
11.9752490406
 30
0.0
 10
15.7588980319
 20
11.9787357174
 30
0.0
 10
15.7581429948
 20
11.9822256503
 30
0.0
 10
15.7572334623
 20
11.9851271599
 30
0.0
 10
15.7576499725
 20
11.9874750901
 30
0.0
 10
15.75786617
 20
11.9898184076
 30
0.0
 10
15.758208592
 20
11.9927487474
 30
0.0
 10
15.7585735269
 20
11.996266348
 30
0.0
 10
15.7589346441
 20
11.9991921152
 30
0.0
 10
15.7591097121
 20
12.0015454924
 30
0.0
 10
15.7603762361
 20
12.003774668
 30
0.0
 10
15.761585515
 20
12.0066036826
 30
0.0
 10
15.7637302565
 20
12.0111062209
 30
0.0
 10
15.7652915862
 20
12.0144884988
 30
0.0
 10
15.7663429675
 20
12.0167421565
 30
0.0
  0
LINE
  5
475
100
AcDbEntity
  8
02___PRT_ALL_AXES
100
AcDbLine
 62
8
  6
HIDDEN
 10
15.7663429666
 20
12.0167421553
 11
15.7683441091
 21
12.0195997197
  0
SPLINE
  5
476
100
AcDbEntity
  8
02___PRT_ALL_AXES
100
AcDbSpline
 62
8
  6
HIDDEN
 70
0
 71
3
 72
13
 73
9
 74
0
 42
0.0000001
 43
0.0000001
 44
0.0000000001
 40
0.0
 40
0.0
 40
0.0
 40
0.0
 40
0.125
 40
0.25
 40
0.5
 40
0.75
 40
0.875
 40
1.0
 40
1.0
 40
1.0
 40
1.0
 10
15.7683441091
 20
12.0195997197
 30
0.0
 10
15.7690844638
 20
12.0205304572
 30
0.0
 10
15.7704954394
 20
12.0223752551
 30
0.0
 10
15.7738752597
 20
12.0261982678
 30
0.0
 10
15.7785093388
 20
12.0309390088
 30
0.0
 10
15.7839473654
 20
12.0352547042
 30
0.0
 10
15.7886097214
 20
12.0386266616
 30
0.0
 10
15.7912576238
 20
12.0403246783
 30
0.0
 10
15.7925419844
 20
12.0411721819
 30
0.0
  0
SPLINE
  5
477
100
AcDbEntity
  8
02___PRT_ALL_AXES
100
AcDbSpline
 62
8
  6
HIDDEN
 70
0
 71
3
 72
36
 73
32
 74
0
 42
0.0000001
 43
0.0000001
 44
0.0000000001
 40
0.0
 40
0.0
 40
0.0
 40
0.0
 40
0.0625
 40
0.125
 40
0.15625
 40
0.171875
 40
0.1875
 40
0.21875
 40
0.25
 40
0.3125
 40
0.328125
 40
0.34375
 40
0.375
 40
0.4375
 40
0.46875
 40
0.484375
 40
0.5
 40
0.515625
 40
0.53125
 40
0.5625
 40
0.625
 40
0.65625
 40
0.671875
 40
0.6875
 40
0.75
 40
0.8125
 40
0.828125
 40
0.84375
 40
0.875
 40
0.9375
 40
1.0
 40
1.0
 40
1.0
 40
1.0
 10
15.7925419856
 20
12.0411721826
 30
0.0
 10
15.7949646248
 20
12.0423865748
 30
0.0
 10
15.7998024559
 20
12.044821569
 30
0.0
 10
15.8058869812
 20
12.0478342628
 30
0.0
 10
15.810077727
 20
12.050000201
 30
0.0
 10
15.8125785628
 20
12.0511493903
 30
0.0
 10
15.8154784765
 20
12.0519662134
 30
0.0
 10
15.8189682851
 20
12.0530983849
 30
0.0
 10
15.8246183577
 20
12.0548632787
 30
0.0
 10
15.8295919166
 20
12.0563409097
 30
0.0
 10
15.8337601119
 20
12.0577721089
 30
0.0
 10
15.8367691927
 20
12.0583379347
 30
0.0
 10
15.8421461237
 20
12.0591425231
 30
0.0
 10
15.8482461342
 20
12.0601296673
 30
0.0
 10
15.8535908692
 20
12.0610015369
 30
0.0
 10
15.8566551432
 20
12.0614520234
 30
0.0
 10
15.858920865
 20
12.0619307429
 30
0.0
 10
15.8613114516
 20
12.0618699063
 30
0.0
 10
15.8644552941
 20
12.0619765719
 30
0.0
 10
15.8699778582
 20
12.062079982
 30
0.0
 10
15.8762772776
 20
12.0622057111
 30
0.0
 10
15.8818001462
 20
12.0623791703
 30
0.0
 10
15.8849434668
 20
12.0623657518
 30
0.0
 10
15.8895902031
 20
12.0617240777
 30
0.0
 10
15.896598824
 20
12.061052888
 30
0.0
 10
15.9035557462
 20
12.0601487319
 30
0.0
 10
15.9082541813
 20
12.0597400242
 30
0.0
 10
15.9112481499
 20
12.0590535917
 30
0.0
 10
15.9164209635
 20
12.0576538139
 30
0.0
 10
15.9238457664
 20
12.0557586159
 30
0.0
 10
15.929774921
 20
12.0542106146
 30
0.0
 10
15.9327408343
 20
12.0534405944
 30
0.0
  0
LINE
  5
478
100
AcDbEntity
  8
02___PRT_ALL_AXES
100
AcDbLine
 62
8
  6
HIDDEN
 10
15.9327408381
 20
12.0534405931
 11
15.937060205
 21
12.0518840981
  0
SPLINE
  5
479
100
AcDbEntity
  8
02___PRT_ALL_AXES
100
AcDbSpline
 62
8
  6
HIDDEN
 70
0
 71
3
 72
9
 73
5
 74
0
 42
0.0000001
 43
0.0000001
 44
0.0000000001
 40
0.0
 40
0.0
 40
0.0
 40
0.0
 40
0.5
 40
1.0
 40
1.0
 40
1.0
 40
1.0
 10
15.9370602051
 20
12.0518840981
 30
0.0
 10
15.9405782113
 20
12.0505012609
 30
0.0
 10
15.9475479031
 20
12.0476538585
 30
0.0
 10
15.9538224726
 20
12.0442264407
 30
0.0
 10
15.956906425
 20
12.0424814248
 30
0.0
  0
LINE
  5
47A
100
AcDbEntity
  8
02___PRT_ALL_AXES
100
AcDbLine
 62
8
  6
HIDDEN
 10
15.9569064244
 20
12.0424814251
 11
15.9604767842
 21
12.0402999527
  0
SPLINE
  5
47B
100
AcDbEntity
  8
02___PRT_ALL_AXES
100
AcDbSpline
 62
8
  6
HIDDEN
 70
0
 71
3
 72
32
 73
28
 74
0
 42
0.0000001
 43
0.0000001
 44
0.0000000001
 40
0.0
 40
0.0
 40
0.0
 40
0.0
 40
0.0625
 40
0.125
 40
0.15625
 40
0.1875
 40
0.25
 40
0.3125
 40
0.328125
 40
0.34375
 40
0.375
 40
0.4375
 40
0.46875
 40
0.5
 40
0.53125
 40
0.5625
 40
0.625
 40
0.65625
 40
0.671875
 40
0.6875
 40
0.75
 40
0.8125
 40
0.828125
 40
0.84375
 40
0.875
 40
0.9375
 40
1.0
 40
1.0
 40
1.0
 40
1.0
 10
15.9604767843
 20
12.0402999527
 30
0.0
 10
15.9620096068
 20
12.0391528184
 30
0.0
 10
15.9650917215
 20
12.0368658836
 30
0.0
 10
15.9688620161
 20
12.033970547
 30
0.0
 10
15.9720511845
 20
12.0317312806
 30
0.0
 10
15.9746145009
 20
12.0292133373
 30
0.0
 10
15.9776314074
 20
12.0259786696
 30
0.0
 10
15.9803252785
 20
12.0230707202
 30
0.0
 10
15.9822503866
 20
12.0211702874
 30
0.0
 10
15.9831987612
 20
12.01980002
 30
0.0
 10
15.9846902687
 20
12.0173507097
 30
0.0
 10
15.9864983636
 20
12.0145795651
 30
0.0
 10
15.988188083
 20
12.0117828961
 30
0.0
 10
15.989706984
 20
12.0097339004
 30
0.0
 10
15.990278627
 20
12.0075036426
 30
0.0
 10
15.9913767001
 20
12.004593765
 30
0.0
 10
15.9923539944
 20
12.0016636148
 30
0.0
 10
15.9933057483
 20
11.9991110804
 30
0.0
 10
15.9937443605
 20
11.9976431736
 30
0.0
 10
15.9938436822
 20
11.9953939525
 30
0.0
 10
15.9942547846
 20
11.9920396825
 30
0.0
 10
15.9944553024
 20
11.9886782073
 30
0.0
 10
15.9947652088
 20
11.9864361913
 30
0.0
 10
15.9945954653
 20
11.9849474697
 30
0.0
 10
15.9941179176
 20
11.982345183
 30
0.0
 10
15.9935307048
 20
11.9786260642
 30
0.0
 10
15.9930319828
 20
11.9756512465
 30
0.0
 10
15.9927862407
 20
11.974163778
 30
0.0
  0
LINE
  5
47C
100
AcDbEntity
  8
02___PRT_ALL_AXES
100
AcDbLine
 62
8
  6
HIDDEN
 10
15.992786241
 20
11.9741637791
 11
15.9917755517
 21
11.9711057079
  0
SPLINE
  5
47D
100
AcDbEntity
  8
02___PRT_ALL_AXES
100
AcDbSpline
 62
8
  6
HIDDEN
 70
0
 71
3
 72
21
 73
17
 74
0
 42
0.0000001
 43
0.0000001
 44
0.0000000001
 40
0.0
 40
0.0
 40
0.0
 40
0.0
 40
0.125
 40
0.1875
 40
0.25
 40
0.3125
 40
0.375
 40
0.4375
 40
0.5
 40
0.5625
 40
0.625
 40
0.6875
 40
0.75
 40
0.8125
 40
0.875
 40
1.0
 40
1.0
 40
1.0
 40
1.0
 10
15.9917755517
 20
11.9711057079
 30
0.0
 10
15.9910546667
 20
11.9694764161
 30
0.0
 10
15.9900110954
 20
11.9670348487
 30
0.0
 10
15.9884686421
 20
11.9637699442
 30
0.0
 10
15.986869059
 20
11.9613103658
 30
0.0
 10
15.9854753502
 20
11.9588299208
 30
0.0
 10
15.9837008873
 20
11.9564438423
 30
0.0
 10
15.9817939187
 20
11.954100015
 30
0.0
 10
15.9800729033
 20
11.9516922417
 30
0.0
 10
15.977740581
 20
11.9494980012
 30
0.0
 10
15.9755917933
 20
11.9472376182
 30
0.0
 10
15.9733201742
 20
11.9450282722
 30
0.0
 10
15.9707034849
 20
11.942962048
 30
0.0
 10
15.9682841852
 20
11.9408345544
 30
0.0
 10
15.9644658019
 20
11.9381338377
 30
0.0
 10
15.9614867501
 20
11.936132074
 30
0.0
 10
15.9595263298
 20
11.9347922818
 30
0.0
  0
SPLINE
  5
47E
100
AcDbEntity
  8
02___PRT_ALL_AXES
100
AcDbSpline
 62
7
  6
CONTINUOUS
 70
0
 71
3
 72
15
 73
11
 74
0
 42
0.0000001
 43
0.0000001
 44
0.0000000001
 40
0.0
 40
0.0
 40
0.0
 40
0.0
 40
0.1111473095
 40
0.223918587
 40
0.3397901969
 40
0.460050784
 40
0.5857132361
 40
0.7175115946
 40
0.8556734425
 40
1.0
 40
1.0
 40
1.0
 40
1.0
 10
15.9694713319
 20
11.9877319205
 30
0.0
 10
15.9694661875
 20
11.9857981474
 30
0.0
 10
15.9691451279
 20
11.9818965592
 30
0.0
 10
15.9677506131
 20
11.9761293174
 30
0.0
 10
15.9654575996
 20
11.9704855161
 30
0.0
 10
15.962289826
 20
11.9650244794
 30
0.0
 10
15.958285423
 20
11.9597930231
 30
0.0
 10
15.9534800683
 20
11.954844737
 30
0.0
 10
15.9479317025
 20
11.9502254973
 30
0.0
 10
15.9438638723
 20
11.9474526377
 30
0.0
 10
15.9417293136
 20
11.9461301392
 30
0.0
  0
SPLINE
  5
47F
100
AcDbEntity
  8
02___PRT_ALL_AXES
100
AcDbSpline
 62
7
  6
CONTINUOUS
 70
0
 71
3
 72
19
 73
15
 74
0
 42
0.0000001
 43
0.0000001
 44
0.0000000001
 40
0.0
 40
0.0
 40
0.0
 40
0.0
 40
0.1521783448
 40
0.226567858
 40
0.2993679931
 40
0.4389727798
 40
0.5692602559
 40
0.6306453323
 40
0.6894666063
 40
0.7996665371
 40
0.8516916039
 40
0.9020864171
 40
0.9513390765
 40
1.0
 40
1.0
 40
1.0
 40
1.0
 10
19.8642407831
 20
12.0617770365
 30
0.0
 10
19.8587610586
 20
12.0622571904
 30
0.0
 10
19.8506311799
 20
12.0634307822
 30
0.0
 10
19.8400989629
 20
12.0659370631
 30
0.0
 10
19.8301758626
 20
12.0689568894
 30
0.0
 10
19.8186902019
 20
12.0736996806
 30
0.0
 10
19.8083555172
 20
12.0798559768
 30
0.0
 10
19.8012378151
 20
12.0854729233
 30
0.0
 10
19.7951998331
 20
12.0912199612
 30
0.0
 10
19.7902517065
 20
12.0975934154
 30
0.0
 10
19.7867135749
 20
12.1044357375
 30
0.0
 10
19.7848406205
 20
12.1096063812
 30
0.0
 10
19.7837145009
 20
12.1148642984
 30
0.0
 10
19.7834677733
 20
12.1184092531
 30
0.0
 10
19.7834724525
 20
12.1201681709
 30
0.0
  0
SPLINE
  5
480
100
AcDbEntity
  8
02___PRT_ALL_AXES
100
AcDbSpline
 62
7
  6
CONTINUOUS
 70
0
 71
3
 72
25
 73
21
 74
0
 42
0.0000001
 43
0.0000001
 44
0.0000000001
 40
0.0
 40
0.0
 40
0.0
 40
0.0
 40
0.062341989
 40
0.1282283431
 40
0.1969205851
 40
0.2676908032
 40
0.3397011932
 40
0.4120076001
 40
0.4836694724
 40
0.5537746045
 40
0.6214943766
 40
0.686115417
 40
0.747115417
 40
0.8042080643
 40
0.8574183429
 40
0.907152999
 40
0.9309887221
 40
0.9542970909
 40
0.9772419327
 40
1.0
 40
1.0
 40
1.0
 40
1.0
 10
15.9417293136
 20
11.9461301392
 30
0.0
 10
15.9383771453
 20
11.9440532521
 30
0.0
 10
15.9311859803
 20
11.9402481232
 30
0.0
 10
15.9195550606
 20
11.9357246326
 30
0.0
 10
15.9069956131
 20
11.9323213151
 30
0.0
 10
15.8937833852
 20
11.9301048346
 30
0.0
 10
15.8801942813
 20
11.9291192624
 30
0.0
 10
15.8665160946
 20
11.9293886785
 30
0.0
 10
15.8530400487
 20
11.9309037305
 30
0.0
 10
15.8400527397
 20
11.9336381266
 30
0.0
 10
15.8278274378
 20
11.9375272694
 30
0.0
 10
15.8166244116
 20
11.9424988549
 30
0.0
 10
15.8066769378
 20
11.9484451075
 30
0.0
 10
15.7981970146
 20
11.9552542576
 30
0.0
 10
15.7913681553
 20
11.9627901798
 30
0.0
 10
15.7871240375
 20
11.9696616696
 30
0.0
 10
15.7847602156
 20
11.9753267521
 30
0.0
 10
15.7835076274
 20
11.9795895115
 30
0.0
 10
15.7827563419
 20
11.9838988354
 30
0.0
 10
15.7825931532
 20
11.9867929984
 30
0.0
 10
15.7825969828
 20
11.9882325434
 30
0.0
  0
SPLINE
  5
481
100
AcDbEntity
  8
02___PRT_ALL_AXES
100
AcDbSpline
 62
7
  6
CONTINUOUS
 70
0
 71
3
 72
15
 73
11
 74
0
 42
0.0000001
 43
0.0000001
 44
0.0000000001
 40
0.0
 40
0.0
 40
0.0
 40
0.0
 40
0.1443265575
 40
0.2824884054
 40
0.4142867639
 40
0.539949216
 40
0.6602098031
 40
0.776081413
 40
0.8888526905
 40
1.0
 40
1.0
 40
1.0
 40
1.0
 10
17.7707301642
 20
12.5694999901
 30
0.0
 10
17.7728647229
 20
12.5708224886
 30
0.0
 10
17.7769325531
 20
12.5735953482
 30
0.0
 10
17.782480919
 20
12.5782145879
 30
0.0
 10
17.7872862737
 20
12.583162874
 30
0.0
 10
17.7912906766
 20
12.5883943303
 30
0.0
 10
17.7944584502
 20
12.593855367
 30
0.0
 10
17.7967514638
 20
12.5994991683
 30
0.0
 10
17.7981459786
 20
12.6052664101
 30
0.0
 10
17.7984670381
 20
12.6091679983
 30
0.0
 10
17.7984721825
 20
12.6111017714
 30
0.0
  0
SPLINE
  5
482
100
AcDbEntity
  8
02___PRT_ALL_AXES
100
AcDbSpline
 62
7
  6
CONTINUOUS
 70
0
 71
3
 72
25
 73
21
 74
0
 42
0.0000001
 43
0.0000001
 44
0.0000000001
 40
0.0
 40
0.0
 40
0.0
 40
0.0
 40
0.062341989
 40
0.1282283431
 40
0.1969205851
 40
0.2676908032
 40
0.3397011932
 40
0.4120076001
 40
0.4836694724
 40
0.5537746045
 40
0.6214943766
 40
0.686115417
 40
0.747115417
 40
0.8042080643
 40
0.8574183429
 40
0.907152999
 40
0.9309887221
 40
0.9542970909
 40
0.9772419327
 40
1.0
 40
1.0
 40
1.0
 40
1.0
 10
19.7706871173
 20
13.8086039015
 30
0.0
 10
19.767334949
 20
13.8065270144
 30
0.0
 10
19.760143784
 20
13.8027218855
 30
0.0
 10
19.7485128644
 20
13.7981983949
 30
0.0
 10
19.7359534168
 20
13.7947950774
 30
0.0
 10
19.7227411889
 20
13.7925785969
 30
0.0
 10
19.7091520851
 20
13.7915930247
 30
0.0
 10
19.6954738983
 20
13.7918624408
 30
0.0
 10
19.6819978524
 20
13.7933774928
 30
0.0
 10
19.6690105435
 20
13.7961118889
 30
0.0
 10
19.6567852415
 20
13.8000010317
 30
0.0
 10
19.6455822153
 20
13.8049726172
 30
0.0
 10
19.6356347415
 20
13.8109188698
 30
0.0
 10
19.6271548184
 20
13.8177280199
 30
0.0
 10
19.620325959
 20
13.825263942
 30
0.0
 10
19.6160818413
 20
13.8321354318
 30
0.0
 10
19.6137180194
 20
13.8378005144
 30
0.0
 10
19.6124654312
 20
13.8420632738
 30
0.0
 10
19.6117141456
 20
13.8463725977
 30
0.0
 10
19.611550957
 20
13.8492667606
 30
0.0
 10
19.6115547866
 20
13.8507063057
 30
0.0
  0
SPLINE
  5
483
100
AcDbEntity
  8
02___PRT_ALL_AXES
100
AcDbSpline
 62
7
  6
CONTINUOUS
 70
0
 71
3
 72
25
 73
21
 74
0
 42
0.0000001
 43
0.0000001
 44
0.0000000001
 40
0.0
 40
0.0
 40
0.0
 40
0.0
 40
0.062341989
 40
0.1282283431
 40
0.1969205851
 40
0.2676908032
 40
0.3397011932
 40
0.4120076001
 40
0.4836694724
 40
0.5537746045
 40
0.6214943766
 40
0.686115417
 40
0.747115417
 40
0.8042080643
 40
0.8574183429
 40
0.907152999
 40
0.9309887221
 40
0.9542970909
 40
0.9772419327
 40
1.0
 40
1.0
 40
1.0
 40
1.0
 10
16.1228583527
 20
13.6193016472
 30
0.0
 10
16.1195061844
 20
13.6172247601
 30
0.0
 10
16.1123150194
 20
13.6134196312
 30
0.0
 10
16.1006840997
 20
13.6088961406
 30
0.0
 10
16.0881246522
 20
13.6054928231
 30
0.0
 10
16.0749124243
 20
13.6032763425
 30
0.0
 10
16.0613233205
 20
13.6022907704
 30
0.0
 10
16.0476451337
 20
13.6025601865
 30
0.0
 10
16.0341690878
 20
13.6040752385
 30
0.0
 10
16.0211817788
 20
13.6068096346
 30
0.0
 10
16.0089564769
 20
13.6106987774
 30
0.0
 10
15.9977534507
 20
13.6156703629
 30
0.0
 10
15.9878059769
 20
13.6216166154
 30
0.0
 10
15.9793260538
 20
13.6284257655
 30
0.0
 10
15.9724971944
 20
13.6359616877
 30
0.0
 10
15.9682530766
 20
13.6428331775
 30
0.0
 10
15.9658892548
 20
13.6484982601
 30
0.0
 10
15.9646366665
 20
13.6527610195
 30
0.0
 10
15.963885381
 20
13.6570703434
 30
0.0
 10
15.9637221923
 20
13.6599645063
 30
0.0
 10
15.9637260219
 20
13.6614040514
 30
0.0
  0
SPLINE
  5
484
100
AcDbEntity
  8
02___PRT_ALL_AXES
100
AcDbSpline
 62
7
  6
CONTINUOUS
 70
0
 71
3
 72
15
 73
11
 74
0
 42
0.0000001
 43
0.0000001
 44
0.0000000001
 40
0.0
 40
0.0
 40
0.0
 40
0.0
 40
0.1443265575
 40
0.2824884054
 40
0.4142867639
 40
0.539949216
 40
0.6602098031
 40
0.776081413
 40
0.8888526905
 40
1.0
 40
1.0
 40
1.0
 40
1.0
 10
18.1228153058
 20
14.8584055586
 30
0.0
 10
18.1249498645
 20
14.8597280571
 30
0.0
 10
18.1290176947
 20
14.8625009167
 30
0.0
 10
18.1345660606
 20
14.8671201563
 30
0.0
 10
18.1393714153
 20
14.8720684425
 30
0.0
 10
18.1433758182
 20
14.8772998987
 30
0.0
 10
18.1465435918
 20
14.8827609354
 30
0.0
 10
18.1488366054
 20
14.8884047367
 30
0.0
 10
18.1502311202
 20
14.8941719785
 30
0.0
 10
18.1505521797
 20
14.8980735667
 30
0.0
 10
18.1505573241
 20
14.9000073399
 30
0.0
  0
SPLINE
  5
485
100
AcDbEntity
  8
02___PRT_ALL_AXES
100
AcDbSpline
 62
7
  6
CONTINUOUS
 70
0
 71
3
 72
25
 73
21
 74
0
 42
0.0000001
 43
0.0000001
 44
0.0000000001
 40
0.0
 40
0.0
 40
0.0
 40
0.0
 40
0.0227580673
 40
0.0457029091
 40
0.0690112779
 40
0.092847001
 40
0.1425816571
 40
0.1957919357
 40
0.252884583
 40
0.313884583
 40
0.3785056234
 40
0.4462253955
 40
0.5163305276
 40
0.5879923999
 40
0.6602988068
 40
0.7323091968
 40
0.8030794149
 40
0.8717716569
 40
0.937658011
 40
1.0
 40
1.0
 40
1.0
 40
1.0
 10
17.6115978335
 20
12.6116023943
 30
0.0
 10
17.6115940039
 20
12.6101628493
 30
0.0
 10
17.6117571925
 20
12.6072686863
 30
0.0
 10
17.6125084781
 20
12.6029593624
 30
0.0
 10
17.6137610663
 20
12.598696603
 30
0.0
 10
17.6161248881
 20
12.5930315205
 30
0.0
 10
17.6203690059
 20
12.5861600307
 30
0.0
 10
17.6271978653
 20
12.5786241085
 30
0.0
 10
17.6356777884
 20
12.5718149584
 30
0.0
 10
17.6456252622
 20
12.5658687058
 30
0.0
 10
17.6568282884
 20
12.5608971203
 30
0.0
 10
17.6690535904
 20
12.5570079775
 30
0.0
 10
17.6820408993
 20
12.5542735814
 30
0.0
 10
17.6955169452
 20
12.5527585294
 30
0.0
 10
17.709195132
 20
12.5524891133
 30
0.0
 10
17.7227842358
 20
12.5534746855
 30
0.0
 10
17.7359964637
 20
12.555691166
 30
0.0
 10
17.7485559112
 20
12.5590944835
 30
0.0
 10
17.7601868309
 20
12.5636179741
 30
0.0
 10
17.7673779959
 20
12.567423103
 30
0.0
 10
17.7707301642
 20
12.5694999901
 30
0.0
  0
SPLINE
  5
486
100
AcDbEntity
  8
02___PRT_ALL_AXES
100
AcDbSpline
 62
7
  6
CONTINUOUS
 70
0
 71
3
 72
25
 73
21
 74
0
 42
0.0000001
 43
0.0000001
 44
0.0000000001
 40
0.0
 40
0.0
 40
0.0
 40
0.0
 40
0.0227580673
 40
0.0457029091
 40
0.0690112779
 40
0.092847001
 40
0.1425816571
 40
0.1957919357
 40
0.252884583
 40
0.313884583
 40
0.3785056234
 40
0.4462253955
 40
0.5163305276
 40
0.5879923999
 40
0.6602988068
 40
0.7323091968
 40
0.8030794149
 40
0.8717716569
 40
0.937658011
 40
1.0
 40
1.0
 40
1.0
 40
1.0
 10
17.963682975
 20
14.9005079628
 30
0.0
 10
17.9636791454
 20
14.8990684177
 30
0.0
 10
17.9638423341
 20
14.8961742547
 30
0.0
 10
17.9645936197
 20
14.8918649309
 30
0.0
 10
17.9658462079
 20
14.8876021715
 30
0.0
 10
17.9682100297
 20
14.8819370889
 30
0.0
 10
17.9724541475
 20
14.8750655991
 30
0.0
 10
17.9792830069
 20
14.8675296769
 30
0.0
 10
17.98776293
 20
14.8607205268
 30
0.0
 10
17.9977104038
 20
14.8547742742
 30
0.0
 10
18.00891343
 20
14.8498026887
 30
0.0
 10
18.0211387319
 20
14.8459135459
 30
0.0
 10
18.0341260409
 20
14.8431791499
 30
0.0
 10
18.0476020868
 20
14.8416640978
 30
0.0
 10
18.0612802736
 20
14.8413946818
 30
0.0
 10
18.0748693774
 20
14.8423802539
 30
0.0
 10
18.0880816053
 20
14.8445967345
 30
0.0
 10
18.1006410528
 20
14.848000052
 30
0.0
 10
18.1122719725
 20
14.8525235426
 30
0.0
 10
18.1194631375
 20
14.8563286714
 30
0.0
 10
18.1228153058
 20
14.8584055586
 30
0.0
  0
SPLINE
  5
487
100
AcDbEntity
  8
02___PRT_ALL_AXES
100
AcDbSpline
 62
7
  6
CONTINUOUS
 70
0
 71
3
 72
15
 73
11
 74
0
 42
0.0000001
 43
0.0000001
 44
0.0000000001
 40
0.0
 40
0.0
 40
0.0
 40
0.0
 40
0.1111473095
 40
0.223918587
 40
0.3397901969
 40
0.460050784
 40
0.5857132361
 40
0.7175115946
 40
0.8556734425
 40
1.0
 40
1.0
 40
1.0
 40
1.0
 10
16.150600371
 20
13.6609034285
 30
0.0
 10
16.1505952266
 20
13.6589696553
 30
0.0
 10
16.150274167
 20
13.6550680671
 30
0.0
 10
16.1488796522
 20
13.6493008253
 30
0.0
 10
16.1465866387
 20
13.643657024
 30
0.0
 10
16.1434188651
 20
13.6381959873
 30
0.0
 10
16.1394144622
 20
13.6329645311
 30
0.0
 10
16.1346091074
 20
13.628016245
 30
0.0
 10
16.1290607416
 20
13.6233970053
 30
0.0
 10
16.1249929114
 20
13.6206241457
 30
0.0
 10
16.1228583527
 20
13.6193016472
 30
0.0
  0
SPLINE
  5
488
100
AcDbEntity
  8
02___PRT_ALL_AXES
100
AcDbSpline
 62
7
  6
CONTINUOUS
 70
0
 71
3
 72
15
 73
11
 74
0
 42
0.0000001
 43
0.0000001
 44
0.0000000001
 40
0.0
 40
0.0
 40
0.0
 40
0.0
 40
0.1111473095
 40
0.223918587
 40
0.3397901969
 40
0.460050784
 40
0.5857132361
 40
0.7175115946
 40
0.8556734425
 40
1.0
 40
1.0
 40
1.0
 40
1.0
 10
19.7984291356
 20
13.8502056828
 30
0.0
 10
19.7984239912
 20
13.8482719096
 30
0.0
 10
19.7981029317
 20
13.8443703214
 30
0.0
 10
19.7967084169
 20
13.8386030796
 30
0.0
 10
19.7944154033
 20
13.8329592783
 30
0.0
 10
19.7912476297
 20
13.8274982416
 30
0.0
 10
19.7872432268
 20
13.8222667854
 30
0.0
 10
19.7824378721
 20
13.8173184993
 30
0.0
 10
19.7768895062
 20
13.8126992596
 30
0.0
 10
19.772821676
 20
13.8099264
 30
0.0
 10
19.7706871173
 20
13.8086039015
 30
0.0
  0
SPLINE
  5
489
100
AcDbEntity
  8
0
100
AcDbSpline
 62
7
  6
CONTINUOUS
 70
0
 71
3
 72
17
 73
13
 74
0
 42
0.0000001
 43
0.0000001
 44
0.0000000001
 40
0.0
 40
0.0
 40
0.0
 40
0.0
 40
0.0535783179
 40
0.1100346106
 40
0.2302942865
 40
0.3582980412
 40
0.4910431122
 40
0.6250303364
 40
0.7566636624
 40
0.8826597437
 40
0.9426170625
 40
1.0
 40
1.0
 40
1.0
 40
1.0
 10
18.3072681313
 20
11.1690898746
 30
0.0
 10
18.3072752008
 20
11.1717021261
 30
0.0
 10
18.3075378296
 20
11.1770683774
 30
0.0
 10
18.3089786754
 20
11.1882129261
 30
0.0
 10
18.3125163426
 20
11.2026948904
 30
0.0
 10
18.3191374527
 20
11.2200941406
 30
0.0
 10
18.3279724657
 20
11.2372359876
 30
0.0
 10
18.3386968848
 20
11.2534747007
 30
0.0
 10
18.3509029508
 20
11.2682058474
 30
0.0
 10
18.3621200935
 20
11.2789432857
 30
0.0
 10
18.3714652633
 20
11.2862645391
 30
0.0
 10
18.3762099719
 20
11.2894724769
 30
0.0
 10
18.3785882576
 20
11.2909459801
 30
0.0
  0
SPLINE
  5
48A
100
AcDbEntity
  8
0
100
AcDbSpline
 62
7
  6
CONTINUOUS
 70
0
 71
3
 72
17
 73
13
 74
0
 42
0.0000001
 43
0.0000001
 44
0.0000000001
 40
0.0
 40
0.0
 40
0.0
 40
0.0
 40
0.0535783179
 40
0.1100346106
 40
0.2302942865
 40
0.3582980412
 40
0.4910431122
 40
0.6250303364
 40
0.7566636624
 40
0.8826597437
 40
0.9426170625
 40
1.0
 40
1.0
 40
1.0
 40
1.0
 10
15.8903894744
 20
12.7087989716
 30
0.0
 10
15.8903965439
 20
12.7114112232
 30
0.0
 10
15.8906591727
 20
12.7167774744
 30
0.0
 10
15.8921000185
 20
12.7279220231
 30
0.0
 10
15.8956376857
 20
12.7424039874
 30
0.0
 10
15.9022587958
 20
12.7598032377
 30
0.0
 10
15.9110938088
 20
12.7769450846
 30
0.0
 10
15.9218182279
 20
12.7931837977
 30
0.0
 10
15.9340242939
 20
12.8079149444
 30
0.0
 10
15.9452414366
 20
12.8186523827
 30
0.0
 10
15.9545866064
 20
12.8259736361
 30
0.0
 10
15.959331315
 20
12.8291815739
 30
0.0
 10
15.9617096007
 20
12.8306550771
 30
0.0
  0
SPLINE
  5
48B
100
AcDbEntity
  8
0
100
AcDbSpline
 62
7
  6
CONTINUOUS
 70
0
 71
3
 72
15
 73
11
 74
0
 42
0.0000001
 43
0.0000001
 44
0.0000000001
 40
0.0
 40
0.0
 40
0.0
 40
0.0
 40
0.1527969601
 40
0.2971422358
 40
0.4325019354
 40
0.5590072211
 40
0.677450463
 40
0.7891254817
 40
0.8958753812
 40
1.0
 40
1.0
 40
1.0
 40
1.0
 10
20.0141086103
 20
12.3042576232
 30
0.0
 10
20.0165665232
 20
12.3057804607
 30
0.0
 10
20.0214717466
 20
12.3085467507
 30
0.0
 10
20.0289550041
 20
12.3118927246
 30
0.0
 10
20.0362808462
 20
12.3142751432
 30
0.0
 10
20.0433637888
 20
12.3156583167
 30
0.0
 10
20.050126873
 20
12.3160273544
 30
0.0
 10
20.0564970111
 20
12.3153622951
 30
0.0
 10
20.0623955011
 20
12.3136704334
 30
0.0
 10
20.0659791781
 20
12.3118489641
 30
0.0
 10
20.0676401262
 20
12.3107889288
 30
0.0
  0
SPLINE
  5
48C
100
AcDbEntity
  8
02___PRT_ALL_AXES
100
AcDbSpline
 62
7
  6
CONTINUOUS
 70
0
 71
3
 72
11
 73
7
 74
0
 42
0.0000001
 43
0.0000001
 44
0.0000000001
 40
0.0
 40
0.0
 40
0.0
 40
0.0
 40
0.2320528611
 40
0.4782796901
 40
0.7353830159
 40
1.0
 40
1.0
 40
1.0
 40
1.0
 10
19.8112144708
 20
12.1617699521
 30
0.0
 10
19.8149142197
 20
12.1640621882
 30
0.0
 10
19.8229007771
 20
12.1682183945
 30
0.0
 10
19.8358681687
 20
12.1730070119
 30
0.0
 10
19.8498898792
 20
12.1764239799
 30
0.0
 10
19.8596097025
 20
12.1777196407
 30
0.0
 10
19.8645560941
 20
12.178126026
 30
0.0
  0
SPLINE
  5
48D
100
AcDbEntity
  8
02___PRT_ALL_AXES
100
AcDbSpline
 62
7
  6
CONTINUOUS
 70
0
 71
3
 72
15
 73
11
 74
0
 42
0.0000001
 43
0.0000001
 44
0.0000000001
 40
0.0
 40
0.0
 40
0.0
 40
0.0
 40
0.1111473095
 40
0.223918587
 40
0.3397901969
 40
0.460050784
 40
0.5857132361
 40
0.7175115946
 40
0.8556734425
 40
1.0
 40
1.0
 40
1.0
 40
1.0
 10
19.7834724525
 20
12.1201681709
 30
0.0
 10
19.7834775969
 20
12.122101944
 30
0.0
 10
19.7837986565
 20
12.1260035322
 30
0.0
 10
19.7851931713
 20
12.131770774
 30
0.0
 10
19.7874861848
 20
12.1374145753
 30
0.0
 10
19.7906539584
 20
12.142875612
 30
0.0
 10
19.7946583613
 20
12.1481070682
 30
0.0
 10
19.7994637161
 20
12.1530553544
 30
0.0
 10
19.8050120819
 20
12.157674594
 30
0.0
 10
19.8090799121
 20
12.1604474537
 30
0.0
 10
19.8112144708
 20
12.1617699521
 30
0.0
  0
SPLINE
  5
48E
100
AcDbEntity
  8
02___PRT_ALL_AXES
100
AcDbSpline
 62
7
  6
CONTINUOUS
 70
0
 71
3
 72
15
 73
11
 74
0
 42
0.0000001
 43
0.0000001
 44
0.0000000001
 40
0.0
 40
0.0
 40
0.0
 40
0.0
 40
0.1111473095
 40
0.223918587
 40
0.3397901969
 40
0.460050784
 40
0.5857132361
 40
0.7175115946
 40
0.8556734425
 40
1.0
 40
1.0
 40
1.0
 40
1.0
 10
15.9637260219
 20
13.6614040514
 30
0.0
 10
15.9637311663
 20
13.6633378245
 30
0.0
 10
15.9640522259
 20
13.6672394127
 30
0.0
 10
15.9654467407
 20
13.6730066545
 30
0.0
 10
15.9677397542
 20
13.6786504558
 30
0.0
 10
15.9709075278
 20
13.6841114925
 30
0.0
 10
15.9749119308
 20
13.6893429488
 30
0.0
 10
15.9797172855
 20
13.6942912349
 30
0.0
 10
15.9852656513
 20
13.6989104745
 30
0.0
 10
15.9893334815
 20
13.7016833342
 30
0.0
 10
15.9914680402
 20
13.7030058327
 30
0.0
  0
SPLINE
  5
48F
100
AcDbEntity
  8
0
100
AcDbSpline
 62
7
  6
CONTINUOUS
 70
0
 71
3
 72
14
 73
10
 74
0
 42
0.0000001
 43
0.0000001
 44
0.0000000001
 40
0.0
 40
0.0
 40
0.0
 40
0.0
 40
0.1084707436
 40
0.2188732595
 40
0.3329964157
 40
0.4523707613
 40
0.7109322347
 40
0.8516931409
 40
1.0
 40
1.0
 40
1.0
 40
1.0
 10
20.0676401262
 20
12.3107889288
 30
0.0
 10
20.0690336906
 20
12.3098995407
 30
0.0
 10
20.0717037095
 20
12.3078713357
 30
0.0
 10
20.0752183988
 20
12.3041829326
 30
0.0
 10
20.0782268758
 20
12.2998673387
 30
0.0
 10
20.0816251813
 20
12.2931595381
 30
0.0
 10
20.0837880516
 20
12.2854696475
 30
0.0
 10
20.0848485899
 20
12.2771860743
 30
0.0
 10
20.0850137623
 20
12.2727758912
 30
0.0
 10
20.0850076452
 20
12.2705155736
 30
0.0
  0
SPLINE
  5
490
100
AcDbEntity
  8
02___PRT_ALL_AXES
100
AcDbSpline
 62
7
  6
CONTINUOUS
 70
0
 71
3
 72
25
 73
21
 74
0
 42
0.0000001
 43
0.0000001
 44
0.0000000001
 40
0.0
 40
0.0
 40
0.0
 40
0.0
 40
0.062341989
 40
0.1282283431
 40
0.1969205851
 40
0.2676908032
 40
0.3397011932
 40
0.4120076001
 40
0.4836694724
 40
0.5537746045
 40
0.6214943766
 40
0.686115417
 40
0.747115417
 40
0.8042080643
 40
0.8574183429
 40
0.907152999
 40
0.9309887221
 40
0.9542970909
 40
0.9772419327
 40
1.0
 40
1.0
 40
1.0
 40
1.0
 10
15.8103390011
 20
12.0298343247
 30
0.0
 10
15.8136911694
 20
12.0319112118
 30
0.0
 10
15.8208823344
 20
12.0357163407
 30
0.0
 10
15.8325132541
 20
12.0402398313
 30
0.0
 10
15.8450727016
 20
12.0436431488
 30
0.0
 10
15.8582849295
 20
12.0458596293
 30
0.0
 10
15.8718740333
 20
12.0468452015
 30
0.0
 10
15.8855522201
 20
12.0465757854
 30
0.0
 10
15.899028266
 20
12.0450607334
 30
0.0
 10
15.912015575
 20
12.0423263373
 30
0.0
 10
15.9242408769
 20
12.0384371945
 30
0.0
 10
15.9354439031
 20
12.033465609
 30
0.0
 10
15.9453913769
 20
12.0275193564
 30
0.0
 10
15.9538713
 20
12.0207102063
 30
0.0
 10
15.9607001594
 20
12.0131742842
 30
0.0
 10
15.9649442772
 20
12.0063027944
 30
0.0
 10
15.967308099
 20
12.0006377118
 30
0.0
 10
15.9685606872
 20
11.9963749524
 30
0.0
 10
15.9693119728
 20
11.9920656285
 30
0.0
 10
15.9694751615
 20
11.9891714656
 30
0.0
 10
15.9694713319
 20
11.9877319205
 30
0.0
  0
SPLINE
  5
491
100
AcDbEntity
  8
02___PRT_ALL_AXES
100
AcDbSpline
 62
7
  6
CONTINUOUS
 70
0
 71
3
 72
15
 73
11
 74
0
 42
0.0000001
 43
0.0000001
 44
0.0000000001
 40
0.0
 40
0.0
 40
0.0
 40
0.0
 40
0.1443265575
 40
0.2824884054
 40
0.4142867639
 40
0.539949216
 40
0.6602098031
 40
0.776081413
 40
0.8888526905
 40
1.0
 40
1.0
 40
1.0
 40
1.0
 10
17.6393398518
 20
12.6532041756
 30
0.0
 10
17.6372052931
 20
12.6518816771
 30
0.0
 10
17.6331374628
 20
12.6491088175
 30
0.0
 10
17.627589097
 20
12.6444895778
 30
0.0
 10
17.6227837423
 20
12.6395412917
 30
0.0
 10
17.6187793393
 20
12.6343098355
 30
0.0
 10
17.6156115658
 20
12.6288487988
 30
0.0
 10
17.6133185522
 20
12.6232049975
 30
0.0
 10
17.6119240374
 20
12.6174377557
 30
0.0
 10
17.6116029778
 20
12.6135361675
 30
0.0
 10
17.6115978335
 20
12.6116023943
 30
0.0
  0
SPLINE
  5
492
100
AcDbEntity
  8
02___PRT_ALL_AXES
100
AcDbSpline
 62
7
  6
CONTINUOUS
 70
0
 71
3
 72
15
 73
11
 74
0
 42
0.0000001
 43
0.0000001
 44
0.0000000001
 40
0.0
 40
0.0
 40
0.0
 40
0.0
 40
0.1111473095
 40
0.223918587
 40
0.3397901969
 40
0.460050784
 40
0.5857132361
 40
0.7175115946
 40
0.8556734425
 40
1.0
 40
1.0
 40
1.0
 40
1.0
 10
15.7825969828
 20
11.9882325434
 30
0.0
 10
15.7826021272
 20
11.9901663166
 30
0.0
 10
15.7829231868
 20
11.9940679048
 30
0.0
 10
15.7843177016
 20
11.9998351466
 30
0.0
 10
15.7866107151
 20
12.0054789479
 30
0.0
 10
15.7897784887
 20
12.0109399846
 30
0.0
 10
15.7937828916
 20
12.0161714408
 30
0.0
 10
15.7985882464
 20
12.0211197269
 30
0.0
 10
15.8041366122
 20
12.0257389666
 30
0.0
 10
15.8082044424
 20
12.0285118262
 30
0.0
 10
15.8103390011
 20
12.0298343247
 30
0.0
  0
SPLINE
  5
493
100
AcDbEntity
  8
02___PRT_ALL_AXES
100
AcDbSpline
 62
7
  6
CONTINUOUS
 70
0
 71
3
 72
15
 73
11
 74
0
 42
0.0000001
 43
0.0000001
 44
0.0000000001
 40
0.0
 40
0.0
 40
0.0
 40
0.0
 40
0.1111473095
 40
0.223918587
 40
0.3397901969
 40
0.460050784
 40
0.5857132361
 40
0.7175115946
 40
0.8556734425
 40
1.0
 40
1.0
 40
1.0
 40
1.0
 10
19.6115547866
 20
13.8507063057
 30
0.0
 10
19.611559931
 20
13.8526400788
 30
0.0
 10
19.6118809905
 20
13.856541667
 30
0.0
 10
19.6132755053
 20
13.8623089088
 30
0.0
 10
19.6155685189
 20
13.8679527101
 30
0.0
 10
19.6187362924
 20
13.8734137468
 30
0.0
 10
19.6227406954
 20
13.8786452031
 30
0.0
 10
19.6275460501
 20
13.8835934892
 30
0.0
 10
19.633094416
 20
13.8882127289
 30
0.0
 10
19.6371622462
 20
13.8909855885
 30
0.0
 10
19.6392968049
 20
13.892308087
 30
0.0
  0
SPLINE
  5
494
100
AcDbEntity
  8
02___PRT_ALL_AXES
100
AcDbSpline
 62
7
  6
CONTINUOUS
 70
0
 71
3
 72
25
 73
21
 74
0
 42
0.0000001
 43
0.0000001
 44
0.0000000001
 40
0.0
 40
0.0
 40
0.0
 40
0.0
 40
0.0227580673
 40
0.0457029091
 40
0.0690112779
 40
0.092847001
 40
0.1425816571
 40
0.1957919357
 40
0.252884583
 40
0.313884583
 40
0.3785056234
 40
0.4462253955
 40
0.5163305276
 40
0.5879923999
 40
0.6602988068
 40
0.7323091968
 40
0.8030794149
 40
0.8717716569
 40
0.937658011
 40
1.0
 40
1.0
 40
1.0
 40
1.0
 10
17.7984721825
 20
12.6111017714
 30
0.0
 10
17.7984760121
 20
12.6125413165
 30
0.0
 10
17.7983128235
 20
12.6154354794
 30
0.0
 10
17.7975615379
 20
12.6197448033
 30
0.0
 10
17.7963089497
 20
12.6240075627
 30
0.0
 10
17.7939451278
 20
12.6296726453
 30
0.0
 10
17.7897010101
 20
12.6365441351
 30
0.0
 10
17.7828721507
 20
12.6440800572
 30
0.0
 10
17.7743922275
 20
12.6508892074
 30
0.0
 10
17.7644447538
 20
12.6568354599
 30
0.0
 10
17.7532417275
 20
12.6618070454
 30
0.0
 10
17.7410164256
 20
12.6656961882
 30
0.0
 10
17.7280291166
 20
12.6684305843
 30
0.0
 10
17.7145530707
 20
12.6699456363
 30
0.0
 10
17.700874884
 20
12.6702150524
 30
0.0
 10
17.6872857801
 20
12.6692294803
 30
0.0
 10
17.6740735522
 20
12.6670129997
 30
0.0
 10
17.6615141047
 20
12.6636096822
 30
0.0
 10
17.6498831851
 20
12.6590861916
 30
0.0
 10
17.6426920201
 20
12.6552810627
 30
0.0
 10
17.6393398518
 20
12.6532041756
 30
0.0
  0
SPLINE
  5
495
100
AcDbEntity
  8
02___PRT_ALL_AXES
100
AcDbSpline
 62
7
  6
CONTINUOUS
 70
0
 71
3
 72
25
 73
21
 74
0
 42
0.0000001
 43
0.0000001
 44
0.0000000001
 40
0.0
 40
0.0
 40
0.0
 40
0.0
 40
0.062341989
 40
0.1282283431
 40
0.1969205851
 40
0.2676908032
 40
0.3397011932
 40
0.4120076001
 40
0.4836694724
 40
0.5537746045
 40
0.6214943766
 40
0.686115417
 40
0.747115417
 40
0.8042080643
 40
0.8574183429
 40
0.907152999
 40
0.9309887221
 40
0.9542970909
 40
0.9772419327
 40
1.0
 40
1.0
 40
1.0
 40
1.0
 10
19.6392968049
 20
13.892308087
 30
0.0
 10
19.6426489732
 20
13.8943849741
 30
0.0
 10
19.6498401382
 20
13.898190103
 30
0.0
 10
19.6614710578
 20
13.9027135936
 30
0.0
 10
19.6740305054
 20
13.9061169111
 30
0.0
 10
19.6872427333
 20
13.9083333916
 30
0.0
 10
19.7008318371
 20
13.9093189638
 30
0.0
 10
19.7145100238
 20
13.9090495477
 30
0.0
 10
19.7279860697
 20
13.9075344957
 30
0.0
 10
19.7409733787
 20
13.9048000996
 30
0.0
 10
19.7531986806
 20
13.9009109568
 30
0.0
 10
19.7644017069
 20
13.8959393713
 30
0.0
 10
19.7743491806
 20
13.8899931187
 30
0.0
 10
19.7828291038
 20
13.8831839686
 30
0.0
 10
19.7896579632
 20
13.8756480464
 30
0.0
 10
19.7939020809
 20
13.8687765566
 30
0.0
 10
19.7962659028
 20
13.8631114741
 30
0.0
 10
19.797518491
 20
13.8588487147
 30
0.0
 10
19.7982697766
 20
13.8545393908
 30
0.0
 10
19.7984329652
 20
13.8516452278
 30
0.0
 10
19.7984291356
 20
13.8502056828
 30
0.0
  0
SPLINE
  5
496
100
AcDbEntity
  8
02___PRT_ALL_AXES
100
AcDbSpline
 62
7
  6
CONTINUOUS
 70
0
 71
3
 72
25
 73
21
 74
0
 42
0.0000001
 43
0.0000001
 44
0.0000000001
 40
0.0
 40
0.0
 40
0.0
 40
0.0
 40
0.062341989
 40
0.1282283431
 40
0.1969205851
 40
0.2676908032
 40
0.3397011932
 40
0.4120076001
 40
0.4836694724
 40
0.5537746045
 40
0.6214943766
 40
0.686115417
 40
0.747115417
 40
0.8042080643
 40
0.8574183429
 40
0.907152999
 40
0.9309887221
 40
0.9542970909
 40
0.9772419327
 40
1.0
 40
1.0
 40
1.0
 40
1.0
 10
15.9914680402
 20
13.7030058327
 30
0.0
 10
15.9948202085
 20
13.7050827198
 30
0.0
 10
16.0020113735
 20
13.7088878486
 30
0.0
 10
16.0136422932
 20
13.7134113393
 30
0.0
 10
16.0262017407
 20
13.7168146567
 30
0.0
 10
16.0394139686
 20
13.7190311373
 30
0.0
 10
16.0530030725
 20
13.7200167094
 30
0.0
 10
16.0666812592
 20
13.7197472934
 30
0.0
 10
16.0801573051
 20
13.7182322414
 30
0.0
 10
16.0931446141
 20
13.7154978453
 30
0.0
 10
16.105369916
 20
13.7116087025
 30
0.0
 10
16.1165729422
 20
13.706637117
 30
0.0
 10
16.126520416
 20
13.7006908644
 30
0.0
 10
16.1350003392
 20
13.6938817143
 30
0.0
 10
16.1418291985
 20
13.6863457921
 30
0.0
 10
16.1460733163
 20
13.6794743023
 30
0.0
 10
16.1484371382
 20
13.6738092198
 30
0.0
 10
16.1496897264
 20
13.6695464604
 30
0.0
 10
16.1504410119
 20
13.6652371365
 30
0.0
 10
16.1506042006
 20
13.6623429735
 30
0.0
 10
16.150600371
 20
13.6609034285
 30
0.0
  0
SPLINE
  5
497
100
AcDbEntity
  8
02___PRT_ALL_AXES
100
AcDbSpline
 62
7
  6
CONTINUOUS
 70
0
 71
3
 72
15
 73
11
 74
0
 42
0.0000001
 43
0.0000001
 44
0.0000000001
 40
0.0
 40
0.0
 40
0.0
 40
0.0
 40
0.1443265575
 40
0.2824884054
 40
0.4142867639
 40
0.539949216
 40
0.6602098031
 40
0.776081413
 40
0.8888526905
 40
1.0
 40
1.0
 40
1.0
 40
1.0
 10
17.9914249934
 20
14.942109744
 30
0.0
 10
17.9892904347
 20
14.9407872456
 30
0.0
 10
17.9852226044
 20
14.9380143859
 30
0.0
 10
17.9796742386
 20
14.9333951463
 30
0.0
 10
17.9748688839
 20
14.9284468601
 30
0.0
 10
17.9708644809
 20
14.9232154039
 30
0.0
 10
17.9676967073
 20
14.9177543672
 30
0.0
 10
17.9654036938
 20
14.9121105659
 30
0.0
 10
17.964009179
 20
14.9063433241
 30
0.0
 10
17.9636881194
 20
14.9024417359
 30
0.0
 10
17.963682975
 20
14.9005079628
 30
0.0
  0
SPLINE
  5
498
100
AcDbEntity
  8
02___PRT_ALL_AXES
100
AcDbSpline
 62
7
  6
CONTINUOUS
 70
0
 71
3
 72
25
 73
21
 74
0
 42
0.0000001
 43
0.0000001
 44
0.0000000001
 40
0.0
 40
0.0
 40
0.0
 40
0.0
 40
0.0227580673
 40
0.0457029091
 40
0.0690112779
 40
0.092847001
 40
0.1425816571
 40
0.1957919357
 40
0.252884583
 40
0.313884583
 40
0.3785056234
 40
0.4462253955
 40
0.5163305276
 40
0.5879923999
 40
0.6602988068
 40
0.7323091968
 40
0.8030794149
 40
0.8717716569
 40
0.937658011
 40
1.0
 40
1.0
 40
1.0
 40
1.0
 10
18.1505573241
 20
14.9000073399
 30
0.0
 10
18.1505611537
 20
14.9014468849
 30
0.0
 10
18.150397965
 20
14.9043410479
 30
0.0
 10
18.1496466795
 20
14.9086503717
 30
0.0
 10
18.1483940913
 20
14.9129131312
 30
0.0
 10
18.1460302694
 20
14.9185782137
 30
0.0
 10
18.1417861516
 20
14.9254497035
 30
0.0
 10
18.1349572923
 20
14.9329856257
 30
0.0
 10
18.1264773691
 20
14.9397947758
 30
0.0
 10
18.1165298954
 20
14.9457410284
 30
0.0
 10
18.1053268691
 20
14.9507126139
 30
0.0
 10
18.0931015672
 20
14.9546017567
 30
0.0
 10
18.0801142582
 20
14.9573361527
 30
0.0
 10
18.0666382123
 20
14.9588512048
 30
0.0
 10
18.0529600256
 20
14.9591206208
 30
0.0
 10
18.0393709217
 20
14.9581350487
 30
0.0
 10
18.0261586938
 20
14.9559185681
 30
0.0
 10
18.0135992463
 20
14.9525152506
 30
0.0
 10
18.0019683266
 20
14.94799176
 30
0.0
 10
17.9947771617
 20
14.9441866312
 30
0.0
 10
17.9914249934
 20
14.942109744
 30
0.0
  0
ENDSEC
  0
SECTION
  2
OBJECTS
  0
DICTIONARY
  5
C
100
AcDbDictionary
280
0
281
1
  3
ACAD_GROUP
350
D
  3
ACAD_MLINESTYLE
350
17
  3
ACAD_LAYOUT
350
1A
  3
ACAD_PLOTSETTINGS
350
19
  3
ACAD_PLOTSTYLENAME
350
E
  3
ACAD_TABLESTYLE
350
       499
  0
DICTIONARY
  5
D
102
{ACAD_REACTORS
330
C
102
}
100
AcDbDictionary
280
0
281
1
  0
ACDBDICTIONARYWDFLT
  5
E
102
{ACAD_REACTORS
330
C
102
}
100
AcDbDictionary
281
1
  3
Normal
350
F
100
AcDbDictionaryWithDefault
340
F
  0
DICTIONARY
  5
17
102
{ACAD_REACTORS
330
C
102
}
100
AcDbDictionary
280
0
281
1
  3
Standard
350
18
  0
DICTIONARY
  5
499
330
C
100
AcDbDictionary
281
1
  3
Standard
350
       49C
  3
Standard1
350
       49D
  0
DICTIONARY
  5
19
102
{ACAD_REACTORS
330
C
102
}
100
AcDbDictionary
281
1
  0
DICTIONARY
  5
1A
102
{ACAD_REACTORS
330
C
102
}
100
AcDbDictionary
281
1
  3
Model
350
49A
  3
Layout1
350
49B
  0
ACDBPLACEHOLDER
  5
F
102
{ACAD_REACTORS
330
E
102
}
  0
MLINESTYLE
  5
18
102
{ACAD_REACTORS
330
17
102
}
100
AcDbMlineStyle
  2
STANDARD
 70
0
  3

 62
256
 51
90.0
 52
90.0
 71
2
 49
0.5
 62
256
  6
BYLAYER
 49
-0.5
 62
256
  6
BYLAYER
  0
LAYOUT
  5
49A
102
{ACAD_REACTORS
330
1A
102
}
100
AcDbPlotSettings
  1

  2
none_device
  4
ANSI_C_(22.00_x_17.00_Inches)
  6

 40
0.0
 41
0.0
 42
0.0
 43
0.0
 44
558.8
 45
431.8
 46
0.0
 47
0.0
 48
0.0
 49
0.0
140
0.0
141
0.0
142
1.0
143
1.0
 70
1024
 72
0
 73
0
 74
0
  7

 75
0
147
1.0
148
0.0
149
0.0
100
AcDbLayout
  1
Model
 70
0
 71
0
 10
0.0
 20
0.0
 11
22.0
 21
17.0
 12
0.0
 22
0.0
 32
0.0
 14
0.0
 24
0.0
 34
0.0
 15
0.0
 25
0.0
 35
0.0
146
0.0
 13
0.0
 23
0.0
 33
0.0
 16
1.0
 26
0.0
 36
0.0
 17
0.0
 27
1.0
 37
0.0
 76
0
330
20A
345
0
346
0
  0
LAYOUT
  5
49B
102
{ACAD_REACTORS
330
1A
102
}
100
AcDbPlotSettings
  1

  2
none_device
  4
ANSI_C_(22.00_x_17.00_Inches)
  6

 40
0.0
 41
0.0
 42
0.0
 43
0.0
 44
558.8
 45
431.8
 46
0.0
 47
0.0
 48
0.0
 49
0.0
140
0.0
141
0.0
142
1.0
143
1.0
 70
0
 72
0
 73
0
 74
0
  7

 75
0
147
1.0
148
0.0
149
0.0
100
AcDbLayout
  1
Layout1
 70
0
 71
1
 10
0.0
 20
0.0
 11
22.0
 21
17.0
 12
0.0
 22
0.0
 32
0.0
 14
0.0
 24
0.0
 34
0.0
 15
0.0
 25
0.0
 35
0.0
146
0.0
 13
0.0
 23
0.0
 33
0.0
 16
1.0
 26
0.0
 36
0.0
 17
0.0
 27
1.0
 37
0.0
 76
0
330
20B
345
0
346
0
  0
TABLESTYLE
  5
49C
102
{ACAD_REACTORS
330
499
330
332
330
333
330
334
330
335
330
336
330
337
330
338
330
339
330
33A
102
}
330
499
100
AcDbTableStyle
  3
Standard
 70
0
 71
0
 40
0.06
 41
0.06
280
1
281
1
  7
Standard
140
0.18
170
1
 62
0
 63
7
283
0
  7
Standard
140
0.18
170
1
 62
0
 63
7
283
0
  7
Standard
140
0.18
170
1
 62
0
 63
7
283
0
  0
TABLESTYLE
  5
49D
102
{ACAD_REACTORS
330
499
102
}
330
499
100
AcDbTableStyle
  3
Standard1
 70
1
 71
0
 40
0.06
 41
0.06
280
1
281
1
  7
Standard
140
0.18
170
1
 62
0
 63
7
283
0
  7
Standard
140
0.18
170
1
 62
0
 63
7
283
0
  7
Standard
140
0.18
170
1
 62
0
 63
7
283
0
  0
ENDSEC
  0
EOF
