999
DXF file: C:\Users\gabriel.schettler\Documents\GitHub\Lunabotics-2022-2023-Team-CAD\Waterjet Parts\hopper_frame_l_water.dxf
999
Pro/ENGINEER 2022073 by Parametric Technology Corporation
  0
SECTION
  2
HEADER
  9
$ACADVER
  1
AC1032
  9
$DWGCODEPAGE
  3
ANSI_1252
  9
$EXTMAX
 10
22.0
 20
17.0
 30
0.0
  9
$EXTMIN
 10
0.0
 20
0.0
 30
0.0
  9
$LIMMIN
 10
0.0
 20
0.0
  9
$LIMMAX
 10
22.0
 20
17.0
  9
$VIEWCTR
 10
11.0
 20
8.5
  9
$VIEWSIZE
 40
17.0
  9
$CLAYER
  8
0
  9
$LTSCALE
 40
1.21
  9
$CELTYPE
  6
BYLAYER
  9
$DIMSCALE
 40
1.0
  9
$DIMASZ
 40
0.1875
  9
$DIMEXO
 40
0.0625
  9
$DIMDLI
 40
0.836
  9
$DIMEXE
 40
0.125
  9
$DIMCEN
 40
0.198
  9
$DIMLFAC
 40
1.0
  9
$DIMBLK
  1
_FILLED
  9
$DIMALT
 70
0
  9
$DIMALTF
 40
25.4
  9
$DIMTXT
 40
0.15625
  9
$DIMTOL
 70
0
  9
$DIMLIM
 70
0
  9
$DIMTFAC
 40
1.0
  9
$DIMGAP
 40
0.09
  9
$DIMDSEP
 70
46
  9
$AUNITS
 70
0
  9
$PDMODE
 70
3
  9
$PDSIZE
 40
0.3125
  9
$HANDSEED
  5
2A4
  9
$TILEMODE
 70
1
  9
$MEASUREMENT
 70
0
  9
$INSUNITS
 70
1
  0
ENDSEC
  0
SECTION
  2
CLASSES
  0
CLASS
  1
ACDBDICTIONARYWDFLT
  2
AcDbDictionaryWithDefault
  3
AutoCAD 2000
 90
0
 91
1
280
0
281
0
  0
CLASS
  1
ACDBPLACEHOLDER
  2
AcDbPlaceHolder
  3
AutoCAD 2000
 90
0
 91
1
280
0
281
0
  0
CLASS
  1
LAYOUT
  2
AcDbLayout
  3
AutoCAD 2000
 90
0
 91
0
280
0
281
0
  0
ENDSEC
  0
SECTION
  2
TABLES
  0
TABLE
  2
VPORT
  5
8
100
AcDbSymbolTable
 70
2
  0
VPORT
  5
1F4
100
AcDbSymbolTableRecord
100
AcDbViewportTableRecord
  2
*ACTIVE
 70
0
 10
0.0
 20
0.0
 11
1.0
 21
1.0
 12
11.0
 22
8.5
 13
0.0
 23
0.0
 14
1.0
 24
1.0
 15
0.0
 25
0.0
 16
0.0
 26
0.0
 36
1.0
 17
0.0
 27
0.0
 37
0.0
 40
17.0
 41
1.2941176471
 42
50.0
 43
0.0
 44
0.0
 50
0.0
 51
0.0
 71
0
 72
100
 73
1
 74
1
 75
0
 76
0
 77
0
 78
0
  0
ENDTAB
  0
TABLE
  2
LTYPE
  5
5
100
AcDbSymbolTable
 70
6
  0
LTYPE
  5
14
100
AcDbSymbolTableRecord
100
AcDbLinetypeTableRecord
  2
BYBLOCK
 70
0
  3

 72
65
 73
0
 40
0.0
  0
LTYPE
  5
15
100
AcDbSymbolTableRecord
100
AcDbLinetypeTableRecord
  2
BYLAYER
 70
0
  3

 72
65
 73
0
 40
0.0
  0
LTYPE
  5
16
100
AcDbSymbolTableRecord
100
AcDbLinetypeTableRecord
  2
CONTINUOUS
 70
64
  3
Solid line
 72
65
 73
0
 40
0.0
  0
LTYPE
  5
1F5
100
AcDbSymbolTableRecord
100
AcDbLinetypeTableRecord
  2
CENTER
 70
64
  3
____ _ ____ _ ____ _ ____ _ ____ _ ____ _ ____
 72
65
 73
4
 40
0.6
 49
0.375
 74
0
 49
-0.075
 74
0
 49
0.075
 74
0
 49
-0.075
 74
0
  0
LTYPE
  5
1F6
100
AcDbSymbolTableRecord
100
AcDbLinetypeTableRecord
  2
HIDDEN
 70
64
  3
- - - - - - - - - - - - - - - - - - - -
 72
65
 73
2
 40
0.2
 49
0.1
 74
0
 49
-0.1
 74
0
  0
LTYPE
  5
1F7
100
AcDbSymbolTableRecord
100
AcDbLinetypeTableRecord
  2
PHANTOM
 70
64
  3
_____ _ _ _____ _ _ _____ _ _ _____
 72
65
 73
6
 40
0.8
 49
0.45
 74
0
 49
-0.05
 74
0
 49
0.1
 74
0
 49
-0.05
 74
0
 49
0.1
 74
0
 49
-0.05
 74
0
  0
LTYPE
  5
1F8
100
AcDbSymbolTableRecord
100
AcDbLinetypeTableRecord
  2
DOT
 70
64
  3
. . . . . . . . . . . . . . . . . . . .
 72
65
 73
2
 40
0.2
 49
0.1
 74
0
 49
-0.1
 74
0
  0
LTYPE
  5
1F9
100
AcDbSymbolTableRecord
100
AcDbLinetypeTableRecord
  2
DASHED
 70
64
  3
- - - - - - - - - - - - - - - - - - - -
 72
65
 73
2
 40
0.2
 49
0.1
 74
0
 49
-0.1
 74
0
  0
ENDTAB
  0
TABLE
  2
LAYER
  5
2
100
AcDbSymbolTable
 70
36
  0
LAYER
  5
10
100
AcDbSymbolTableRecord
100
AcDbLayerTableRecord
  2
0
 70
0
 62
7
  6
CONTINUOUS
370
-3
390
F
  0
LAYER
  5
1FA
100
AcDbSymbolTableRecord
100
AcDbLayerTableRecord
  2
DEFAULT_1
 70
0
 62
7
  6
CENTER
370
-3
390
F
  0
LAYER
  5
1FB
100
AcDbSymbolTableRecord
100
AcDbLayerTableRecord
  2
DEFAULT_2
 70
0
 62
8
  6
HIDDEN
370
-3
390
F
  0
LAYER
  5
1FC
100
AcDbSymbolTableRecord
100
AcDbLayerTableRecord
  2
DEFAULT_3
 70
0
 62
7
  6
PHANTOM
370
-3
390
F
  0
LAYER
  5
1FD
100
AcDbSymbolTableRecord
100
AcDbLayerTableRecord
  2
01___PRT_ALL_DTM_PLN
 70
0
 62
7
  6
CONTINUOUS
370
-3
390
F
  0
LAYER
  5
1FE
100
AcDbSymbolTableRecord
100
AcDbLayerTableRecord
  2
01___PRT_DEF_DTM_PLN
 70
0
 62
7
  6
CONTINUOUS
370
-3
390
F
  0
LAYER
  5
1FF
100
AcDbSymbolTableRecord
100
AcDbLayerTableRecord
  2
02___PRT_ALL_AXES
 70
0
 62
7
  6
CONTINUOUS
370
-3
390
F
  0
LAYER
  5
200
100
AcDbSymbolTableRecord
100
AcDbLayerTableRecord
  2
03___PRT_ALL_CURVES
 70
0
 62
7
  6
CONTINUOUS
370
-3
390
F
  0
LAYER
  5
201
100
AcDbSymbolTableRecord
100
AcDbLayerTableRecord
  2
04___PRT_ALL_DTM_PNT
 70
0
 62
7
  6
CONTINUOUS
370
-3
390
F
  0
LAYER
  5
202
100
AcDbSymbolTableRecord
100
AcDbLayerTableRecord
  2
05___PRT_ALL_DTM_CSYS
 70
0
 62
7
  6
CONTINUOUS
370
-3
390
F
  0
LAYER
  5
203
100
AcDbSymbolTableRecord
100
AcDbLayerTableRecord
  2
05___PRT_DEF_DTM_CSYS
 70
0
 62
7
  6
CONTINUOUS
370
-3
390
F
  0
LAYER
  5
204
100
AcDbSymbolTableRecord
100
AcDbLayerTableRecord
  2
06___PRT_ALL_SURFS
 70
0
 62
7
  6
CONTINUOUS
370
-3
390
F
  0
LAYER
  5
205
100
AcDbSymbolTableRecord
100
AcDbLayerTableRecord
  2
3_ALL_SYMBOLS
 70
0
 62
7
  6
CONTINUOUS
370
-3
390
F
  0
ENDTAB
  0
TABLE
  2
STYLE
  5
3
100
AcDbSymbolTable
 70
1
  0
STYLE
  5
11
100
AcDbSymbolTableRecord
100
AcDbTextStyleTableRecord
  2
STANDARD
 70
0
 40
0.0
 41
1.0
 50
0.0
 71
0
 42
0.2
  3
ar_wgl__.ttf
  4

1001
ACAD
1000
Arial WGL
1071
34
  0
STYLE
  5
206
100
AcDbSymbolTableRecord
100
AcDbTextStyleTableRecord
  2
TEXTSTYLE_1
 70
0
 40
0.0
 41
0.8
 50
0.0
 71
0
 42
0.2
  3
gdt
  4

  0
ENDTAB
  0
TABLE
  2
VIEW
  5
6
100
AcDbSymbolTable
 70
0
  0
ENDTAB
  0
TABLE
  2
UCS
  5
7
100
AcDbSymbolTable
 70
0
  0
ENDTAB
  0
TABLE
  2
APPID
  5
9
100
AcDbSymbolTable
 70
1
  0
APPID
  5
207
100
AcDbSymbolTableRecord
100
AcDbRegAppTableRecord
  2
ACAD
 70
0
  0
ENDTAB
  0
TABLE
  2
BLOCK_RECORD
  5
1
100
AcDbSymbolTable
 70
0
  0
BLOCK_RECORD
  5
208
100
AcDbSymbolTableRecord
100
AcDbBlockTableRecord
  2
*Model_Space
  0
BLOCK_RECORD
  5
209
100
AcDbSymbolTableRecord
100
AcDbBlockTableRecord
  2
*Paper_Space
  0
BLOCK_RECORD
  5
20A
100
AcDbSymbolTableRecord
100
AcDbBlockTableRecord
  2
_FILLED
  0
ENDTAB
  0
TABLE
  2
DIMSTYLE
  5
A
100
AcDbSymbolTable
 70
1
100
AcDbDimStyleTable
 71
0
  0
DIMSTYLE
105
20B
100
AcDbSymbolTableRecord
100
AcDbDimStyleTableRecord
  2
STANDARD
 70
0
  3

  4

 40
1.0
 41
0.1875
 42
0.0625
 43
0.38
 44
0.125
 45
0.0
 46
0.0
 47
0.001
 48
0.001
140
0.15625
141
0.09
142
0.0
143
25.4
144
1.0
145
0.0
146
1.0
147
0.09
 71
0
 72
0
 73
1
 74
1
 75
0
 76
0
 77
0
 78
4
 79
1
170
0
171
2
172
0
173
0
174
0
175
0
176
0
177
0
178
0
270
2
179
3
271
3
272
3
273
2
274
2
275
0
280
0
281
0
282
0
283
1
284
4
285
0
286
0
287
3
288
0
340
11
278
46
341
20A
342
20A
343
20A
344
20A
  0
ENDTAB
  0
ENDSEC
  0
SECTION
  2
BLOCKS
  0
BLOCK
  5
20
100
AcDbEntity
  8
0
100
AcDbBlockBegin
  2
*Model_Space
 70
0
 10
0.0
 20
0.0
 30
0.0
  3
*Model_Space
  1

  0
ENDBLK
  5
21
100
AcDbEntity
  8
0
100
AcDbBlockEnd
  0
BLOCK
  5
1C
100
AcDbEntity
  8
0
100
AcDbBlockBegin
  2
*Paper_Space
 70
0
 10
0.0
 20
0.0
 30
0.0
  3
*Paper_Space
  1

  0
ENDBLK
  5
1D
100
AcDbEntity
  8
0
100
AcDbBlockEnd
  0
BLOCK
  5
20C
100
AcDbEntity
  8
0
100
AcDbBlockBegin
  2
_FILLED
 70
64
 10
0.0
 20
0.0
  3
_FILLED
  1

  0
SOLID
  5
20D
100
AcDbEntity
  8
0
  6
BYBLOCK
 62
0
100
AcDbTrace
 10
0.0
 20
0.0
 11
-1.0
 21
0.1666666667
 12
-1.0
 22
-0.1666666667
 13
-1.0
 23
-0.1666666667
  0
ENDBLK
  5
20E
100
AcDbEntity
  8
0
  6
BYBLOCK
 62
0
100
AcDbBlockEnd
  0
ENDSEC
  0
SECTION
  2
ENTITIES
  0
LINE
  5
20F
100
AcDbEntity
  8
0
100
AcDbLine
 62
7
  6
CONTINUOUS
 10
0.0
 20
0.0
 11
0.0
 21
17.0
  0
LINE
  5
210
100
AcDbEntity
  8
0
100
AcDbLine
 62
7
  6
CONTINUOUS
 10
0.0
 20
0.0
 11
22.0
 21
0.0
  0
LINE
  5
211
100
AcDbEntity
  8
0
100
AcDbLine
 62
7
  6
CONTINUOUS
 10
0.0
 20
17.0
 11
22.0
 21
17.0
  0
LINE
  5
212
100
AcDbEntity
  8
0
100
AcDbLine
 62
7
  6
CONTINUOUS
 10
22.0
 20
0.0
 11
22.0
 21
17.0
  0
LINE
  5
213
100
AcDbEntity
  8
02___PRT_ALL_AXES
100
AcDbLine
 62
7
  6
CONTINUOUS
 10
0.3695273973
 20
9.0429280822
 11
0.3695273973
 21
7.2908254492
  0
LINE
  5
214
100
AcDbEntity
  8
0
100
AcDbLine
 62
7
  6
CONTINUOUS
 10
1.3405273973
 20
8.0429280822
 11
1.3405273973
 21
7.3329280822
  0
LINE
  5
215
100
AcDbEntity
  8
02___PRT_ALL_AXES
100
AcDbLine
 62
7
  6
CONTINUOUS
 10
0.4656120284
 20
7.0938227608
 11
1.0516939318
 21
6.6359253938
  0
LINE
  5
216
100
AcDbEntity
  8
0
100
AcDbLine
 62
7
  6
CONTINUOUS
 10
5.2604681292
 20
8.0728455669
 11
5.7456351582
 21
7.2880228521
  0
LINE
  5
217
100
AcDbEntity
  8
0
100
AcDbLine
 62
7
  6
CONTINUOUS
 10
5.9157536944
 20
7.2880228521
 11
6.4009207234
 21
8.0728455669
  0
LINE
  5
218
100
AcDbEntity
  8
0
100
AcDbLine
 62
7
  6
CONTINUOUS
 10
6.5865335756
 20
8.0878333123
 11
6.1013665465
 21
7.3030105975
  0
LINE
  5
219
100
AcDbEntity
  8
0
100
AcDbLine
 62
7
  6
CONTINUOUS
 10
7.2418191408
 20
7.3030105975
 11
6.7566521117
 21
8.0878333123
  0
LINE
  5
21A
100
AcDbEntity
  8
0
100
AcDbLine
 62
7
  6
CONTINUOUS
 10
8.2865335756
 20
8.0878333123
 11
7.8013665465
 21
7.3030105975
  0
LINE
  5
21B
100
AcDbEntity
  8
0
100
AcDbLine
 62
7
  6
CONTINUOUS
 10
8.9418191408
 20
7.3030105975
 11
8.4566521117
 21
8.0878333123
  0
LINE
  5
21C
100
AcDbEntity
  8
0
100
AcDbLine
 62
7
  6
CONTINUOUS
 10
8.6604681292
 20
8.0728455669
 11
9.1456351582
 21
7.2880228521
  0
LINE
  5
21D
100
AcDbEntity
  8
0
100
AcDbLine
 62
7
  6
CONTINUOUS
 10
9.3157536944
 20
7.2880228521
 11
9.8009207234
 21
8.0728455669
  0
LINE
  5
21E
100
AcDbEntity
  8
0
100
AcDbLine
 62
7
  6
CONTINUOUS
 10
9.9865335756
 20
8.0878333123
 11
9.5013665465
 21
7.3030105975
  0
LINE
  5
21F
100
AcDbEntity
  8
02___PRT_ALL_AXES
100
AcDbLine
 62
7
  6
CONTINUOUS
 10
5.0385273973
 20
8.3754280822
 11
3.8695273973
 21
8.7929280822
  0
LINE
  5
220
100
AcDbEntity
  8
0
100
AcDbLine
 62
7
  6
CONTINUOUS
 10
10.6418191408
 20
7.3030105975
 11
10.1566521117
 21
8.0878333123
  0
LINE
  5
221
100
AcDbEntity
  8
0
100
AcDbLine
 62
7
  6
CONTINUOUS
 10
10.3604681292
 20
8.0728455669
 11
10.8456351582
 21
7.2880228521
  0
LINE
  5
222
100
AcDbEntity
  8
02___PRT_ALL_AXES
100
AcDbLine
 62
7
  6
CONTINUOUS
 10
3.8695273973
 20
6.5829280822
 11
5.0385273973
 21
7.0004280822
  0
LINE
  5
223
100
AcDbEntity
  8
0
100
AcDbLine
 62
7
  6
CONTINUOUS
 10
11.0157536944
 20
7.2880228521
 11
11.5009207234
 21
8.0728455669
  0
LINE
  5
224
100
AcDbEntity
  8
0
100
AcDbLine
 62
7
  6
CONTINUOUS
 10
11.6865335756
 20
8.0878333123
 11
11.2013665465
 21
7.3030105975
  0
LINE
  5
225
100
AcDbEntity
  8
02___PRT_ALL_AXES
100
AcDbLine
 62
7
  6
CONTINUOUS
 10
1.2056093006
 20
6.5829280822
 11
3.8695273973
 21
6.5829280822
  0
LINE
  5
226
100
AcDbEntity
  8
02___PRT_ALL_AXES
100
AcDbLine
 62
7
  6
CONTINUOUS
 10
24.2075273973
 20
6.5829280822
 11
25.2075273973
 21
6.5829280822
  0
LINE
  5
227
100
AcDbEntity
  8
02___PRT_ALL_AXES
100
AcDbLine
 62
7
  6
CONTINUOUS
 10
5.0385273973
 20
7.0004280822
 11
23.0385273973
 21
7.0004280822
  0
LINE
  5
228
100
AcDbEntity
  8
0
100
AcDbLine
 62
7
  6
CONTINUOUS
 10
1.5905273973
 20
7.0829280822
 11
3.8905273973
 21
7.0829280822
  0
LINE
  5
229
100
AcDbEntity
  8
0
100
AcDbLine
 62
7
  6
CONTINUOUS
 10
6.1864258146
 20
7.1504280822
 11
7.1567598727
 21
7.1504280822
  0
LINE
  5
22A
100
AcDbEntity
  8
0
100
AcDbLine
 62
7
  6
CONTINUOUS
 10
7.8864258146
 20
7.1504280822
 11
8.8567598727
 21
7.1504280822
  0
LINE
  5
22B
100
AcDbEntity
  8
0
100
AcDbLine
 62
7
  6
CONTINUOUS
 10
9.5864258146
 20
7.1504280822
 11
10.5567598727
 21
7.1504280822
  0
LINE
  5
22C
100
AcDbEntity
  8
0
100
AcDbLine
 62
7
  6
CONTINUOUS
 10
11.2864258146
 20
7.1504280822
 11
12.2567598727
 21
7.1504280822
  0
LINE
  5
22D
100
AcDbEntity
  8
0
100
AcDbLine
 62
7
  6
CONTINUOUS
 10
12.9864258146
 20
7.1504280822
 11
13.9567598727
 21
7.1504280822
  0
LINE
  5
22E
100
AcDbEntity
  8
0
100
AcDbLine
 62
7
  6
CONTINUOUS
 10
14.6864258146
 20
7.1504280822
 11
15.6567598727
 21
7.1504280822
  0
LINE
  5
22F
100
AcDbEntity
  8
0
100
AcDbLine
 62
7
  6
CONTINUOUS
 10
16.3864258146
 20
7.1504280822
 11
17.3567598727
 21
7.1504280822
  0
LINE
  5
230
100
AcDbEntity
  8
0
100
AcDbLine
 62
7
  6
CONTINUOUS
 10
18.0864258146
 20
7.1504280822
 11
19.0567598727
 21
7.1504280822
  0
LINE
  5
231
100
AcDbEntity
  8
0
100
AcDbLine
 62
7
  6
CONTINUOUS
 10
21.4864258146
 20
7.1504280822
 11
22.4567598727
 21
7.1504280822
  0
LINE
  5
232
100
AcDbEntity
  8
0
100
AcDbLine
 62
7
  6
CONTINUOUS
 10
12.3418191408
 20
7.3030105975
 11
11.8566521117
 21
8.0878333123
  0
LINE
  5
233
100
AcDbEntity
  8
0
100
AcDbLine
 62
7
  6
CONTINUOUS
 10
12.0604681292
 20
8.0728455669
 11
12.5456351582
 21
7.2880228521
  0
LINE
  5
234
100
AcDbEntity
  8
0
100
AcDbLine
 62
7
  6
CONTINUOUS
 10
12.7157536944
 20
7.2880228521
 11
13.2009207234
 21
8.0728455669
  0
LINE
  5
235
100
AcDbEntity
  8
0
100
AcDbLine
 62
7
  6
CONTINUOUS
 10
15.3787590142
 20
7.8001317418
 11
14.9644266731
 21
7.8001317418
  0
LINE
  5
236
100
AcDbEntity
  8
0
100
AcDbLine
 62
7
  6
CONTINUOUS
 10
13.6787590142
 20
7.8001317418
 11
13.2644266731
 21
7.8001317418
  0
LINE
  5
237
100
AcDbEntity
  8
0
100
AcDbLine
 62
7
  6
CONTINUOUS
 10
21.6158614553
 20
8.2254280822
 11
20.6455273973
 21
8.2254280822
  0
LINE
  5
238
100
AcDbEntity
  8
0
100
AcDbLine
 62
7
  6
CONTINUOUS
 10
19.9158614553
 20
8.2254280822
 11
18.9455273973
 21
8.2254280822
  0
LINE
  5
239
100
AcDbEntity
  8
0
100
AcDbLine
 62
7
  6
CONTINUOUS
 10
18.2158614553
 20
8.2254280822
 11
17.2455273973
 21
8.2254280822
  0
LINE
  5
23A
100
AcDbEntity
  8
0
100
AcDbLine
 62
7
  6
CONTINUOUS
 10
16.5158614553
 20
8.2254280822
 11
15.5455273973
 21
8.2254280822
  0
LINE
  5
23B
100
AcDbEntity
  8
0
100
AcDbLine
 62
7
  6
CONTINUOUS
 10
14.8158614553
 20
8.2254280822
 11
13.8455273973
 21
8.2254280822
  0
LINE
  5
23C
100
AcDbEntity
  8
0
100
AcDbLine
 62
7
  6
CONTINUOUS
 10
13.1158614553
 20
8.2254280822
 11
12.1455273973
 21
8.2254280822
  0
LINE
  5
23D
100
AcDbEntity
  8
0
100
AcDbLine
 62
7
  6
CONTINUOUS
 10
11.4158614553
 20
8.2254280822
 11
10.4455273973
 21
8.2254280822
  0
LINE
  5
23E
100
AcDbEntity
  8
0
100
AcDbLine
 62
7
  6
CONTINUOUS
 10
9.7158614553
 20
8.2254280822
 11
8.7455273973
 21
8.2254280822
  0
LINE
  5
23F
100
AcDbEntity
  8
0
100
AcDbLine
 62
7
  6
CONTINUOUS
 10
6.3158614553
 20
8.2254280822
 11
5.3455273973
 21
8.2254280822
  0
LINE
  5
240
100
AcDbEntity
  8
0
100
AcDbLine
 62
7
  6
CONTINUOUS
 10
3.8905273973
 20
8.2929280822
 11
1.5905273973
 21
8.2929280822
  0
LINE
  5
241
100
AcDbEntity
  8
0
100
AcDbLine
 62
7
  6
CONTINUOUS
 10
13.179367405
 20
7.752714257
 11
12.9013665465
 21
7.3030105975
  0
LINE
  5
242
100
AcDbEntity
  8
02___PRT_ALL_AXES
100
AcDbLine
 62
7
  6
CONTINUOUS
 10
23.0385273973
 20
8.3754280822
 11
5.0385273973
 21
8.3754280822
  0
LINE
  5
243
100
AcDbEntity
  8
02___PRT_ALL_AXES
100
AcDbLine
 62
7
  6
CONTINUOUS
 10
25.2075273973
 20
8.7929280822
 11
24.2075273973
 21
8.7929280822
  0
LINE
  5
244
100
AcDbEntity
  8
02___PRT_ALL_AXES
100
AcDbLine
 62
7
  6
CONTINUOUS
 10
3.8695273973
 20
8.7929280822
 11
2.1195273973
 21
8.7929280822
  0
LINE
  5
245
100
AcDbEntity
  8
0
100
AcDbLine
 62
7
  6
CONTINUOUS
 10
14.0418191408
 20
7.3030105975
 11
13.7638182823
 21
7.752714257
  0
LINE
  5
246
100
AcDbEntity
  8
0
100
AcDbLine
 62
7
  6
CONTINUOUS
 10
13.7604681292
 20
8.0728455669
 11
14.2456351582
 21
7.2880228521
  0
LINE
  5
247
100
AcDbEntity
  8
0
100
AcDbLine
 62
7
  6
CONTINUOUS
 10
14.4157536944
 20
7.2880228521
 11
14.9009207234
 21
8.0728455669
  0
LINE
  5
248
100
AcDbEntity
  8
0
100
AcDbLine
 62
7
  6
CONTINUOUS
 10
14.879367405
 20
7.752714257
 11
14.6013665465
 21
7.3030105975
  0
LINE
  5
249
100
AcDbEntity
  8
0
100
AcDbLine
 62
7
  6
CONTINUOUS
 10
15.7418191408
 20
7.3030105975
 11
15.4638182823
 21
7.752714257
  0
LINE
  5
24A
100
AcDbEntity
  8
0
100
AcDbLine
 62
7
  6
CONTINUOUS
 10
15.4604681292
 20
8.0728455669
 11
15.9456351582
 21
7.2880228521
  0
LINE
  5
24B
100
AcDbEntity
  8
02___PRT_ALL_AXES
100
AcDbLine
 62
7
  6
CONTINUOUS
 10
23.0385273973
 20
7.0004280822
 11
24.2075273973
 21
6.5829280822
  0
LINE
  5
24C
100
AcDbEntity
  8
0
100
AcDbLine
 62
7
  6
CONTINUOUS
 10
16.1157536944
 20
7.2880228521
 11
16.6009207234
 21
8.0728455669
  0
LINE
  5
24D
100
AcDbEntity
  8
0
100
AcDbLine
 62
7
  6
CONTINUOUS
 10
16.7865335756
 20
8.0878333123
 11
16.3013665465
 21
7.3030105975
  0
LINE
  5
24E
100
AcDbEntity
  8
02___PRT_ALL_AXES
100
AcDbLine
 62
7
  6
CONTINUOUS
 10
24.2075273973
 20
8.7929280822
 11
23.0385273973
 21
8.3754280822
  0
LINE
  5
24F
100
AcDbEntity
  8
0
100
AcDbLine
 62
7
  6
CONTINUOUS
 10
17.4418191408
 20
7.3030105975
 11
16.9566521117
 21
8.0878333123
  0
LINE
  5
250
100
AcDbEntity
  8
0
100
AcDbLine
 62
7
  6
CONTINUOUS
 10
17.1604681292
 20
8.0728455669
 11
17.6456351582
 21
7.2880228521
  0
LINE
  5
251
100
AcDbEntity
  8
0
100
AcDbLine
 62
7
  6
CONTINUOUS
 10
17.8157536944
 20
7.2880228521
 11
18.3009207234
 21
8.0728455669
  0
LINE
  5
252
100
AcDbEntity
  8
0
100
AcDbLine
 62
7
  6
CONTINUOUS
 10
18.4865335756
 20
8.0878333123
 11
18.0013665465
 21
7.3030105975
  0
LINE
  5
253
100
AcDbEntity
  8
0
100
AcDbLine
 62
7
  6
CONTINUOUS
 10
19.1418191408
 20
7.3030105975
 11
18.6566521117
 21
8.0878333123
  0
LINE
  5
254
100
AcDbEntity
  8
0
100
AcDbLine
 62
7
  6
CONTINUOUS
 10
18.8604681292
 20
8.0728455669
 11
19.3456351582
 21
7.2880228521
  0
LINE
  5
255
100
AcDbEntity
  8
0
100
AcDbLine
 62
7
  6
CONTINUOUS
 10
19.5157536944
 20
7.2880228521
 11
20.0009207234
 21
8.0728455669
  0
LINE
  5
256
100
AcDbEntity
  8
0
100
AcDbLine
 62
7
  6
CONTINUOUS
 10
20.5604681292
 20
8.0728455669
 11
21.0456351582
 21
7.2880228521
  0
LINE
  5
257
100
AcDbEntity
  8
0
100
AcDbLine
 62
7
  6
CONTINUOUS
 10
21.2157536944
 20
7.2880228521
 11
21.7009207234
 21
8.0728455669
  0
LINE
  5
258
100
AcDbEntity
  8
0
100
AcDbLine
 62
7
  6
CONTINUOUS
 10
21.8865335756
 20
8.0878333123
 11
21.4013665465
 21
7.3030105975
  0
LINE
  5
259
100
AcDbEntity
  8
0
100
AcDbLine
 62
7
  6
CONTINUOUS
 10
22.5418191408
 20
7.3030105975
 11
22.0566521117
 21
8.0878333123
  0
LINE
  5
25A
100
AcDbEntity
  8
02___PRT_ALL_AXES
100
AcDbLine
 62
7
  6
CONTINUOUS
 10
26.2075273973
 20
7.5829280822
 11
26.2075273973
 21
7.7929280822
  0
ARC
  5
25B
100
AcDbEntity
  8
0
100
AcDbCircle
 62
7
  6
CONTINUOUS
 10
3.8905273973
 20
7.6879280822
 40
0.605
100
AcDbArc
 50
270.0
 51
90.0
  0
ARC
  5
25C
100
AcDbEntity
  8
0
100
AcDbCircle
 62
7
  6
CONTINUOUS
 10
1.5905273973
 20
7.3329280822
 40
0.25
100
AcDbArc
 50
180.0
 51
270.0
  0
ARC
  5
25D
100
AcDbEntity
  8
02___PRT_ALL_AXES
100
AcDbCircle
 62
7
  6
CONTINUOUS
 10
0.6195273973
 20
7.2908254492
 40
0.25
100
AcDbArc
 50
180.0
 51
232.0
  0
ARC
  5
25E
100
AcDbEntity
  8
02___PRT_ALL_AXES
100
AcDbCircle
 62
7
  6
CONTINUOUS
 10
1.2056093006
 20
6.8329280822
 40
0.25
100
AcDbArc
 50
232.0
 51
270.0
  0
ARC
  5
25F
100
AcDbEntity
  8
0
100
AcDbCircle
 62
7
  6
CONTINUOUS
 10
12.6306944263
 20
7.3406053673
 40
0.1
100
AcDbArc
 50
211.7238087539
 51
328.2761912462
  0
ARC
  5
260
100
AcDbEntity
  8
0
100
AcDbCircle
 62
7
  6
CONTINUOUS
 10
12.2567598727
 20
7.2504280822
 40
0.1
100
AcDbArc
 50
270.0
 51
31.7238087539
  0
ARC
  5
261
100
AcDbEntity
  8
0
100
AcDbCircle
 62
7
  6
CONTINUOUS
 10
11.2864258146
 20
7.2504280822
 40
0.1
100
AcDbArc
 50
148.2761912461
 51
270.0
  0
ARC
  5
262
100
AcDbEntity
  8
0
100
AcDbCircle
 62
7
  6
CONTINUOUS
 10
10.9306944263
 20
7.3406053673
 40
0.1
100
AcDbArc
 50
211.7238087539
 51
328.2761912462
  0
ARC
  5
263
100
AcDbEntity
  8
0
100
AcDbCircle
 62
7
  6
CONTINUOUS
 10
10.5567598727
 20
7.2504280822
 40
0.1
100
AcDbArc
 50
270.0
 51
31.7238087539
  0
ARC
  5
264
100
AcDbEntity
  8
0
100
AcDbCircle
 62
7
  6
CONTINUOUS
 10
9.5864258146
 20
7.2504280822
 40
0.1
100
AcDbArc
 50
148.2761912461
 51
270.0
  0
ARC
  5
265
100
AcDbEntity
  8
0
100
AcDbCircle
 62
7
  6
CONTINUOUS
 10
9.2306944263
 20
7.3406053673
 40
0.1
100
AcDbArc
 50
211.7238087539
 51
328.2761912462
  0
ARC
  5
266
100
AcDbEntity
  8
0
100
AcDbCircle
 62
7
  6
CONTINUOUS
 10
8.8567598727
 20
7.2504280822
 40
0.1
100
AcDbArc
 50
270.0
 51
31.7238087539
  0
ARC
  5
267
100
AcDbEntity
  8
0
100
AcDbCircle
 62
7
  6
CONTINUOUS
 10
7.8864258146
 20
7.2504280822
 40
0.1
100
AcDbArc
 50
148.2761912461
 51
270.0
  0
ARC
  5
268
100
AcDbEntity
  8
0
100
AcDbCircle
 62
7
  6
CONTINUOUS
 10
7.1567598727
 20
7.2504280822
 40
0.1
100
AcDbArc
 50
270.0
 51
31.7238087539
  0
ARC
  5
269
100
AcDbEntity
  8
0
100
AcDbCircle
 62
7
  6
CONTINUOUS
 10
6.1864258146
 20
7.2504280822
 40
0.1
100
AcDbArc
 50
148.2761912461
 51
270.0
  0
ARC
  5
26A
100
AcDbEntity
  8
0
100
AcDbCircle
 62
7
  6
CONTINUOUS
 10
5.8306944263
 20
7.3406053673
 40
0.1
100
AcDbArc
 50
211.7238087539
 51
328.2761912461
  0
CIRCLE
  5
26B
100
AcDbEntity
  8
02___PRT_ALL_AXES
100
AcDbCircle
 62
7
  6
CONTINUOUS
 10
7.5215928437
 20
7.6879280822
 40
0.075
  0
ARC
  5
26C
100
AcDbEntity
  8
02___PRT_ALL_AXES
100
AcDbCircle
 62
7
  6
CONTINUOUS
 10
1.1195273973
 20
9.0429280822
 40
0.75
100
AcDbArc
 50
0.0
 51
180.0
  0
ARC
  5
26D
100
AcDbEntity
  8
0
100
AcDbCircle
 62
7
  6
CONTINUOUS
 10
1.5905273973
 20
8.0429280822
 40
0.25
100
AcDbArc
 50
90.0
 51
180.0
  0
ARC
  5
26E
100
AcDbEntity
  8
02___PRT_ALL_AXES
100
AcDbCircle
 62
7
  6
CONTINUOUS
 10
2.1195273973
 20
9.0429280822
 40
0.25
100
AcDbArc
 50
180.0
 51
270.0
  0
CIRCLE
  5
26F
100
AcDbEntity
  8
0
100
AcDbCircle
 62
7
  6
CONTINUOUS
 10
1.1195273973
 20
9.0429280822
 40
0.125
  0
ARC
  5
270
100
AcDbEntity
  8
0
100
AcDbCircle
 62
7
  6
CONTINUOUS
 10
12.1455273973
 20
8.1254280822
 40
0.1
100
AcDbArc
 50
90.0
 51
211.7238087538
  0
ARC
  5
271
100
AcDbEntity
  8
0
100
AcDbCircle
 62
7
  6
CONTINUOUS
 10
11.7715928437
 20
8.0352507971
 40
0.1
100
AcDbArc
 50
31.7238087539
 51
148.2761912461
  0
ARC
  5
272
100
AcDbEntity
  8
0
100
AcDbCircle
 62
7
  6
CONTINUOUS
 10
10.4455273973
 20
8.1254280822
 40
0.1
100
AcDbArc
 50
90.0
 51
211.7238087538
  0
ARC
  5
273
100
AcDbEntity
  8
0
100
AcDbCircle
 62
7
  6
CONTINUOUS
 10
11.4158614553
 20
8.1254280822
 40
0.1
100
AcDbArc
 50
328.2761912462
 51
90.0
  0
ARC
  5
274
100
AcDbEntity
  8
0
100
AcDbCircle
 62
7
  6
CONTINUOUS
 10
10.0715928437
 20
8.0352507971
 40
0.1
100
AcDbArc
 50
31.7238087539
 51
148.2761912461
  0
ARC
  5
275
100
AcDbEntity
  8
0
100
AcDbCircle
 62
7
  6
CONTINUOUS
 10
8.7455273973
 20
8.1254280822
 40
0.1
100
AcDbArc
 50
90.0
 51
211.7238087538
  0
ARC
  5
276
100
AcDbEntity
  8
0
100
AcDbCircle
 62
7
  6
CONTINUOUS
 10
9.7158614553
 20
8.1254280822
 40
0.1
100
AcDbArc
 50
328.2761912462
 51
90.0
  0
ARC
  5
277
100
AcDbEntity
  8
0
100
AcDbCircle
 62
7
  6
CONTINUOUS
 10
8.3715928437
 20
8.0352507971
 40
0.1
100
AcDbArc
 50
31.7238087539
 51
148.2761912461
  0
ARC
  5
278
100
AcDbEntity
  8
0
100
AcDbCircle
 62
7
  6
CONTINUOUS
 10
6.6715928437
 20
8.0352507971
 40
0.1
100
AcDbArc
 50
31.7238087539
 51
148.2761912461
  0
ARC
  5
279
100
AcDbEntity
  8
0
100
AcDbCircle
 62
7
  6
CONTINUOUS
 10
5.3455273973
 20
8.1254280822
 40
0.1
100
AcDbArc
 50
90.0
 51
211.7238087538
  0
ARC
  5
27A
100
AcDbEntity
  8
0
100
AcDbCircle
 62
7
  6
CONTINUOUS
 10
6.3158614553
 20
8.1254280822
 40
0.1
100
AcDbArc
 50
328.2761912462
 51
90.0
  0
ARC
  5
27B
100
AcDbEntity
  8
02___PRT_ALL_AXES
100
AcDbCircle
 62
7
  6
CONTINUOUS
 10
25.2075273973
 20
7.7929280822
 40
1.0
100
AcDbArc
 50
0.0
 51
90.0
  0
ARC
  5
27C
100
AcDbEntity
  8
02___PRT_ALL_AXES
100
AcDbCircle
 62
7
  6
CONTINUOUS
 10
25.2075273973
 20
7.5829280822
 40
1.0
100
AcDbArc
 50
270.0
 51
360.0
  0
CIRCLE
  5
27D
100
AcDbEntity
  8
02___PRT_ALL_AXES
100
AcDbCircle
 62
7
  6
CONTINUOUS
 10
24.9575273973
 20
7.6909890117
 40
0.525
  0
ARC
  5
27E
100
AcDbEntity
  8
0
100
AcDbCircle
 62
7
  6
CONTINUOUS
 10
15.3787590142
 20
7.7001317418
 40
0.1
100
AcDbArc
 50
31.7238087539
 51
90.0
  0
ARC
  5
27F
100
AcDbEntity
  8
0
100
AcDbCircle
 62
7
  6
CONTINUOUS
 10
13.6787590142
 20
7.7001317418
 40
0.1
100
AcDbArc
 50
31.7238087539
 51
90.0
  0
ARC
  5
280
100
AcDbEntity
  8
0
100
AcDbCircle
 62
7
  6
CONTINUOUS
 10
13.2644266731
 20
7.7001317418
 40
0.1
100
AcDbArc
 50
90.0
 51
148.2761912461
  0
ARC
  5
281
100
AcDbEntity
  8
0
100
AcDbCircle
 62
7
  6
CONTINUOUS
 10
14.9644266731
 20
7.7001317418
 40
0.1
100
AcDbArc
 50
90.0
 51
148.2761912461
  0
ARC
  5
282
100
AcDbEntity
  8
0
100
AcDbCircle
 62
7
  6
CONTINUOUS
 10
13.9567598727
 20
7.2504280822
 40
0.1
100
AcDbArc
 50
270.0
 51
31.7238087539
  0
ARC
  5
283
100
AcDbEntity
  8
0
100
AcDbCircle
 62
7
  6
CONTINUOUS
 10
12.9864258146
 20
7.2504280822
 40
0.1
100
AcDbArc
 50
148.2761912461
 51
270.0
  0
ARC
  5
284
100
AcDbEntity
  8
0
100
AcDbCircle
 62
7
  6
CONTINUOUS
 10
15.6567598727
 20
7.2504280822
 40
0.1
100
AcDbArc
 50
270.0
 51
31.7238087539
  0
ARC
  5
285
100
AcDbEntity
  8
0
100
AcDbCircle
 62
7
  6
CONTINUOUS
 10
14.6864258146
 20
7.2504280822
 40
0.1
100
AcDbArc
 50
148.2761912461
 51
270.0
  0
ARC
  5
286
100
AcDbEntity
  8
0
100
AcDbCircle
 62
7
  6
CONTINUOUS
 10
22.4567598727
 20
7.2504280822
 40
0.1
100
AcDbArc
 50
270.0
 51
31.7238087539
  0
ARC
  5
287
100
AcDbEntity
  8
0
100
AcDbCircle
 62
7
  6
CONTINUOUS
 10
21.4864258146
 20
7.2504280822
 40
0.1
100
AcDbArc
 50
148.2761912461
 51
270.0
  0
ARC
  5
288
100
AcDbEntity
  8
0
100
AcDbCircle
 62
7
  6
CONTINUOUS
 10
21.1306944263
 20
7.3406053673
 40
0.1
100
AcDbArc
 50
211.7238087539
 51
328.2761912462
  0
ARC
  5
289
100
AcDbEntity
  8
0
100
AcDbCircle
 62
7
  6
CONTINUOUS
 10
19.4306944263
 20
7.3406053673
 40
0.1
100
AcDbArc
 50
211.7238087539
 51
328.2761912462
  0
ARC
  5
28A
100
AcDbEntity
  8
0
100
AcDbCircle
 62
7
  6
CONTINUOUS
 10
19.0567598727
 20
7.2504280822
 40
0.1
100
AcDbArc
 50
270.0
 51
31.7238087539
  0
ARC
  5
28B
100
AcDbEntity
  8
0
100
AcDbCircle
 62
7
  6
CONTINUOUS
 10
18.0864258146
 20
7.2504280822
 40
0.1
100
AcDbArc
 50
148.2761912461
 51
270.0
  0
ARC
  5
28C
100
AcDbEntity
  8
0
100
AcDbCircle
 62
7
  6
CONTINUOUS
 10
17.7306944263
 20
7.3406053673
 40
0.1
100
AcDbArc
 50
211.7238087539
 51
328.2761912462
  0
ARC
  5
28D
100
AcDbEntity
  8
0
100
AcDbCircle
 62
7
  6
CONTINUOUS
 10
17.3567598727
 20
7.2504280822
 40
0.1
100
AcDbArc
 50
270.0
 51
31.7238087539
  0
ARC
  5
28E
100
AcDbEntity
  8
0
100
AcDbCircle
 62
7
  6
CONTINUOUS
 10
16.3864258146
 20
7.2504280822
 40
0.1
100
AcDbArc
 50
148.2761912461
 51
270.0
  0
ARC
  5
28F
100
AcDbEntity
  8
0
100
AcDbCircle
 62
7
  6
CONTINUOUS
 10
16.0306944263
 20
7.3406053673
 40
0.1
100
AcDbArc
 50
211.7238087539
 51
328.2761912462
  0
ARC
  5
290
100
AcDbEntity
  8
0
100
AcDbCircle
 62
7
  6
CONTINUOUS
 10
14.3306944263
 20
7.3406053673
 40
0.1
100
AcDbArc
 50
211.7238087539
 51
328.2761912462
  0
CIRCLE
  5
291
100
AcDbEntity
  8
02___PRT_ALL_AXES
100
AcDbCircle
 62
7
  6
CONTINUOUS
 10
20.2806944263
 20
7.6879280822
 40
0.075
  0
ARC
  5
292
100
AcDbEntity
  8
0
100
AcDbCircle
 62
7
  6
CONTINUOUS
 10
21.9715928437
 20
8.0352507971
 40
0.1
100
AcDbArc
 50
31.7238087539
 51
148.2761912461
  0
ARC
  5
293
100
AcDbEntity
  8
0
100
AcDbCircle
 62
7
  6
CONTINUOUS
 10
20.6455273973
 20
8.1254280822
 40
0.1
100
AcDbArc
 50
90.0
 51
211.7238087538
  0
ARC
  5
294
100
AcDbEntity
  8
0
100
AcDbCircle
 62
7
  6
CONTINUOUS
 10
21.6158614553
 20
8.1254280822
 40
0.1
100
AcDbArc
 50
328.2761912462
 51
90.0
  0
ARC
  5
295
100
AcDbEntity
  8
0
100
AcDbCircle
 62
7
  6
CONTINUOUS
 10
18.9455273973
 20
8.1254280822
 40
0.1
100
AcDbArc
 50
90.0
 51
211.7238087538
  0
ARC
  5
296
100
AcDbEntity
  8
0
100
AcDbCircle
 62
7
  6
CONTINUOUS
 10
19.9158614553
 20
8.1254280822
 40
0.1
100
AcDbArc
 50
328.2761912462
 51
90.0
  0
ARC
  5
297
100
AcDbEntity
  8
0
100
AcDbCircle
 62
7
  6
CONTINUOUS
 10
18.5715928437
 20
8.0352507971
 40
0.1
100
AcDbArc
 50
31.7238087539
 51
148.2761912461
  0
ARC
  5
298
100
AcDbEntity
  8
0
100
AcDbCircle
 62
7
  6
CONTINUOUS
 10
17.2455273973
 20
8.1254280822
 40
0.1
100
AcDbArc
 50
90.0
 51
211.7238087538
  0
ARC
  5
299
100
AcDbEntity
  8
0
100
AcDbCircle
 62
7
  6
CONTINUOUS
 10
18.2158614553
 20
8.1254280822
 40
0.1
100
AcDbArc
 50
328.2761912462
 51
90.0
  0
ARC
  5
29A
100
AcDbEntity
  8
0
100
AcDbCircle
 62
7
  6
CONTINUOUS
 10
16.8715928437
 20
8.0352507971
 40
0.1
100
AcDbArc
 50
31.7238087539
 51
148.2761912461
  0
ARC
  5
29B
100
AcDbEntity
  8
0
100
AcDbCircle
 62
7
  6
CONTINUOUS
 10
15.5455273973
 20
8.1254280822
 40
0.1
100
AcDbArc
 50
90.0
 51
211.7238087538
  0
ARC
  5
29C
100
AcDbEntity
  8
0
100
AcDbCircle
 62
7
  6
CONTINUOUS
 10
16.5158614553
 20
8.1254280822
 40
0.1
100
AcDbArc
 50
328.2761912462
 51
90.0
  0
ARC
  5
29D
100
AcDbEntity
  8
0
100
AcDbCircle
 62
7
  6
CONTINUOUS
 10
13.8455273973
 20
8.1254280822
 40
0.1
100
AcDbArc
 50
90.0
 51
211.7238087538
  0
ARC
  5
29E
100
AcDbEntity
  8
0
100
AcDbCircle
 62
7
  6
CONTINUOUS
 10
14.8158614553
 20
8.1254280822
 40
0.1
100
AcDbArc
 50
328.2761912462
 51
90.0
  0
ARC
  5
29F
100
AcDbEntity
  8
0
100
AcDbCircle
 62
7
  6
CONTINUOUS
 10
13.1158614553
 20
8.1254280822
 40
0.1
100
AcDbArc
 50
328.2761912462
 51
90.0
  0
CIRCLE
  5
2A0
100
AcDbEntity
  8
02___PRT_ALL_AXES
100
AcDbCircle
 62
7
  6
CONTINUOUS
 10
13.4806944263
 20
8.0500773217
 40
0.05
  0
CIRCLE
  5
2A1
100
AcDbEntity
  8
02___PRT_ALL_AXES
100
AcDbCircle
 62
7
  6
CONTINUOUS
 10
15.1806944263
 20
8.0500773217
 40
0.05
  0
ENDSEC
  0
SECTION
  2
OBJECTS
  0
DICTIONARY
  5
C
100
AcDbDictionary
280
0
281
1
  3
ACAD_GROUP
350
D
  3
ACAD_MLINESTYLE
350
17
  3
ACAD_LAYOUT
350
1A
  3
ACAD_PLOTSETTINGS
350
19
  3
ACAD_PLOTSTYLENAME
350
E
  0
DICTIONARY
  5
D
102
{ACAD_REACTORS
330
C
102
}
100
AcDbDictionary
280
0
281
1
  0
ACDBDICTIONARYWDFLT
  5
E
102
{ACAD_REACTORS
330
C
102
}
100
AcDbDictionary
281
1
  3
Normal
350
F
100
AcDbDictionaryWithDefault
340
F
  0
DICTIONARY
  5
17
102
{ACAD_REACTORS
330
C
102
}
100
AcDbDictionary
280
0
281
1
  3
Standard
350
18
  0
DICTIONARY
  5
19
102
{ACAD_REACTORS
330
C
102
}
100
AcDbDictionary
281
1
  0
DICTIONARY
  5
1A
102
{ACAD_REACTORS
330
C
102
}
100
AcDbDictionary
281
1
  3
Model
350
2A2
  3
Layout1
350
2A3
  0
ACDBPLACEHOLDER
  5
F
102
{ACAD_REACTORS
330
E
102
}
  0
MLINESTYLE
  5
18
102
{ACAD_REACTORS
330
17
102
}
100
AcDbMlineStyle
  2
STANDARD
 70
0
  3

 62
256
 51
90.0
 52
90.0
 71
2
 49
0.5
 62
256
  6
BYLAYER
 49
-0.5
 62
256
  6
BYLAYER
  0
LAYOUT
  5
2A2
102
{ACAD_REACTORS
330
1A
102
}
100
AcDbPlotSettings
  1

  2
none_device
  4
ANSI_C_(22.00_x_17.00_Inches)
  6

 40
0.0
 41
0.0
 42
0.0
 43
0.0
 44
558.8
 45
431.8
 46
0.0
 47
0.0
 48
0.0
 49
0.0
140
0.0
141
0.0
142
1.0
143
1.0
 70
1024
 72
0
 73
0
 74
0
  7

 75
0
147
1.0
148
0.0
149
0.0
100
AcDbLayout
  1
Model
 70
0
 71
0
 10
0.0
 20
0.0
 11
22.0
 21
17.0
 12
0.0
 22
0.0
 32
0.0
 14
0.0
 24
0.0
 34
0.0
 15
0.0
 25
0.0
 35
0.0
146
0.0
 13
0.0
 23
0.0
 33
0.0
 16
1.0
 26
0.0
 36
0.0
 17
0.0
 27
1.0
 37
0.0
 76
0
330
208
345
0
346
0
  0
LAYOUT
  5
2A3
102
{ACAD_REACTORS
330
1A
102
}
100
AcDbPlotSettings
  1

  2
none_device
  4
ANSI_C_(22.00_x_17.00_Inches)
  6

 40
0.0
 41
0.0
 42
0.0
 43
0.0
 44
558.8
 45
431.8
 46
0.0
 47
0.0
 48
0.0
 49
0.0
140
0.0
141
0.0
142
1.0
143
1.0
 70
0
 72
0
 73
0
 74
0
  7

 75
0
147
1.0
148
0.0
149
0.0
100
AcDbLayout
  1
Layout1
 70
0
 71
1
 10
0.0
 20
0.0
 11
22.0
 21
17.0
 12
0.0
 22
0.0
 32
0.0
 14
0.0
 24
0.0
 34
0.0
 15
0.0
 25
0.0
 35
0.0
146
0.0
 13
0.0
 23
0.0
 33
0.0
 16
1.0
 26
0.0
 36
0.0
 17
0.0
 27
1.0
 37
0.0
 76
0
330
209
345
0
346
0
  0
ENDSEC
  0
EOF
