999
DXF file: C:\Users\gabriel.schettler\Documents\GitHub\Lunabotics-2022-2023-Team-CAD\Collector_DXFs\collector_motorgear_water.dxf
999
Pro/ENGINEER 2022073 by Parametric Technology Corporation
  0
SECTION
  2
HEADER
  9
$ACADVER
  1
AC1032
  9
$DWGCODEPAGE
  3
ANSI_1252
  9
$EXTMAX
 10
22.0
 20
17.0
 30
0.0
  9
$EXTMIN
 10
0.0
 20
0.0
 30
0.0
  9
$LIMMIN
 10
0.0
 20
0.0
  9
$LIMMAX
 10
22.0
 20
17.0
  9
$VIEWCTR
 10
11.0
 20
8.5
  9
$VIEWSIZE
 40
17.0
  9
$CLAYER
  8
0
  9
$LTSCALE
 40
1.21
  9
$CELTYPE
  6
BYLAYER
  9
$DIMSCALE
 40
1.0
  9
$DIMASZ
 40
0.1875
  9
$DIMEXO
 40
0.0625
  9
$DIMDLI
 40
0.836
  9
$DIMEXE
 40
0.125
  9
$DIMCEN
 40
0.198
  9
$DIMLFAC
 40
1.0
  9
$DIMBLK
  1
_FILLED
  9
$DIMALT
 70
0
  9
$DIMALTF
 40
25.4
  9
$DIMTXT
 40
0.15625
  9
$DIMTOL
 70
0
  9
$DIMLIM
 70
0
  9
$DIMTFAC
 40
1.0
  9
$DIMGAP
 40
0.09
  9
$DIMDSEP
 70
46
  9
$AUNITS
 70
0
  9
$PDMODE
 70
3
  9
$PDSIZE
 40
0.3125
  9
$HANDSEED
  5
298
  9
$TILEMODE
 70
1
  9
$MEASUREMENT
 70
0
  9
$INSUNITS
 70
1
  0
ENDSEC
  0
SECTION
  2
CLASSES
  0
CLASS
  1
ACDBDICTIONARYWDFLT
  2
AcDbDictionaryWithDefault
  3
AutoCAD 2000
 90
0
 91
1
280
0
281
0
  0
CLASS
  1
ACDBPLACEHOLDER
  2
AcDbPlaceHolder
  3
AutoCAD 2000
 90
0
 91
1
280
0
281
0
  0
CLASS
  1
LAYOUT
  2
AcDbLayout
  3
AutoCAD 2000
 90
0
 91
0
280
0
281
0
  0
ENDSEC
  0
SECTION
  2
TABLES
  0
TABLE
  2
VPORT
  5
8
100
AcDbSymbolTable
 70
2
  0
VPORT
  5
1F4
100
AcDbSymbolTableRecord
100
AcDbViewportTableRecord
  2
*ACTIVE
 70
0
 10
0.0
 20
0.0
 11
1.0
 21
1.0
 12
11.0
 22
8.5
 13
0.0
 23
0.0
 14
1.0
 24
1.0
 15
0.0
 25
0.0
 16
0.0
 26
0.0
 36
1.0
 17
0.0
 27
0.0
 37
0.0
 40
17.0
 41
1.2941176471
 42
50.0
 43
0.0
 44
0.0
 50
0.0
 51
0.0
 71
0
 72
100
 73
1
 74
1
 75
0
 76
0
 77
0
 78
0
  0
ENDTAB
  0
TABLE
  2
LTYPE
  5
5
100
AcDbSymbolTable
 70
6
  0
LTYPE
  5
14
100
AcDbSymbolTableRecord
100
AcDbLinetypeTableRecord
  2
BYBLOCK
 70
0
  3

 72
65
 73
0
 40
0.0
  0
LTYPE
  5
15
100
AcDbSymbolTableRecord
100
AcDbLinetypeTableRecord
  2
BYLAYER
 70
0
  3

 72
65
 73
0
 40
0.0
  0
LTYPE
  5
16
100
AcDbSymbolTableRecord
100
AcDbLinetypeTableRecord
  2
CONTINUOUS
 70
64
  3
Solid line
 72
65
 73
0
 40
0.0
  0
LTYPE
  5
1F5
100
AcDbSymbolTableRecord
100
AcDbLinetypeTableRecord
  2
CENTER
 70
64
  3
____ _ ____ _ ____ _ ____ _ ____ _ ____ _ ____
 72
65
 73
4
 40
0.6
 49
0.375
 74
0
 49
-0.075
 74
0
 49
0.075
 74
0
 49
-0.075
 74
0
  0
LTYPE
  5
1F6
100
AcDbSymbolTableRecord
100
AcDbLinetypeTableRecord
  2
HIDDEN
 70
64
  3
- - - - - - - - - - - - - - - - - - - -
 72
65
 73
2
 40
0.2
 49
0.1
 74
0
 49
-0.1
 74
0
  0
LTYPE
  5
1F7
100
AcDbSymbolTableRecord
100
AcDbLinetypeTableRecord
  2
PHANTOM
 70
64
  3
_____ _ _ _____ _ _ _____ _ _ _____
 72
65
 73
6
 40
0.8
 49
0.45
 74
0
 49
-0.05
 74
0
 49
0.1
 74
0
 49
-0.05
 74
0
 49
0.1
 74
0
 49
-0.05
 74
0
  0
LTYPE
  5
1F8
100
AcDbSymbolTableRecord
100
AcDbLinetypeTableRecord
  2
DOT
 70
64
  3
. . . . . . . . . . . . . . . . . . . .
 72
65
 73
2
 40
0.2
 49
0.1
 74
0
 49
-0.1
 74
0
  0
LTYPE
  5
1F9
100
AcDbSymbolTableRecord
100
AcDbLinetypeTableRecord
  2
DASHED
 70
64
  3
- - - - - - - - - - - - - - - - - - - -
 72
65
 73
2
 40
0.2
 49
0.1
 74
0
 49
-0.1
 74
0
  0
ENDTAB
  0
TABLE
  2
LAYER
  5
2
100
AcDbSymbolTable
 70
36
  0
LAYER
  5
10
100
AcDbSymbolTableRecord
100
AcDbLayerTableRecord
  2
0
 70
0
 62
7
  6
CONTINUOUS
370
-3
390
F
  0
LAYER
  5
1FA
100
AcDbSymbolTableRecord
100
AcDbLayerTableRecord
  2
DEFAULT_1
 70
0
 62
7
  6
CENTER
370
-3
390
F
  0
LAYER
  5
1FB
100
AcDbSymbolTableRecord
100
AcDbLayerTableRecord
  2
DEFAULT_2
 70
0
 62
8
  6
HIDDEN
370
-3
390
F
  0
LAYER
  5
1FC
100
AcDbSymbolTableRecord
100
AcDbLayerTableRecord
  2
DEFAULT_3
 70
0
 62
7
  6
PHANTOM
370
-3
390
F
  0
LAYER
  5
1FD
100
AcDbSymbolTableRecord
100
AcDbLayerTableRecord
  2
01___PRT_ALL_DTM_PLN
 70
0
 62
7
  6
CONTINUOUS
370
-3
390
F
  0
LAYER
  5
1FE
100
AcDbSymbolTableRecord
100
AcDbLayerTableRecord
  2
01___PRT_DEF_DTM_PLN
 70
0
 62
7
  6
CONTINUOUS
370
-3
390
F
  0
LAYER
  5
1FF
100
AcDbSymbolTableRecord
100
AcDbLayerTableRecord
  2
02___PRT_ALL_AXES
 70
0
 62
7
  6
CONTINUOUS
370
-3
390
F
  0
LAYER
  5
200
100
AcDbSymbolTableRecord
100
AcDbLayerTableRecord
  2
03___PRT_ALL_CURVES
 70
0
 62
7
  6
CONTINUOUS
370
-3
390
F
  0
LAYER
  5
201
100
AcDbSymbolTableRecord
100
AcDbLayerTableRecord
  2
04___PRT_ALL_DTM_PNT
 70
0
 62
7
  6
CONTINUOUS
370
-3
390
F
  0
LAYER
  5
202
100
AcDbSymbolTableRecord
100
AcDbLayerTableRecord
  2
05___PRT_ALL_DTM_CSYS
 70
0
 62
7
  6
CONTINUOUS
370
-3
390
F
  0
LAYER
  5
203
100
AcDbSymbolTableRecord
100
AcDbLayerTableRecord
  2
05___PRT_DEF_DTM_CSYS
 70
0
 62
7
  6
CONTINUOUS
370
-3
390
F
  0
LAYER
  5
204
100
AcDbSymbolTableRecord
100
AcDbLayerTableRecord
  2
06___PRT_ALL_SURFS
 70
0
 62
7
  6
CONTINUOUS
370
-3
390
F
  0
ENDTAB
  0
TABLE
  2
STYLE
  5
3
100
AcDbSymbolTable
 70
1
  0
STYLE
  5
11
100
AcDbSymbolTableRecord
100
AcDbTextStyleTableRecord
  2
STANDARD
 70
0
 40
0.0
 41
0.8
 50
0.0
 71
0
 42
0.2
  3
txt
  4

  0
STYLE
  5
205
100
AcDbSymbolTableRecord
100
AcDbTextStyleTableRecord
  2
TEXTSTYLE_1
 70
0
 40
0.0
 41
0.8
 50
0.0
 71
0
 42
0.2
  3
gdt
  4

  0
ENDTAB
  0
TABLE
  2
VIEW
  5
6
100
AcDbSymbolTable
 70
0
  0
ENDTAB
  0
TABLE
  2
UCS
  5
7
100
AcDbSymbolTable
 70
0
  0
ENDTAB
  0
TABLE
  2
APPID
  5
9
100
AcDbSymbolTable
 70
1
  0
APPID
  5
206
100
AcDbSymbolTableRecord
100
AcDbRegAppTableRecord
  2
ACAD
 70
0
  0
ENDTAB
  0
TABLE
  2
BLOCK_RECORD
  5
1
100
AcDbSymbolTable
 70
0
  0
BLOCK_RECORD
  5
207
100
AcDbSymbolTableRecord
100
AcDbBlockTableRecord
  2
*Model_Space
  0
BLOCK_RECORD
  5
208
100
AcDbSymbolTableRecord
100
AcDbBlockTableRecord
  2
*Paper_Space
  0
BLOCK_RECORD
  5
209
100
AcDbSymbolTableRecord
100
AcDbBlockTableRecord
  2
_FILLED
  0
ENDTAB
  0
TABLE
  2
DIMSTYLE
  5
A
100
AcDbSymbolTable
 70
1
100
AcDbDimStyleTable
 71
0
  0
DIMSTYLE
105
20A
100
AcDbSymbolTableRecord
100
AcDbDimStyleTableRecord
  2
STANDARD
 70
0
  3

  4

 40
1.0
 41
0.1875
 42
0.0625
 43
0.38
 44
0.125
 45
0.0
 46
0.0
 47
0.01
 48
0.01
140
0.15625
141
0.09
142
0.0
143
25.4
144
1.0
145
0.0
146
1.0
147
0.09
 71
0
 72
0
 73
1
 74
1
 75
0
 76
0
 77
0
 78
4
 79
1
170
0
171
1
172
0
173
0
174
0
175
0
176
0
177
0
178
0
270
2
179
2
271
2
272
2
273
2
274
2
275
0
280
0
281
0
282
0
283
1
284
4
285
0
286
0
287
3
288
0
340
11
278
46
341
209
342
209
343
209
344
209
  0
ENDTAB
  0
ENDSEC
  0
SECTION
  2
BLOCKS
  0
BLOCK
  5
20
100
AcDbEntity
  8
0
100
AcDbBlockBegin
  2
*Model_Space
 70
0
 10
0.0
 20
0.0
 30
0.0
  3
*Model_Space
  1

  0
ENDBLK
  5
21
100
AcDbEntity
  8
0
100
AcDbBlockEnd
  0
BLOCK
  5
1C
100
AcDbEntity
  8
0
100
AcDbBlockBegin
  2
*Paper_Space
 70
0
 10
0.0
 20
0.0
 30
0.0
  3
*Paper_Space
  1

  0
ENDBLK
  5
1D
100
AcDbEntity
  8
0
100
AcDbBlockEnd
  0
BLOCK
  5
20B
100
AcDbEntity
  8
0
100
AcDbBlockBegin
  2
_FILLED
 70
64
 10
0.0
 20
0.0
  3
_FILLED
  1

  0
SOLID
  5
20C
100
AcDbEntity
  8
0
  6
BYBLOCK
 62
0
100
AcDbTrace
 10
0.0
 20
0.0
 11
-1.0
 21
0.1666666667
 12
-1.0
 22
-0.1666666667
 13
-1.0
 23
-0.1666666667
  0
ENDBLK
  5
20D
100
AcDbEntity
  8
0
  6
BYBLOCK
 62
0
100
AcDbBlockEnd
  0
ENDSEC
  0
SECTION
  2
ENTITIES
  0
LINE
  5
20E
100
AcDbEntity
  8
0
100
AcDbLine
 62
7
  6
CONTINUOUS
 10
0.0
 20
0.0
 11
0.0
 21
17.0
  0
LINE
  5
20F
100
AcDbEntity
  8
0
100
AcDbLine
 62
7
  6
CONTINUOUS
 10
0.0
 20
0.0
 11
22.0
 21
0.0
  0
LINE
  5
210
100
AcDbEntity
  8
0
100
AcDbLine
 62
7
  6
CONTINUOUS
 10
0.0
 20
17.0
 11
22.0
 21
17.0
  0
LINE
  5
211
100
AcDbEntity
  8
0
100
AcDbLine
 62
7
  6
CONTINUOUS
 10
22.0
 20
0.0
 11
22.0
 21
17.0
  0
LINE
  5
212
100
AcDbEntity
  8
0
100
AcDbLine
 62
7
  6
CONTINUOUS
 10
10.3675318109
 20
9.0094518486
 11
10.3619017928
 21
8.9469428114
  0
LINE
  5
213
100
AcDbEntity
  8
0
100
AcDbLine
 62
7
  6
CONTINUOUS
 10
10.4794331017
 20
9.3278818956
 11
10.4488651083
 21
9.2730669832
  0
LINE
  5
214
100
AcDbEntity
  8
0
100
AcDbLine
 62
7
  6
CONTINUOUS
 10
10.711177186
 20
9.5732678631
 11
10.6609567011
 21
9.535625072
  0
LINE
  5
215
100
AcDbEntity
  8
0
100
AcDbLine
 62
7
  6
CONTINUOUS
 10
11.1532332208
 20
8.0939789863
 11
11.2159883241
 21
8.0949137836
  0
LINE
  5
216
100
AcDbEntity
  8
0
100
AcDbLine
 62
7
  6
CONTINUOUS
 10
10.824850697
 20
8.1719822667
 11
10.8825605528
 21
8.1473114465
  0
LINE
  5
217
100
AcDbEntity
  8
0
100
AcDbLine
 62
7
  6
CONTINUOUS
 10
10.5565851264
 20
8.3768070146
 11
10.5992711765
 21
8.3307963858
  0
LINE
  5
218
100
AcDbEntity
  8
0
100
AcDbLine
 62
7
  6
CONTINUOUS
 10
10.3948220633
 20
8.6730371702
 11
10.4151035018
 21
8.6136423886
  0
LINE
  5
219
100
AcDbEntity
  8
0
100
AcDbLine
 62
7
  6
CONTINUOUS
 10
10.9041141453
 20
8.9405294507
 11
11.0079336521
 21
9.1203501113
  0
LINE
  5
21A
100
AcDbEntity
  8
0
100
AcDbLine
 62
7
  6
CONTINUOUS
 10
11.2763497565
 20
8.655439781
 11
11.0687107428
 21
8.655439781
  0
LINE
  5
21B
100
AcDbEntity
  8
0
100
AcDbLine
 62
7
  6
CONTINUOUS
 10
11.0079336521
 20
8.6905294507
 11
10.9041141453
 21
8.8703501113
  0
LINE
  5
21C
100
AcDbEntity
  8
0
100
AcDbLine
 62
7
  6
CONTINUOUS
 10
11.1049616443
 20
8.2785103878
 11
11.1021820435
 21
8.2361213091
  0
LINE
  5
21D
100
AcDbEntity
  8
0
100
AcDbLine
 62
7
  6
CONTINUOUS
 10
11.2229113888
 20
9.576556632
 11
11.2180719623
 21
9.5343530762
  0
LINE
  5
21E
100
AcDbEntity
  8
0
100
AcDbLine
 62
7
  6
CONTINUOUS
 10
10.8558081003
 20
8.3601939093
 11
10.8360276171
 21
8.3226001245
  0
LINE
  5
21F
100
AcDbEntity
  8
0
100
AcDbLine
 62
7
  6
CONTINUOUS
 10
11.4915235256
 20
9.4980436764
 11
11.4699367569
 21
9.4614571818
  0
LINE
  5
220
100
AcDbEntity
  8
0
100
AcDbLine
 62
7
  6
CONTINUOUS
 10
10.6614186933
 20
8.5361553954
 11
10.6280575529
 21
8.5098572114
  0
LINE
  5
221
100
AcDbEntity
  8
0
100
AcDbLine
 62
7
  6
CONTINUOUS
 10
11.704978827
 20
9.3170641236
 11
11.6703772645
 21
9.2924208275
  0
LINE
  5
222
100
AcDbEntity
  8
0
100
AcDbLine
 62
7
  6
CONTINUOUS
 10
11.8030881005
 20
8.9037732896
 11
11.8455355148
 21
8.905439781
  0
LINE
  5
223
100
AcDbEntity
  8
0
100
AcDbLine
 62
7
  6
CONTINUOUS
 10
10.4998235839
 20
8.8853941139
 11
10.542301802
 21
8.8849926711
  0
LINE
  5
224
100
AcDbEntity
  8
0
100
AcDbLine
 62
7
  6
CONTINUOUS
 10
11.747895687
 20
8.6474463818
 11
11.7873511526
 21
8.6317038787
  0
LINE
  5
225
100
AcDbEntity
  8
0
100
AcDbLine
 62
7
  6
CONTINUOUS
 10
10.5498288235
 20
9.1607416039
 11
10.5884713252
 21
9.1430974198
  0
LINE
  5
226
100
AcDbEntity
  8
0
100
AcDbLine
 62
7
  6
CONTINUOUS
 10
11.5932173623
 20
8.4357288765
 11
11.6228586708
 21
8.4052994007
  0
LINE
  5
227
100
AcDbEntity
  8
0
100
AcDbLine
 62
7
  6
CONTINUOUS
 10
10.7075047968
 20
9.3919450893
 11
10.7356299424
 21
9.3601090037
  0
LINE
  5
228
100
AcDbEntity
  8
0
100
AcDbLine
 62
7
  6
CONTINUOUS
 10
11.365798414
 20
8.3052286538
 11
11.3805003139
 21
8.2653737381
  0
LINE
  5
229
100
AcDbEntity
  8
0
100
AcDbLine
 62
7
  6
CONTINUOUS
 10
10.9455878954
 20
9.5390273872
 11
10.9583325919
 21
9.4985041484
  0
LINE
  5
22A
100
AcDbEntity
  8
0
100
AcDbLine
 62
7
  6
CONTINUOUS
 10
11.2627830985
 20
8.2385136155
 11
11.2587421593
 21
8.2808010957
  0
LINE
  5
22B
100
AcDbEntity
  8
0
100
AcDbLine
 62
7
  6
CONTINUOUS
 10
11.368968269
 20
9.5046209598
 11
11.3805003139
 21
9.5455058239
  0
LINE
  5
22C
100
AcDbEntity
  8
0
100
AcDbLine
 62
7
  6
CONTINUOUS
 10
10.98371702
 20
8.2594632712
 11
10.9972253061
 21
8.2997384047
  0
LINE
  5
22D
100
AcDbEntity
  8
0
100
AcDbLine
 62
7
  6
CONTINUOUS
 10
11.5956942512
 20
9.3729204846
 11
11.6228586708
 21
9.4055801613
  0
LINE
  5
22E
100
AcDbEntity
  8
0
100
AcDbLine
 62
7
  6
CONTINUOUS
 10
10.7372984643
 20
8.3921081339
 11
10.7660202703
 21
8.4234069842
  0
LINE
  5
22F
100
AcDbEntity
  8
0
100
AcDbLine
 62
7
  6
CONTINUOUS
 10
11.7492513332
 20
9.1603883489
 11
11.7873511526
 21
9.1791756833
  0
LINE
  5
230
100
AcDbEntity
  8
0
100
AcDbLine
 62
7
  6
CONTINUOUS
 10
10.5661354382
 20
8.6135127019
 11
10.6051045029
 21
8.6304234134
  0
LINE
  5
231
100
AcDbEntity
  8
0
100
AcDbLine
 62
7
  6
CONTINUOUS
 10
10.5554051176
 20
8.7759695066
 11
10.5142317643
 21
8.7655141184
  0
LINE
  5
232
100
AcDbEntity
  8
0
100
AcDbLine
 62
7
  6
CONTINUOUS
 10
11.8263689322
 20
9.0649109824
 11
11.7847355004
 21
9.0564719346
  0
LINE
  5
233
100
AcDbEntity
  8
0
100
AcDbLine
 62
7
  6
CONTINUOUS
 10
10.5560980837
 20
9.0381702045
 11
10.5142317643
 21
9.0453654436
  0
LINE
  5
234
100
AcDbEntity
  8
0
100
AcDbLine
 62
7
  6
CONTINUOUS
 10
11.8347043893
 20
8.7851838219
 11
11.7932378868
 21
8.7944082103
  0
LINE
  5
235
100
AcDbEntity
  8
0
100
AcDbLine
 62
7
  6
CONTINUOUS
 10
10.6633777714
 20
9.2774206063
 11
10.6280575529
 21
9.3010223506
  0
LINE
  5
236
100
AcDbEntity
  8
0
100
AcDbLine
 62
7
  6
CONTINUOUS
 10
11.7285439219
 20
8.5262500091
 11
11.6944142838
 21
8.5515428533
  0
LINE
  5
237
100
AcDbEntity
  8
0
100
AcDbLine
 62
7
  6
CONTINUOUS
 10
10.8586945481
 20
9.4523521441
 11
10.8360276171
 21
9.4882794375
  0
LINE
  5
238
100
AcDbEntity
  8
0
100
AcDbLine
 62
7
  6
CONTINUOUS
 10
11.5262436394
 20
8.3328815527
 11
11.5053521901
 21
8.3698694901
  0
LINE
  5
239
100
AcDbEntity
  8
0
100
AcDbLine
 62
7
  6
CONTINUOUS
 10
11.1082763687
 20
9.5327175658
 11
11.1021820435
 21
9.5747582529
  0
LINE
  5
23A
100
AcDbEntity
  8
0
100
AcDbLine
 62
7
  6
CONTINUOUS
 10
11.440946354
 20
8.8703501113
 11
11.3371268472
 21
8.6905294507
  0
LINE
  5
23B
100
AcDbEntity
  8
0
100
AcDbLine
 62
7
  6
CONTINUOUS
 10
11.0687107428
 20
9.155439781
 11
11.2763497565
 21
9.155439781
  0
LINE
  5
23C
100
AcDbEntity
  8
0
100
AcDbLine
 62
7
  6
CONTINUOUS
 10
11.3371268472
 20
9.1203501113
 11
11.440946354
 21
8.9405294507
  0
LINE
  5
23D
100
AcDbEntity
  8
0
100
AcDbLine
 62
7
  6
CONTINUOUS
 10
11.9383122163
 20
8.6363320401
 11
11.9568155646
 21
8.6963045583
  0
LINE
  5
23E
100
AcDbEntity
  8
0
100
AcDbLine
 62
7
  6
CONTINUOUS
 10
11.7626509077
 20
8.3481260403
 11
11.8039475782
 21
8.395387672
  0
LINE
  5
23F
100
AcDbEntity
  8
0
100
AcDbLine
 62
7
  6
CONTINUOUS
 10
11.4849523762
 20
8.1562846492
 11
11.5419017994
 21
8.1826634291
  0
LINE
  5
240
100
AcDbEntity
  8
0
100
AcDbLine
 62
7
  6
CONTINUOUS
 10
11.0226934063
 20
9.7031802883
 11
10.9615040079
 21
9.6892183989
  0
LINE
  5
241
100
AcDbEntity
  8
0
100
AcDbLine
 62
7
  6
CONTINUOUS
 10
11.360117778
 20
9.6951561325
 11
11.298539669
 21
9.7072892824
  0
LINE
  5
242
100
AcDbEntity
  8
0
100
AcDbLine
 62
7
  6
CONTINUOUS
 10
11.6651065619
 20
9.5505828452
 11
11.6137871568
 21
9.5867131025
  0
LINE
  5
243
100
AcDbEntity
  8
0
100
AcDbLine
 62
7
  6
CONTINUOUS
 10
11.8849244265
 20
9.2944584611
 11
11.8527373166
 21
9.3483385761
  0
LINE
  5
244
100
AcDbEntity
  8
0
100
AcDbLine
 62
7
  6
CONTINUOUS
 10
11.981562866
 20
8.9710692131
 11
11.9740734951
 21
9.0333828245
  0
ARC
  5
245
100
AcDbEntity
  8
0
100
AcDbCircle
 62
7
  6
CONTINUOUS
 10
11.1725302497
 20
8.905439781
 40
0.5968310366
100
AcDbArc
 50
329.1410874884
 51
332.5657372143
  0
ARC
  5
246
100
AcDbEntity
  8
0
100
AcDbCircle
 62
7
  6
CONTINUOUS
 10
11.1725302497
 20
8.905439781
 40
0.5968310366
100
AcDbArc
 50
353.1410874884
 51
356.5657372143
  0
ARC
  5
247
100
AcDbEntity
  8
0
100
AcDbCircle
 62
7
  6
CONTINUOUS
 10
11.1725302497
 20
8.905439781
 40
0.5968310366
100
AcDbArc
 50
305.1410874884
 51
308.5657372143
  0
ARC
  5
248
100
AcDbEntity
  8
0
100
AcDbCircle
 62
7
  6
CONTINUOUS
 10
11.1725302497
 20
8.905439781
 40
0.5968310366
100
AcDbArc
 50
281.1410874884
 51
284.5657372143
  0
ARC
  5
249
100
AcDbEntity
  8
0
100
AcDbCircle
 62
7
  6
CONTINUOUS
 10
11.1725302497
 20
8.905439781
 40
0.5968310366
100
AcDbArc
 50
257.1410874884
 51
260.5657372143
  0
ARC
  5
24A
100
AcDbEntity
  8
0
100
AcDbCircle
 62
7
  6
CONTINUOUS
 10
11.1725302497
 20
8.905439781
 40
0.5968310366
100
AcDbArc
 50
233.1410874884
 51
236.5657372143
  0
ARC
  5
24B
100
AcDbEntity
  8
0
100
AcDbCircle
 62
7
  6
CONTINUOUS
 10
11.1725302497
 20
8.905439781
 40
0.5968310366
100
AcDbArc
 50
209.1410874884
 51
212.5657372143
  0
ARC
  5
24C
100
AcDbEntity
  8
0
100
AcDbCircle
 62
7
  6
CONTINUOUS
 10
11.1725302497
 20
8.905439781
 40
0.5968310366
100
AcDbArc
 50
185.1410874884
 51
188.5657372143
  0
ARC
  5
24D
100
AcDbEntity
  8
0
100
AcDbCircle
 62
7
  6
CONTINUOUS
 10
11.1725302497
 20
8.905439781
 40
0.5968310366
100
AcDbArc
 50
161.1410874884
 51
164.5657372143
  0
ARC
  5
24E
100
AcDbEntity
  8
0
100
AcDbCircle
 62
7
  6
CONTINUOUS
 10
11.1725302497
 20
8.905439781
 40
0.5968310366
100
AcDbArc
 50
137.1410874884
 51
140.5657372143
  0
ARC
  5
24F
100
AcDbEntity
  8
0
100
AcDbCircle
 62
7
  6
CONTINUOUS
 10
11.1725302497
 20
8.905439781
 40
0.5968310366
100
AcDbArc
 50
113.1410874884
 51
116.5657372143
  0
ARC
  5
250
100
AcDbEntity
  8
0
100
AcDbCircle
 62
7
  6
CONTINUOUS
 10
11.1725302497
 20
8.905439781
 40
0.5968310366
100
AcDbArc
 50
89.1410874884
 51
92.5657372143
  0
ARC
  5
251
100
AcDbEntity
  8
0
100
AcDbCircle
 62
7
  6
CONTINUOUS
 10
11.1725302497
 20
8.905439781
 40
0.5968310366
100
AcDbArc
 50
65.1410874884
 51
68.5657372143
  0
ARC
  5
252
100
AcDbEntity
  8
0
100
AcDbCircle
 62
7
  6
CONTINUOUS
 10
11.1725302497
 20
8.905439781
 40
0.5968310366
100
AcDbArc
 50
41.1410874884
 51
44.5657372143
  0
ARC
  5
253
100
AcDbEntity
  8
0
100
AcDbCircle
 62
7
  6
CONTINUOUS
 10
11.1725302497
 20
8.905439781
 40
0.5968310366
100
AcDbArc
 50
17.1410874884
 51
20.5657372143
  0
ARC
  5
254
100
AcDbEntity
  8
0
100
AcDbCircle
 62
7
  6
CONTINUOUS
 10
11.1725302497
 20
8.905439781
 40
0.2707
100
AcDbArc
 50
172.5520380684
 51
187.4479619316
  0
ARC
  5
255
100
AcDbEntity
  8
0
100
AcDbCircle
 62
7
  6
CONTINUOUS
 10
11.1725302497
 20
8.905439781
 40
0.2707
100
AcDbArc
 50
112.5520380684
 51
127.4479619316
  0
ARC
  5
256
100
AcDbEntity
  8
0
100
AcDbCircle
 62
7
  6
CONTINUOUS
 10
11.1725302497
 20
8.905439781
 40
0.2707
100
AcDbArc
 50
52.5520380684
 51
67.4479619316
  0
ARC
  5
257
100
AcDbEntity
  8
0
100
AcDbCircle
 62
7
  6
CONTINUOUS
 10
11.1725302497
 20
8.905439781
 40
0.2707
100
AcDbArc
 50
352.5520380684
 51
7.4479619316
  0
ARC
  5
258
100
AcDbEntity
  8
0
100
AcDbCircle
 62
7
  6
CONTINUOUS
 10
11.1725302497
 20
8.905439781
 40
0.2707
100
AcDbArc
 50
292.5520380684
 51
307.4479619316
  0
ARC
  5
259
100
AcDbEntity
  8
0
100
AcDbCircle
 62
7
  6
CONTINUOUS
 10
11.1725302497
 20
8.905439781
 40
0.2707
100
AcDbArc
 50
232.5520380684
 51
247.4479619316
  0
ARC
  5
25A
100
AcDbEntity
  8
0
100
AcDbCircle
 62
7
  6
CONTINUOUS
 10
11.0687520823
 20
8.2808847759
 40
0.036287327
100
AcDbArc
 50
356.2482856368
 51
80.5657372143
  0
ARC
  5
25B
100
AcDbEntity
  8
0
100
AcDbCircle
 62
7
  6
CONTINUOUS
 10
10.8236947701
 20
8.3770907765
 40
0.036287327
100
AcDbArc
 50
332.2482856368
 51
56.5657372143
  0
ARC
  5
25C
100
AcDbEntity
  8
0
100
AcDbCircle
 62
7
  6
CONTINUOUS
 10
11.0316290957
 20
8.2881993682
 40
0.036287327
100
AcDbArc
 50
77.1410874884
 51
161.4585390659
  0
ARC
  5
25D
100
AcDbEntity
  8
0
100
AcDbCircle
 62
7
  6
CONTINUOUS
 10
10.6389542814
 20
8.5646531199
 40
0.036287327
100
AcDbArc
 50
308.2482856368
 51
32.5657372143
  0
ARC
  5
25E
100
AcDbEntity
  8
0
100
AcDbCircle
 62
7
  6
CONTINUOUS
 10
10.7927563471
 20
8.398872268
 40
0.036287327
100
AcDbArc
 50
53.1410874884
 51
137.4585390659
  0
ARC
  5
25F
100
AcDbEntity
  8
0
100
AcDbCircle
 62
7
  6
CONTINUOUS
 10
10.546473925
 20
8.8111405729
 40
0.036287327
100
AcDbArc
 50
284.2482856368
 51
8.5657372143
  0
ARC
  5
260
100
AcDbEntity
  8
0
100
AcDbCircle
 62
7
  6
CONTINUOUS
 10
10.6195499563
 20
8.5971352928
 40
0.036287327
100
AcDbArc
 50
29.1410874884
 51
113.4585390659
  0
ARC
  5
261
100
AcDbEntity
  8
0
100
AcDbCircle
 62
7
  6
CONTINUOUS
 10
10.5419588819
 20
8.8487069644
 40
0.036287327
100
AcDbArc
 50
5.1410874884
 51
89.4585390659
  0
ARC
  5
262
100
AcDbEntity
  8
0
100
AcDbCircle
 62
7
  6
CONTINUOUS
 10
10.5622443946
 20
9.0739332156
 40
0.036287327
100
AcDbArc
 50
260.2482856368
 51
344.5657372143
  0
ARC
  5
263
100
AcDbEntity
  8
0
100
AcDbCircle
 62
7
  6
CONTINUOUS
 10
10.6835388329
 20
9.3075918128
 40
0.036287327
100
AcDbArc
 50
236.2482856368
 51
320.5657372143
  0
ARC
  5
264
100
AcDbEntity
  8
0
100
AcDbCircle
 62
7
  6
CONTINUOUS
 10
10.5733993255
 20
9.1100882555
 40
0.036287327
100
AcDbArc
 50
341.1410874884
 51
65.4585390659
  0
ARC
  5
265
100
AcDbEntity
  8
0
100
AcDbCircle
 62
7
  6
CONTINUOUS
 10
10.8893843295
 20
9.4717146703
 40
0.036287327
100
AcDbArc
 50
212.2482856368
 51
296.5657372143
  0
ARC
  5
266
100
AcDbEntity
  8
0
100
AcDbCircle
 62
7
  6
CONTINUOUS
 10
10.7084349489
 20
9.3360839661
 40
0.036287327
100
AcDbArc
 50
317.1410874884
 51
41.4585390659
  0
ARC
  5
267
100
AcDbEntity
  8
0
100
AcDbCircle
 62
7
  6
CONTINUOUS
 10
11.144188328
 20
9.537923455
 40
0.036287327
100
AcDbArc
 50
188.2482856368
 51
272.5657372143
  0
ARC
  5
268
100
AcDbEntity
  8
0
100
AcDbCircle
 62
7
  6
CONTINUOUS
 10
10.9237168659
 20
9.4876173849
 40
0.036287327
100
AcDbArc
 50
293.1410874884
 51
17.4585390659
  0
ARC
  5
269
100
AcDbEntity
  8
0
100
AcDbCircle
 62
7
  6
CONTINUOUS
 10
11.7344481396
 20
8.6137427682
 40
0.036287327
100
AcDbArc
 50
68.2482856368
 51
152.5657372143
  0
ARC
  5
26A
100
AcDbEntity
  8
0
100
AcDbCircle
 62
7
  6
CONTINUOUS
 10
11.801117536
 20
8.8298296902
 40
0.036287327
100
AcDbArc
 50
173.1410874884
 51
257.4585390659
  0
ARC
  5
26B
100
AcDbEntity
  8
0
100
AcDbCircle
 62
7
  6
CONTINUOUS
 10
11.5672239218
 20
8.4104087037
 40
0.036287327
100
AcDbArc
 50
44.2482856368
 51
128.5657372143
  0
ARC
  5
26C
100
AcDbEntity
  8
0
100
AcDbCircle
 62
7
  6
CONTINUOUS
 10
11.7160199153
 20
8.5806970432
 40
0.036287327
100
AcDbArc
 50
149.1410874884
 51
233.4585390659
  0
ARC
  5
26D
100
AcDbEntity
  8
0
100
AcDbCircle
 62
7
  6
CONTINUOUS
 10
11.3317535824
 20
8.2926700097
 40
0.036287327
100
AcDbArc
 50
20.2482856368
 51
104.5657372143
  0
ARC
  5
26E
100
AcDbEntity
  8
0
100
AcDbCircle
 62
7
  6
CONTINUOUS
 10
11.5369479939
 20
8.3877153659
 40
0.036287327
100
AcDbArc
 50
125.1410874884
 51
209.4585390659
  0
ARC
  5
26F
100
AcDbEntity
  8
0
100
AcDbCircle
 62
7
  6
CONTINUOUS
 10
11.294864934
 20
8.2842529433
 40
0.036287327
100
AcDbArc
 50
101.1410874884
 51
185.4585390659
  0
ARC
  5
270
100
AcDbEntity
  8
0
100
AcDbCircle
 62
7
  6
CONTINUOUS
 10
11.8045116494
 20
8.8675138962
 40
0.036287327
100
AcDbArc
 50
92.2482856368
 51
176.5657372143
  0
ARC
  5
271
100
AcDbEntity
  8
0
100
AcDbCircle
 62
7
  6
CONTINUOUS
 10
11.4038929022
 20
9.4947700665
 40
0.036287327
100
AcDbArc
 50
164.2482856368
 51
248.5657372143
  0
ARC
  5
272
100
AcDbEntity
  8
0
100
AcDbCircle
 62
7
  6
CONTINUOUS
 10
11.1820208774
 20
9.538487007
 40
0.036287327
100
AcDbArc
 50
269.1410874884
 51
353.4585390659
  0
ARC
  5
273
100
AcDbEntity
  8
0
100
AcDbCircle
 62
7
  6
CONTINUOUS
 10
11.6235927719
 20
9.3497161177
 40
0.036287327
100
AcDbArc
 50
140.2482856368
 51
224.5657372143
  0
ARC
  5
274
100
AcDbEntity
  8
0
100
AcDbCircle
 62
7
  6
CONTINUOUS
 10
11.4386838732
 20
9.4798970127
 40
0.036287327
100
AcDbArc
 50
245.1410874884
 51
329.4585390659
  0
ARC
  5
275
100
AcDbEntity
  8
0
100
AcDbCircle
 62
7
  6
CONTINUOUS
 10
11.7652998338
 20
9.1278427542
 40
0.036287327
100
AcDbArc
 50
116.2482856368
 51
200.5657372143
  0
ARC
  5
276
100
AcDbEntity
  8
0
100
AcDbCircle
 62
7
  6
CONTINUOUS
 10
11.6493264895
 20
9.3219781443
 40
0.036287327
100
AcDbArc
 50
221.1410874884
 51
305.4585390659
  0
ARC
  5
277
100
AcDbEntity
  8
0
100
AcDbCircle
 62
7
  6
CONTINUOUS
 10
11.7775267043
 20
9.0920360087
 40
0.036287327
100
AcDbArc
 50
197.1410874884
 51
281.4585390659
  0
SPLINE
  5
278
100
AcDbEntity
  8
0
100
AcDbSpline
 62
7
  6
CONTINUOUS
 70
0
 71
3
 72
13
 73
9
 74
0
 42
0.0000001
 43
0.0000001
 44
0.0000000001
 40
0.0
 40
0.0
 40
0.0
 40
0.0
 40
0.0186691735
 40
0.077270009
 40
0.1786801963
 40
0.3264705027
 40
0.7571366506
 40
1.0
 40
1.0
 40
1.0
 40
1.0
 10
11.7873511526
 20
8.6317038787
 30
0.0
 10
11.788371241
 20
8.6312968693
 30
0.0
 10
11.7925662916
 20
8.6297567368
 30
0.0
 10
11.8020615302
 20
8.6273429227
 30
0.0
 10
11.818278761
 20
8.624649148
 30
0.0
 10
11.8527437512
 20
8.6223750003
 30
0.0
 10
11.8940078252
 20
8.626226149
 30
0.0
 10
11.926641199
 20
8.6332961366
 30
0.0
 10
11.9383122163
 20
8.6363320401
 30
0.0
  0
SPLINE
  5
279
100
AcDbEntity
  8
0
100
AcDbSpline
 62
7
  6
CONTINUOUS
 70
0
 71
3
 72
13
 73
9
 74
0
 42
0.0000001
 43
0.0000001
 44
0.0000000001
 40
0.0
 40
0.0
 40
0.0
 40
0.0
 40
0.2428633494
 40
0.6735294973
 40
0.8213198037
 40
0.922729991
 40
0.9813308265
 40
1.0
 40
1.0
 40
1.0
 40
1.0
 10
11.9568155646
 20
8.6963045583
 30
0.0
 10
11.9488838857
 20
8.7053884906
 30
0.0
 10
11.9259067475
 20
8.7296160147
 30
0.0
 10
11.8939856404
 20
8.7560470207
 30
0.0
 10
11.86423054
 20
8.7735867268
 30
0.0
 10
11.8493146776
 20
8.7804984594
 30
0.0
 10
11.8401100303
 20
8.7838541296
 30
0.0
 10
11.8357764714
 20
8.7849453329
 30
0.0
 10
11.8347043893
 20
8.7851838219
 30
0.0
  0
SPLINE
  5
27A
100
AcDbEntity
  8
0
100
AcDbSpline
 62
7
  6
CONTINUOUS
 70
0
 71
3
 72
13
 73
9
 74
0
 42
0.0000001
 43
0.0000001
 44
0.0000000001
 40
0.0
 40
0.0
 40
0.0
 40
0.0
 40
0.0186691735
 40
0.077270009
 40
0.1786801963
 40
0.3264705027
 40
0.7571366506
 40
1.0
 40
1.0
 40
1.0
 40
1.0
 10
11.8455355148
 20
8.905439781
 30
0.0
 10
11.8466329575
 20
8.9054828667
 30
0.0
 10
11.8510917553
 20
8.9057821665
 30
0.0
 10
11.8607478741
 20
8.9074390991
 30
0.0
 10
11.8766587085
 20
8.9115743554
 30
0.0
 10
11.9090690229
 20
8.9235149925
 30
0.0
 10
11.945199227
 20
8.9438168029
 30
0.0
 10
11.9721356743
 20
8.9635487469
 30
0.0
 10
11.981562866
 20
8.9710692131
 30
0.0
  0
SPLINE
  5
27B
100
AcDbEntity
  8
0
100
AcDbSpline
 62
7
  6
CONTINUOUS
 70
0
 71
3
 72
13
 73
9
 74
0
 42
0.0000001
 43
0.0000001
 44
0.0000000001
 40
0.0
 40
0.0
 40
0.0
 40
0.0
 40
0.2428633494
 40
0.6735294973
 40
0.8213198037
 40
0.922729991
 40
0.9813308265
 40
1.0
 40
1.0
 40
1.0
 40
1.0
 10
11.9740734951
 20
9.0333828245
 30
0.0
 10
11.9631327777
 20
9.0384553051
 30
0.0
 10
11.9322878957
 20
9.0512426057
 30
0.0
 10
11.8923760546
 20
9.0624050472
 30
0.0
 10
11.8580593766
 20
9.0663258763
 30
0.0
 10
11.8416218034
 20
9.0665732305
 30
0.0
 10
11.8318480656
 20
9.0658949204
 30
0.0
 10
11.8274453301
 20
9.065129167
 30
0.0
 10
11.8263689322
 20
9.0649109824
 30
0.0
  0
SPLINE
  5
27C
100
AcDbEntity
  8
0
100
AcDbSpline
 62
7
  6
CONTINUOUS
 70
0
 71
3
 72
13
 73
9
 74
0
 42
0.0000001
 43
0.0000001
 44
0.0000000001
 40
0.0
 40
0.0
 40
0.0
 40
0.0
 40
0.0186691735
 40
0.077270009
 40
0.1786801963
 40
0.3264705027
 40
0.7571366506
 40
1.0
 40
1.0
 40
1.0
 40
1.0
 10
11.7873511526
 20
9.1791756833
 30
0.0
 10
11.7883361919
 20
9.1796614143
 30
0.0
 10
11.7922877701
 20
9.1817483947
 30
0.0
 10
11.8004351384
 20
9.1871895752
 30
0.0
 10
11.8132884486
 20
9.1974388392
 30
0.0
 10
11.8380400494
 20
9.2215296165
 30
0.0
 10
11.8627891431
 20
9.2547717211
 30
0.0
 10
11.8793711075
 20
9.283753789
 30
0.0
 10
11.8849244265
 20
9.2944584611
 30
0.0
  0
SPLINE
  5
27D
100
AcDbEntity
  8
0
100
AcDbSpline
 62
7
  6
CONTINUOUS
 70
0
 71
3
 72
13
 73
9
 74
0
 42
0.0000001
 43
0.0000001
 44
0.0000000001
 40
0.0
 40
0.0
 40
0.0
 40
0.0
 40
0.2428633494
 40
0.6735294973
 40
0.8213198037
 40
0.922729991
 40
0.9813308265
 40
1.0
 40
1.0
 40
1.0
 40
1.0
 10
11.8527373166
 20
9.3483385761
 30
0.0
 10
11.8406793102
 20
9.3485225271
 30
0.0
 10
11.8073000446
 20
9.3476585637
 30
0.0
 10
11.7662985895
 20
9.3416223531
 30
0.0
 10
11.7333539993
 20
9.3312463584
 30
0.0
 10
11.718236921
 20
9.3247865643
 30
0.0
 10
11.7095840608
 20
9.3201915599
 30
0.0
 10
11.7058734217
 20
9.3177012556
 30
0.0
 10
11.704978827
 20
9.3170641236
 30
0.0
  0
SPLINE
  5
27E
100
AcDbEntity
  8
0
100
AcDbSpline
 62
7
  6
CONTINUOUS
 70
0
 71
3
 72
13
 73
9
 74
0
 42
0.0000001
 43
0.0000001
 44
0.0000000001
 40
0.0
 40
0.0
 40
0.0
 40
0.0
 40
0.0186691735
 40
0.077270009
 40
0.1786801963
 40
0.3264705027
 40
0.7571366506
 40
1.0
 40
1.0
 40
1.0
 40
1.0
 10
11.6228586708
 20
9.4055801613
 30
0.0
 10
11.6235609844
 20
9.4064245502
 30
0.0
 10
11.6263220793
 20
9.4099383533
 30
0.0
 10
11.6315519431
 20
9.4182229523
 30
0.0
 10
11.639125275
 20
9.4328140331
 30
0.0
 10
11.6519383856
 20
9.4648894363
 30
0.0
 10
11.6610270257
 20
9.5053239733
 30
0.0
 10
11.664387335
 20
9.5385449023
 30
0.0
 10
11.6651065619
 20
9.5505828452
 30
0.0
  0
SPLINE
  5
27F
100
AcDbEntity
  8
0
100
AcDbSpline
 62
7
  6
CONTINUOUS
 70
0
 71
3
 72
13
 73
9
 74
0
 42
0.0000001
 43
0.0000001
 44
0.0000000001
 40
0.0
 40
0.0
 40
0.0
 40
0.0
 40
0.2428633494
 40
0.6735294973
 40
0.8213198037
 40
0.922729991
 40
0.9813308265
 40
1.0
 40
1.0
 40
1.0
 40
1.0
 10
11.6137871568
 20
9.5867131025
 30
0.0
 10
11.6026968002
 20
9.581976717
 30
0.0
 10
11.5725547293
 20
9.5676108767
 30
0.0
 10
11.5375531843
 20
9.5454197298
 30
0.0
 10
11.5116771008
 20
9.5225410149
 30
0.0
 10
11.5004943975
 20
9.5104910297
 30
0.0
 10
11.494458573
 20
9.502773849
 30
0.0
 10
11.4920816336
 20
9.4989895899
 30
0.0
 10
11.4915235256
 20
9.4980436764
 30
0.0
  0
SPLINE
  5
280
100
AcDbEntity
  8
0
100
AcDbSpline
 62
7
  6
CONTINUOUS
 70
0
 71
3
 72
13
 73
9
 74
0
 42
0.0000001
 43
0.0000001
 44
0.0000000001
 40
0.0
 40
0.0
 40
0.0
 40
0.0
 40
0.0186691735
 40
0.077270009
 40
0.1786801963
 40
0.3264705027
 40
0.7571366506
 40
1.0
 40
1.0
 40
1.0
 40
1.0
 10
11.3805003139
 20
9.5455058239
 30
0.0
 10
11.3807984654
 20
9.5465628682
 30
0.0
 10
11.3818916586
 20
9.5508959256
 30
0.0
 10
11.3832997269
 20
9.5605914606
 30
0.0
 10
11.3842835827
 20
9.5770014278
 30
0.0
 10
11.3829426999
 20
9.6115153283
 30
0.0
 10
11.3747993779
 20
9.6521507988
 30
0.0
 10
11.364357004
 20
9.6838663886
 30
0.0
 10
11.360117778
 20
9.6951561325
 30
0.0
  0
SPLINE
  5
281
100
AcDbEntity
  8
0
100
AcDbSpline
 62
7
  6
CONTINUOUS
 70
0
 71
3
 72
13
 73
9
 74
0
 42
0.0000001
 43
0.0000001
 44
0.0000000001
 40
0.0
 40
0.0
 40
0.0
 40
0.0
 40
0.2428633494
 40
0.6735294973
 40
0.8213198037
 40
0.922729991
 40
0.9813308265
 40
1.0
 40
1.0
 40
1.0
 40
1.0
 10
11.298539669
 20
9.7072892824
 30
0.0
 10
11.2903345857
 20
9.6984515246
 30
0.0
 10
11.2686415474
 20
9.6730677917
 30
0.0
 10
11.2456919975
 20
9.6385587593
 30
0.0
 10
11.2313586307
 20
9.6071332619
 30
0.0
 10
11.2260438934
 20
9.5915766374
 30
0.0
 10
11.2236687536
 20
9.582071651
 30
0.0
 10
11.2230365082
 20
9.57764777
 30
0.0
 10
11.2229113888
 20
9.576556632
 30
0.0
  0
SPLINE
  5
282
100
AcDbEntity
  8
0
100
AcDbSpline
 62
7
  6
CONTINUOUS
 70
0
 71
3
 72
13
 73
9
 74
0
 42
0.0000001
 43
0.0000001
 44
0.0000000001
 40
0.0
 40
0.0
 40
0.0
 40
0.0
 40
0.0186691735
 40
0.077270009
 40
0.1786801963
 40
0.3264705027
 40
0.7571366506
 40
1.0
 40
1.0
 40
1.0
 40
1.0
 10
11.1021820435
 20
9.5747582529
 30
0.0
 10
11.1020244798
 20
9.57584518
 30
0.0
 10
11.1012607483
 20
9.5802482666
 30
0.0
 10
11.0986035533
 20
9.5896782916
 30
0.0
 10
11.0928278153
 20
9.6050697128
 30
0.0
 10
11.0775647899
 20
9.6360543436
 30
0.0
 10
11.0535975602
 20
9.6698645057
 30
0.0
 10
11.0311580845
 20
9.6945908426
 30
0.0
 10
11.0226934063
 20
9.7031802883
 30
0.0
  0
SPLINE
  5
283
100
AcDbEntity
  8
0
100
AcDbSpline
 62
7
  6
CONTINUOUS
 70
0
 71
3
 72
13
 73
9
 74
0
 42
0.0000001
 43
0.0000001
 44
0.0000000001
 40
0.0
 40
0.0
 40
0.0
 40
0.0
 40
0.2428633494
 40
0.6735294973
 40
0.8213198037
 40
0.922729991
 40
0.9813308265
 40
1.0
 40
1.0
 40
1.0
 40
1.0
 10
10.9615040079
 20
9.6892183989
 30
0.0
 10
10.9576029312
 20
9.6778073974
 30
0.0
 10
10.9481098489
 20
9.6457948499
 30
0.0
 10
10.9411804799
 20
9.6049348573
 30
0.0
 10
10.940868199
 20
9.5703963313
 30
0.0
 10
10.9423403942
 20
9.5540229493
 30
0.0
 10
10.9440366222
 20
9.5443736558
 30
0.0
 10
10.9452583918
 20
9.540075082
 30
0.0
 10
10.9455878954
 20
9.5390273872
 30
0.0
  0
SPLINE
  5
284
100
AcDbEntity
  8
0
100
AcDbSpline
 62
7
  6
CONTINUOUS
 70
0
 71
3
 72
13
 73
9
 74
0
 42
0.0000001
 43
0.0000001
 44
0.0000000001
 40
0.0
 40
0.0
 40
0.0
 40
0.0
 40
0.2428633494
 40
0.6735294973
 40
0.8213198037
 40
0.922729991
 40
0.9813308265
 40
1.0
 40
1.0
 40
1.0
 40
1.0
 10
11.8039475782
 20
8.395387672
 30
0.0
 10
11.8003963971
 20
8.4069123615
 30
0.0
 10
11.7892599587
 20
8.4383909502
 30
0.0
 10
11.7708490349
 20
8.4755203596
 30
0.0
 10
11.7508004393
 20
8.5036461681
 30
0.0
 10
11.7399853759
 20
8.5160271778
 30
0.0
 10
11.7329413862
 20
8.5228366025
 30
0.0
 10
11.7294263155
 20
8.5255960835
 30
0.0
 10
11.7285439219
 20
8.5262500091
 30
0.0
  0
SPLINE
  5
285
100
AcDbEntity
  8
0
100
AcDbSpline
 62
7
  6
CONTINUOUS
 70
0
 71
3
 72
13
 73
9
 74
0
 42
0.0000001
 43
0.0000001
 44
0.0000000001
 40
0.0
 40
0.0
 40
0.0
 40
0.0
 40
0.0186691735
 40
0.077270009
 40
0.1786801963
 40
0.3264705027
 40
0.7571366506
 40
1.0
 40
1.0
 40
1.0
 40
1.0
 10
11.6228586708
 20
8.4052994007
 30
0.0
 10
11.6236250223
 20
8.4045126718
 30
0.0
 10
11.6268309634
 20
8.40139941
 30
0.0
 10
11.6345235089
 20
8.3953322196
 30
0.0
 10
11.6482430295
 20
8.3862751918
 30
0.0
 10
11.6788033855
 20
8.3701794802
 30
0.0
 10
11.7180663962
 20
8.3569140687
 30
0.0
 10
11.7507540896
 20
8.3500996348
 30
0.0
 10
11.7626509077
 20
8.3481260403
 30
0.0
  0
SPLINE
  5
286
100
AcDbEntity
  8
0
100
AcDbSpline
 62
7
  6
CONTINUOUS
 70
0
 71
3
 72
13
 73
9
 74
0
 42
0.0000001
 43
0.0000001
 44
0.0000000001
 40
0.0
 40
0.0
 40
0.0
 40
0.0
 40
0.2428633494
 40
0.6735294973
 40
0.8213198037
 40
0.922729991
 40
0.9813308265
 40
1.0
 40
1.0
 40
1.0
 40
1.0
 10
11.5419017994
 20
8.1826634291
 30
0.0
 10
11.5433451476
 20
8.1946361523
 30
0.0
 10
11.5459750004
 20
8.2279228716
 30
0.0
 10
11.5442576759
 20
8.2693306722
 30
0.0
 10
11.5373821694
 20
8.3031793753
 30
0.0
 10
11.5325379277
 20
8.3188888731
 30
0.0
 10
11.5288725654
 20
8.3279746408
 30
0.0
 10
11.5267837706
 20
8.3319252602
 30
0.0
 10
11.5262436394
 20
8.3328815527
 30
0.0
  0
SPLINE
  5
287
100
AcDbEntity
  8
0
100
AcDbSpline
 62
7
  6
CONTINUOUS
 70
0
 71
3
 72
13
 73
9
 74
0
 42
0.0000001
 43
0.0000001
 44
0.0000000001
 40
0.0
 40
0.0
 40
0.0
 40
0.0
 40
0.0186691735
 40
0.077270009
 40
0.1786801963
 40
0.3264705027
 40
0.7571366506
 40
1.0
 40
1.0
 40
1.0
 40
1.0
 10
11.3805003139
 20
8.2653737381
 30
0.0
 10
11.3808804193
 20
8.2643433222
 30
0.0
 10
11.3825429146
 20
8.2601952423
 30
0.0
 10
11.3871026559
 20
8.2515237479
 30
0.0
 10
11.3959522366
 20
8.2376695097
 30
0.0
 10
11.4173237953
 20
8.2105353288
 30
0.0
 10
11.4477968115
 20
8.1824470671
 30
0.0
 10
11.4748868253
 20
8.1629264894
 30
0.0
 10
11.4849523762
 20
8.1562846492
 30
0.0
  0
SPLINE
  5
288
100
AcDbEntity
  8
0
100
AcDbSpline
 62
7
  6
CONTINUOUS
 70
0
 71
3
 72
13
 73
9
 74
0
 42
0.0000001
 43
0.0000001
 44
0.0000000001
 40
0.0
 40
0.0
 40
0.0
 40
0.0
 40
0.2428633494
 40
0.6735294973
 40
0.8213198037
 40
0.922729991
 40
0.9813308265
 40
1.0
 40
1.0
 40
1.0
 40
1.0
 10
11.2159883241
 20
8.0949137836
 30
0.0
 10
11.2221766335
 20
8.105264348
 30
0.0
 10
11.238118052
 20
8.1346036217
 30
0.0
 10
11.2533912679
 20
8.1731300286
 30
0.0
 10
11.260877688
 20
8.2068488781
 30
0.0
 10
11.2628418814
 20
8.223170549
 30
0.0
 10
11.2631889209
 20
8.2329616479
 30
0.0
 10
11.2628875736
 20
8.2374203078
 30
0.0
 10
11.2627830985
 20
8.2385136155
 30
0.0
  0
SPLINE
  5
289
100
AcDbEntity
  8
0
100
AcDbSpline
 62
7
  6
CONTINUOUS
 70
0
 71
3
 72
13
 73
9
 74
0
 42
0.0000001
 43
0.0000001
 44
0.0000000001
 40
0.0
 40
0.0
 40
0.0
 40
0.0
 40
0.0186691735
 40
0.077270009
 40
0.1786801963
 40
0.3264705027
 40
0.7571366506
 40
1.0
 40
1.0
 40
1.0
 40
1.0
 10
11.1021820435
 20
8.2361213091
 30
0.0
 10
11.1021101792
 20
8.2350253746
 30
0.0
 10
11.1019417682
 20
8.2305597173
 30
0.0
 10
11.1025802846
 20
8.2207832991
 30
0.0
 10
11.1050297525
 20
8.2045273739
 30
0.0
 10
11.1135171772
 20
8.1710464702
 30
0.0
 10
11.1299311375
 20
8.132992074
 30
0.0
 10
11.1467393623
 20
8.1041406376
 30
0.0
 10
11.1532332208
 20
8.0939789863
 30
0.0
  0
SPLINE
  5
28A
100
AcDbEntity
  8
0
100
AcDbSpline
 62
7
  6
CONTINUOUS
 70
0
 71
3
 72
13
 73
9
 74
0
 42
0.0000001
 43
0.0000001
 44
0.0000000001
 40
0.0
 40
0.0
 40
0.0
 40
0.0
 40
0.2428633494
 40
0.6735294973
 40
0.8213198037
 40
0.922729991
 40
0.9813308265
 40
1.0
 40
1.0
 40
1.0
 40
1.0
 10
10.8825605528
 20
8.1473114465
 30
0.0
 10
10.8924238086
 20
8.1542501453
 30
0.0
 10
10.9189203768
 20
8.1745689465
 30
0.0
 10
10.9485432552
 20
8.203552394
 30
0.0
 10
10.9690971319
 20
8.2313110944
 30
0.0
 10
10.9775301335
 20
8.2454227733
 30
0.0
 10
10.9818295686
 20
8.2542262335
 30
0.0
 10
10.9833677745
 20
8.258421991
 30
0.0
 10
10.98371702
 20
8.2594632712
 30
0.0
  0
SPLINE
  5
28B
100
AcDbEntity
  8
0
100
AcDbSpline
 62
7
  6
CONTINUOUS
 70
0
 71
3
 72
13
 73
9
 74
0
 42
0.0000001
 43
0.0000001
 44
0.0000000001
 40
0.0
 40
0.0
 40
0.0
 40
0.0
 40
0.0186691735
 40
0.077270009
 40
0.1786801963
 40
0.3264705027
 40
0.7571366506
 40
1.0
 40
1.0
 40
1.0
 40
1.0
 10
10.8360276171
 20
8.3226001245
 30
0.0
 10
10.8355162091
 20
8.3216281683
 30
0.0
 10
10.8335460114
 20
8.3176170863
 30
0.0
 10
10.8301528977
 20
8.3084261759
 30
0.0
 10
10.8257787175
 20
8.2925793609
 30
0.0
 10
10.8199144554
 20
8.2585408867
 30
0.0
 10
10.8194312369
 20
8.2171003069
 30
0.0
 10
10.823051378
 20
8.1839066873
 30
0.0
 10
10.824850697
 20
8.1719822667
 30
0.0
  0
SPLINE
  5
28C
100
AcDbEntity
  8
0
100
AcDbSpline
 62
7
  6
CONTINUOUS
 70
0
 71
3
 72
13
 73
9
 74
0
 42
0.0000001
 43
0.0000001
 44
0.0000000001
 40
0.0
 40
0.0
 40
0.0
 40
0.0
 40
0.2428633494
 40
0.6735294973
 40
0.8213198037
 40
0.922729991
 40
0.9813308265
 40
1.0
 40
1.0
 40
1.0
 40
1.0
 10
10.5992711765
 20
8.3307963858
 30
0.0
 10
10.611103932
 20
8.3331234551
 30
0.0
 10
10.6435741525
 20
8.3409084784
 30
0.0
 10
10.6824246287
 20
8.3553374651
 30
0.0
 10
10.71249201
 20
8.3723362849
 30
0.0
 10
10.7259356772
 20
8.3817979343
 30
0.0
 10
10.7334440965
 20
8.3880915576
 30
0.0
 10
10.7365558858
 20
8.3912989281
 30
0.0
 10
10.7372984643
 20
8.3921081339
 30
0.0
  0
SPLINE
  5
28D
100
AcDbEntity
  8
0
100
AcDbSpline
 62
7
  6
CONTINUOUS
 70
0
 71
3
 72
13
 73
9
 74
0
 42
0.0000001
 43
0.0000001
 44
0.0000000001
 40
0.0
 40
0.0
 40
0.0
 40
0.0
 40
0.0186691735
 40
0.077270009
 40
0.1786801963
 40
0.3264705027
 40
0.7571366506
 40
1.0
 40
1.0
 40
1.0
 40
1.0
 10
10.6280575529
 20
8.5098572114
 30
0.0
 10
10.6271950282
 20
8.5091772937
 30
0.0
 10
10.6237637091
 20
8.5063143395
 30
0.0
 10
10.6169256654
 20
8.4992981287
 30
0.0
 10
10.6064841726
 20
8.4866004822
 30
0.0
 10
10.5872822079
 20
8.457889999
 30
0.0
 10
10.5699853635
 20
8.4202286883
 30
0.0
 10
10.5597914655
 20
8.3884323638
 30
0.0
 10
10.5565851264
 20
8.3768070146
 30
0.0
  0
SPLINE
  5
28E
100
AcDbEntity
  8
0
100
AcDbSpline
 62
7
  6
CONTINUOUS
 70
0
 71
3
 72
13
 73
9
 74
0
 42
0.0000001
 43
0.0000001
 44
0.0000000001
 40
0.0
 40
0.0
 40
0.0
 40
0.0
 40
0.2428633494
 40
0.6735294973
 40
0.8213198037
 40
0.922729991
 40
0.9813308265
 40
1.0
 40
1.0
 40
1.0
 40
1.0
 10
10.4151035018
 20
8.6136423886
 30
0.0
 10
10.4268597662
 20
8.6109554569
 30
0.0
 10
10.4596892429
 20
8.6048606011
 30
0.0
 10
10.5010497165
 20
8.6022402241
 30
0.0
 10
10.535431679
 20
8.605539913
 30
0.0
 10
10.5515614796
 20
8.6087155277
 30
0.0
 10
10.5609806092
 20
8.6114110895
 30
0.0
 10
10.5651279253
 20
8.6130754895
 30
0.0
 10
10.5661354382
 20
8.6135127019
 30
0.0
  0
SPLINE
  5
28F
100
AcDbEntity
  8
0
100
AcDbSpline
 62
7
  6
CONTINUOUS
 70
0
 71
3
 72
13
 73
9
 74
0
 42
0.0000001
 43
0.0000001
 44
0.0000000001
 40
0.0
 40
0.0
 40
0.0
 40
0.0
 40
0.0186691735
 40
0.077270009
 40
0.1786801963
 40
0.3264705027
 40
0.7571366506
 40
1.0
 40
1.0
 40
1.0
 40
1.0
 10
10.5142317643
 20
8.7655141184
 30
0.0
 10
10.5131672613
 20
8.765243803
 30
0.0
 10
10.5088681269
 20
8.7640240074
 30
0.0
 10
10.4997675132
 20
8.7603956628
 30
0.0
 10
10.4850641368
 20
8.7530427233
 30
0.0
 10
10.4558446636
 20
8.7346245345
 30
0.0
 10
10.4247249748
 20
8.7072544755
 30
0.0
 10
10.4024796553
 20
8.6823533196
 30
0.0
 10
10.3948220633
 20
8.6730371702
 30
0.0
  0
SPLINE
  5
290
100
AcDbEntity
  8
0
100
AcDbSpline
 62
7
  6
CONTINUOUS
 70
0
 71
3
 72
13
 73
9
 74
0
 42
0.0000001
 43
0.0000001
 44
0.0000000001
 40
0.0
 40
0.0
 40
0.0
 40
0.0
 40
0.2428633494
 40
0.6735294973
 40
0.8213198037
 40
0.922729991
 40
0.9813308265
 40
1.0
 40
1.0
 40
1.0
 40
1.0
 10
10.3619017928
 20
8.9469428114
 30
0.0
 10
10.3715488012
 20
8.9397064736
 30
0.0
 10
10.3990610193
 20
8.9207855947
 30
0.0
 10
10.4357798887
 20
8.9015689409
 30
0.0
 10
10.4685314788
 20
8.8905989527
 30
0.0
 10
10.4845584238
 20
8.8869394402
 30
0.0
 10
10.4942596106
 20
8.8855708532
 30
0.0
 10
10.4987253448
 20
8.8854044929
 30
0.0
 10
10.4998235839
 20
8.8853941139
 30
0.0
  0
SPLINE
  5
291
100
AcDbEntity
  8
0
100
AcDbSpline
 62
7
  6
CONTINUOUS
 70
0
 71
3
 72
13
 73
9
 74
0
 42
0.0000001
 43
0.0000001
 44
0.0000000001
 40
0.0
 40
0.0
 40
0.0
 40
0.0
 40
0.0186691735
 40
0.077270009
 40
0.1786801963
 40
0.3264705027
 40
0.7571366506
 40
1.0
 40
1.0
 40
1.0
 40
1.0
 10
10.5142317643
 20
9.0453654436
 30
0.0
 10
10.5131493453
 20
9.0455514705
 30
0.0
 10
10.508725755
 20
9.0461857473
 30
0.0
 10
10.49893615
 20
9.0465726427
 30
0.0
 10
10.4825132373
 20
9.0458358002
 30
0.0
 10
10.448328568
 20
9.0408945779
 30
0.0
 10
10.4087669118
 20
9.0285483026
 30
0.0
 10
10.3783165887
 20
9.0148479513
 30
0.0
 10
10.3675318109
 20
9.0094518486
 30
0.0
  0
SPLINE
  5
292
100
AcDbEntity
  8
0
100
AcDbSpline
 62
7
  6
CONTINUOUS
 70
0
 71
3
 72
13
 73
9
 74
0
 42
0.0000001
 43
0.0000001
 44
0.0000000001
 40
0.0
 40
0.0
 40
0.0
 40
0.0
 40
0.2428633494
 40
0.6735294973
 40
0.8213198037
 40
0.922729991
 40
0.9813308265
 40
1.0
 40
1.0
 40
1.0
 40
1.0
 10
10.4488651083
 20
9.2730669832
 30
0.0
 10
10.4547348053
 20
9.2625324679
 30
0.0
 10
10.4721726524
 20
9.2340571576
 30
0.0
 10
10.4979008915
 20
9.2015669612
 30
0.0
 10
10.5233590617
 20
9.1782241065
 30
0.0
 10
10.5365119466
 20
9.1683622297
 30
0.0
 10
10.5448177673
 20
9.1631661351
 30
0.0
 10
10.5488297536
 20
9.1611977797
 30
0.0
 10
10.5498288235
 20
9.1607416039
 30
0.0
  0
SPLINE
  5
293
100
AcDbEntity
  8
0
100
AcDbSpline
 62
7
  6
CONTINUOUS
 70
0
 71
3
 72
13
 73
9
 74
0
 42
0.0000001
 43
0.0000001
 44
0.0000000001
 40
0.0
 40
0.0
 40
0.0
 40
0.0
 40
0.0186691735
 40
0.077270009
 40
0.1786801963
 40
0.3264705027
 40
0.7571366506
 40
1.0
 40
1.0
 40
1.0
 40
1.0
 10
10.6280575529
 20
9.3010223506
 30
0.0
 10
10.6271443779
 20
9.3016325541
 30
0.0
 10
10.6233612107
 20
9.304011231
 30
0.0
 10
10.614575326
 20
9.3083464687
 30
0.0
 10
10.5992725479
 20
9.3143531299
 30
0.0
 10
10.5660335223
 20
9.3237432563
 30
0.0
 10
10.5248704684
 20
9.3285555478
 30
0.0
 10
10.4914802792
 20
9.3284249163
 30
0.0
 10
10.4794331017
 20
9.3278818956
 30
0.0
  0
SPLINE
  5
294
100
AcDbEntity
  8
0
100
AcDbSpline
 62
7
  6
CONTINUOUS
 70
0
 71
3
 72
13
 73
9
 74
0
 42
0.0000001
 43
0.0000001
 44
0.0000000001
 40
0.0
 40
0.0
 40
0.0
 40
0.0
 40
0.2428633494
 40
0.6735294973
 40
0.8213198037
 40
0.922729991
 40
0.9813308265
 40
1.0
 40
1.0
 40
1.0
 40
1.0
 10
10.6609567011
 20
9.535625072
 30
0.0
 10
10.6620341626
 20
9.5236138925
 30
0.0
 10
10.6663824766
 20
9.4905077908
 30
0.0
 10
10.6766714392
 20
9.4503619018
 30
0.0
 10
10.6904342405
 20
9.4186823723
 30
0.0
 10
10.6984388121
 20
9.4043233392
 30
0.0
 10
10.7039131148
 20
9.396198189
 30
0.0
 10
10.7067776444
 20
9.392768185
 30
0.0
 10
10.7075047968
 20
9.3919450893
 30
0.0
  0
SPLINE
  5
295
100
AcDbEntity
  8
0
100
AcDbSpline
 62
7
  6
CONTINUOUS
 70
0
 71
3
 72
13
 73
9
 74
0
 42
0.0000001
 43
0.0000001
 44
0.0000000001
 40
0.0
 40
0.0
 40
0.0
 40
0.0
 40
0.0186691735
 40
0.077270009
 40
0.1786801963
 40
0.3264705027
 40
0.7571366506
 40
1.0
 40
1.0
 40
1.0
 40
1.0
 10
10.8360276171
 20
9.4882794375
 30
0.0
 10
10.8354415824
 20
9.4892083079
 30
0.0
 10
10.8329529823
 20
9.4929200901
 30
0.0
 10
10.8266899772
 20
9.500454068
 30
0.0
 10
10.815153323
 20
9.5121656267
 30
0.0
 10
10.7886072707
 20
9.5342634637
 30
0.0
 10
10.7529602851
 20
9.5554022331
 30
0.0
 10
10.7224036967
 20
9.5688639088
 30
0.0
 10
10.711177186
 20
9.5732678631
 30
0.0
  0
ENDSEC
  0
SECTION
  2
OBJECTS
  0
DICTIONARY
  5
C
100
AcDbDictionary
280
0
281
1
  3
ACAD_GROUP
350
D
  3
ACAD_MLINESTYLE
350
17
  3
ACAD_LAYOUT
350
1A
  3
ACAD_PLOTSETTINGS
350
19
  3
ACAD_PLOTSTYLENAME
350
E
  0
DICTIONARY
  5
D
102
{ACAD_REACTORS
330
C
102
}
100
AcDbDictionary
280
0
281
1
  0
ACDBDICTIONARYWDFLT
  5
E
102
{ACAD_REACTORS
330
C
102
}
100
AcDbDictionary
281
1
  3
Normal
350
F
100
AcDbDictionaryWithDefault
340
F
  0
DICTIONARY
  5
17
102
{ACAD_REACTORS
330
C
102
}
100
AcDbDictionary
280
0
281
1
  3
Standard
350
18
  0
DICTIONARY
  5
19
102
{ACAD_REACTORS
330
C
102
}
100
AcDbDictionary
281
1
  0
DICTIONARY
  5
1A
102
{ACAD_REACTORS
330
C
102
}
100
AcDbDictionary
281
1
  3
Model
350
296
  3
Layout1
350
297
  0
ACDBPLACEHOLDER
  5
F
102
{ACAD_REACTORS
330
E
102
}
  0
MLINESTYLE
  5
18
102
{ACAD_REACTORS
330
17
102
}
100
AcDbMlineStyle
  2
STANDARD
 70
0
  3

 62
256
 51
90.0
 52
90.0
 71
2
 49
0.5
 62
256
  6
BYLAYER
 49
-0.5
 62
256
  6
BYLAYER
  0
LAYOUT
  5
296
102
{ACAD_REACTORS
330
1A
102
}
100
AcDbPlotSettings
  1

  2
none_device
  4
ANSI_C_(22.00_x_17.00_Inches)
  6

 40
0.0
 41
0.0
 42
0.0
 43
0.0
 44
558.8
 45
431.8
 46
0.0
 47
0.0
 48
0.0
 49
0.0
140
0.0
141
0.0
142
1.0
143
1.0
 70
1024
 72
0
 73
0
 74
0
  7

 75
0
147
1.0
148
0.0
149
0.0
100
AcDbLayout
  1
Model
 70
0
 71
0
 10
0.0
 20
0.0
 11
22.0
 21
17.0
 12
0.0
 22
0.0
 32
0.0
 14
0.0
 24
0.0
 34
0.0
 15
0.0
 25
0.0
 35
0.0
146
0.0
 13
0.0
 23
0.0
 33
0.0
 16
1.0
 26
0.0
 36
0.0
 17
0.0
 27
1.0
 37
0.0
 76
0
330
207
345
0
346
0
  0
LAYOUT
  5
297
102
{ACAD_REACTORS
330
1A
102
}
100
AcDbPlotSettings
  1

  2
none_device
  4
ANSI_C_(22.00_x_17.00_Inches)
  6

 40
0.0
 41
0.0
 42
0.0
 43
0.0
 44
558.8
 45
431.8
 46
0.0
 47
0.0
 48
0.0
 49
0.0
140
0.0
141
0.0
142
1.0
143
1.0
 70
0
 72
0
 73
0
 74
0
  7

 75
0
147
1.0
148
0.0
149
0.0
100
AcDbLayout
  1
Layout1
 70
0
 71
1
 10
0.0
 20
0.0
 11
22.0
 21
17.0
 12
0.0
 22
0.0
 32
0.0
 14
0.0
 24
0.0
 34
0.0
 15
0.0
 25
0.0
 35
0.0
146
0.0
 13
0.0
 23
0.0
 33
0.0
 16
1.0
 26
0.0
 36
0.0
 17
0.0
 27
1.0
 37
0.0
 76
0
330
208
345
0
346
0
  0
ENDSEC
  0
EOF
