999
DXF file: C:\Users\gabriel.schettler\Documents\GitHub\Lunabotics-2022-2023-Team-CAD\Collector_DXFs\collector_screwgear_water.dxf
999
Pro/ENGINEER 2022073 by Parametric Technology Corporation
  0
SECTION
  2
HEADER
  9
$ACADVER
  1
AC1032
  9
$DWGCODEPAGE
  3
ANSI_1252
  9
$EXTMAX
 10
22.0
 20
17.0
 30
0.0
  9
$EXTMIN
 10
0.0
 20
0.0
 30
0.0
  9
$LIMMIN
 10
0.0
 20
0.0
  9
$LIMMAX
 10
22.0
 20
17.0
  9
$VIEWCTR
 10
11.0
 20
8.5
  9
$VIEWSIZE
 40
17.0
  9
$CLAYER
  8
0
  9
$LTSCALE
 40
1.21
  9
$CELTYPE
  6
BYLAYER
  9
$DIMSCALE
 40
1.0
  9
$DIMASZ
 40
0.1875
  9
$DIMEXO
 40
0.0625
  9
$DIMDLI
 40
0.836
  9
$DIMEXE
 40
0.125
  9
$DIMCEN
 40
0.198
  9
$DIMLFAC
 40
1.0
  9
$DIMBLK
  1
_FILLED
  9
$DIMALT
 70
0
  9
$DIMALTF
 40
25.4
  9
$DIMTXT
 40
0.15625
  9
$DIMTOL
 70
0
  9
$DIMLIM
 70
0
  9
$DIMTFAC
 40
1.0
  9
$DIMGAP
 40
0.09
  9
$DIMDSEP
 70
46
  9
$AUNITS
 70
0
  9
$PDMODE
 70
3
  9
$PDSIZE
 40
0.3125
  9
$HANDSEED
  5
2B8
  9
$TILEMODE
 70
1
  9
$MEASUREMENT
 70
0
  9
$INSUNITS
 70
1
  0
ENDSEC
  0
SECTION
  2
CLASSES
  0
CLASS
  1
ACDBDICTIONARYWDFLT
  2
AcDbDictionaryWithDefault
  3
AutoCAD 2000
 90
0
 91
1
280
0
281
0
  0
CLASS
  1
ACDBPLACEHOLDER
  2
AcDbPlaceHolder
  3
AutoCAD 2000
 90
0
 91
1
280
0
281
0
  0
CLASS
  1
LAYOUT
  2
AcDbLayout
  3
AutoCAD 2000
 90
0
 91
0
280
0
281
0
  0
ENDSEC
  0
SECTION
  2
TABLES
  0
TABLE
  2
VPORT
  5
8
100
AcDbSymbolTable
 70
2
  0
VPORT
  5
1F4
100
AcDbSymbolTableRecord
100
AcDbViewportTableRecord
  2
*ACTIVE
 70
0
 10
0.0
 20
0.0
 11
1.0
 21
1.0
 12
11.0
 22
8.5
 13
0.0
 23
0.0
 14
1.0
 24
1.0
 15
0.0
 25
0.0
 16
0.0
 26
0.0
 36
1.0
 17
0.0
 27
0.0
 37
0.0
 40
17.0
 41
1.2941176471
 42
50.0
 43
0.0
 44
0.0
 50
0.0
 51
0.0
 71
0
 72
100
 73
1
 74
1
 75
0
 76
0
 77
0
 78
0
  0
ENDTAB
  0
TABLE
  2
LTYPE
  5
5
100
AcDbSymbolTable
 70
6
  0
LTYPE
  5
14
100
AcDbSymbolTableRecord
100
AcDbLinetypeTableRecord
  2
BYBLOCK
 70
0
  3

 72
65
 73
0
 40
0.0
  0
LTYPE
  5
15
100
AcDbSymbolTableRecord
100
AcDbLinetypeTableRecord
  2
BYLAYER
 70
0
  3

 72
65
 73
0
 40
0.0
  0
LTYPE
  5
16
100
AcDbSymbolTableRecord
100
AcDbLinetypeTableRecord
  2
CONTINUOUS
 70
64
  3
Solid line
 72
65
 73
0
 40
0.0
  0
LTYPE
  5
1F5
100
AcDbSymbolTableRecord
100
AcDbLinetypeTableRecord
  2
CENTER
 70
64
  3
____ _ ____ _ ____ _ ____ _ ____ _ ____ _ ____
 72
65
 73
4
 40
0.6
 49
0.375
 74
0
 49
-0.075
 74
0
 49
0.075
 74
0
 49
-0.075
 74
0
  0
LTYPE
  5
1F6
100
AcDbSymbolTableRecord
100
AcDbLinetypeTableRecord
  2
HIDDEN
 70
64
  3
- - - - - - - - - - - - - - - - - - - -
 72
65
 73
2
 40
0.2
 49
0.1
 74
0
 49
-0.1
 74
0
  0
LTYPE
  5
1F7
100
AcDbSymbolTableRecord
100
AcDbLinetypeTableRecord
  2
PHANTOM
 70
64
  3
_____ _ _ _____ _ _ _____ _ _ _____
 72
65
 73
6
 40
0.8
 49
0.45
 74
0
 49
-0.05
 74
0
 49
0.1
 74
0
 49
-0.05
 74
0
 49
0.1
 74
0
 49
-0.05
 74
0
  0
LTYPE
  5
1F8
100
AcDbSymbolTableRecord
100
AcDbLinetypeTableRecord
  2
DOT
 70
64
  3
. . . . . . . . . . . . . . . . . . . .
 72
65
 73
2
 40
0.2
 49
0.1
 74
0
 49
-0.1
 74
0
  0
LTYPE
  5
1F9
100
AcDbSymbolTableRecord
100
AcDbLinetypeTableRecord
  2
DASHED
 70
64
  3
- - - - - - - - - - - - - - - - - - - -
 72
65
 73
2
 40
0.2
 49
0.1
 74
0
 49
-0.1
 74
0
  0
ENDTAB
  0
TABLE
  2
LAYER
  5
2
100
AcDbSymbolTable
 70
36
  0
LAYER
  5
10
100
AcDbSymbolTableRecord
100
AcDbLayerTableRecord
  2
0
 70
0
 62
7
  6
CONTINUOUS
370
-3
390
F
  0
LAYER
  5
1FA
100
AcDbSymbolTableRecord
100
AcDbLayerTableRecord
  2
DEFAULT_1
 70
0
 62
7
  6
CENTER
370
-3
390
F
  0
LAYER
  5
1FB
100
AcDbSymbolTableRecord
100
AcDbLayerTableRecord
  2
DEFAULT_2
 70
0
 62
8
  6
HIDDEN
370
-3
390
F
  0
LAYER
  5
1FC
100
AcDbSymbolTableRecord
100
AcDbLayerTableRecord
  2
DEFAULT_3
 70
0
 62
7
  6
PHANTOM
370
-3
390
F
  0
LAYER
  5
1FD
100
AcDbSymbolTableRecord
100
AcDbLayerTableRecord
  2
01___PRT_ALL_DTM_PLN
 70
0
 62
7
  6
CONTINUOUS
370
-3
390
F
  0
LAYER
  5
1FE
100
AcDbSymbolTableRecord
100
AcDbLayerTableRecord
  2
01___PRT_DEF_DTM_PLN
 70
0
 62
7
  6
CONTINUOUS
370
-3
390
F
  0
LAYER
  5
1FF
100
AcDbSymbolTableRecord
100
AcDbLayerTableRecord
  2
02___PRT_ALL_AXES
 70
0
 62
7
  6
CONTINUOUS
370
-3
390
F
  0
LAYER
  5
200
100
AcDbSymbolTableRecord
100
AcDbLayerTableRecord
  2
03___PRT_ALL_CURVES
 70
0
 62
7
  6
CONTINUOUS
370
-3
390
F
  0
LAYER
  5
201
100
AcDbSymbolTableRecord
100
AcDbLayerTableRecord
  2
04___PRT_ALL_DTM_PNT
 70
0
 62
7
  6
CONTINUOUS
370
-3
390
F
  0
LAYER
  5
202
100
AcDbSymbolTableRecord
100
AcDbLayerTableRecord
  2
05___PRT_ALL_DTM_CSYS
 70
0
 62
7
  6
CONTINUOUS
370
-3
390
F
  0
LAYER
  5
203
100
AcDbSymbolTableRecord
100
AcDbLayerTableRecord
  2
05___PRT_DEF_DTM_CSYS
 70
0
 62
7
  6
CONTINUOUS
370
-3
390
F
  0
LAYER
  5
204
100
AcDbSymbolTableRecord
100
AcDbLayerTableRecord
  2
06___PRT_ALL_SURFS
 70
0
 62
7
  6
CONTINUOUS
370
-3
390
F
  0
ENDTAB
  0
TABLE
  2
STYLE
  5
3
100
AcDbSymbolTable
 70
1
  0
STYLE
  5
11
100
AcDbSymbolTableRecord
100
AcDbTextStyleTableRecord
  2
STANDARD
 70
0
 40
0.0
 41
0.8
 50
0.0
 71
0
 42
0.2
  3
txt
  4

  0
STYLE
  5
205
100
AcDbSymbolTableRecord
100
AcDbTextStyleTableRecord
  2
TEXTSTYLE_1
 70
0
 40
0.0
 41
0.8
 50
0.0
 71
0
 42
0.2
  3
gdt
  4

  0
ENDTAB
  0
TABLE
  2
VIEW
  5
6
100
AcDbSymbolTable
 70
0
  0
ENDTAB
  0
TABLE
  2
UCS
  5
7
100
AcDbSymbolTable
 70
0
  0
ENDTAB
  0
TABLE
  2
APPID
  5
9
100
AcDbSymbolTable
 70
1
  0
APPID
  5
206
100
AcDbSymbolTableRecord
100
AcDbRegAppTableRecord
  2
ACAD
 70
0
  0
ENDTAB
  0
TABLE
  2
BLOCK_RECORD
  5
1
100
AcDbSymbolTable
 70
0
  0
BLOCK_RECORD
  5
207
100
AcDbSymbolTableRecord
100
AcDbBlockTableRecord
  2
*Model_Space
  0
BLOCK_RECORD
  5
208
100
AcDbSymbolTableRecord
100
AcDbBlockTableRecord
  2
*Paper_Space
  0
BLOCK_RECORD
  5
209
100
AcDbSymbolTableRecord
100
AcDbBlockTableRecord
  2
_FILLED
  0
ENDTAB
  0
TABLE
  2
DIMSTYLE
  5
A
100
AcDbSymbolTable
 70
1
100
AcDbDimStyleTable
 71
0
  0
DIMSTYLE
105
20A
100
AcDbSymbolTableRecord
100
AcDbDimStyleTableRecord
  2
STANDARD
 70
0
  3

  4

 40
1.0
 41
0.1875
 42
0.0625
 43
0.38
 44
0.125
 45
0.0
 46
0.0
 47
0.01
 48
0.01
140
0.15625
141
0.09
142
0.0
143
25.4
144
1.0
145
0.0
146
1.0
147
0.09
 71
0
 72
0
 73
1
 74
1
 75
0
 76
0
 77
0
 78
4
 79
1
170
0
171
1
172
0
173
0
174
0
175
0
176
0
177
0
178
0
270
2
179
2
271
2
272
2
273
2
274
2
275
0
280
0
281
0
282
0
283
1
284
4
285
0
286
0
287
3
288
0
340
11
278
46
341
209
342
209
343
209
344
209
  0
ENDTAB
  0
ENDSEC
  0
SECTION
  2
BLOCKS
  0
BLOCK
  5
20
100
AcDbEntity
  8
0
100
AcDbBlockBegin
  2
*Model_Space
 70
0
 10
0.0
 20
0.0
 30
0.0
  3
*Model_Space
  1

  0
ENDBLK
  5
21
100
AcDbEntity
  8
0
100
AcDbBlockEnd
  0
BLOCK
  5
1C
100
AcDbEntity
  8
0
100
AcDbBlockBegin
  2
*Paper_Space
 70
0
 10
0.0
 20
0.0
 30
0.0
  3
*Paper_Space
  1

  0
ENDBLK
  5
1D
100
AcDbEntity
  8
0
100
AcDbBlockEnd
  0
BLOCK
  5
20B
100
AcDbEntity
  8
0
100
AcDbBlockBegin
  2
_FILLED
 70
64
 10
0.0
 20
0.0
  3
_FILLED
  1

  0
SOLID
  5
20C
100
AcDbEntity
  8
0
  6
BYBLOCK
 62
0
100
AcDbTrace
 10
0.0
 20
0.0
 11
-1.0
 21
0.1666666667
 12
-1.0
 22
-0.1666666667
 13
-1.0
 23
-0.1666666667
  0
ENDBLK
  5
20D
100
AcDbEntity
  8
0
  6
BYBLOCK
 62
0
100
AcDbBlockEnd
  0
ENDSEC
  0
SECTION
  2
ENTITIES
  0
LINE
  5
20E
100
AcDbEntity
  8
0
100
AcDbLine
 62
7
  6
CONTINUOUS
 10
0.0
 20
0.0
 11
0.0
 21
17.0
  0
LINE
  5
20F
100
AcDbEntity
  8
0
100
AcDbLine
 62
7
  6
CONTINUOUS
 10
0.0
 20
0.0
 11
22.0
 21
0.0
  0
LINE
  5
210
100
AcDbEntity
  8
0
100
AcDbLine
 62
7
  6
CONTINUOUS
 10
0.0
 20
17.0
 11
22.0
 21
17.0
  0
LINE
  5
211
100
AcDbEntity
  8
0
100
AcDbLine
 62
7
  6
CONTINUOUS
 10
22.0
 20
0.0
 11
22.0
 21
17.0
  0
LINE
  5
212
100
AcDbEntity
  8
0
100
AcDbLine
 62
7
  6
CONTINUOUS
 10
10.3820382534
 20
8.6169399155
 11
10.388224593
 21
8.5509233722
  0
LINE
  5
213
100
AcDbEntity
  8
0
100
AcDbLine
 62
7
  6
CONTINUOUS
 10
10.4132813443
 20
8.9440960619
 11
10.3987646691
 21
8.8793989141
  0
LINE
  5
214
100
AcDbEntity
  8
0
100
AcDbLine
 62
7
  6
CONTINUOUS
 10
10.5440920985
 20
9.2455854007
 11
10.5102934018
 21
9.1885406561
  0
LINE
  5
215
100
AcDbEntity
  8
0
100
AcDbLine
 62
7
  6
CONTINUOUS
 10
10.761665848
 20
9.4918960549
 11
10.7118935817
 21
9.4480876504
  0
LINE
  5
216
100
AcDbEntity
  8
0
100
AcDbLine
 62
7
  6
CONTINUOUS
 10
11.0447049583
 20
9.6589174215
 11
10.9838311786
 21
9.632633629
  0
LINE
  5
217
100
AcDbEntity
  8
0
100
AcDbLine
 62
7
  6
CONTINUOUS
 10
11.4953986232
 20
7.6334745797
 11
11.5614151665
 21
7.6396609194
  0
LINE
  5
218
100
AcDbEntity
  8
0
100
AcDbLine
 62
7
  6
CONTINUOUS
 10
11.1682424768
 20
7.6647176706
 11
11.2329396246
 21
7.6502009954
  0
LINE
  5
219
100
AcDbEntity
  8
0
100
AcDbLine
 62
7
  6
CONTINUOUS
 10
10.866753138
 20
7.7955284248
 11
10.9237978826
 21
7.7617297281
  0
LINE
  5
21A
100
AcDbEntity
  8
0
100
AcDbLine
 62
7
  6
CONTINUOUS
 10
10.6204424838
 20
8.0131021744
 11
10.6642508883
 21
7.9633299081
  0
LINE
  5
21B
100
AcDbEntity
  8
0
100
AcDbLine
 62
7
  6
CONTINUOUS
 10
10.4534211172
 20
8.2961412846
 11
10.4797049097
 21
8.235267505
  0
LINE
  5
21C
100
AcDbEntity
  8
0
100
AcDbLine
 62
7
  6
CONTINUOUS
 10
11.0304511062
 20
8.3818874325
 11
11.0304511062
 21
8.9818874325
  0
LINE
  5
21D
100
AcDbEntity
  8
0
100
AcDbLine
 62
7
  6
CONTINUOUS
 10
11.4293685983
 20
7.8122534141
 11
11.4304511062
 21
7.784547079
  0
LINE
  5
21E
100
AcDbEntity
  8
0
100
AcDbLine
 62
7
  6
CONTINUOUS
 10
11.5443628007
 20
9.5719682355
 11
11.539771906
 21
9.5446234644
  0
LINE
  5
21F
100
AcDbEntity
  8
0
100
AcDbLine
 62
7
  6
CONTINUOUS
 10
11.1606898894
 20
7.8551508458
 11
11.1531576872
 21
7.828466042
  0
LINE
  5
220
100
AcDbEntity
  8
0
100
AcDbLine
 62
7
  6
CONTINUOUS
 10
11.81383766
 20
9.4932039308
 11
11.8010214607
 21
9.4686161725
  0
LINE
  5
221
100
AcDbEntity
  8
0
100
AcDbLine
 62
7
  6
CONTINUOUS
 10
10.9184172879
 20
7.9789750149
 11
10.9030076801
 21
7.9559238368
  0
LINE
  5
222
100
AcDbEntity
  8
0
100
AcDbLine
 62
7
  6
CONTINUOUS
 10
12.0457839722
 20
9.3350223144
 11
12.0259970072
 21
9.31559839
  0
LINE
  5
223
100
AcDbEntity
  8
0
100
AcDbLine
 62
7
  6
CONTINUOUS
 10
10.7262661242
 20
8.1716051489
 11
10.7044875104
 21
8.1544440065
  0
LINE
  5
224
100
AcDbEntity
  8
0
100
AcDbLine
 62
7
  6
CONTINUOUS
 10
12.2174972163
 20
9.1129073052
 11
12.1926763715
 21
9.1005485638
  0
LINE
  5
225
100
AcDbEntity
  8
0
100
AcDbLine
 62
7
  6
CONTINUOUS
 10
10.6030454928
 20
8.4141852681
 11
10.5770297156
 21
8.4045940136
  0
LINE
  5
226
100
AcDbEntity
  8
0
100
AcDbLine
 62
7
  6
CONTINUOUS
 10
10.548733309
 20
8.5151737974
 11
10.5761583963
 21
8.5192575961
  0
LINE
  5
227
100
AcDbEntity
  8
0
100
AcDbLine
 62
7
  6
CONTINUOUS
 10
12.3000851246
 20
8.6808049246
 11
12.3277914597
 21
8.6818874325
  0
LINE
  5
228
100
AcDbEntity
  8
0
100
AcDbLine
 62
7
  6
CONTINUOUS
 10
10.5403703032
 20
8.7957991271
 11
10.5677150743
 21
8.7912082324
  0
LINE
  5
229
100
AcDbEntity
  8
0
100
AcDbLine
 62
7
  6
CONTINUOUS
 10
12.2571876929
 20
8.4121262158
 11
12.2838724967
 21
8.4045940136
  0
LINE
  5
22A
100
AcDbEntity
  8
0
100
AcDbLine
 62
7
  6
CONTINUOUS
 10
10.6191346079
 20
9.0652739864
 11
10.6437223662
 21
9.0524577871
  0
LINE
  5
22B
100
AcDbEntity
  8
0
100
AcDbLine
 62
7
  6
CONTINUOUS
 10
12.1333635238
 20
8.1698536143
 11
12.1564147019
 21
8.1544440065
  0
LINE
  5
22C
100
AcDbEntity
  8
0
100
AcDbLine
 62
7
  6
CONTINUOUS
 10
10.7773162243
 20
9.2972202986
 11
10.7967401487
 21
9.2774333336
  0
LINE
  5
22D
100
AcDbEntity
  8
0
100
AcDbLine
 62
7
  6
CONTINUOUS
 10
11.9407333898
 20
7.9777024505
 11
11.9578945322
 21
7.9559238368
  0
LINE
  5
22E
100
AcDbEntity
  8
0
100
AcDbLine
 62
7
  6
CONTINUOUS
 10
10.9994312335
 20
9.4689335426
 11
11.0117899749
 21
9.4441126978
  0
LINE
  5
22F
100
AcDbEntity
  8
0
100
AcDbLine
 62
7
  6
CONTINUOUS
 10
11.6981532706
 20
7.8544818192
 11
11.7077445251
 21
7.828466042
  0
LINE
  5
230
100
AcDbEntity
  8
0
100
AcDbLine
 62
7
  6
CONTINUOUS
 10
11.263737471
 20
9.5636052297
 11
11.2678212697
 21
9.5361801424
  0
LINE
  5
231
100
AcDbEntity
  8
0
100
AcDbLine
 62
7
  6
CONTINUOUS
 10
11.4315336141
 20
9.551521451
 11
11.4304511062
 21
9.579227786
  0
LINE
  5
232
100
AcDbEntity
  8
0
100
AcDbLine
 62
7
  6
CONTINUOUS
 10
11.3165394116
 20
7.7918066295
 11
11.3211303063
 21
7.8191514007
  0
LINE
  5
233
100
AcDbEntity
  8
0
100
AcDbLine
 62
7
  6
CONTINUOUS
 10
11.7002123229
 20
9.5086240192
 11
11.7077445251
 21
9.5353088231
  0
LINE
  5
234
100
AcDbEntity
  8
0
100
AcDbLine
 62
7
  6
CONTINUOUS
 10
11.0470645523
 20
7.8705709343
 11
11.0598807516
 21
7.8951586926
  0
LINE
  5
235
100
AcDbEntity
  8
0
100
AcDbLine
 62
7
  6
CONTINUOUS
 10
11.9424849244
 20
9.3847998502
 11
11.9578945322
 21
9.4078510283
  0
LINE
  5
236
100
AcDbEntity
  8
0
100
AcDbLine
 62
7
  6
CONTINUOUS
 10
10.8151182401
 20
8.0287525506
 11
10.8349052051
 21
8.048176475
  0
LINE
  5
237
100
AcDbEntity
  8
0
100
AcDbLine
 62
7
  6
CONTINUOUS
 10
12.1346360882
 20
9.1921697162
 11
12.1564147019
 21
9.2093308586
  0
LINE
  5
238
100
AcDbEntity
  8
0
100
AcDbLine
 62
7
  6
CONTINUOUS
 10
10.6434049961
 20
8.2508675599
 11
10.6682258409
 21
8.2632263013
  0
LINE
  5
239
100
AcDbEntity
  8
0
100
AcDbLine
 62
7
  6
CONTINUOUS
 10
12.2578567195
 20
8.9495895969
 11
12.2838724967
 21
8.9591808515
  0
LINE
  5
23A
100
AcDbEntity
  8
0
100
AcDbLine
 62
7
  6
CONTINUOUS
 10
12.3121689034
 20
8.8486010677
 11
12.2847438161
 21
8.844517269
  0
LINE
  5
23B
100
AcDbEntity
  8
0
100
AcDbLine
 62
7
  6
CONTINUOUS
 10
10.5608170877
 20
8.6829699404
 11
10.5331107527
 21
8.6818874325
  0
LINE
  5
23C
100
AcDbEntity
  8
0
100
AcDbLine
 62
7
  6
CONTINUOUS
 10
12.3205319092
 20
8.567975738
 11
12.293187138
 21
8.5725666327
  0
LINE
  5
23D
100
AcDbEntity
  8
0
100
AcDbLine
 62
7
  6
CONTINUOUS
 10
10.6037145195
 20
8.9516486493
 11
10.5770297156
 21
8.9591808515
  0
LINE
  5
23E
100
AcDbEntity
  8
0
100
AcDbLine
 62
7
  6
CONTINUOUS
 10
12.2417676044
 20
8.2985008787
 11
12.2171798461
 21
8.311317078
  0
LINE
  5
23F
100
AcDbEntity
  8
0
100
AcDbLine
 62
7
  6
CONTINUOUS
 10
10.7275386885
 20
9.1939212508
 11
10.7044875104
 21
9.2093308586
  0
LINE
  5
240
100
AcDbEntity
  8
0
100
AcDbLine
 62
7
  6
CONTINUOUS
 10
12.0835859881
 20
8.0665545664
 11
12.0641620637
 21
8.0863415315
  0
LINE
  5
241
100
AcDbEntity
  8
0
100
AcDbLine
 62
7
  6
CONTINUOUS
 10
10.9201688225
 20
9.3860724145
 11
10.9030076801
 21
9.4078510283
  0
LINE
  5
242
100
AcDbEntity
  8
0
100
AcDbLine
 62
7
  6
CONTINUOUS
 10
11.8614709788
 20
7.8948413224
 11
11.8491122374
 21
7.9196621672
  0
LINE
  5
243
100
AcDbEntity
  8
0
100
AcDbLine
 62
7
  6
CONTINUOUS
 10
11.1627489418
 20
9.5092930459
 11
11.1531576872
 21
9.5353088231
  0
LINE
  5
244
100
AcDbEntity
  8
0
100
AcDbLine
 62
7
  6
CONTINUOUS
 10
11.5971647413
 20
7.8001696353
 11
11.5930809426
 21
7.8275947226
  0
LINE
  5
245
100
AcDbEntity
  8
0
100
AcDbLine
 62
7
  6
CONTINUOUS
 10
11.8304511062
 20
8.9818874325
 11
11.8304511062
 21
8.3818874325
  0
LINE
  5
246
100
AcDbEntity
  8
0
100
AcDbLine
 62
7
  6
CONTINUOUS
 10
12.478863959
 20
8.7468349495
 11
12.4726776193
 21
8.8128514929
  0
LINE
  5
247
100
AcDbEntity
  8
0
100
AcDbLine
 62
7
  6
CONTINUOUS
 10
12.4476208681
 20
8.4196788032
 11
12.4621375433
 21
8.484375951
  0
LINE
  5
248
100
AcDbEntity
  8
0
100
AcDbLine
 62
7
  6
CONTINUOUS
 10
12.3168101139
 20
8.1181894643
 11
12.3506088106
 21
8.175234209
  0
LINE
  5
249
100
AcDbEntity
  8
0
100
AcDbLine
 62
7
  6
CONTINUOUS
 10
12.0992363643
 20
7.8718788102
 11
12.1490086306
 21
7.9156872146
  0
LINE
  5
24A
100
AcDbEntity
  8
0
100
AcDbLine
 62
7
  6
CONTINUOUS
 10
11.8161972541
 20
7.7048574436
 11
11.8770710337
 21
7.731141236
  0
LINE
  5
24B
100
AcDbEntity
  8
0
100
AcDbLine
 62
7
  6
CONTINUOUS
 10
11.3655035892
 20
9.7303002853
 11
11.2994870458
 21
9.7241139457
  0
LINE
  5
24C
100
AcDbEntity
  8
0
100
AcDbLine
 62
7
  6
CONTINUOUS
 10
11.6926597355
 20
9.6990571944
 11
11.6279625877
 21
9.7135738696
  0
LINE
  5
24D
100
AcDbEntity
  8
0
100
AcDbLine
 62
7
  6
CONTINUOUS
 10
11.9941490744
 20
9.5682464402
 11
11.9371043297
 21
9.6020451369
  0
LINE
  5
24E
100
AcDbEntity
  8
0
100
AcDbLine
 62
7
  6
CONTINUOUS
 10
12.2404597285
 20
9.3506726907
 11
12.1966513241
 21
9.400444957
  0
LINE
  5
24F
100
AcDbEntity
  8
0
100
AcDbLine
 62
7
  6
CONTINUOUS
 10
12.4074810951
 20
9.0676335804
 11
12.3811973027
 21
9.1285073601
  0
ARC
  5
250
100
AcDbEntity
  8
0
100
AcDbCircle
 62
7
  6
CONTINUOUS
 10
11.3931089363
 20
7.8108367211
 40
0.036287327
100
AcDbArc
 50
2.2374522947
 51
87.5452181887
  0
ARC
  5
251
100
AcDbEntity
  8
0
100
AcDbCircle
 62
7
  6
CONTINUOUS
 10
11.1257671194
 20
7.8650083425
 40
0.036287327
100
AcDbArc
 50
344.2374522947
 51
69.5452181887
  0
ARC
  5
252
100
AcDbEntity
  8
0
100
AcDbCircle
 62
7
  6
CONTINUOUS
 10
11.3569167847
 20
7.8131432336
 40
0.036287327
100
AcDbArc
 50
85.1617665709
 51
170.4695324648
  0
ARC
  5
253
100
AcDbEntity
  8
0
100
AcDbCircle
 62
7
  6
CONTINUOUS
 10
10.888249894
 20
7.9991417807
 40
0.036287327
100
AcDbArc
 50
326.2374522947
 51
51.5452181887
  0
ARC
  5
254
100
AcDbEntity
  8
0
100
AcDbCircle
 62
7
  6
CONTINUOUS
 10
11.0920590893
 20
7.8783859562
 40
0.036287327
100
AcDbArc
 50
67.1617665709
 51
152.4695324648
  0
ARC
  5
255
100
AcDbEntity
  8
0
100
AcDbCircle
 62
7
  6
CONTINUOUS
 10
10.7038071009
 20
8.2001071204
 40
0.036287327
100
AcDbArc
 50
308.2374522947
 51
33.5452181887
  0
ARC
  5
256
100
AcDbEntity
  8
0
100
AcDbCircle
 62
7
  6
CONTINUOUS
 10
10.8603255623
 20
8.0222810016
 40
0.036287327
100
AcDbArc
 50
49.1617665709
 51
134.4695324648
  0
ARC
  5
257
100
AcDbEntity
  8
0
100
AcDbCircle
 62
7
  6
CONTINUOUS
 10
10.5904932859
 20
8.4482324737
 40
0.036287327
100
AcDbArc
 50
290.2374522947
 51
15.5452181887
  0
ARC
  5
258
100
AcDbEntity
  8
0
100
AcDbCircle
 62
7
  6
CONTINUOUS
 10
10.6843998958
 20
8.2307429202
 40
0.036287327
100
AcDbArc
 50
31.1617665709
 51
116.4695324648
  0
ARC
  5
259
100
AcDbEntity
  8
0
100
AcDbCircle
 62
7
  6
CONTINUOUS
 10
10.5815029198
 20
8.4833660069
 40
0.036287327
100
AcDbArc
 50
13.1617665709
 51
98.4695324648
  0
ARC
  5
25A
100
AcDbEntity
  8
0
100
AcDbCircle
 62
7
  6
CONTINUOUS
 10
10.5594003947
 20
8.7192296024
 40
0.036287327
100
AcDbArc
 50
272.2374522947
 51
357.5452181887
  0
ARC
  5
25B
100
AcDbEntity
  8
0
100
AcDbCircle
 62
7
  6
CONTINUOUS
 10
10.6135720161
 20
8.9865714193
 40
0.036287327
100
AcDbArc
 50
254.2374522947
 51
339.5452181887
  0
ARC
  5
25C
100
AcDbEntity
  8
0
100
AcDbCircle
 62
7
  6
CONTINUOUS
 10
10.5617069073
 20
8.755421754
 40
0.036287327
100
AcDbArc
 50
355.1617665709
 51
80.4695324648
  0
ARC
  5
25D
100
AcDbEntity
  8
0
100
AcDbCircle
 62
7
  6
CONTINUOUS
 10
10.7477054544
 20
9.2240886447
 40
0.036287327
100
AcDbArc
 50
236.2374522947
 51
321.5452181887
  0
ARC
  5
25E
100
AcDbEntity
  8
0
100
AcDbCircle
 62
7
  6
CONTINUOUS
 10
10.6269496298
 20
9.0202794494
 40
0.036287327
100
AcDbArc
 50
337.1617665709
 51
62.4695324648
  0
ARC
  5
25F
100
AcDbEntity
  8
0
100
AcDbCircle
 62
7
  6
CONTINUOUS
 10
10.948670794
 20
9.4085314378
 40
0.036287327
100
AcDbArc
 50
218.2374522947
 51
303.5452181887
  0
ARC
  5
260
100
AcDbEntity
  8
0
100
AcDbCircle
 62
7
  6
CONTINUOUS
 10
10.7708446752
 20
9.2520129764
 40
0.036287327
100
AcDbArc
 50
319.1617665709
 51
44.4695324648
  0
ARC
  5
261
100
AcDbEntity
  8
0
100
AcDbCircle
 62
7
  6
CONTINUOUS
 10
11.1967961473
 20
9.5218452528
 40
0.036287327
100
AcDbArc
 50
200.2374522947
 51
285.5452181887
  0
ARC
  5
262
100
AcDbEntity
  8
0
100
AcDbCircle
 62
7
  6
CONTINUOUS
 10
10.9793065938
 20
9.4279386429
 40
0.036287327
100
AcDbArc
 50
301.1617665709
 51
26.4695324648
  0
ARC
  5
263
100
AcDbEntity
  8
0
100
AcDbCircle
 62
7
  6
CONTINUOUS
 10
11.2319296806
 20
9.5308356189
 40
0.036287327
100
AcDbArc
 50
283.1617665709
 51
8.4695324648
  0
ARC
  5
264
100
AcDbEntity
  8
0
100
AcDbCircle
 62
7
  6
CONTINUOUS
 10
12.2473301962
 20
8.3772034458
 40
0.036287327
100
AcDbArc
 50
74.2374522947
 51
159.5452181887
  0
ARC
  5
265
100
AcDbEntity
  8
0
100
AcDbCircle
 62
7
  6
CONTINUOUS
 10
12.2991953051
 20
8.608353111
 40
0.036287327
100
AcDbArc
 50
175.1617665709
 51
260.4695324648
  0
ARC
  5
266
100
AcDbEntity
  8
0
100
AcDbCircle
 62
7
  6
CONTINUOUS
 10
12.113196758
 20
8.1396862203
 40
0.036287327
100
AcDbArc
 50
56.2374522947
 51
141.5452181887
  0
ARC
  5
267
100
AcDbEntity
  8
0
100
AcDbCircle
 62
7
  6
CONTINUOUS
 10
12.2339525825
 20
8.3434954157
 40
0.036287327
100
AcDbArc
 50
157.1617665709
 51
242.4695324648
  0
ARC
  5
268
100
AcDbEntity
  8
0
100
AcDbCircle
 62
7
  6
CONTINUOUS
 10
11.9122314183
 20
7.9552434273
 40
0.036287327
100
AcDbArc
 50
38.2374522947
 51
123.5452181887
  0
ARC
  5
269
100
AcDbEntity
  8
0
100
AcDbCircle
 62
7
  6
CONTINUOUS
 10
12.0900575371
 20
8.1117618887
 40
0.036287327
100
AcDbArc
 50
139.1617665709
 51
224.4695324648
  0
ARC
  5
26A
100
AcDbEntity
  8
0
100
AcDbCircle
 62
7
  6
CONTINUOUS
 10
11.664106065
 20
7.8419296123
 40
0.036287327
100
AcDbArc
 50
20.2374522947
 51
105.5452181887
  0
ARC
  5
26B
100
AcDbEntity
  8
0
100
AcDbCircle
 62
7
  6
CONTINUOUS
 10
11.8815956185
 20
7.9358362222
 40
0.036287327
100
AcDbArc
 50
121.1617665709
 51
206.4695324648
  0
ARC
  5
26C
100
AcDbEntity
  8
0
100
AcDbCircle
 62
7
  6
CONTINUOUS
 10
11.6289725318
 20
7.8329392462
 40
0.036287327
100
AcDbArc
 50
103.1617665709
 51
188.4695324648
  0
ARC
  5
26D
100
AcDbEntity
  8
0
100
AcDbCircle
 62
7
  6
CONTINUOUS
 10
12.3015018176
 20
8.6445452627
 40
0.036287327
100
AcDbArc
 50
92.2374522947
 51
177.5452181887
  0
ARC
  5
26E
100
AcDbEntity
  8
0
100
AcDbCircle
 62
7
  6
CONTINUOUS
 10
11.4304511062
 20
8.6818874325
 40
0.8355634512
100
AcDbArc
 50
337.1617665709
 51
339.5452181887
  0
ARC
  5
26F
100
AcDbEntity
  8
0
100
AcDbCircle
 62
7
  6
CONTINUOUS
 10
11.4304511062
 20
8.6818874325
 40
0.8355634512
100
AcDbArc
 50
355.1617665709
 51
357.5452181887
  0
ARC
  5
270
100
AcDbEntity
  8
0
100
AcDbCircle
 62
7
  6
CONTINUOUS
 10
11.4304511062
 20
8.6818874325
 40
0.8355634512
100
AcDbArc
 50
319.1617665709
 51
321.5452181887
  0
ARC
  5
271
100
AcDbEntity
  8
0
100
AcDbCircle
 62
7
  6
CONTINUOUS
 10
11.4304511062
 20
8.6818874325
 40
0.8355634512
100
AcDbArc
 50
301.1617665709
 51
303.5452181887
  0
ARC
  5
272
100
AcDbEntity
  8
0
100
AcDbCircle
 62
7
  6
CONTINUOUS
 10
11.4304511062
 20
8.6818874325
 40
0.8355634512
100
AcDbArc
 50
283.1617665709
 51
285.5452181887
  0
ARC
  5
273
100
AcDbEntity
  8
0
100
AcDbCircle
 62
7
  6
CONTINUOUS
 10
11.4304511062
 20
8.6818874325
 40
0.8355634512
100
AcDbArc
 50
265.1617665709
 51
267.5452181887
  0
ARC
  5
274
100
AcDbEntity
  8
0
100
AcDbCircle
 62
7
  6
CONTINUOUS
 10
11.4304511062
 20
8.6818874325
 40
0.8355634512
100
AcDbArc
 50
247.1617665709
 51
249.5452181887
  0
ARC
  5
275
100
AcDbEntity
  8
0
100
AcDbCircle
 62
7
  6
CONTINUOUS
 10
11.4304511062
 20
8.6818874325
 40
0.8355634512
100
AcDbArc
 50
229.1617665709
 51
231.5452181887
  0
ARC
  5
276
100
AcDbEntity
  8
0
100
AcDbCircle
 62
7
  6
CONTINUOUS
 10
11.4304511062
 20
8.6818874325
 40
0.8355634512
100
AcDbArc
 50
211.1617665709
 51
213.5452181887
  0
ARC
  5
277
100
AcDbEntity
  8
0
100
AcDbCircle
 62
7
  6
CONTINUOUS
 10
11.4304511062
 20
8.6818874325
 40
0.8355634512
100
AcDbArc
 50
193.1617665709
 51
195.5452181887
  0
ARC
  5
278
100
AcDbEntity
  8
0
100
AcDbCircle
 62
7
  6
CONTINUOUS
 10
11.4304511062
 20
8.6818874325
 40
0.8355634512
100
AcDbArc
 50
175.1617665709
 51
177.5452181887
  0
ARC
  5
279
100
AcDbEntity
  8
0
100
AcDbCircle
 62
7
  6
CONTINUOUS
 10
11.4304511062
 20
8.6818874325
 40
0.8355634512
100
AcDbArc
 50
157.1617665709
 51
159.5452181887
  0
ARC
  5
27A
100
AcDbEntity
  8
0
100
AcDbCircle
 62
7
  6
CONTINUOUS
 10
11.4304511062
 20
8.6818874325
 40
0.8355634512
100
AcDbArc
 50
139.1617665709
 51
141.5452181887
  0
ARC
  5
27B
100
AcDbEntity
  8
0
100
AcDbCircle
 62
7
  6
CONTINUOUS
 10
11.4304511062
 20
8.6818874325
 40
0.8355634512
100
AcDbArc
 50
121.1617665709
 51
123.5452181887
  0
ARC
  5
27C
100
AcDbEntity
  8
0
100
AcDbCircle
 62
7
  6
CONTINUOUS
 10
11.4304511062
 20
8.6818874325
 40
0.8355634512
100
AcDbArc
 50
103.1617665709
 51
105.5452181887
  0
ARC
  5
27D
100
AcDbEntity
  8
0
100
AcDbCircle
 62
7
  6
CONTINUOUS
 10
11.4304511062
 20
8.6818874325
 40
0.8355634512
100
AcDbArc
 50
85.1617665709
 51
87.5452181887
  0
ARC
  5
27E
100
AcDbEntity
  8
0
100
AcDbCircle
 62
7
  6
CONTINUOUS
 10
11.4304511062
 20
8.6818874325
 40
0.8355634512
100
AcDbArc
 50
67.1617665709
 51
69.5452181887
  0
ARC
  5
27F
100
AcDbEntity
  8
0
100
AcDbCircle
 62
7
  6
CONTINUOUS
 10
11.4304511062
 20
8.6818874325
 40
0.8355634512
100
AcDbArc
 50
49.1617665709
 51
51.5452181887
  0
ARC
  5
280
100
AcDbEntity
  8
0
100
AcDbCircle
 62
7
  6
CONTINUOUS
 10
11.4304511062
 20
8.6818874325
 40
0.8355634512
100
AcDbArc
 50
31.1617665709
 51
33.5452181887
  0
ARC
  5
281
100
AcDbEntity
  8
0
100
AcDbCircle
 62
7
  6
CONTINUOUS
 10
11.4304511062
 20
8.6818874325
 40
0.8355634512
100
AcDbArc
 50
13.1617665709
 51
15.5452181887
  0
ARC
  5
282
100
AcDbEntity
  8
0
100
AcDbCircle
 62
7
  6
CONTINUOUS
 10
11.4304511062
 20
8.6818874325
 40
0.5
100
AcDbArc
 50
36.8698976458
 51
143.1301023542
  0
ARC
  5
283
100
AcDbEntity
  8
0
100
AcDbCircle
 62
7
  6
CONTINUOUS
 10
11.4304511062
 20
8.6818874325
 40
0.5
100
AcDbArc
 50
216.8698976458
 51
323.1301023542
  0
ARC
  5
284
100
AcDbEntity
  8
0
100
AcDbCircle
 62
7
  6
CONTINUOUS
 10
11.467793276
 20
9.552938144
 40
0.036287327
100
AcDbArc
 50
182.2374522947
 51
267.5452181887
  0
ARC
  5
285
100
AcDbEntity
  8
0
100
AcDbCircle
 62
7
  6
CONTINUOUS
 10
11.7351350929
 20
9.4987665226
 40
0.036287327
100
AcDbArc
 50
164.2374522947
 51
249.5452181887
  0
ARC
  5
286
100
AcDbEntity
  8
0
100
AcDbCircle
 62
7
  6
CONTINUOUS
 10
11.5039854277
 20
9.5506316314
 40
0.036287327
100
AcDbArc
 50
265.1617665709
 51
350.4695324648
  0
ARC
  5
287
100
AcDbEntity
  8
0
100
AcDbCircle
 62
7
  6
CONTINUOUS
 10
11.9726523184
 20
9.3646330843
 40
0.036287327
100
AcDbArc
 50
146.2374522947
 51
231.5452181887
  0
ARC
  5
288
100
AcDbEntity
  8
0
100
AcDbCircle
 62
7
  6
CONTINUOUS
 10
11.768843123
 20
9.4853889089
 40
0.036287327
100
AcDbArc
 50
247.1617665709
 51
332.4695324648
  0
ARC
  5
289
100
AcDbEntity
  8
0
100
AcDbCircle
 62
7
  6
CONTINUOUS
 10
12.1570951114
 20
9.1636677447
 40
0.036287327
100
AcDbArc
 50
128.2374522947
 51
213.5452181887
  0
ARC
  5
28A
100
AcDbEntity
  8
0
100
AcDbCircle
 62
7
  6
CONTINUOUS
 10
12.00057665
 20
9.3414938635
 40
0.036287327
100
AcDbArc
 50
229.1617665709
 51
314.4695324648
  0
ARC
  5
28B
100
AcDbEntity
  8
0
100
AcDbCircle
 62
7
  6
CONTINUOUS
 10
12.2704089264
 20
8.9155423914
 40
0.036287327
100
AcDbArc
 50
110.2374522947
 51
195.5452181887
  0
ARC
  5
28C
100
AcDbEntity
  8
0
100
AcDbCircle
 62
7
  6
CONTINUOUS
 10
12.1765023165
 20
9.1330319449
 40
0.036287327
100
AcDbArc
 50
211.1617665709
 51
296.4695324648
  0
ARC
  5
28D
100
AcDbEntity
  8
0
100
AcDbCircle
 62
7
  6
CONTINUOUS
 10
12.2793992925
 20
8.8804088581
 40
0.036287327
100
AcDbArc
 50
193.1617665709
 51
278.4695324648
  0
SPLINE
  5
28E
100
AcDbEntity
  8
0
100
AcDbSpline
 62
7
  6
CONTINUOUS
 70
0
 71
3
 72
14
 73
10
 74
0
 42
0.0000001
 43
0.0000001
 44
0.0000000001
 40
0.0
 40
0.0
 40
0.0
 40
0.0
 40
0.0234284684
 40
0.0967678656
 40
0.2233464956
 40
0.4047792397
 40
0.6413422651
 40
0.9356140362
 40
1.0
 40
1.0
 40
1.0
 40
1.0
 10
12.2838724967
 20
8.4045940136
 30
0.0
 10
12.2852802653
 20
8.4041966489
 30
0.0
 10
12.2910464691
 20
8.4027420017
 30
0.0
 10
12.3039753653
 20
8.4008633448
 30
0.0
 10
12.3256086889
 20
8.3995569924
 30
0.0
 10
12.3557959071
 20
8.4006942309
 30
0.0
 10
12.3946742583
 20
8.4059296521
 30
0.0
 10
12.4256246744
 20
8.413183877
 30
0.0
 10
12.4442740995
 20
8.4186609398
 30
0.0
 10
12.4476208681
 20
8.4196788032
 30
0.0
  0
SPLINE
  5
28F
100
AcDbEntity
  8
0
100
AcDbSpline
 62
7
  6
CONTINUOUS
 70
0
 71
3
 72
14
 73
10
 74
0
 42
0.0000001
 43
0.0000001
 44
0.0000000001
 40
0.0
 40
0.0
 40
0.0
 40
0.0
 40
0.0643859638
 40
0.3586577349
 40
0.5952207603
 40
0.7766535044
 40
0.9032321344
 40
0.9765715316
 40
1.0
 40
1.0
 40
1.0
 40
1.0
 10
12.4621375433
 20
8.484375951
 30
0.0
 10
12.4595464936
 20
8.4867261354
 30
0.0
 10
12.4450249645
 20
8.4996460606
 30
0.0
 10
12.4201409717
 20
8.5194283491
 30
0.0
 10
12.3872265289
 20
8.5407725588
 30
0.0
 10
12.3604191017
 20
8.5546981935
 30
0.0
 10
12.3403015285
 20
8.5627598616
 30
0.0
 10
12.3278094139
 20
8.5665851433
 30
0.0
 10
12.3219744947
 20
8.5677335433
 30
0.0
 10
12.3205319092
 20
8.567975738
 30
0.0
  0
SPLINE
  5
290
100
AcDbEntity
  8
0
100
AcDbSpline
 62
7
  6
CONTINUOUS
 70
0
 71
3
 72
14
 73
10
 74
0
 42
0.0000001
 43
0.0000001
 44
0.0000000001
 40
0.0
 40
0.0
 40
0.0
 40
0.0
 40
0.0234284684
 40
0.0967678656
 40
0.2233464956
 40
0.4047792397
 40
0.6413422651
 40
0.9356140362
 40
1.0
 40
1.0
 40
1.0
 40
1.0
 10
12.3277914597
 20
8.6818874325
 30
0.0
 10
12.3292531196
 20
8.6819445407
 30
0.0
 10
12.335186616
 20
8.682342944
 30
0.0
 10
12.3480632639
 20
8.6845514837
 30
0.0
 10
12.3690414624
 20
8.6899941334
 30
0.0
 10
12.3973997869
 20
8.700404075
 30
0.0
 10
12.4327574621
 20
8.7173973276
 30
0.0
 10
12.4599513782
 20
8.73386071
 30
0.0
 10
12.47599553
 20
8.7448326956
 30
0.0
 10
12.478863959
 20
8.7468349495
 30
0.0
  0
SPLINE
  5
291
100
AcDbEntity
  8
0
100
AcDbSpline
 62
7
  6
CONTINUOUS
 70
0
 71
3
 72
14
 73
10
 74
0
 42
0.0000001
 43
0.0000001
 44
0.0000000001
 40
0.0
 40
0.0
 40
0.0
 40
0.0
 40
0.0643859638
 40
0.3586577349
 40
0.5952207603
 40
0.7766535044
 40
0.9032321344
 40
0.9765715316
 40
1.0
 40
1.0
 40
1.0
 40
1.0
 10
12.4726776193
 20
8.8128514929
 30
0.0
 10
12.4694871377
 20
8.8142859728
 30
0.0
 10
12.4516838664
 20
8.8220861525
 30
0.0
 10
12.4219047196
 20
8.8332106502
 30
0.0
 10
12.3840055008
 20
8.8433390777
 30
0.0
 10
12.3542068647
 20
8.8482991928
 30
0.0
 10
12.3325827231
 20
8.8497496228
 30
0.0
 10
12.319519939
 20
8.8495274061
 30
0.0
 10
12.313615726
 20
8.8488165103
 30
0.0
 10
12.3121689034
 20
8.8486010677
 30
0.0
  0
SPLINE
  5
292
100
AcDbEntity
  8
0
100
AcDbSpline
 62
7
  6
CONTINUOUS
 70
0
 71
3
 72
14
 73
10
 74
0
 42
0.0000001
 43
0.0000001
 44
0.0000000001
 40
0.0
 40
0.0
 40
0.0
 40
0.0
 40
0.0234284684
 40
0.0967678656
 40
0.2233464956
 40
0.4047792397
 40
0.6413422651
 40
0.9356140362
 40
1.0
 40
1.0
 40
1.0
 40
1.0
 10
12.2838724967
 20
8.9591808515
 30
0.0
 10
12.2852449705
 20
8.9596868424
 30
0.0
 10
12.2907649476
 20
8.9618992976
 30
0.0
 10
12.3023288911
 20
8.9679788467
 30
0.0
 10
12.3205984722
 20
8.979637734
 30
0.0
 10
12.3443519927
 20
8.998301381
 30
0.0
 10
12.3727279362
 20
9.0253890472
 30
0.0
 10
12.3935034224
 20
9.0494500365
 30
0.0
 10
12.4053717875
 20
9.0648429305
 30
0.0
 10
12.4074810951
 20
9.0676335804
 30
0.0
  0
SPLINE
  5
293
100
AcDbEntity
  8
0
100
AcDbSpline
 62
7
  6
CONTINUOUS
 70
0
 71
3
 72
14
 73
10
 74
0
 42
0.0000001
 43
0.0000001
 44
0.0000000001
 40
0.0
 40
0.0
 40
0.0
 40
0.0
 40
0.0643859638
 40
0.3586577349
 40
0.5952207603
 40
0.7766535044
 40
0.9032321344
 40
0.9765715316
 40
1.0
 40
1.0
 40
1.0
 40
1.0
 10
12.3811973027
 20
9.1285073601
 30
0.0
 10
12.3777196957
 20
9.1288857185
 30
0.0
 10
12.3583773904
 20
9.1308026169
 30
0.0
 10
12.3266180799
 20
9.1321803804
 30
0.0
 10
12.2874439247
 20
9.1301015848
 30
0.0
 10
12.2575709778
 20
9.1256106495
 30
0.0
 10
12.2365569895
 20
9.1203078632
 30
0.0
 10
12.2242022123
 20
9.1160599003
 30
0.0
 10
12.2188066509
 20
9.113559296
 30
0.0
 10
12.2174972163
 20
9.1129073052
 30
0.0
  0
SPLINE
  5
294
100
AcDbEntity
  8
0
100
AcDbSpline
 62
7
  6
CONTINUOUS
 70
0
 71
3
 72
14
 73
10
 74
0
 42
0.0000001
 43
0.0000001
 44
0.0000000001
 40
0.0
 40
0.0
 40
0.0
 40
0.0
 40
0.0234284684
 40
0.0967678656
 40
0.2233464956
 40
0.4047792397
 40
0.6413422651
 40
0.9356140362
 40
1.0
 40
1.0
 40
1.0
 40
1.0
 10
12.1564147019
 20
9.2093308586
 30
0.0
 10
12.1575636423
 20
9.2102362023
 30
0.0
 10
12.1621297662
 20
9.214046139
 30
0.0
 10
12.171249046
 20
9.2234015888
 30
0.0
 10
12.1850216559
 20
9.2401354606
 30
0.0
 10
12.2018452122
 20
9.2652258852
 30
0.0
 10
12.220461789
 20
9.2997564354
 30
0.0
 10
12.2327851959
 20
9.3290597744
 30
0.0
 10
12.239316016
 20
9.347366813
 30
0.0
 10
12.2404597285
 20
9.3506726907
 30
0.0
  0
SPLINE
  5
295
100
AcDbEntity
  8
0
100
AcDbSpline
 62
7
  6
CONTINUOUS
 70
0
 71
3
 72
14
 73
10
 74
0
 42
0.0000001
 43
0.0000001
 44
0.0000000001
 40
0.0
 40
0.0
 40
0.0
 40
0.0
 40
0.0643859638
 40
0.3586577349
 40
0.5952207603
 40
0.7766535044
 40
0.9032321344
 40
0.9765715316
 40
1.0
 40
1.0
 40
1.0
 40
1.0
 10
12.1966513241
 20
9.400444957
 30
0.0
 10
12.1932270041
 20
9.3997301575
 30
0.0
 10
12.1742390244
 20
9.3955761352
 30
0.0
 10
12.1436083729
 20
9.3870722996
 30
0.0
 10
12.1069939204
 20
9.3729897677
 30
0.0
 10
12.079970835
 20
9.3594873862
 30
0.0
 10
12.0616239956
 20
9.3479504572
 30
0.0
 10
12.051186597
 20
9.3400925683
 30
0.0
 10
12.0468278423
 20
9.3360470321
 30
0.0
 10
12.0457839722
 20
9.3350223144
 30
0.0
  0
SPLINE
  5
296
100
AcDbEntity
  8
0
100
AcDbSpline
 62
7
  6
CONTINUOUS
 70
0
 71
3
 72
14
 73
10
 74
0
 42
0.0000001
 43
0.0000001
 44
0.0000000001
 40
0.0
 40
0.0
 40
0.0
 40
0.0
 40
0.0234284684
 40
0.0967678656
 40
0.2233464956
 40
0.4047792397
 40
0.6413422651
 40
0.9356140362
 40
1.0
 40
1.0
 40
1.0
 40
1.0
 10
11.9578945322
 20
9.4078510283
 30
0.0
 10
11.9587074729
 20
9.4090671033
 30
0.0
 10
11.9618727796
 20
9.4141015783
 30
0.0
 10
11.9676547371
 20
9.4258171523
 30
0.0
 10
11.9755822167
 20
9.4459879807
 30
0.0
 10
11.983829002
 20
9.4750491573
 30
0.0
 10
11.9908638918
 20
9.5136425007
 30
0.0
 10
11.9935289185
 20
9.5453197743
 30
0.0
 10
11.9940829115
 20
9.5647489371
 30
0.0
 10
11.9941490744
 20
9.5682464402
 30
0.0
  0
SPLINE
  5
297
100
AcDbEntity
  8
0
100
AcDbSpline
 62
7
  6
CONTINUOUS
 70
0
 71
3
 72
14
 73
10
 74
0
 42
0.0000001
 43
0.0000001
 44
0.0000000001
 40
0.0
 40
0.0
 40
0.0
 40
0.0
 40
0.0643859638
 40
0.3586577349
 40
0.5952207603
 40
0.7766535044
 40
0.9032321344
 40
0.9765715316
 40
1.0
 40
1.0
 40
1.0
 40
1.0
 10
11.9371043297
 20
9.6020451369
 30
0.0
 10
11.934068493
 20
9.6003071492
 30
0.0
 10
11.9172935147
 20
9.5904888308
 30
0.0
 10
11.8907898637
 20
9.5729358106
 30
0.0
 10
11.8603191918
 20
9.5482280388
 30
0.0
 10
11.8387911757
 20
9.5270359183
 30
0.0
 10
11.8249074016
 20
9.5103941616
 30
0.0
 10
11.8174090668
 20
9.4996955317
 30
0.0
 10
11.8145137843
 20
9.4945010689
 30
0.0
 10
11.81383766
 20
9.4932039308
 30
0.0
  0
SPLINE
  5
298
100
AcDbEntity
  8
0
100
AcDbSpline
 62
7
  6
CONTINUOUS
 70
0
 71
3
 72
14
 73
10
 74
0
 42
0.0000001
 43
0.0000001
 44
0.0000000001
 40
0.0
 40
0.0
 40
0.0
 40
0.0
 40
0.0234284684
 40
0.0967678656
 40
0.2233464956
 40
0.4047792397
 40
0.6413422651
 40
0.9356140362
 40
1.0
 40
1.0
 40
1.0
 40
1.0
 10
11.7077445251
 20
9.5353088231
 30
0.0
 10
11.7081418898
 20
9.5367165917
 30
0.0
 10
11.709596537
 20
9.5424827955
 30
0.0
 10
11.7114751939
 20
9.5554116916
 30
0.0
 10
11.7127815463
 20
9.5770450153
 30
0.0
 10
11.7116443077
 20
9.6072322334
 30
0.0
 10
11.7064088866
 20
9.6461105847
 30
0.0
 10
11.6991546617
 20
9.6770610008
 30
0.0
 10
11.6936775989
 20
9.6957104259
 30
0.0
 10
11.6926597355
 20
9.6990571944
 30
0.0
  0
SPLINE
  5
299
100
AcDbEntity
  8
0
100
AcDbSpline
 62
7
  6
CONTINUOUS
 70
0
 71
3
 72
14
 73
10
 74
0
 42
0.0000001
 43
0.0000001
 44
0.0000000001
 40
0.0
 40
0.0
 40
0.0
 40
0.0
 40
0.0643859638
 40
0.3586577349
 40
0.5952207603
 40
0.7766535044
 40
0.9032321344
 40
0.9765715316
 40
1.0
 40
1.0
 40
1.0
 40
1.0
 10
11.6279625877
 20
9.7135738696
 30
0.0
 10
11.6256124033
 20
9.7109828199
 30
0.0
 10
11.6126924781
 20
9.6964612909
 30
0.0
 10
11.5929101896
 20
9.6715772981
 30
0.0
 10
11.5715659799
 20
9.6386628553
 30
0.0
 10
11.5576403452
 20
9.6118554281
 30
0.0
 10
11.5495786771
 20
9.5917378548
 30
0.0
 10
11.5457533954
 20
9.5792457402
 30
0.0
 10
11.5446049954
 20
9.573410821
 30
0.0
 10
11.5443628007
 20
9.5719682355
 30
0.0
  0
SPLINE
  5
29A
100
AcDbEntity
  8
0
100
AcDbSpline
 62
7
  6
CONTINUOUS
 70
0
 71
3
 72
14
 73
10
 74
0
 42
0.0000001
 43
0.0000001
 44
0.0000000001
 40
0.0
 40
0.0
 40
0.0
 40
0.0
 40
0.0234284684
 40
0.0967678656
 40
0.2233464956
 40
0.4047792397
 40
0.6413422651
 40
0.9356140362
 40
1.0
 40
1.0
 40
1.0
 40
1.0
 10
11.4304511062
 20
9.579227786
 30
0.0
 10
11.430393998
 20
9.580689446
 30
0.0
 10
11.4299955947
 20
9.5866229424
 30
0.0
 10
11.427787055
 20
9.5994995902
 30
0.0
 10
11.4223444053
 20
9.6204777887
 30
0.0
 10
11.4119344637
 20
9.6488361133
 30
0.0
 10
11.3949412111
 20
9.6841937884
 30
0.0
 10
11.3784778287
 20
9.7113877045
 30
0.0
 10
11.3675058431
 20
9.7274318563
 30
0.0
 10
11.3655035892
 20
9.7303002853
 30
0.0
  0
SPLINE
  5
29B
100
AcDbEntity
  8
0
100
AcDbSpline
 62
7
  6
CONTINUOUS
 70
0
 71
3
 72
14
 73
10
 74
0
 42
0.0000001
 43
0.0000001
 44
0.0000000001
 40
0.0
 40
0.0
 40
0.0
 40
0.0
 40
0.0643859638
 40
0.3586577349
 40
0.5952207603
 40
0.7766535044
 40
0.9032321344
 40
0.9765715316
 40
1.0
 40
1.0
 40
1.0
 40
1.0
 10
11.2994870458
 20
9.7241139457
 30
0.0
 10
11.2980525659
 20
9.7209234641
 30
0.0
 10
11.2902523862
 20
9.7031201928
 30
0.0
 10
11.2791278885
 20
9.6733410459
 30
0.0
 10
11.268999461
 20
9.6354418271
 30
0.0
 10
11.2640393459
 20
9.6056431911
 30
0.0
 10
11.2625889159
 20
9.5840190494
 30
0.0
 10
11.2628111326
 20
9.5709562654
 30
0.0
 10
11.2635220284
 20
9.5650520523
 30
0.0
 10
11.263737471
 20
9.5636052297
 30
0.0
  0
SPLINE
  5
29C
100
AcDbEntity
  8
0
100
AcDbSpline
 62
7
  6
CONTINUOUS
 70
0
 71
3
 72
14
 73
10
 74
0
 42
0.0000001
 43
0.0000001
 44
0.0000000001
 40
0.0
 40
0.0
 40
0.0
 40
0.0
 40
0.0234284684
 40
0.0967678656
 40
0.2233464956
 40
0.4047792397
 40
0.6413422651
 40
0.9356140362
 40
1.0
 40
1.0
 40
1.0
 40
1.0
 10
11.1531576872
 20
9.5353088231
 30
0.0
 10
11.1526516963
 20
9.5366812969
 30
0.0
 10
11.1504392411
 20
9.542201274
 30
0.0
 10
11.144359692
 20
9.5537652174
 30
0.0
 10
11.1327008047
 20
9.5720347986
 30
0.0
 10
11.1140371577
 20
9.5957883191
 30
0.0
 10
11.0869494915
 20
9.6241642626
 30
0.0
 10
11.0628885022
 20
9.6449397487
 30
0.0
 10
11.0474956082
 20
9.6568081139
 30
0.0
 10
11.0447049583
 20
9.6589174215
 30
0.0
  0
SPLINE
  5
29D
100
AcDbEntity
  8
0
100
AcDbSpline
 62
7
  6
CONTINUOUS
 70
0
 71
3
 72
14
 73
10
 74
0
 42
0.0000001
 43
0.0000001
 44
0.0000000001
 40
0.0
 40
0.0
 40
0.0
 40
0.0
 40
0.0643859638
 40
0.3586577349
 40
0.5952207603
 40
0.7766535044
 40
0.9032321344
 40
0.9765715316
 40
1.0
 40
1.0
 40
1.0
 40
1.0
 10
10.9838311786
 20
9.632633629
 30
0.0
 10
10.9834528202
 20
9.629156022
 30
0.0
 10
10.9815359218
 20
9.6098137167
 30
0.0
 10
10.9801581583
 20
9.5780544063
 30
0.0
 10
10.9822369539
 20
9.538880251
 30
0.0
 10
10.9867278892
 20
9.5090073042
 30
0.0
 10
10.9920306755
 20
9.4879933158
 30
0.0
 10
10.9962786384
 20
9.4756385387
 30
0.0
 10
10.9987792427
 20
9.4702429773
 30
0.0
 10
10.9994312335
 20
9.4689335426
 30
0.0
  0
SPLINE
  5
29E
100
AcDbEntity
  8
0
100
AcDbSpline
 62
7
  6
CONTINUOUS
 70
0
 71
3
 72
14
 73
10
 74
0
 42
0.0000001
 43
0.0000001
 44
0.0000000001
 40
0.0
 40
0.0
 40
0.0
 40
0.0
 40
0.0643859638
 40
0.3586577349
 40
0.5952207603
 40
0.7766535044
 40
0.9032321344
 40
0.9765715316
 40
1.0
 40
1.0
 40
1.0
 40
1.0
 10
12.3506088106
 20
8.175234209
 30
0.0
 10
12.3488708228
 20
8.1782700457
 30
0.0
 10
12.3390525044
 20
8.195045024
 30
0.0
 10
12.3214994842
 20
8.221548675
 30
0.0
 10
12.2967917125
 20
8.2520193469
 30
0.0
 10
12.2755995919
 20
8.273547363
 30
0.0
 10
12.2589578352
 20
8.2874311371
 30
0.0
 10
12.2482592053
 20
8.2949294719
 30
0.0
 10
12.2430647425
 20
8.2978247544
 30
0.0
 10
12.2417676044
 20
8.2985008787
 30
0.0
  0
SPLINE
  5
29F
100
AcDbEntity
  8
0
100
AcDbSpline
 62
7
  6
CONTINUOUS
 70
0
 71
3
 72
14
 73
10
 74
0
 42
0.0000001
 43
0.0000001
 44
0.0000000001
 40
0.0
 40
0.0
 40
0.0
 40
0.0
 40
0.0234284684
 40
0.0967678656
 40
0.2233464956
 40
0.4047792397
 40
0.6413422651
 40
0.9356140362
 40
1.0
 40
1.0
 40
1.0
 40
1.0
 10
12.1564147019
 20
8.1544440065
 30
0.0
 10
12.157630777
 20
8.1536310658
 30
0.0
 10
12.162665252
 20
8.1504657591
 30
0.0
 10
12.174380826
 20
8.1446838016
 30
0.0
 10
12.1945516543
 20
8.136756322
 30
0.0
 10
12.2236128309
 20
8.1285095367
 30
0.0
 10
12.2622061743
 20
8.1214746469
 30
0.0
 10
12.293883448
 20
8.1188096202
 30
0.0
 10
12.3133126107
 20
8.1182556272
 30
0.0
 10
12.3168101139
 20
8.1181894643
 30
0.0
  0
SPLINE
  5
2A0
100
AcDbEntity
  8
0
100
AcDbSpline
 62
7
  6
CONTINUOUS
 70
0
 71
3
 72
14
 73
10
 74
0
 42
0.0000001
 43
0.0000001
 44
0.0000000001
 40
0.0
 40
0.0
 40
0.0
 40
0.0
 40
0.0643859638
 40
0.3586577349
 40
0.5952207603
 40
0.7766535044
 40
0.9032321344
 40
0.9765715316
 40
1.0
 40
1.0
 40
1.0
 40
1.0
 10
12.1490086306
 20
7.9156872146
 30
0.0
 10
12.1482938312
 20
7.9191115346
 30
0.0
 10
12.1441398088
 20
7.9380995143
 30
0.0
 10
12.1356359732
 20
7.9687301658
 30
0.0
 10
12.1215534413
 20
8.0053446183
 30
0.0
 10
12.1080510598
 20
8.0323677037
 30
0.0
 10
12.0965141308
 20
8.0507145431
 30
0.0
 10
12.088656242
 20
8.0611519417
 30
0.0
 10
12.0846107058
 20
8.0655106964
 30
0.0
 10
12.0835859881
 20
8.0665545664
 30
0.0
  0
SPLINE
  5
2A1
100
AcDbEntity
  8
0
100
AcDbSpline
 62
7
  6
CONTINUOUS
 70
0
 71
3
 72
14
 73
10
 74
0
 42
0.0000001
 43
0.0000001
 44
0.0000000001
 40
0.0
 40
0.0
 40
0.0
 40
0.0
 40
0.0234284684
 40
0.0967678656
 40
0.2233464956
 40
0.4047792397
 40
0.6413422651
 40
0.9356140362
 40
1.0
 40
1.0
 40
1.0
 40
1.0
 10
11.9578945322
 20
7.9559238368
 30
0.0
 10
11.9587998759
 20
7.9547748964
 30
0.0
 10
11.9626098126
 20
7.9502087725
 30
0.0
 10
11.9719652625
 20
7.9410894927
 30
0.0
 10
11.9886991343
 20
7.9273168828
 30
0.0
 10
12.0137895588
 20
7.9104933265
 30
0.0
 10
12.0483201091
 20
7.8918767497
 30
0.0
 10
12.077623448
 20
7.8795533428
 30
0.0
 10
12.0959304866
 20
7.8730225227
 30
0.0
 10
12.0992363643
 20
7.8718788102
 30
0.0
  0
SPLINE
  5
2A2
100
AcDbEntity
  8
0
100
AcDbSpline
 62
7
  6
CONTINUOUS
 70
0
 71
3
 72
14
 73
10
 74
0
 42
0.0000001
 43
0.0000001
 44
0.0000000001
 40
0.0
 40
0.0
 40
0.0
 40
0.0
 40
0.0643859638
 40
0.3586577349
 40
0.5952207603
 40
0.7766535044
 40
0.9032321344
 40
0.9765715316
 40
1.0
 40
1.0
 40
1.0
 40
1.0
 10
11.8770710337
 20
7.731141236
 30
0.0
 10
11.8774493921
 20
7.734618843
 30
0.0
 10
11.8793662905
 20
7.7539611483
 30
0.0
 10
11.8807440541
 20
7.7857204588
 30
0.0
 10
11.8786652584
 20
7.824894614
 30
0.0
 10
11.8741743232
 20
7.8547675609
 30
0.0
 10
11.8688715368
 20
7.8757815492
 30
0.0
 10
11.8646235739
 20
7.8881363264
 30
0.0
 10
11.8621229697
 20
7.8935318878
 30
0.0
 10
11.8614709788
 20
7.8948413224
 30
0.0
  0
SPLINE
  5
2A3
100
AcDbEntity
  8
0
100
AcDbSpline
 62
7
  6
CONTINUOUS
 70
0
 71
3
 72
14
 73
10
 74
0
 42
0.0000001
 43
0.0000001
 44
0.0000000001
 40
0.0
 40
0.0
 40
0.0
 40
0.0
 40
0.0234284684
 40
0.0967678656
 40
0.2233464956
 40
0.4047792397
 40
0.6413422651
 40
0.9356140362
 40
1.0
 40
1.0
 40
1.0
 40
1.0
 10
11.7077445251
 20
7.828466042
 30
0.0
 10
11.708250516
 20
7.8270935682
 30
0.0
 10
11.7104629713
 20
7.8215735911
 30
0.0
 10
11.7165425204
 20
7.8100096476
 30
0.0
 10
11.7282014077
 20
7.7917400665
 30
0.0
 10
11.7468650546
 20
7.767986546
 30
0.0
 10
11.7739527208
 20
7.7396106025
 30
0.0
 10
11.7980137102
 20
7.7188351163
 30
0.0
 10
11.8134066041
 20
7.7069667512
 30
0.0
 10
11.8161972541
 20
7.7048574436
 30
0.0
  0
SPLINE
  5
2A4
100
AcDbEntity
  8
0
100
AcDbSpline
 62
7
  6
CONTINUOUS
 70
0
 71
3
 72
14
 73
10
 74
0
 42
0.0000001
 43
0.0000001
 44
0.0000000001
 40
0.0
 40
0.0
 40
0.0
 40
0.0
 40
0.0643859638
 40
0.3586577349
 40
0.5952207603
 40
0.7766535044
 40
0.9032321344
 40
0.9765715316
 40
1.0
 40
1.0
 40
1.0
 40
1.0
 10
11.5614151665
 20
7.6396609194
 30
0.0
 10
11.5628496464
 20
7.642851401
 30
0.0
 10
11.5706498262
 20
7.6606546723
 30
0.0
 10
11.5817743238
 20
7.6904338191
 30
0.0
 10
11.5919027514
 20
7.7283330379
 30
0.0
 10
11.5968628664
 20
7.758131674
 30
0.0
 10
11.5983132964
 20
7.7797558156
 30
0.0
 10
11.5980910797
 20
7.7928185997
 30
0.0
 10
11.5973801839
 20
7.7987228127
 30
0.0
 10
11.5971647413
 20
7.8001696353
 30
0.0
  0
SPLINE
  5
2A5
100
AcDbEntity
  8
0
100
AcDbSpline
 62
7
  6
CONTINUOUS
 70
0
 71
3
 72
14
 73
10
 74
0
 42
0.0000001
 43
0.0000001
 44
0.0000000001
 40
0.0
 40
0.0
 40
0.0
 40
0.0
 40
0.0234284684
 40
0.0967678656
 40
0.2233464956
 40
0.4047792397
 40
0.6413422651
 40
0.9356140362
 40
1.0
 40
1.0
 40
1.0
 40
1.0
 10
11.4304511062
 20
7.784547079
 30
0.0
 10
11.4305082143
 20
7.7830854191
 30
0.0
 10
11.4309066176
 20
7.7771519227
 30
0.0
 10
11.4331151574
 20
7.7642752748
 30
0.0
 10
11.438557807
 20
7.7432970763
 30
0.0
 10
11.4489677486
 20
7.7149387518
 30
0.0
 10
11.4659610013
 20
7.6795810766
 30
0.0
 10
11.4824243837
 20
7.6523871605
 30
0.0
 10
11.4933963692
 20
7.6363430087
 30
0.0
 10
11.4953986232
 20
7.6334745797
 30
0.0
  0
SPLINE
  5
2A6
100
AcDbEntity
  8
0
100
AcDbSpline
 62
7
  6
CONTINUOUS
 70
0
 71
3
 72
14
 73
10
 74
0
 42
0.0000001
 43
0.0000001
 44
0.0000000001
 40
0.0
 40
0.0
 40
0.0
 40
0.0
 40
0.0643859638
 40
0.3586577349
 40
0.5952207603
 40
0.7766535044
 40
0.9032321344
 40
0.9765715316
 40
1.0
 40
1.0
 40
1.0
 40
1.0
 10
11.2329396246
 20
7.6502009954
 30
0.0
 10
11.2352898091
 20
7.6527920451
 30
0.0
 10
11.2482097343
 20
7.6673135742
 30
0.0
 10
11.2679920227
 20
7.692197567
 30
0.0
 10
11.2893362324
 20
7.7251120098
 30
0.0
 10
11.3032618671
 20
7.751919437
 30
0.0
 10
11.3113235352
 20
7.7720370102
 30
0.0
 10
11.3151488169
 20
7.7845291248
 30
0.0
 10
11.316297217
 20
7.790364044
 30
0.0
 10
11.3165394116
 20
7.7918066295
 30
0.0
  0
SPLINE
  5
2A7
100
AcDbEntity
  8
0
100
AcDbSpline
 62
7
  6
CONTINUOUS
 70
0
 71
3
 72
14
 73
10
 74
0
 42
0.0000001
 43
0.0000001
 44
0.0000000001
 40
0.0
 40
0.0
 40
0.0
 40
0.0
 40
0.0234284684
 40
0.0967678656
 40
0.2233464956
 40
0.4047792397
 40
0.6413422651
 40
0.9356140362
 40
1.0
 40
1.0
 40
1.0
 40
1.0
 10
11.1531576872
 20
7.828466042
 30
0.0
 10
11.1527603225
 20
7.8270582734
 30
0.0
 10
11.1513056753
 20
7.8212920696
 30
0.0
 10
11.1494270184
 20
7.8083631734
 30
0.0
 10
11.148120666
 20
7.7867298498
 30
0.0
 10
11.1492579046
 20
7.7565426316
 30
0.0
 10
11.1544933257
 20
7.7176642804
 30
0.0
 10
11.1617475507
 20
7.6867138643
 30
0.0
 10
11.1672246135
 20
7.6680644392
 30
0.0
 10
11.1682424768
 20
7.6647176706
 30
0.0
  0
SPLINE
  5
2A8
100
AcDbEntity
  8
0
100
AcDbSpline
 62
7
  6
CONTINUOUS
 70
0
 71
3
 72
14
 73
10
 74
0
 42
0.0000001
 43
0.0000001
 44
0.0000000001
 40
0.0
 40
0.0
 40
0.0
 40
0.0
 40
0.0643859638
 40
0.3586577349
 40
0.5952207603
 40
0.7766535044
 40
0.9032321344
 40
0.9765715316
 40
1.0
 40
1.0
 40
1.0
 40
1.0
 10
10.9237978826
 20
7.7617297281
 30
0.0
 10
10.9268337193
 20
7.7634677159
 30
0.0
 10
10.9436086976
 20
7.7732860343
 30
0.0
 10
10.9701123486
 20
7.7908390545
 30
0.0
 10
11.0005830205
 20
7.8155468262
 30
0.0
 10
11.0221110367
 20
7.8367389468
 30
0.0
 10
11.0359948107
 20
7.8533807035
 30
0.0
 10
11.0434931455
 20
7.8640793334
 30
0.0
 10
11.0463884281
 20
7.8692737962
 30
0.0
 10
11.0470645523
 20
7.8705709343
 30
0.0
  0
SPLINE
  5
2A9
100
AcDbEntity
  8
0
100
AcDbSpline
 62
7
  6
CONTINUOUS
 70
0
 71
3
 72
14
 73
10
 74
0
 42
0.0000001
 43
0.0000001
 44
0.0000000001
 40
0.0
 40
0.0
 40
0.0
 40
0.0
 40
0.0234284684
 40
0.0967678656
 40
0.2233464956
 40
0.4047792397
 40
0.6413422651
 40
0.9356140362
 40
1.0
 40
1.0
 40
1.0
 40
1.0
 10
10.9030076801
 20
7.9559238368
 30
0.0
 10
10.9021947394
 20
7.9547077617
 30
0.0
 10
10.8990294327
 20
7.9496732867
 30
0.0
 10
10.8932474752
 20
7.9379577127
 30
0.0
 10
10.8853199956
 20
7.9177868844
 30
0.0
 10
10.8770732103
 20
7.8887257078
 30
0.0
 10
10.8700383205
 20
7.8501323644
 30
0.0
 10
10.8673732938
 20
7.8184550907
 30
0.0
 10
10.8668193008
 20
7.799025928
 30
0.0
 10
10.866753138
 20
7.7955284248
 30
0.0
  0
SPLINE
  5
2AA
100
AcDbEntity
  8
0
100
AcDbSpline
 62
7
  6
CONTINUOUS
 70
0
 71
3
 72
14
 73
10
 74
0
 42
0.0000001
 43
0.0000001
 44
0.0000000001
 40
0.0
 40
0.0
 40
0.0
 40
0.0
 40
0.0643859638
 40
0.3586577349
 40
0.5952207603
 40
0.7766535044
 40
0.9032321344
 40
0.9765715316
 40
1.0
 40
1.0
 40
1.0
 40
1.0
 10
10.6642508883
 20
7.9633299081
 30
0.0
 10
10.6676752083
 20
7.9640447075
 30
0.0
 10
10.6866631879
 20
7.9681987299
 30
0.0
 10
10.7172938395
 20
7.9767025655
 30
0.0
 10
10.7539082919
 20
7.9907850974
 30
0.0
 10
10.7809313773
 20
8.0042874789
 30
0.0
 10
10.7992782168
 20
8.0158244079
 30
0.0
 10
10.8097156154
 20
8.0236822967
 30
0.0
 10
10.81407437
 20
8.0277278329
 30
0.0
 10
10.8151182401
 20
8.0287525506
 30
0.0
  0
SPLINE
  5
2AB
100
AcDbEntity
  8
0
100
AcDbSpline
 62
7
  6
CONTINUOUS
 70
0
 71
3
 72
14
 73
10
 74
0
 42
0.0000001
 43
0.0000001
 44
0.0000000001
 40
0.0
 40
0.0
 40
0.0
 40
0.0
 40
0.0234284684
 40
0.0967678656
 40
0.2233464956
 40
0.4047792397
 40
0.6413422651
 40
0.9356140362
 40
1.0
 40
1.0
 40
1.0
 40
1.0
 10
10.7044875104
 20
8.1544440065
 30
0.0
 10
10.7033385701
 20
8.1535386628
 30
0.0
 10
10.6987724462
 20
8.1497287261
 30
0.0
 10
10.6896531664
 20
8.1403732762
 30
0.0
 10
10.6758805565
 20
8.1236394044
 30
0.0
 10
10.6590570001
 20
8.0985489799
 30
0.0
 10
10.6404404233
 20
8.0640184296
 30
0.0
 10
10.6281170164
 20
8.0347150907
 30
0.0
 10
10.6215861963
 20
8.0164080521
 30
0.0
 10
10.6204424838
 20
8.0131021744
 30
0.0
  0
SPLINE
  5
2AC
100
AcDbEntity
  8
0
100
AcDbSpline
 62
7
  6
CONTINUOUS
 70
0
 71
3
 72
14
 73
10
 74
0
 42
0.0000001
 43
0.0000001
 44
0.0000000001
 40
0.0
 40
0.0
 40
0.0
 40
0.0
 40
0.0643859638
 40
0.3586577349
 40
0.5952207603
 40
0.7766535044
 40
0.9032321344
 40
0.9765715316
 40
1.0
 40
1.0
 40
1.0
 40
1.0
 10
10.4797049097
 20
8.235267505
 30
0.0
 10
10.4831825167
 20
8.2348891466
 30
0.0
 10
10.502524822
 20
8.2329722482
 30
0.0
 10
10.5342841324
 20
8.2315944846
 30
0.0
 10
10.5734582877
 20
8.2336732803
 30
0.0
 10
10.6033312345
 20
8.2381642155
 30
0.0
 10
10.6243452229
 20
8.2434670019
 30
0.0
 10
10.6367
 20
8.2477149648
 30
0.0
 10
10.6420955614
 20
8.250215569
 30
0.0
 10
10.6434049961
 20
8.2508675599
 30
0.0
  0
SPLINE
  5
2AD
100
AcDbEntity
  8
0
100
AcDbSpline
 62
7
  6
CONTINUOUS
 70
0
 71
3
 72
14
 73
10
 74
0
 42
0.0000001
 43
0.0000001
 44
0.0000000001
 40
0.0
 40
0.0
 40
0.0
 40
0.0
 40
0.0234284684
 40
0.0967678656
 40
0.2233464956
 40
0.4047792397
 40
0.6413422651
 40
0.9356140362
 40
1.0
 40
1.0
 40
1.0
 40
1.0
 10
10.5770297156
 20
8.4045940136
 30
0.0
 10
10.5756572418
 20
8.4040880227
 30
0.0
 10
10.5701372647
 20
8.4018755674
 30
0.0
 10
10.5585733213
 20
8.3957960183
 30
0.0
 10
10.5403037401
 20
8.384137131
 30
0.0
 10
10.5165502196
 20
8.3654734841
 30
0.0
 10
10.4881742761
 20
8.3383858179
 30
0.0
 10
10.46739879
 20
8.3143248285
 30
0.0
 10
10.4555304248
 20
8.2989319346
 30
0.0
 10
10.4534211172
 20
8.2961412846
 30
0.0
  0
SPLINE
  5
2AE
100
AcDbEntity
  8
0
100
AcDbSpline
 62
7
  6
CONTINUOUS
 70
0
 71
3
 72
14
 73
10
 74
0
 42
0.0000001
 43
0.0000001
 44
0.0000000001
 40
0.0
 40
0.0
 40
0.0
 40
0.0
 40
0.0643859638
 40
0.3586577349
 40
0.5952207603
 40
0.7766535044
 40
0.9032321344
 40
0.9765715316
 40
1.0
 40
1.0
 40
1.0
 40
1.0
 10
10.388224593
 20
8.5509233722
 30
0.0
 10
10.3914150746
 20
8.5494888923
 30
0.0
 10
10.4092183459
 20
8.5416887125
 30
0.0
 10
10.4389974928
 20
8.5305642149
 30
0.0
 10
10.4768967116
 20
8.5204357873
 30
0.0
 10
10.5066953476
 20
8.5154756723
 30
0.0
 10
10.5283194893
 20
8.5140252423
 30
0.0
 10
10.5413822733
 20
8.514247459
 30
0.0
 10
10.5472864864
 20
8.5149583548
 30
0.0
 10
10.548733309
 20
8.5151737974
 30
0.0
  0
SPLINE
  5
2AF
100
AcDbEntity
  8
0
100
AcDbSpline
 62
7
  6
CONTINUOUS
 70
0
 71
3
 72
14
 73
10
 74
0
 42
0.0000001
 43
0.0000001
 44
0.0000000001
 40
0.0
 40
0.0
 40
0.0
 40
0.0
 40
0.0234284684
 40
0.0967678656
 40
0.2233464956
 40
0.4047792397
 40
0.6413422651
 40
0.9356140362
 40
1.0
 40
1.0
 40
1.0
 40
1.0
 10
10.5331107527
 20
8.6818874325
 30
0.0
 10
10.5316490927
 20
8.6818303244
 30
0.0
 10
10.5257155963
 20
8.6814319211
 30
0.0
 10
10.5128389485
 20
8.6792233813
 30
0.0
 10
10.49186075
 20
8.6737807317
 30
0.0
 10
10.4635024254
 20
8.6633707901
 30
0.0
 10
10.4281447503
 20
8.6463775374
 30
0.0
 10
10.4009508342
 20
8.629914155
 30
0.0
 10
10.3849066824
 20
8.6189421695
 30
0.0
 10
10.3820382534
 20
8.6169399155
 30
0.0
  0
SPLINE
  5
2B0
100
AcDbEntity
  8
0
100
AcDbSpline
 62
7
  6
CONTINUOUS
 70
0
 71
3
 72
14
 73
10
 74
0
 42
0.0000001
 43
0.0000001
 44
0.0000000001
 40
0.0
 40
0.0
 40
0.0
 40
0.0
 40
0.0643859638
 40
0.3586577349
 40
0.5952207603
 40
0.7766535044
 40
0.9032321344
 40
0.9765715316
 40
1.0
 40
1.0
 40
1.0
 40
1.0
 10
10.3987646691
 20
8.8793989141
 30
0.0
 10
10.4013557188
 20
8.8770487296
 30
0.0
 10
10.4158772478
 20
8.8641288044
 30
0.0
 10
10.4407612406
 20
8.844346516
 30
0.0
 10
10.4736756834
 20
8.8230023063
 30
0.0
 10
10.5004831106
 20
8.8090766716
 30
0.0
 10
10.5206006839
 20
8.8010150035
 30
0.0
 10
10.5330927985
 20
8.7971897218
 30
0.0
 10
10.5389277177
 20
8.7960413217
 30
0.0
 10
10.5403703032
 20
8.7957991271
 30
0.0
  0
SPLINE
  5
2B1
100
AcDbEntity
  8
0
100
AcDbSpline
 62
7
  6
CONTINUOUS
 70
0
 71
3
 72
14
 73
10
 74
0
 42
0.0000001
 43
0.0000001
 44
0.0000000001
 40
0.0
 40
0.0
 40
0.0
 40
0.0
 40
0.0234284684
 40
0.0967678656
 40
0.2233464956
 40
0.4047792397
 40
0.6413422651
 40
0.9356140362
 40
1.0
 40
1.0
 40
1.0
 40
1.0
 10
10.5770297156
 20
8.9591808515
 30
0.0
 10
10.575621947
 20
8.9595782162
 30
0.0
 10
10.5698557432
 20
8.9610328634
 30
0.0
 10
10.5569268471
 20
8.9629115203
 30
0.0
 10
10.5352935234
 20
8.9642178727
 30
0.0
 10
10.5051063053
 20
8.9630806341
 30
0.0
 10
10.466227954
 20
8.957845213
 30
0.0
 10
10.4352775379
 20
8.950590988
 30
0.0
 10
10.4166281128
 20
8.9451139252
 30
0.0
 10
10.4132813443
 20
8.9440960619
 30
0.0
  0
SPLINE
  5
2B2
100
AcDbEntity
  8
0
100
AcDbSpline
 62
7
  6
CONTINUOUS
 70
0
 71
3
 72
14
 73
10
 74
0
 42
0.0000001
 43
0.0000001
 44
0.0000000001
 40
0.0
 40
0.0
 40
0.0
 40
0.0
 40
0.0643859638
 40
0.3586577349
 40
0.5952207603
 40
0.7766535044
 40
0.9032321344
 40
0.9765715316
 40
1.0
 40
1.0
 40
1.0
 40
1.0
 10
10.5102934018
 20
9.1885406561
 30
0.0
 10
10.5120313895
 20
9.1855048194
 30
0.0
 10
10.5218497079
 20
9.1687298411
 30
0.0
 10
10.5394027281
 20
9.1422261901
 30
0.0
 10
10.5641104999
 20
9.1117555182
 30
0.0
 10
10.5853026204
 20
9.090227502
 30
0.0
 10
10.6019443771
 20
9.076343728
 30
0.0
 10
10.612643007
 20
9.0688453932
 30
0.0
 10
10.6178374698
 20
9.0659501106
 30
0.0
 10
10.6191346079
 20
9.0652739864
 30
0.0
  0
SPLINE
  5
2B3
100
AcDbEntity
  8
0
100
AcDbSpline
 62
7
  6
CONTINUOUS
 70
0
 71
3
 72
14
 73
10
 74
0
 42
0.0000001
 43
0.0000001
 44
0.0000000001
 40
0.0
 40
0.0
 40
0.0
 40
0.0
 40
0.0234284684
 40
0.0967678656
 40
0.2233464956
 40
0.4047792397
 40
0.6413422651
 40
0.9356140362
 40
1.0
 40
1.0
 40
1.0
 40
1.0
 10
10.7044875104
 20
9.2093308586
 30
0.0
 10
10.7032714354
 20
9.2101437993
 30
0.0
 10
10.6982369603
 20
9.213309106
 30
0.0
 10
10.6865213864
 20
9.2190910635
 30
0.0
 10
10.666350558
 20
9.2270185431
 30
0.0
 10
10.6372893814
 20
9.2352653284
 30
0.0
 10
10.598696038
 20
9.2423002182
 30
0.0
 10
10.5670187644
 20
9.2449652449
 30
0.0
 10
10.5475896016
 20
9.2455192379
 30
0.0
 10
10.5440920985
 20
9.2455854007
 30
0.0
  0
SPLINE
  5
2B4
100
AcDbEntity
  8
0
100
AcDbSpline
 62
7
  6
CONTINUOUS
 70
0
 71
3
 72
14
 73
10
 74
0
 42
0.0000001
 43
0.0000001
 44
0.0000000001
 40
0.0
 40
0.0
 40
0.0
 40
0.0
 40
0.0643859638
 40
0.3586577349
 40
0.5952207603
 40
0.7766535044
 40
0.9032321344
 40
0.9765715316
 40
1.0
 40
1.0
 40
1.0
 40
1.0
 10
10.7118935817
 20
9.4480876504
 30
0.0
 10
10.7126083812
 20
9.4446633304
 30
0.0
 10
10.7167624035
 20
9.4256753508
 30
0.0
 10
10.7252662391
 20
9.3950446992
 30
0.0
 10
10.739348771
 20
9.3584302468
 30
0.0
 10
10.7528511525
 20
9.3314071614
 30
0.0
 10
10.7643880815
 20
9.3130603219
 30
0.0
 10
10.7722459704
 20
9.3026229233
 30
0.0
 10
10.7762915066
 20
9.2982641687
 30
0.0
 10
10.7773162243
 20
9.2972202986
 30
0.0
  0
SPLINE
  5
2B5
100
AcDbEntity
  8
0
100
AcDbSpline
 62
7
  6
CONTINUOUS
 70
0
 71
3
 72
14
 73
10
 74
0
 42
0.0000001
 43
0.0000001
 44
0.0000000001
 40
0.0
 40
0.0
 40
0.0
 40
0.0
 40
0.0234284684
 40
0.0967678656
 40
0.2233464956
 40
0.4047792397
 40
0.6413422651
 40
0.9356140362
 40
1.0
 40
1.0
 40
1.0
 40
1.0
 10
10.9030076801
 20
9.4078510283
 30
0.0
 10
10.9021023364
 20
9.4089999686
 30
0.0
 10
10.8982923997
 20
9.4135660925
 30
0.0
 10
10.8889369499
 20
9.4226853723
 30
0.0
 10
10.8722030781
 20
9.4364579822
 30
0.0
 10
10.8471126535
 20
9.4532815386
 30
0.0
 10
10.8125821033
 20
9.4718981154
 30
0.0
 10
10.7832787643
 20
9.4842215223
 30
0.0
 10
10.7649717257
 20
9.4907523424
 30
0.0
 10
10.761665848
 20
9.4918960549
 30
0.0
  0
ENDSEC
  0
SECTION
  2
OBJECTS
  0
DICTIONARY
  5
C
100
AcDbDictionary
280
0
281
1
  3
ACAD_GROUP
350
D
  3
ACAD_MLINESTYLE
350
17
  3
ACAD_LAYOUT
350
1A
  3
ACAD_PLOTSETTINGS
350
19
  3
ACAD_PLOTSTYLENAME
350
E
  0
DICTIONARY
  5
D
102
{ACAD_REACTORS
330
C
102
}
100
AcDbDictionary
280
0
281
1
  0
ACDBDICTIONARYWDFLT
  5
E
102
{ACAD_REACTORS
330
C
102
}
100
AcDbDictionary
281
1
  3
Normal
350
F
100
AcDbDictionaryWithDefault
340
F
  0
DICTIONARY
  5
17
102
{ACAD_REACTORS
330
C
102
}
100
AcDbDictionary
280
0
281
1
  3
Standard
350
18
  0
DICTIONARY
  5
19
102
{ACAD_REACTORS
330
C
102
}
100
AcDbDictionary
281
1
  0
DICTIONARY
  5
1A
102
{ACAD_REACTORS
330
C
102
}
100
AcDbDictionary
281
1
  3
Model
350
2B6
  3
Layout1
350
2B7
  0
ACDBPLACEHOLDER
  5
F
102
{ACAD_REACTORS
330
E
102
}
  0
MLINESTYLE
  5
18
102
{ACAD_REACTORS
330
17
102
}
100
AcDbMlineStyle
  2
STANDARD
 70
0
  3

 62
256
 51
90.0
 52
90.0
 71
2
 49
0.5
 62
256
  6
BYLAYER
 49
-0.5
 62
256
  6
BYLAYER
  0
LAYOUT
  5
2B6
102
{ACAD_REACTORS
330
1A
102
}
100
AcDbPlotSettings
  1

  2
none_device
  4
ANSI_C_(22.00_x_17.00_Inches)
  6

 40
0.0
 41
0.0
 42
0.0
 43
0.0
 44
558.8
 45
431.8
 46
0.0
 47
0.0
 48
0.0
 49
0.0
140
0.0
141
0.0
142
1.0
143
1.0
 70
1024
 72
0
 73
0
 74
0
  7

 75
0
147
1.0
148
0.0
149
0.0
100
AcDbLayout
  1
Model
 70
0
 71
0
 10
0.0
 20
0.0
 11
22.0
 21
17.0
 12
0.0
 22
0.0
 32
0.0
 14
0.0
 24
0.0
 34
0.0
 15
0.0
 25
0.0
 35
0.0
146
0.0
 13
0.0
 23
0.0
 33
0.0
 16
1.0
 26
0.0
 36
0.0
 17
0.0
 27
1.0
 37
0.0
 76
0
330
207
345
0
346
0
  0
LAYOUT
  5
2B7
102
{ACAD_REACTORS
330
1A
102
}
100
AcDbPlotSettings
  1

  2
none_device
  4
ANSI_C_(22.00_x_17.00_Inches)
  6

 40
0.0
 41
0.0
 42
0.0
 43
0.0
 44
558.8
 45
431.8
 46
0.0
 47
0.0
 48
0.0
 49
0.0
140
0.0
141
0.0
142
1.0
143
1.0
 70
0
 72
0
 73
0
 74
0
  7

 75
0
147
1.0
148
0.0
149
0.0
100
AcDbLayout
  1
Layout1
 70
0
 71
1
 10
0.0
 20
0.0
 11
22.0
 21
17.0
 12
0.0
 22
0.0
 32
0.0
 14
0.0
 24
0.0
 34
0.0
 15
0.0
 25
0.0
 35
0.0
146
0.0
 13
0.0
 23
0.0
 33
0.0
 16
1.0
 26
0.0
 36
0.0
 17
0.0
 27
1.0
 37
0.0
 76
0
330
208
345
0
346
0
  0
ENDSEC
  0
EOF
